%TF.GenerationSoftware,KiCad,Pcbnew,9.0.7*%
%TF.CreationDate,2026-04-13T19:26:54+02:00*%
%TF.ProjectId,air_quality_sensor,6169725f-7175-4616-9c69-74795f73656e,1.0*%
%TF.SameCoordinates,Original*%
%TF.FileFunction,Legend,Top*%
%TF.FilePolarity,Positive*%
%FSLAX46Y46*%
G04 Gerber Fmt 4.6, Leading zero omitted, Abs format (unit mm)*
G04 Created by KiCad (PCBNEW 9.0.7) date 2026-04-13 19:26:54*
%MOMM*%
%LPD*%
G01*
G04 APERTURE LIST*
G04 Aperture macros list*
%AMRoundRect*
0 Rectangle with rounded corners*
0 $1 Rounding radius*
0 $2 $3 $4 $5 $6 $7 $8 $9 X,Y pos of 4 corners*
0 Add a 4 corners polygon primitive as box body*
4,1,4,$2,$3,$4,$5,$6,$7,$8,$9,$2,$3,0*
0 Add four circle primitives for the rounded corners*
1,1,$1+$1,$2,$3*
1,1,$1+$1,$4,$5*
1,1,$1+$1,$6,$7*
1,1,$1+$1,$8,$9*
0 Add four rect primitives between the rounded corners*
20,1,$1+$1,$2,$3,$4,$5,0*
20,1,$1+$1,$4,$5,$6,$7,0*
20,1,$1+$1,$6,$7,$8,$9,0*
20,1,$1+$1,$8,$9,$2,$3,0*%
G04 Aperture macros list end*
%ADD10C,0.200000*%
%ADD11C,0.300000*%
%ADD12C,0.150000*%
%ADD13C,0.127000*%
%ADD14C,0.120000*%
%ADD15C,0.100000*%
%ADD16C,0.010000*%
%ADD17R,0.550000X0.400000*%
%ADD18RoundRect,0.135000X-0.185000X0.135000X-0.185000X-0.135000X0.185000X-0.135000X0.185000X0.135000X0*%
%ADD19RoundRect,0.212500X-0.737500X-0.212500X0.737500X-0.212500X0.737500X0.212500X-0.737500X0.212500X0*%
%ADD20RoundRect,0.212500X-0.212500X-0.737500X0.212500X-0.737500X0.212500X0.737500X-0.212500X0.737500X0*%
%ADD21R,4.800000X4.800000*%
%ADD22C,1.000000*%
%ADD23RoundRect,0.225000X-0.250000X0.225000X-0.250000X-0.225000X0.250000X-0.225000X0.250000X0.225000X0*%
%ADD24RoundRect,0.140000X-0.170000X0.140000X-0.170000X-0.140000X0.170000X-0.140000X0.170000X0.140000X0*%
%ADD25RoundRect,0.250000X0.250000X0.475000X-0.250000X0.475000X-0.250000X-0.475000X0.250000X-0.475000X0*%
%ADD26RoundRect,0.200000X0.335876X0.053033X0.053033X0.335876X-0.335876X-0.053033X-0.053033X-0.335876X0*%
%ADD27RoundRect,0.140000X0.140000X0.170000X-0.140000X0.170000X-0.140000X-0.170000X0.140000X-0.170000X0*%
%ADD28C,0.650000*%
%ADD29RoundRect,0.150000X-0.150000X-0.425000X0.150000X-0.425000X0.150000X0.425000X-0.150000X0.425000X0*%
%ADD30RoundRect,0.075000X-0.075000X-0.500000X0.075000X-0.500000X0.075000X0.500000X-0.075000X0.500000X0*%
%ADD31RoundRect,0.250000X-0.840000X-0.750000X0.840000X-0.750000X0.840000X0.750000X-0.840000X0.750000X0*%
%ADD32C,4.700000*%
%ADD33RoundRect,0.140000X0.170000X-0.140000X0.170000X0.140000X-0.170000X0.140000X-0.170000X-0.140000X0*%
%ADD34RoundRect,0.200000X0.275000X-0.200000X0.275000X0.200000X-0.275000X0.200000X-0.275000X-0.200000X0*%
%ADD35RoundRect,0.250000X-1.045000X0.785000X-1.045000X-0.785000X1.045000X-0.785000X1.045000X0.785000X0*%
%ADD36R,1.000000X0.900000*%
%ADD37RoundRect,0.250000X-1.500000X-0.550000X1.500000X-0.550000X1.500000X0.550000X-1.500000X0.550000X0*%
%ADD38RoundRect,0.218750X0.256250X-0.218750X0.256250X0.218750X-0.256250X0.218750X-0.256250X-0.218750X0*%
%ADD39RoundRect,0.200000X-0.275000X0.200000X-0.275000X-0.200000X0.275000X-0.200000X0.275000X0.200000X0*%
%ADD40RoundRect,0.135000X0.185000X-0.135000X0.185000X0.135000X-0.185000X0.135000X-0.185000X-0.135000X0*%
%ADD41RoundRect,0.087500X0.087500X-0.250000X0.087500X0.250000X-0.087500X0.250000X-0.087500X-0.250000X0*%
%ADD42RoundRect,0.225000X-0.225000X-0.250000X0.225000X-0.250000X0.225000X0.250000X-0.225000X0.250000X0*%
%ADD43R,0.500000X0.300000*%
%ADD44R,3.400000X0.980000*%
%ADD45C,2.000000*%
%ADD46R,0.700000X0.700000*%
%ADD47RoundRect,0.075000X0.075000X0.075000X-0.075000X0.075000X-0.075000X-0.075000X0.075000X-0.075000X0*%
%ADD48RoundRect,0.150000X0.512500X0.150000X-0.512500X0.150000X-0.512500X-0.150000X0.512500X-0.150000X0*%
%ADD49RoundRect,0.225000X0.250000X-0.225000X0.250000X0.225000X-0.250000X0.225000X-0.250000X-0.225000X0*%
%ADD50RoundRect,0.050000X0.300000X-0.150000X0.300000X0.150000X-0.300000X0.150000X-0.300000X-0.150000X0*%
%ADD51R,0.900000X1.500000*%
%ADD52C,0.600000*%
%ADD53R,2.900000X2.900000*%
%ADD54RoundRect,0.250000X0.700000X-0.275000X0.700000X0.275000X-0.700000X0.275000X-0.700000X-0.275000X0*%
%ADD55RoundRect,0.140000X-0.140000X-0.170000X0.140000X-0.170000X0.140000X0.170000X-0.140000X0.170000X0*%
%ADD56R,0.500000X0.350000*%
%ADD57RoundRect,0.150000X-0.150000X-0.625000X0.150000X-0.625000X0.150000X0.625000X-0.150000X0.625000X0*%
%ADD58RoundRect,0.250000X-0.350000X-0.650000X0.350000X-0.650000X0.350000X0.650000X-0.350000X0.650000X0*%
%ADD59RoundRect,0.218750X0.218750X0.256250X-0.218750X0.256250X-0.218750X-0.256250X0.218750X-0.256250X0*%
%ADD60RoundRect,0.225000X0.225000X0.250000X-0.225000X0.250000X-0.225000X-0.250000X0.225000X-0.250000X0*%
%ADD61RoundRect,0.250000X0.625000X-0.375000X0.625000X0.375000X-0.625000X0.375000X-0.625000X-0.375000X0*%
G04 APERTURE END LIST*
D10*
X129706857Y-80192409D02*
X129849714Y-80240028D01*
X129849714Y-80240028D02*
X129897333Y-80287647D01*
X129897333Y-80287647D02*
X129944952Y-80382885D01*
X129944952Y-80382885D02*
X129944952Y-80525742D01*
X129944952Y-80525742D02*
X129897333Y-80620980D01*
X129897333Y-80620980D02*
X129849714Y-80668600D01*
X129849714Y-80668600D02*
X129754476Y-80716219D01*
X129754476Y-80716219D02*
X129373524Y-80716219D01*
X129373524Y-80716219D02*
X129373524Y-79716219D01*
X129373524Y-79716219D02*
X129706857Y-79716219D01*
X129706857Y-79716219D02*
X129802095Y-79763838D01*
X129802095Y-79763838D02*
X129849714Y-79811457D01*
X129849714Y-79811457D02*
X129897333Y-79906695D01*
X129897333Y-79906695D02*
X129897333Y-80001933D01*
X129897333Y-80001933D02*
X129849714Y-80097171D01*
X129849714Y-80097171D02*
X129802095Y-80144790D01*
X129802095Y-80144790D02*
X129706857Y-80192409D01*
X129706857Y-80192409D02*
X129373524Y-80192409D01*
X130564000Y-79716219D02*
X130754476Y-79716219D01*
X130754476Y-79716219D02*
X130849714Y-79763838D01*
X130849714Y-79763838D02*
X130944952Y-79859076D01*
X130944952Y-79859076D02*
X130992571Y-80049552D01*
X130992571Y-80049552D02*
X130992571Y-80382885D01*
X130992571Y-80382885D02*
X130944952Y-80573361D01*
X130944952Y-80573361D02*
X130849714Y-80668600D01*
X130849714Y-80668600D02*
X130754476Y-80716219D01*
X130754476Y-80716219D02*
X130564000Y-80716219D01*
X130564000Y-80716219D02*
X130468762Y-80668600D01*
X130468762Y-80668600D02*
X130373524Y-80573361D01*
X130373524Y-80573361D02*
X130325905Y-80382885D01*
X130325905Y-80382885D02*
X130325905Y-80049552D01*
X130325905Y-80049552D02*
X130373524Y-79859076D01*
X130373524Y-79859076D02*
X130468762Y-79763838D01*
X130468762Y-79763838D02*
X130564000Y-79716219D01*
X131611619Y-79716219D02*
X131802095Y-79716219D01*
X131802095Y-79716219D02*
X131897333Y-79763838D01*
X131897333Y-79763838D02*
X131992571Y-79859076D01*
X131992571Y-79859076D02*
X132040190Y-80049552D01*
X132040190Y-80049552D02*
X132040190Y-80382885D01*
X132040190Y-80382885D02*
X131992571Y-80573361D01*
X131992571Y-80573361D02*
X131897333Y-80668600D01*
X131897333Y-80668600D02*
X131802095Y-80716219D01*
X131802095Y-80716219D02*
X131611619Y-80716219D01*
X131611619Y-80716219D02*
X131516381Y-80668600D01*
X131516381Y-80668600D02*
X131421143Y-80573361D01*
X131421143Y-80573361D02*
X131373524Y-80382885D01*
X131373524Y-80382885D02*
X131373524Y-80049552D01*
X131373524Y-80049552D02*
X131421143Y-79859076D01*
X131421143Y-79859076D02*
X131516381Y-79763838D01*
X131516381Y-79763838D02*
X131611619Y-79716219D01*
X132325905Y-79716219D02*
X132897333Y-79716219D01*
X132611619Y-80716219D02*
X132611619Y-79716219D01*
D11*
X118244257Y-101072274D02*
X118244257Y-100357989D01*
X118672828Y-101268703D02*
X117172828Y-100581203D01*
X117172828Y-100581203D02*
X118672828Y-100268703D01*
X118672828Y-99768703D02*
X117672828Y-99643703D01*
X117172828Y-99581203D02*
X117244257Y-99661560D01*
X117244257Y-99661560D02*
X117315685Y-99599060D01*
X117315685Y-99599060D02*
X117244257Y-99518703D01*
X117244257Y-99518703D02*
X117172828Y-99581203D01*
X117172828Y-99581203D02*
X117315685Y-99599060D01*
X118672828Y-99054417D02*
X117672828Y-98929417D01*
X117958542Y-98965132D02*
X117815685Y-98875846D01*
X117815685Y-98875846D02*
X117744257Y-98795489D01*
X117744257Y-98795489D02*
X117672828Y-98643703D01*
X117672828Y-98643703D02*
X117672828Y-98500846D01*
X118815685Y-96000846D02*
X118744257Y-96134775D01*
X118744257Y-96134775D02*
X118601400Y-96259775D01*
X118601400Y-96259775D02*
X118387114Y-96447275D01*
X118387114Y-96447275D02*
X118315685Y-96581204D01*
X118315685Y-96581204D02*
X118315685Y-96724061D01*
X118672828Y-96697275D02*
X118601400Y-96831204D01*
X118601400Y-96831204D02*
X118458542Y-96956204D01*
X118458542Y-96956204D02*
X118172828Y-96991918D01*
X118172828Y-96991918D02*
X117672828Y-96929418D01*
X117672828Y-96929418D02*
X117387114Y-96822275D01*
X117387114Y-96822275D02*
X117244257Y-96661561D01*
X117244257Y-96661561D02*
X117172828Y-96509775D01*
X117172828Y-96509775D02*
X117172828Y-96224061D01*
X117172828Y-96224061D02*
X117244257Y-96090132D01*
X117244257Y-96090132D02*
X117387114Y-95965132D01*
X117387114Y-95965132D02*
X117672828Y-95929418D01*
X117672828Y-95929418D02*
X118172828Y-95991918D01*
X118172828Y-95991918D02*
X118458542Y-96099061D01*
X118458542Y-96099061D02*
X118601400Y-96259775D01*
X118601400Y-96259775D02*
X118672828Y-96411561D01*
X118672828Y-96411561D02*
X118672828Y-96697275D01*
X117672828Y-94643703D02*
X118672828Y-94768703D01*
X117672828Y-95286560D02*
X118458542Y-95384775D01*
X118458542Y-95384775D02*
X118601400Y-95331203D01*
X118601400Y-95331203D02*
X118672828Y-95197275D01*
X118672828Y-95197275D02*
X118672828Y-94982989D01*
X118672828Y-94982989D02*
X118601400Y-94831203D01*
X118601400Y-94831203D02*
X118529971Y-94750846D01*
X118672828Y-93411560D02*
X117887114Y-93313346D01*
X117887114Y-93313346D02*
X117744257Y-93366917D01*
X117744257Y-93366917D02*
X117672828Y-93500846D01*
X117672828Y-93500846D02*
X117672828Y-93786560D01*
X117672828Y-93786560D02*
X117744257Y-93938346D01*
X118601400Y-93402632D02*
X118672828Y-93554417D01*
X118672828Y-93554417D02*
X118672828Y-93911560D01*
X118672828Y-93911560D02*
X118601400Y-94045489D01*
X118601400Y-94045489D02*
X118458542Y-94099060D01*
X118458542Y-94099060D02*
X118315685Y-94081203D01*
X118315685Y-94081203D02*
X118172828Y-93991917D01*
X118172828Y-93991917D02*
X118101400Y-93840132D01*
X118101400Y-93840132D02*
X118101400Y-93482989D01*
X118101400Y-93482989D02*
X118029971Y-93331203D01*
X118672828Y-92482989D02*
X118601400Y-92616917D01*
X118601400Y-92616917D02*
X118458542Y-92670489D01*
X118458542Y-92670489D02*
X117172828Y-92509774D01*
X118672828Y-91911560D02*
X117672828Y-91786560D01*
X117172828Y-91724060D02*
X117244257Y-91804417D01*
X117244257Y-91804417D02*
X117315685Y-91741917D01*
X117315685Y-91741917D02*
X117244257Y-91661560D01*
X117244257Y-91661560D02*
X117172828Y-91724060D01*
X117172828Y-91724060D02*
X117315685Y-91741917D01*
X117672828Y-91286560D02*
X117672828Y-90715131D01*
X117172828Y-91009774D02*
X118458542Y-91170489D01*
X118458542Y-91170489D02*
X118601400Y-91116917D01*
X118601400Y-91116917D02*
X118672828Y-90982989D01*
X118672828Y-90982989D02*
X118672828Y-90840131D01*
X117672828Y-90357988D02*
X118672828Y-90125846D01*
X117672828Y-89643703D02*
X118672828Y-90125846D01*
X118672828Y-90125846D02*
X119029971Y-90313346D01*
X119029971Y-90313346D02*
X119101400Y-90393703D01*
X119101400Y-90393703D02*
X119172828Y-90545488D01*
X118601400Y-88116917D02*
X118672828Y-87911560D01*
X118672828Y-87911560D02*
X118672828Y-87554417D01*
X118672828Y-87554417D02*
X118601400Y-87402632D01*
X118601400Y-87402632D02*
X118529971Y-87322274D01*
X118529971Y-87322274D02*
X118387114Y-87232989D01*
X118387114Y-87232989D02*
X118244257Y-87215132D01*
X118244257Y-87215132D02*
X118101400Y-87268703D01*
X118101400Y-87268703D02*
X118029971Y-87331203D01*
X118029971Y-87331203D02*
X117958542Y-87465132D01*
X117958542Y-87465132D02*
X117887114Y-87741917D01*
X117887114Y-87741917D02*
X117815685Y-87875846D01*
X117815685Y-87875846D02*
X117744257Y-87938346D01*
X117744257Y-87938346D02*
X117601400Y-87991917D01*
X117601400Y-87991917D02*
X117458542Y-87974060D01*
X117458542Y-87974060D02*
X117315685Y-87884774D01*
X117315685Y-87884774D02*
X117244257Y-87804417D01*
X117244257Y-87804417D02*
X117172828Y-87652632D01*
X117172828Y-87652632D02*
X117172828Y-87295489D01*
X117172828Y-87295489D02*
X117244257Y-87090132D01*
X118601400Y-86045489D02*
X118672828Y-86197275D01*
X118672828Y-86197275D02*
X118672828Y-86482989D01*
X118672828Y-86482989D02*
X118601400Y-86616918D01*
X118601400Y-86616918D02*
X118458542Y-86670489D01*
X118458542Y-86670489D02*
X117887114Y-86599061D01*
X117887114Y-86599061D02*
X117744257Y-86509775D01*
X117744257Y-86509775D02*
X117672828Y-86357989D01*
X117672828Y-86357989D02*
X117672828Y-86072275D01*
X117672828Y-86072275D02*
X117744257Y-85938346D01*
X117744257Y-85938346D02*
X117887114Y-85884775D01*
X117887114Y-85884775D02*
X118029971Y-85902632D01*
X118029971Y-85902632D02*
X118172828Y-86634775D01*
X117672828Y-85215132D02*
X118672828Y-85340132D01*
X117815685Y-85232989D02*
X117744257Y-85152632D01*
X117744257Y-85152632D02*
X117672828Y-85000847D01*
X117672828Y-85000847D02*
X117672828Y-84786561D01*
X117672828Y-84786561D02*
X117744257Y-84652632D01*
X117744257Y-84652632D02*
X117887114Y-84599061D01*
X117887114Y-84599061D02*
X118672828Y-84697275D01*
X118601400Y-84045489D02*
X118672828Y-83911561D01*
X118672828Y-83911561D02*
X118672828Y-83625846D01*
X118672828Y-83625846D02*
X118601400Y-83474061D01*
X118601400Y-83474061D02*
X118458542Y-83384775D01*
X118458542Y-83384775D02*
X118387114Y-83375846D01*
X118387114Y-83375846D02*
X118244257Y-83429418D01*
X118244257Y-83429418D02*
X118172828Y-83563346D01*
X118172828Y-83563346D02*
X118172828Y-83777632D01*
X118172828Y-83777632D02*
X118101400Y-83911561D01*
X118101400Y-83911561D02*
X117958542Y-83965132D01*
X117958542Y-83965132D02*
X117887114Y-83956204D01*
X117887114Y-83956204D02*
X117744257Y-83866918D01*
X117744257Y-83866918D02*
X117672828Y-83715132D01*
X117672828Y-83715132D02*
X117672828Y-83500846D01*
X117672828Y-83500846D02*
X117744257Y-83366918D01*
X118672828Y-82554418D02*
X118601400Y-82688346D01*
X118601400Y-82688346D02*
X118529971Y-82750846D01*
X118529971Y-82750846D02*
X118387114Y-82804418D01*
X118387114Y-82804418D02*
X117958542Y-82750846D01*
X117958542Y-82750846D02*
X117815685Y-82661560D01*
X117815685Y-82661560D02*
X117744257Y-82581203D01*
X117744257Y-82581203D02*
X117672828Y-82429418D01*
X117672828Y-82429418D02*
X117672828Y-82215132D01*
X117672828Y-82215132D02*
X117744257Y-82081203D01*
X117744257Y-82081203D02*
X117815685Y-82018703D01*
X117815685Y-82018703D02*
X117958542Y-81965132D01*
X117958542Y-81965132D02*
X118387114Y-82018703D01*
X118387114Y-82018703D02*
X118529971Y-82107989D01*
X118529971Y-82107989D02*
X118601400Y-82188346D01*
X118601400Y-82188346D02*
X118672828Y-82340132D01*
X118672828Y-82340132D02*
X118672828Y-82554418D01*
X118672828Y-81411560D02*
X117672828Y-81286560D01*
X117958542Y-81322275D02*
X117815685Y-81232989D01*
X117815685Y-81232989D02*
X117744257Y-81152632D01*
X117744257Y-81152632D02*
X117672828Y-81000846D01*
X117672828Y-81000846D02*
X117672828Y-80857989D01*
D12*
X120773819Y-101263220D02*
X120107152Y-101263220D01*
X120297628Y-101263220D02*
X120202390Y-101215601D01*
X120202390Y-101215601D02*
X120154771Y-101167982D01*
X120154771Y-101167982D02*
X120107152Y-101072744D01*
X120107152Y-101072744D02*
X120107152Y-100977506D01*
X120726200Y-100263220D02*
X120773819Y-100358458D01*
X120773819Y-100358458D02*
X120773819Y-100548934D01*
X120773819Y-100548934D02*
X120726200Y-100644172D01*
X120726200Y-100644172D02*
X120630961Y-100691791D01*
X120630961Y-100691791D02*
X120250009Y-100691791D01*
X120250009Y-100691791D02*
X120154771Y-100644172D01*
X120154771Y-100644172D02*
X120107152Y-100548934D01*
X120107152Y-100548934D02*
X120107152Y-100358458D01*
X120107152Y-100358458D02*
X120154771Y-100263220D01*
X120154771Y-100263220D02*
X120250009Y-100215601D01*
X120250009Y-100215601D02*
X120345247Y-100215601D01*
X120345247Y-100215601D02*
X120440485Y-100691791D01*
X120107152Y-99882267D02*
X120773819Y-99644172D01*
X120773819Y-99644172D02*
X120107152Y-99406077D01*
X120773819Y-97739410D02*
X120773819Y-98310838D01*
X120773819Y-98025124D02*
X119773819Y-98025124D01*
X119773819Y-98025124D02*
X119916676Y-98120362D01*
X119916676Y-98120362D02*
X120011914Y-98215600D01*
X120011914Y-98215600D02*
X120059533Y-98310838D01*
X121107152Y-96310838D02*
X119678580Y-96310838D01*
X120678580Y-94263219D02*
X120726200Y-94310838D01*
X120726200Y-94310838D02*
X120773819Y-94453695D01*
X120773819Y-94453695D02*
X120773819Y-94548933D01*
X120773819Y-94548933D02*
X120726200Y-94691790D01*
X120726200Y-94691790D02*
X120630961Y-94787028D01*
X120630961Y-94787028D02*
X120535723Y-94834647D01*
X120535723Y-94834647D02*
X120345247Y-94882266D01*
X120345247Y-94882266D02*
X120202390Y-94882266D01*
X120202390Y-94882266D02*
X120011914Y-94834647D01*
X120011914Y-94834647D02*
X119916676Y-94787028D01*
X119916676Y-94787028D02*
X119821438Y-94691790D01*
X119821438Y-94691790D02*
X119773819Y-94548933D01*
X119773819Y-94548933D02*
X119773819Y-94453695D01*
X119773819Y-94453695D02*
X119821438Y-94310838D01*
X119821438Y-94310838D02*
X119869057Y-94263219D01*
X120773819Y-92501314D02*
X120297628Y-92834647D01*
X120773819Y-93072742D02*
X119773819Y-93072742D01*
X119773819Y-93072742D02*
X119773819Y-92691790D01*
X119773819Y-92691790D02*
X119821438Y-92596552D01*
X119821438Y-92596552D02*
X119869057Y-92548933D01*
X119869057Y-92548933D02*
X119964295Y-92501314D01*
X119964295Y-92501314D02*
X120107152Y-92501314D01*
X120107152Y-92501314D02*
X120202390Y-92548933D01*
X120202390Y-92548933D02*
X120250009Y-92596552D01*
X120250009Y-92596552D02*
X120297628Y-92691790D01*
X120297628Y-92691790D02*
X120297628Y-93072742D01*
X120773819Y-91929885D02*
X120726200Y-92025123D01*
X120726200Y-92025123D02*
X120678580Y-92072742D01*
X120678580Y-92072742D02*
X120583342Y-92120361D01*
X120583342Y-92120361D02*
X120297628Y-92120361D01*
X120297628Y-92120361D02*
X120202390Y-92072742D01*
X120202390Y-92072742D02*
X120154771Y-92025123D01*
X120154771Y-92025123D02*
X120107152Y-91929885D01*
X120107152Y-91929885D02*
X120107152Y-91787028D01*
X120107152Y-91787028D02*
X120154771Y-91691790D01*
X120154771Y-91691790D02*
X120202390Y-91644171D01*
X120202390Y-91644171D02*
X120297628Y-91596552D01*
X120297628Y-91596552D02*
X120583342Y-91596552D01*
X120583342Y-91596552D02*
X120678580Y-91644171D01*
X120678580Y-91644171D02*
X120726200Y-91691790D01*
X120726200Y-91691790D02*
X120773819Y-91787028D01*
X120773819Y-91787028D02*
X120773819Y-91929885D01*
X119773819Y-92025123D02*
X119821438Y-91977504D01*
X119821438Y-91977504D02*
X119869057Y-92025123D01*
X119869057Y-92025123D02*
X119821438Y-92072742D01*
X119821438Y-92072742D02*
X119773819Y-92025123D01*
X119773819Y-92025123D02*
X119869057Y-92025123D01*
X119773819Y-91644171D02*
X119821438Y-91596552D01*
X119821438Y-91596552D02*
X119869057Y-91644171D01*
X119869057Y-91644171D02*
X119821438Y-91691790D01*
X119821438Y-91691790D02*
X119773819Y-91644171D01*
X119773819Y-91644171D02*
X119869057Y-91644171D01*
X120107152Y-91167980D02*
X121107152Y-91167980D01*
X120154771Y-91167980D02*
X120107152Y-91072742D01*
X120107152Y-91072742D02*
X120107152Y-90882266D01*
X120107152Y-90882266D02*
X120154771Y-90787028D01*
X120154771Y-90787028D02*
X120202390Y-90739409D01*
X120202390Y-90739409D02*
X120297628Y-90691790D01*
X120297628Y-90691790D02*
X120583342Y-90691790D01*
X120583342Y-90691790D02*
X120678580Y-90739409D01*
X120678580Y-90739409D02*
X120726200Y-90787028D01*
X120726200Y-90787028D02*
X120773819Y-90882266D01*
X120773819Y-90882266D02*
X120773819Y-91072742D01*
X120773819Y-91072742D02*
X120726200Y-91167980D01*
X120773819Y-90263218D02*
X119773819Y-90263218D01*
X120392866Y-90167980D02*
X120773819Y-89882266D01*
X120107152Y-89882266D02*
X120488104Y-90263218D01*
X120726200Y-89072742D02*
X120773819Y-89167980D01*
X120773819Y-89167980D02*
X120773819Y-89358456D01*
X120773819Y-89358456D02*
X120726200Y-89453694D01*
X120726200Y-89453694D02*
X120630961Y-89501313D01*
X120630961Y-89501313D02*
X120250009Y-89501313D01*
X120250009Y-89501313D02*
X120154771Y-89453694D01*
X120154771Y-89453694D02*
X120107152Y-89358456D01*
X120107152Y-89358456D02*
X120107152Y-89167980D01*
X120107152Y-89167980D02*
X120154771Y-89072742D01*
X120154771Y-89072742D02*
X120250009Y-89025123D01*
X120250009Y-89025123D02*
X120345247Y-89025123D01*
X120345247Y-89025123D02*
X120440485Y-89501313D01*
X121107152Y-87596551D02*
X119678580Y-87596551D01*
X119773819Y-85929884D02*
X119773819Y-85834646D01*
X119773819Y-85834646D02*
X119821438Y-85739408D01*
X119821438Y-85739408D02*
X119869057Y-85691789D01*
X119869057Y-85691789D02*
X119964295Y-85644170D01*
X119964295Y-85644170D02*
X120154771Y-85596551D01*
X120154771Y-85596551D02*
X120392866Y-85596551D01*
X120392866Y-85596551D02*
X120583342Y-85644170D01*
X120583342Y-85644170D02*
X120678580Y-85691789D01*
X120678580Y-85691789D02*
X120726200Y-85739408D01*
X120726200Y-85739408D02*
X120773819Y-85834646D01*
X120773819Y-85834646D02*
X120773819Y-85929884D01*
X120773819Y-85929884D02*
X120726200Y-86025122D01*
X120726200Y-86025122D02*
X120678580Y-86072741D01*
X120678580Y-86072741D02*
X120583342Y-86120360D01*
X120583342Y-86120360D02*
X120392866Y-86167979D01*
X120392866Y-86167979D02*
X120154771Y-86167979D01*
X120154771Y-86167979D02*
X119964295Y-86120360D01*
X119964295Y-86120360D02*
X119869057Y-86072741D01*
X119869057Y-86072741D02*
X119821438Y-86025122D01*
X119821438Y-86025122D02*
X119773819Y-85929884D01*
X120107152Y-84739408D02*
X120773819Y-84739408D01*
X119726200Y-84977503D02*
X120440485Y-85215598D01*
X120440485Y-85215598D02*
X120440485Y-84596551D01*
X119726200Y-83501313D02*
X121011914Y-84358455D01*
X119869057Y-83215598D02*
X119821438Y-83167979D01*
X119821438Y-83167979D02*
X119773819Y-83072741D01*
X119773819Y-83072741D02*
X119773819Y-82834646D01*
X119773819Y-82834646D02*
X119821438Y-82739408D01*
X119821438Y-82739408D02*
X119869057Y-82691789D01*
X119869057Y-82691789D02*
X119964295Y-82644170D01*
X119964295Y-82644170D02*
X120059533Y-82644170D01*
X120059533Y-82644170D02*
X120202390Y-82691789D01*
X120202390Y-82691789D02*
X120773819Y-83263217D01*
X120773819Y-83263217D02*
X120773819Y-82644170D01*
X119773819Y-81787027D02*
X119773819Y-81977503D01*
X119773819Y-81977503D02*
X119821438Y-82072741D01*
X119821438Y-82072741D02*
X119869057Y-82120360D01*
X119869057Y-82120360D02*
X120011914Y-82215598D01*
X120011914Y-82215598D02*
X120202390Y-82263217D01*
X120202390Y-82263217D02*
X120583342Y-82263217D01*
X120583342Y-82263217D02*
X120678580Y-82215598D01*
X120678580Y-82215598D02*
X120726200Y-82167979D01*
X120726200Y-82167979D02*
X120773819Y-82072741D01*
X120773819Y-82072741D02*
X120773819Y-81882265D01*
X120773819Y-81882265D02*
X120726200Y-81787027D01*
X120726200Y-81787027D02*
X120678580Y-81739408D01*
X120678580Y-81739408D02*
X120583342Y-81691789D01*
X120583342Y-81691789D02*
X120345247Y-81691789D01*
X120345247Y-81691789D02*
X120250009Y-81739408D01*
X120250009Y-81739408D02*
X120202390Y-81787027D01*
X120202390Y-81787027D02*
X120154771Y-81882265D01*
X120154771Y-81882265D02*
X120154771Y-82072741D01*
X120154771Y-82072741D02*
X120202390Y-82167979D01*
X120202390Y-82167979D02*
X120250009Y-82215598D01*
X120250009Y-82215598D02*
X120345247Y-82263217D01*
D10*
X123515618Y-80716219D02*
X123182285Y-80240028D01*
X122944190Y-80716219D02*
X122944190Y-79716219D01*
X122944190Y-79716219D02*
X123325142Y-79716219D01*
X123325142Y-79716219D02*
X123420380Y-79763838D01*
X123420380Y-79763838D02*
X123467999Y-79811457D01*
X123467999Y-79811457D02*
X123515618Y-79906695D01*
X123515618Y-79906695D02*
X123515618Y-80049552D01*
X123515618Y-80049552D02*
X123467999Y-80144790D01*
X123467999Y-80144790D02*
X123420380Y-80192409D01*
X123420380Y-80192409D02*
X123325142Y-80240028D01*
X123325142Y-80240028D02*
X122944190Y-80240028D01*
X123944190Y-80192409D02*
X124277523Y-80192409D01*
X124420380Y-80716219D02*
X123944190Y-80716219D01*
X123944190Y-80716219D02*
X123944190Y-79716219D01*
X123944190Y-79716219D02*
X124420380Y-79716219D01*
X124801333Y-80668600D02*
X124944190Y-80716219D01*
X124944190Y-80716219D02*
X125182285Y-80716219D01*
X125182285Y-80716219D02*
X125277523Y-80668600D01*
X125277523Y-80668600D02*
X125325142Y-80620980D01*
X125325142Y-80620980D02*
X125372761Y-80525742D01*
X125372761Y-80525742D02*
X125372761Y-80430504D01*
X125372761Y-80430504D02*
X125325142Y-80335266D01*
X125325142Y-80335266D02*
X125277523Y-80287647D01*
X125277523Y-80287647D02*
X125182285Y-80240028D01*
X125182285Y-80240028D02*
X124991809Y-80192409D01*
X124991809Y-80192409D02*
X124896571Y-80144790D01*
X124896571Y-80144790D02*
X124848952Y-80097171D01*
X124848952Y-80097171D02*
X124801333Y-80001933D01*
X124801333Y-80001933D02*
X124801333Y-79906695D01*
X124801333Y-79906695D02*
X124848952Y-79811457D01*
X124848952Y-79811457D02*
X124896571Y-79763838D01*
X124896571Y-79763838D02*
X124991809Y-79716219D01*
X124991809Y-79716219D02*
X125229904Y-79716219D01*
X125229904Y-79716219D02*
X125372761Y-79763838D01*
X125801333Y-80192409D02*
X126134666Y-80192409D01*
X126277523Y-80716219D02*
X125801333Y-80716219D01*
X125801333Y-80716219D02*
X125801333Y-79716219D01*
X125801333Y-79716219D02*
X126277523Y-79716219D01*
X126563238Y-79716219D02*
X127134666Y-79716219D01*
X126848952Y-80716219D02*
X126848952Y-79716219D01*
D12*
X134734493Y-94373819D02*
X134734493Y-95088104D01*
X134734493Y-95088104D02*
X134686874Y-95230961D01*
X134686874Y-95230961D02*
X134591636Y-95326200D01*
X134591636Y-95326200D02*
X134448779Y-95373819D01*
X134448779Y-95373819D02*
X134353541Y-95373819D01*
X135686874Y-95373819D02*
X135210684Y-95373819D01*
X135210684Y-95373819D02*
X135210684Y-94373819D01*
X136591636Y-95278580D02*
X136544017Y-95326200D01*
X136544017Y-95326200D02*
X136401160Y-95373819D01*
X136401160Y-95373819D02*
X136305922Y-95373819D01*
X136305922Y-95373819D02*
X136163065Y-95326200D01*
X136163065Y-95326200D02*
X136067827Y-95230961D01*
X136067827Y-95230961D02*
X136020208Y-95135723D01*
X136020208Y-95135723D02*
X135972589Y-94945247D01*
X135972589Y-94945247D02*
X135972589Y-94802390D01*
X135972589Y-94802390D02*
X136020208Y-94611914D01*
X136020208Y-94611914D02*
X136067827Y-94516676D01*
X136067827Y-94516676D02*
X136163065Y-94421438D01*
X136163065Y-94421438D02*
X136305922Y-94373819D01*
X136305922Y-94373819D02*
X136401160Y-94373819D01*
X136401160Y-94373819D02*
X136544017Y-94421438D01*
X136544017Y-94421438D02*
X136591636Y-94469057D01*
X137305922Y-94373819D02*
X137305922Y-95088104D01*
X137305922Y-95088104D02*
X137258303Y-95230961D01*
X137258303Y-95230961D02*
X137163065Y-95326200D01*
X137163065Y-95326200D02*
X137020208Y-95373819D01*
X137020208Y-95373819D02*
X136924970Y-95373819D01*
X138258303Y-95373819D02*
X137782113Y-95373819D01*
X137782113Y-95373819D02*
X137782113Y-94373819D01*
X139163065Y-95278580D02*
X139115446Y-95326200D01*
X139115446Y-95326200D02*
X138972589Y-95373819D01*
X138972589Y-95373819D02*
X138877351Y-95373819D01*
X138877351Y-95373819D02*
X138734494Y-95326200D01*
X138734494Y-95326200D02*
X138639256Y-95230961D01*
X138639256Y-95230961D02*
X138591637Y-95135723D01*
X138591637Y-95135723D02*
X138544018Y-94945247D01*
X138544018Y-94945247D02*
X138544018Y-94802390D01*
X138544018Y-94802390D02*
X138591637Y-94611914D01*
X138591637Y-94611914D02*
X138639256Y-94516676D01*
X138639256Y-94516676D02*
X138734494Y-94421438D01*
X138734494Y-94421438D02*
X138877351Y-94373819D01*
X138877351Y-94373819D02*
X138972589Y-94373819D01*
X138972589Y-94373819D02*
X139115446Y-94421438D01*
X139115446Y-94421438D02*
X139163065Y-94469057D01*
X139877351Y-94373819D02*
X139877351Y-95088104D01*
X139877351Y-95088104D02*
X139829732Y-95230961D01*
X139829732Y-95230961D02*
X139734494Y-95326200D01*
X139734494Y-95326200D02*
X139591637Y-95373819D01*
X139591637Y-95373819D02*
X139496399Y-95373819D01*
X140829732Y-95373819D02*
X140353542Y-95373819D01*
X140353542Y-95373819D02*
X140353542Y-94373819D01*
X141734494Y-95278580D02*
X141686875Y-95326200D01*
X141686875Y-95326200D02*
X141544018Y-95373819D01*
X141544018Y-95373819D02*
X141448780Y-95373819D01*
X141448780Y-95373819D02*
X141305923Y-95326200D01*
X141305923Y-95326200D02*
X141210685Y-95230961D01*
X141210685Y-95230961D02*
X141163066Y-95135723D01*
X141163066Y-95135723D02*
X141115447Y-94945247D01*
X141115447Y-94945247D02*
X141115447Y-94802390D01*
X141115447Y-94802390D02*
X141163066Y-94611914D01*
X141163066Y-94611914D02*
X141210685Y-94516676D01*
X141210685Y-94516676D02*
X141305923Y-94421438D01*
X141305923Y-94421438D02*
X141448780Y-94373819D01*
X141448780Y-94373819D02*
X141544018Y-94373819D01*
X141544018Y-94373819D02*
X141686875Y-94421438D01*
X141686875Y-94421438D02*
X141734494Y-94469057D01*
X142448780Y-94373819D02*
X142448780Y-95088104D01*
X142448780Y-95088104D02*
X142401161Y-95230961D01*
X142401161Y-95230961D02*
X142305923Y-95326200D01*
X142305923Y-95326200D02*
X142163066Y-95373819D01*
X142163066Y-95373819D02*
X142067828Y-95373819D01*
X143401161Y-95373819D02*
X142924971Y-95373819D01*
X142924971Y-95373819D02*
X142924971Y-94373819D01*
X144305923Y-95278580D02*
X144258304Y-95326200D01*
X144258304Y-95326200D02*
X144115447Y-95373819D01*
X144115447Y-95373819D02*
X144020209Y-95373819D01*
X144020209Y-95373819D02*
X143877352Y-95326200D01*
X143877352Y-95326200D02*
X143782114Y-95230961D01*
X143782114Y-95230961D02*
X143734495Y-95135723D01*
X143734495Y-95135723D02*
X143686876Y-94945247D01*
X143686876Y-94945247D02*
X143686876Y-94802390D01*
X143686876Y-94802390D02*
X143734495Y-94611914D01*
X143734495Y-94611914D02*
X143782114Y-94516676D01*
X143782114Y-94516676D02*
X143877352Y-94421438D01*
X143877352Y-94421438D02*
X144020209Y-94373819D01*
X144020209Y-94373819D02*
X144115447Y-94373819D01*
X144115447Y-94373819D02*
X144258304Y-94421438D01*
X144258304Y-94421438D02*
X144305923Y-94469057D01*
D10*
X112117333Y-84367457D02*
X112022095Y-84319838D01*
X112022095Y-84319838D02*
X111926857Y-84224600D01*
X111926857Y-84224600D02*
X111784000Y-84081742D01*
X111784000Y-84081742D02*
X111688762Y-84034123D01*
X111688762Y-84034123D02*
X111593524Y-84034123D01*
X111641143Y-84272219D02*
X111545905Y-84224600D01*
X111545905Y-84224600D02*
X111450667Y-84129361D01*
X111450667Y-84129361D02*
X111403048Y-83938885D01*
X111403048Y-83938885D02*
X111403048Y-83605552D01*
X111403048Y-83605552D02*
X111450667Y-83415076D01*
X111450667Y-83415076D02*
X111545905Y-83319838D01*
X111545905Y-83319838D02*
X111641143Y-83272219D01*
X111641143Y-83272219D02*
X111831619Y-83272219D01*
X111831619Y-83272219D02*
X111926857Y-83319838D01*
X111926857Y-83319838D02*
X112022095Y-83415076D01*
X112022095Y-83415076D02*
X112069714Y-83605552D01*
X112069714Y-83605552D02*
X112069714Y-83938885D01*
X112069714Y-83938885D02*
X112022095Y-84129361D01*
X112022095Y-84129361D02*
X111926857Y-84224600D01*
X111926857Y-84224600D02*
X111831619Y-84272219D01*
X111831619Y-84272219D02*
X111641143Y-84272219D01*
X112403048Y-83272219D02*
X112641143Y-84272219D01*
X112641143Y-84272219D02*
X112831619Y-83557933D01*
X112831619Y-83557933D02*
X113022095Y-84272219D01*
X113022095Y-84272219D02*
X113260191Y-83272219D01*
X113641143Y-84272219D02*
X113641143Y-83272219D01*
X114117333Y-84272219D02*
X114117333Y-83272219D01*
X115164951Y-84176980D02*
X115117332Y-84224600D01*
X115117332Y-84224600D02*
X114974475Y-84272219D01*
X114974475Y-84272219D02*
X114879237Y-84272219D01*
X114879237Y-84272219D02*
X114736380Y-84224600D01*
X114736380Y-84224600D02*
X114641142Y-84129361D01*
X114641142Y-84129361D02*
X114593523Y-84034123D01*
X114593523Y-84034123D02*
X114545904Y-83843647D01*
X114545904Y-83843647D02*
X114545904Y-83700790D01*
X114545904Y-83700790D02*
X114593523Y-83510314D01*
X114593523Y-83510314D02*
X114641142Y-83415076D01*
X114641142Y-83415076D02*
X114736380Y-83319838D01*
X114736380Y-83319838D02*
X114879237Y-83272219D01*
X114879237Y-83272219D02*
X114974475Y-83272219D01*
X114974475Y-83272219D02*
X115117332Y-83319838D01*
X115117332Y-83319838D02*
X115164951Y-83367457D01*
X140255905Y-80192409D02*
X140589238Y-80192409D01*
X140732095Y-80716219D02*
X140255905Y-80716219D01*
X140255905Y-80716219D02*
X140255905Y-79716219D01*
X140255905Y-79716219D02*
X140732095Y-79716219D01*
X141732095Y-80716219D02*
X141398762Y-80240028D01*
X141160667Y-80716219D02*
X141160667Y-79716219D01*
X141160667Y-79716219D02*
X141541619Y-79716219D01*
X141541619Y-79716219D02*
X141636857Y-79763838D01*
X141636857Y-79763838D02*
X141684476Y-79811457D01*
X141684476Y-79811457D02*
X141732095Y-79906695D01*
X141732095Y-79906695D02*
X141732095Y-80049552D01*
X141732095Y-80049552D02*
X141684476Y-80144790D01*
X141684476Y-80144790D02*
X141636857Y-80192409D01*
X141636857Y-80192409D02*
X141541619Y-80240028D01*
X141541619Y-80240028D02*
X141160667Y-80240028D01*
X142732095Y-80716219D02*
X142398762Y-80240028D01*
X142160667Y-80716219D02*
X142160667Y-79716219D01*
X142160667Y-79716219D02*
X142541619Y-79716219D01*
X142541619Y-79716219D02*
X142636857Y-79763838D01*
X142636857Y-79763838D02*
X142684476Y-79811457D01*
X142684476Y-79811457D02*
X142732095Y-79906695D01*
X142732095Y-79906695D02*
X142732095Y-80049552D01*
X142732095Y-80049552D02*
X142684476Y-80144790D01*
X142684476Y-80144790D02*
X142636857Y-80192409D01*
X142636857Y-80192409D02*
X142541619Y-80240028D01*
X142541619Y-80240028D02*
X142160667Y-80240028D01*
X143351143Y-79716219D02*
X143541619Y-79716219D01*
X143541619Y-79716219D02*
X143636857Y-79763838D01*
X143636857Y-79763838D02*
X143732095Y-79859076D01*
X143732095Y-79859076D02*
X143779714Y-80049552D01*
X143779714Y-80049552D02*
X143779714Y-80382885D01*
X143779714Y-80382885D02*
X143732095Y-80573361D01*
X143732095Y-80573361D02*
X143636857Y-80668600D01*
X143636857Y-80668600D02*
X143541619Y-80716219D01*
X143541619Y-80716219D02*
X143351143Y-80716219D01*
X143351143Y-80716219D02*
X143255905Y-80668600D01*
X143255905Y-80668600D02*
X143160667Y-80573361D01*
X143160667Y-80573361D02*
X143113048Y-80382885D01*
X143113048Y-80382885D02*
X143113048Y-80049552D01*
X143113048Y-80049552D02*
X143160667Y-79859076D01*
X143160667Y-79859076D02*
X143255905Y-79763838D01*
X143255905Y-79763838D02*
X143351143Y-79716219D01*
X144779714Y-80716219D02*
X144446381Y-80240028D01*
X144208286Y-80716219D02*
X144208286Y-79716219D01*
X144208286Y-79716219D02*
X144589238Y-79716219D01*
X144589238Y-79716219D02*
X144684476Y-79763838D01*
X144684476Y-79763838D02*
X144732095Y-79811457D01*
X144732095Y-79811457D02*
X144779714Y-79906695D01*
X144779714Y-79906695D02*
X144779714Y-80049552D01*
X144779714Y-80049552D02*
X144732095Y-80144790D01*
X144732095Y-80144790D02*
X144684476Y-80192409D01*
X144684476Y-80192409D02*
X144589238Y-80240028D01*
X144589238Y-80240028D02*
X144208286Y-80240028D01*
X134175809Y-80668600D02*
X134318666Y-80716219D01*
X134318666Y-80716219D02*
X134556761Y-80716219D01*
X134556761Y-80716219D02*
X134651999Y-80668600D01*
X134651999Y-80668600D02*
X134699618Y-80620980D01*
X134699618Y-80620980D02*
X134747237Y-80525742D01*
X134747237Y-80525742D02*
X134747237Y-80430504D01*
X134747237Y-80430504D02*
X134699618Y-80335266D01*
X134699618Y-80335266D02*
X134651999Y-80287647D01*
X134651999Y-80287647D02*
X134556761Y-80240028D01*
X134556761Y-80240028D02*
X134366285Y-80192409D01*
X134366285Y-80192409D02*
X134271047Y-80144790D01*
X134271047Y-80144790D02*
X134223428Y-80097171D01*
X134223428Y-80097171D02*
X134175809Y-80001933D01*
X134175809Y-80001933D02*
X134175809Y-79906695D01*
X134175809Y-79906695D02*
X134223428Y-79811457D01*
X134223428Y-79811457D02*
X134271047Y-79763838D01*
X134271047Y-79763838D02*
X134366285Y-79716219D01*
X134366285Y-79716219D02*
X134604380Y-79716219D01*
X134604380Y-79716219D02*
X134747237Y-79763838D01*
X135032952Y-79716219D02*
X135604380Y-79716219D01*
X135318666Y-80716219D02*
X135318666Y-79716219D01*
X135890095Y-80430504D02*
X136366285Y-80430504D01*
X135794857Y-80716219D02*
X136128190Y-79716219D01*
X136128190Y-79716219D02*
X136461523Y-80716219D01*
X136652000Y-79716219D02*
X137223428Y-79716219D01*
X136937714Y-80716219D02*
X136937714Y-79716219D01*
X137556762Y-79716219D02*
X137556762Y-80525742D01*
X137556762Y-80525742D02*
X137604381Y-80620980D01*
X137604381Y-80620980D02*
X137652000Y-80668600D01*
X137652000Y-80668600D02*
X137747238Y-80716219D01*
X137747238Y-80716219D02*
X137937714Y-80716219D01*
X137937714Y-80716219D02*
X138032952Y-80668600D01*
X138032952Y-80668600D02*
X138080571Y-80620980D01*
X138080571Y-80620980D02*
X138128190Y-80525742D01*
X138128190Y-80525742D02*
X138128190Y-79716219D01*
X138556762Y-80668600D02*
X138699619Y-80716219D01*
X138699619Y-80716219D02*
X138937714Y-80716219D01*
X138937714Y-80716219D02*
X139032952Y-80668600D01*
X139032952Y-80668600D02*
X139080571Y-80620980D01*
X139080571Y-80620980D02*
X139128190Y-80525742D01*
X139128190Y-80525742D02*
X139128190Y-80430504D01*
X139128190Y-80430504D02*
X139080571Y-80335266D01*
X139080571Y-80335266D02*
X139032952Y-80287647D01*
X139032952Y-80287647D02*
X138937714Y-80240028D01*
X138937714Y-80240028D02*
X138747238Y-80192409D01*
X138747238Y-80192409D02*
X138652000Y-80144790D01*
X138652000Y-80144790D02*
X138604381Y-80097171D01*
X138604381Y-80097171D02*
X138556762Y-80001933D01*
X138556762Y-80001933D02*
X138556762Y-79906695D01*
X138556762Y-79906695D02*
X138604381Y-79811457D01*
X138604381Y-79811457D02*
X138652000Y-79763838D01*
X138652000Y-79763838D02*
X138747238Y-79716219D01*
X138747238Y-79716219D02*
X138985333Y-79716219D01*
X138985333Y-79716219D02*
X139128190Y-79763838D01*
D12*
X103848819Y-102353904D02*
X103848819Y-101782476D01*
X104848819Y-102068190D02*
X103848819Y-102068190D01*
X104848819Y-101449142D02*
X103848819Y-101449142D01*
X103848819Y-101449142D02*
X103848819Y-101068190D01*
X103848819Y-101068190D02*
X103896438Y-100972952D01*
X103896438Y-100972952D02*
X103944057Y-100925333D01*
X103944057Y-100925333D02*
X104039295Y-100877714D01*
X104039295Y-100877714D02*
X104182152Y-100877714D01*
X104182152Y-100877714D02*
X104277390Y-100925333D01*
X104277390Y-100925333D02*
X104325009Y-100972952D01*
X104325009Y-100972952D02*
X104372628Y-101068190D01*
X104372628Y-101068190D02*
X104372628Y-101449142D01*
X103848819Y-100020571D02*
X103848819Y-100211047D01*
X103848819Y-100211047D02*
X103896438Y-100306285D01*
X103896438Y-100306285D02*
X103944057Y-100353904D01*
X103944057Y-100353904D02*
X104086914Y-100449142D01*
X104086914Y-100449142D02*
X104277390Y-100496761D01*
X104277390Y-100496761D02*
X104658342Y-100496761D01*
X104658342Y-100496761D02*
X104753580Y-100449142D01*
X104753580Y-100449142D02*
X104801200Y-100401523D01*
X104801200Y-100401523D02*
X104848819Y-100306285D01*
X104848819Y-100306285D02*
X104848819Y-100115809D01*
X104848819Y-100115809D02*
X104801200Y-100020571D01*
X104801200Y-100020571D02*
X104753580Y-99972952D01*
X104753580Y-99972952D02*
X104658342Y-99925333D01*
X104658342Y-99925333D02*
X104420247Y-99925333D01*
X104420247Y-99925333D02*
X104325009Y-99972952D01*
X104325009Y-99972952D02*
X104277390Y-100020571D01*
X104277390Y-100020571D02*
X104229771Y-100115809D01*
X104229771Y-100115809D02*
X104229771Y-100306285D01*
X104229771Y-100306285D02*
X104277390Y-100401523D01*
X104277390Y-100401523D02*
X104325009Y-100449142D01*
X104325009Y-100449142D02*
X104420247Y-100496761D01*
X143264095Y-109944819D02*
X143835523Y-109944819D01*
X143549809Y-110944819D02*
X143549809Y-109944819D01*
X144168857Y-110944819D02*
X144168857Y-109944819D01*
X144168857Y-109944819D02*
X144549809Y-109944819D01*
X144549809Y-109944819D02*
X144645047Y-109992438D01*
X144645047Y-109992438D02*
X144692666Y-110040057D01*
X144692666Y-110040057D02*
X144740285Y-110135295D01*
X144740285Y-110135295D02*
X144740285Y-110278152D01*
X144740285Y-110278152D02*
X144692666Y-110373390D01*
X144692666Y-110373390D02*
X144645047Y-110421009D01*
X144645047Y-110421009D02*
X144549809Y-110468628D01*
X144549809Y-110468628D02*
X144168857Y-110468628D01*
X145121238Y-110040057D02*
X145168857Y-109992438D01*
X145168857Y-109992438D02*
X145264095Y-109944819D01*
X145264095Y-109944819D02*
X145502190Y-109944819D01*
X145502190Y-109944819D02*
X145597428Y-109992438D01*
X145597428Y-109992438D02*
X145645047Y-110040057D01*
X145645047Y-110040057D02*
X145692666Y-110135295D01*
X145692666Y-110135295D02*
X145692666Y-110230533D01*
X145692666Y-110230533D02*
X145645047Y-110373390D01*
X145645047Y-110373390D02*
X145073619Y-110944819D01*
X145073619Y-110944819D02*
X145692666Y-110944819D01*
X123960095Y-92164819D02*
X124531523Y-92164819D01*
X124245809Y-93164819D02*
X124245809Y-92164819D01*
X124864857Y-93164819D02*
X124864857Y-92164819D01*
X124864857Y-92164819D02*
X125245809Y-92164819D01*
X125245809Y-92164819D02*
X125341047Y-92212438D01*
X125341047Y-92212438D02*
X125388666Y-92260057D01*
X125388666Y-92260057D02*
X125436285Y-92355295D01*
X125436285Y-92355295D02*
X125436285Y-92498152D01*
X125436285Y-92498152D02*
X125388666Y-92593390D01*
X125388666Y-92593390D02*
X125341047Y-92641009D01*
X125341047Y-92641009D02*
X125245809Y-92688628D01*
X125245809Y-92688628D02*
X124864857Y-92688628D01*
X125769619Y-92164819D02*
X126388666Y-92164819D01*
X126388666Y-92164819D02*
X126055333Y-92545771D01*
X126055333Y-92545771D02*
X126198190Y-92545771D01*
X126198190Y-92545771D02*
X126293428Y-92593390D01*
X126293428Y-92593390D02*
X126341047Y-92641009D01*
X126341047Y-92641009D02*
X126388666Y-92736247D01*
X126388666Y-92736247D02*
X126388666Y-92974342D01*
X126388666Y-92974342D02*
X126341047Y-93069580D01*
X126341047Y-93069580D02*
X126293428Y-93117200D01*
X126293428Y-93117200D02*
X126198190Y-93164819D01*
X126198190Y-93164819D02*
X125912476Y-93164819D01*
X125912476Y-93164819D02*
X125817238Y-93117200D01*
X125817238Y-93117200D02*
X125769619Y-93069580D01*
X122182095Y-88608819D02*
X122753523Y-88608819D01*
X122467809Y-89608819D02*
X122467809Y-88608819D01*
X123086857Y-89608819D02*
X123086857Y-88608819D01*
X123086857Y-88608819D02*
X123467809Y-88608819D01*
X123467809Y-88608819D02*
X123563047Y-88656438D01*
X123563047Y-88656438D02*
X123610666Y-88704057D01*
X123610666Y-88704057D02*
X123658285Y-88799295D01*
X123658285Y-88799295D02*
X123658285Y-88942152D01*
X123658285Y-88942152D02*
X123610666Y-89037390D01*
X123610666Y-89037390D02*
X123563047Y-89085009D01*
X123563047Y-89085009D02*
X123467809Y-89132628D01*
X123467809Y-89132628D02*
X123086857Y-89132628D01*
X123991619Y-88608819D02*
X124658285Y-88608819D01*
X124658285Y-88608819D02*
X124229714Y-89608819D01*
X126454819Y-120387904D02*
X126454819Y-119816476D01*
X127454819Y-120102190D02*
X126454819Y-120102190D01*
X127454819Y-119483142D02*
X126454819Y-119483142D01*
X126454819Y-119483142D02*
X126454819Y-119102190D01*
X126454819Y-119102190D02*
X126502438Y-119006952D01*
X126502438Y-119006952D02*
X126550057Y-118959333D01*
X126550057Y-118959333D02*
X126645295Y-118911714D01*
X126645295Y-118911714D02*
X126788152Y-118911714D01*
X126788152Y-118911714D02*
X126883390Y-118959333D01*
X126883390Y-118959333D02*
X126931009Y-119006952D01*
X126931009Y-119006952D02*
X126978628Y-119102190D01*
X126978628Y-119102190D02*
X126978628Y-119483142D01*
X127454819Y-117959333D02*
X127454819Y-118530761D01*
X127454819Y-118245047D02*
X126454819Y-118245047D01*
X126454819Y-118245047D02*
X126597676Y-118340285D01*
X126597676Y-118340285D02*
X126692914Y-118435523D01*
X126692914Y-118435523D02*
X126740533Y-118530761D01*
X129040095Y-99276819D02*
X129611523Y-99276819D01*
X129325809Y-100276819D02*
X129325809Y-99276819D01*
X129944857Y-100276819D02*
X129944857Y-99276819D01*
X129944857Y-99276819D02*
X130325809Y-99276819D01*
X130325809Y-99276819D02*
X130421047Y-99324438D01*
X130421047Y-99324438D02*
X130468666Y-99372057D01*
X130468666Y-99372057D02*
X130516285Y-99467295D01*
X130516285Y-99467295D02*
X130516285Y-99610152D01*
X130516285Y-99610152D02*
X130468666Y-99705390D01*
X130468666Y-99705390D02*
X130421047Y-99753009D01*
X130421047Y-99753009D02*
X130325809Y-99800628D01*
X130325809Y-99800628D02*
X129944857Y-99800628D01*
X131373428Y-99610152D02*
X131373428Y-100276819D01*
X131135333Y-99229200D02*
X130897238Y-99943485D01*
X130897238Y-99943485D02*
X131516285Y-99943485D01*
X129294095Y-87846819D02*
X129865523Y-87846819D01*
X129579809Y-88846819D02*
X129579809Y-87846819D01*
X130198857Y-88846819D02*
X130198857Y-87846819D01*
X130198857Y-87846819D02*
X130579809Y-87846819D01*
X130579809Y-87846819D02*
X130675047Y-87894438D01*
X130675047Y-87894438D02*
X130722666Y-87942057D01*
X130722666Y-87942057D02*
X130770285Y-88037295D01*
X130770285Y-88037295D02*
X130770285Y-88180152D01*
X130770285Y-88180152D02*
X130722666Y-88275390D01*
X130722666Y-88275390D02*
X130675047Y-88323009D01*
X130675047Y-88323009D02*
X130579809Y-88370628D01*
X130579809Y-88370628D02*
X130198857Y-88370628D01*
X131341714Y-88275390D02*
X131246476Y-88227771D01*
X131246476Y-88227771D02*
X131198857Y-88180152D01*
X131198857Y-88180152D02*
X131151238Y-88084914D01*
X131151238Y-88084914D02*
X131151238Y-88037295D01*
X131151238Y-88037295D02*
X131198857Y-87942057D01*
X131198857Y-87942057D02*
X131246476Y-87894438D01*
X131246476Y-87894438D02*
X131341714Y-87846819D01*
X131341714Y-87846819D02*
X131532190Y-87846819D01*
X131532190Y-87846819D02*
X131627428Y-87894438D01*
X131627428Y-87894438D02*
X131675047Y-87942057D01*
X131675047Y-87942057D02*
X131722666Y-88037295D01*
X131722666Y-88037295D02*
X131722666Y-88084914D01*
X131722666Y-88084914D02*
X131675047Y-88180152D01*
X131675047Y-88180152D02*
X131627428Y-88227771D01*
X131627428Y-88227771D02*
X131532190Y-88275390D01*
X131532190Y-88275390D02*
X131341714Y-88275390D01*
X131341714Y-88275390D02*
X131246476Y-88323009D01*
X131246476Y-88323009D02*
X131198857Y-88370628D01*
X131198857Y-88370628D02*
X131151238Y-88465866D01*
X131151238Y-88465866D02*
X131151238Y-88656342D01*
X131151238Y-88656342D02*
X131198857Y-88751580D01*
X131198857Y-88751580D02*
X131246476Y-88799200D01*
X131246476Y-88799200D02*
X131341714Y-88846819D01*
X131341714Y-88846819D02*
X131532190Y-88846819D01*
X131532190Y-88846819D02*
X131627428Y-88799200D01*
X131627428Y-88799200D02*
X131675047Y-88751580D01*
X131675047Y-88751580D02*
X131722666Y-88656342D01*
X131722666Y-88656342D02*
X131722666Y-88465866D01*
X131722666Y-88465866D02*
X131675047Y-88370628D01*
X131675047Y-88370628D02*
X131627428Y-88323009D01*
X131627428Y-88323009D02*
X131532190Y-88275390D01*
X111768095Y-116294819D02*
X112339523Y-116294819D01*
X112053809Y-117294819D02*
X112053809Y-116294819D01*
X112672857Y-117294819D02*
X112672857Y-116294819D01*
X112672857Y-116294819D02*
X113053809Y-116294819D01*
X113053809Y-116294819D02*
X113149047Y-116342438D01*
X113149047Y-116342438D02*
X113196666Y-116390057D01*
X113196666Y-116390057D02*
X113244285Y-116485295D01*
X113244285Y-116485295D02*
X113244285Y-116628152D01*
X113244285Y-116628152D02*
X113196666Y-116723390D01*
X113196666Y-116723390D02*
X113149047Y-116771009D01*
X113149047Y-116771009D02*
X113053809Y-116818628D01*
X113053809Y-116818628D02*
X112672857Y-116818628D01*
X114149047Y-116294819D02*
X113672857Y-116294819D01*
X113672857Y-116294819D02*
X113625238Y-116771009D01*
X113625238Y-116771009D02*
X113672857Y-116723390D01*
X113672857Y-116723390D02*
X113768095Y-116675771D01*
X113768095Y-116675771D02*
X114006190Y-116675771D01*
X114006190Y-116675771D02*
X114101428Y-116723390D01*
X114101428Y-116723390D02*
X114149047Y-116771009D01*
X114149047Y-116771009D02*
X114196666Y-116866247D01*
X114196666Y-116866247D02*
X114196666Y-117104342D01*
X114196666Y-117104342D02*
X114149047Y-117199580D01*
X114149047Y-117199580D02*
X114101428Y-117247200D01*
X114101428Y-117247200D02*
X114006190Y-117294819D01*
X114006190Y-117294819D02*
X113768095Y-117294819D01*
X113768095Y-117294819D02*
X113672857Y-117247200D01*
X113672857Y-117247200D02*
X113625238Y-117199580D01*
D13*
%TO.C,U6*%
X113842000Y-105614000D02*
X116282000Y-105614000D01*
X116282000Y-108254000D02*
X113842000Y-108254000D01*
D14*
X116467000Y-108849000D02*
X115987000Y-108849000D01*
X116227000Y-108519000D01*
X116467000Y-108849000D01*
G36*
X116467000Y-108849000D02*
G01*
X115987000Y-108849000D01*
X116227000Y-108519000D01*
X116467000Y-108849000D01*
G37*
%TO.C,R8*%
X123318000Y-99160359D02*
X123318000Y-99467641D01*
X124078000Y-99160359D02*
X124078000Y-99467641D01*
%TO.C,U5*%
X105584000Y-87042000D02*
X107559000Y-87042000D01*
X105584000Y-89017000D02*
X105584000Y-87042000D01*
X105584000Y-97362000D02*
X105584000Y-95387000D01*
X107559000Y-97362000D02*
X105584000Y-97362000D01*
X113929000Y-87042000D02*
X115904000Y-87042000D01*
X115904000Y-87042000D02*
X115904000Y-89017000D01*
X115904000Y-95387000D02*
X115904000Y-97362000D01*
X115904000Y-97362000D02*
X113929000Y-97362000D01*
X105384000Y-89702000D02*
X105054000Y-89942000D01*
X105054000Y-89462000D01*
X105384000Y-89702000D01*
G36*
X105384000Y-89702000D02*
G01*
X105054000Y-89942000D01*
X105054000Y-89462000D01*
X105384000Y-89702000D01*
G37*
%TO.C,TP6*%
X105094000Y-98806000D02*
G75*
G02*
X103694000Y-98806000I-700000J0D01*
G01*
X103694000Y-98806000D02*
G75*
G02*
X105094000Y-98806000I700000J0D01*
G01*
%TO.C,C18*%
X105703000Y-99427420D02*
X105703000Y-99708580D01*
X106723000Y-99427420D02*
X106723000Y-99708580D01*
%TO.C,C34*%
X107377000Y-99206164D02*
X107377000Y-99421836D01*
X108097000Y-99206164D02*
X108097000Y-99421836D01*
%TO.C,C27*%
X114348252Y-101881000D02*
X113825748Y-101881000D01*
X114348252Y-103351000D02*
X113825748Y-103351000D01*
%TO.C,R13*%
X119432303Y-104169230D02*
X119096770Y-103833697D01*
X120171230Y-103430303D02*
X119835697Y-103094770D01*
%TO.C,C13*%
X109073836Y-85746000D02*
X108858164Y-85746000D01*
X109073836Y-86466000D02*
X108858164Y-86466000D01*
%TO.C,J1*%
X133342000Y-117802000D02*
X133342000Y-116392000D01*
X134162000Y-113722000D02*
X134162000Y-113872000D01*
X134962000Y-113722000D02*
X134162000Y-113722000D01*
X142502000Y-117802000D02*
X142502000Y-116392000D01*
%TO.C,R7*%
X122302000Y-99160359D02*
X122302000Y-99467641D01*
X123062000Y-99160359D02*
X123062000Y-99467641D01*
%TO.C,C25*%
X122068000Y-82403836D02*
X122068000Y-82188164D01*
X122788000Y-82403836D02*
X122788000Y-82188164D01*
%TO.C,C2*%
X106320000Y-107842164D02*
X106320000Y-108057836D01*
X107040000Y-107842164D02*
X107040000Y-108057836D01*
%TO.C,R12*%
X138669500Y-87867258D02*
X138669500Y-87392742D01*
X139714500Y-87867258D02*
X139714500Y-87392742D01*
%TO.C,R6*%
X122302000Y-97128359D02*
X122302000Y-97435641D01*
X123062000Y-97128359D02*
X123062000Y-97435641D01*
%TO.C,C15*%
X123216000Y-108869000D02*
X123216000Y-116934000D01*
X127736000Y-108869000D02*
X123216000Y-108869000D01*
X127736000Y-116934000D02*
X127736000Y-108869000D01*
%TO.C,SW1*%
X123418000Y-81874000D02*
X123418000Y-86274000D01*
X124918000Y-81874000D02*
X125018000Y-81874000D01*
X124918000Y-86274000D02*
X125018000Y-86274000D01*
X126518000Y-86274000D02*
X126518000Y-81874000D01*
%TO.C,TP2*%
X145226000Y-112268000D02*
G75*
G02*
X143826000Y-112268000I-700000J0D01*
G01*
X143826000Y-112268000D02*
G75*
G02*
X145226000Y-112268000I700000J0D01*
G01*
%TO.C,TP3*%
X128208000Y-92710000D02*
G75*
G02*
X126808000Y-92710000I-700000J0D01*
G01*
X126808000Y-92710000D02*
G75*
G02*
X128208000Y-92710000I700000J0D01*
G01*
%TO.C,C31*%
X143150000Y-88245836D02*
X143150000Y-88030164D01*
X143870000Y-88245836D02*
X143870000Y-88030164D01*
%TO.C,C23*%
X122562500Y-103054500D02*
X123350000Y-103054500D01*
X122956250Y-102660750D02*
X122956250Y-103448250D01*
X123590000Y-102556437D02*
X123590000Y-103842000D01*
X123590000Y-102556437D02*
X124654437Y-101492000D01*
X123590000Y-107247563D02*
X123590000Y-105962000D01*
X123590000Y-107247563D02*
X124654437Y-108312000D01*
X124654437Y-101492000D02*
X130410000Y-101492000D01*
X124654437Y-108312000D02*
X130410000Y-108312000D01*
X130410000Y-101492000D02*
X130410000Y-103842000D01*
X130410000Y-108312000D02*
X130410000Y-105962000D01*
%TO.C,D2*%
X142077000Y-82004000D02*
X142077000Y-84289000D01*
X142077000Y-84289000D02*
X143547000Y-84289000D01*
X143547000Y-84289000D02*
X143547000Y-82004000D01*
%TO.C,R11*%
X121397500Y-111268742D02*
X121397500Y-111743258D01*
X122442500Y-111268742D02*
X122442500Y-111743258D01*
%TO.C,C8*%
X109726000Y-113905420D02*
X109726000Y-114186580D01*
X110746000Y-113905420D02*
X110746000Y-114186580D01*
%TO.C,R15*%
X128144000Y-84481641D02*
X128144000Y-84174359D01*
X128904000Y-84481641D02*
X128904000Y-84174359D01*
%TO.C,C22*%
X134514000Y-82696164D02*
X134514000Y-82911836D01*
X135234000Y-82696164D02*
X135234000Y-82911836D01*
%TO.C,U1*%
X124541000Y-98469568D02*
X124541000Y-97334000D01*
X126411000Y-97334000D02*
X126411000Y-98754000D01*
X124536000Y-98764000D02*
X124346000Y-98904000D01*
X124346000Y-98624000D01*
X124536000Y-98764000D01*
G36*
X124536000Y-98764000D02*
G01*
X124346000Y-98904000D01*
X124346000Y-98624000D01*
X124536000Y-98764000D01*
G37*
%TO.C,C28*%
X116076000Y-102983420D02*
X116076000Y-103264580D01*
X117096000Y-102983420D02*
X117096000Y-103264580D01*
%TO.C,C26*%
X129653420Y-90422000D02*
X129934580Y-90422000D01*
X129653420Y-91442000D02*
X129934580Y-91442000D01*
%TO.C,U2*%
X109208000Y-107090000D02*
X107708000Y-107090000D01*
X109208000Y-108810000D02*
X107708000Y-108810000D01*
X109658000Y-108830000D02*
X109658000Y-108550000D01*
X109938000Y-108550000D01*
X109658000Y-108830000D01*
G36*
X109658000Y-108830000D02*
G01*
X109658000Y-108550000D01*
X109938000Y-108550000D01*
X109658000Y-108830000D01*
G37*
%TO.C,C30*%
X128164000Y-82403836D02*
X128164000Y-82188164D01*
X128884000Y-82403836D02*
X128884000Y-82188164D01*
%TO.C,C21*%
X121265836Y-107082000D02*
X121050164Y-107082000D01*
X121265836Y-107802000D02*
X121050164Y-107802000D01*
%TO.C,L1*%
X126878000Y-98420000D02*
X126878000Y-94112000D01*
X131186000Y-94112000D02*
X131186000Y-98420000D01*
%TO.C,C10*%
X123338000Y-97174164D02*
X123338000Y-97389836D01*
X124058000Y-97174164D02*
X124058000Y-97389836D01*
%TO.C,TP7*%
X126430000Y-89154000D02*
G75*
G02*
X125030000Y-89154000I-700000J0D01*
G01*
X125030000Y-89154000D02*
G75*
G02*
X126430000Y-89154000I700000J0D01*
G01*
%TO.C,TP1*%
X130786000Y-119126000D02*
G75*
G02*
X127786000Y-119126000I-1500000J0D01*
G01*
X127786000Y-119126000D02*
G75*
G02*
X130786000Y-119126000I1500000J0D01*
G01*
%TO.C,D3*%
X135756000Y-81204000D02*
X138056000Y-81204000D01*
X135756000Y-84104000D02*
X135756000Y-81204000D01*
X135756000Y-84104000D02*
X136056000Y-84404000D01*
X138056000Y-84404000D02*
X136056000Y-84404000D01*
X138056000Y-84404000D02*
X138056000Y-81204000D01*
%TO.C,TP4*%
X128716000Y-99822000D02*
G75*
G02*
X127316000Y-99822000I-700000J0D01*
G01*
X127316000Y-99822000D02*
G75*
G02*
X128716000Y-99822000I700000J0D01*
G01*
%TO.C,C5*%
X109622000Y-111613836D02*
X109622000Y-111398164D01*
X110342000Y-111613836D02*
X110342000Y-111398164D01*
%TO.C,C4*%
X139594000Y-112375836D02*
X139594000Y-112160164D01*
X140314000Y-112375836D02*
X140314000Y-112160164D01*
%TO.C,U4*%
X137780000Y-112268000D02*
X137780000Y-112818000D01*
X137780000Y-112818000D02*
X137980000Y-112818000D01*
X139080000Y-112268000D02*
X139080000Y-112818000D01*
X139080000Y-112818000D02*
X138880000Y-112818000D01*
X139470000Y-111838000D02*
X139190000Y-111838000D01*
X139190000Y-111558000D01*
X139470000Y-111838000D01*
G36*
X139470000Y-111838000D02*
G01*
X139190000Y-111838000D01*
X139190000Y-111558000D01*
X139470000Y-111838000D01*
G37*
%TO.C,C29*%
X141880000Y-88245836D02*
X141880000Y-88030164D01*
X142600000Y-88245836D02*
X142600000Y-88030164D01*
%TO.C,U9*%
X113177000Y-98008000D02*
X114997000Y-98008000D01*
X113177000Y-98058000D02*
X113177000Y-98008000D01*
X113177000Y-99958000D02*
X113177000Y-99178000D01*
X113177000Y-101128000D02*
X113177000Y-101078000D01*
X114997000Y-98008000D02*
X114997000Y-98058000D01*
X114997000Y-101078000D02*
X114997000Y-101128000D01*
X114997000Y-101128000D02*
X113177000Y-101128000D01*
X115777000Y-101408000D02*
X115297000Y-101408000D01*
X115537000Y-101078000D01*
X115777000Y-101408000D01*
G36*
X115777000Y-101408000D02*
G01*
X115297000Y-101408000D01*
X115537000Y-101078000D01*
X115777000Y-101408000D01*
G37*
%TO.C,C24*%
X113651420Y-110742000D02*
X113932580Y-110742000D01*
X113651420Y-111762000D02*
X113932580Y-111762000D01*
%TO.C,C33*%
X144524000Y-87770580D02*
X144524000Y-87489420D01*
X145544000Y-87770580D02*
X145544000Y-87489420D01*
%TO.C,D1*%
X141884000Y-113078000D02*
X141884000Y-111768000D01*
X141884000Y-113078000D02*
X143104000Y-113078000D01*
X143104000Y-113078000D02*
X143104000Y-111768000D01*
%TO.C,U8*%
X132170000Y-89950000D02*
X132170000Y-108170000D01*
X132470000Y-89950000D02*
X132170000Y-89950000D01*
X132470000Y-108170000D02*
X132170000Y-108170000D01*
X152390000Y-89950000D02*
X146580000Y-89950000D01*
X152390000Y-89950000D02*
X152390000Y-108170000D01*
X152390000Y-108170000D02*
X145890000Y-108170000D01*
X146380000Y-89960000D02*
X145880000Y-89960000D01*
X145880000Y-89460000D01*
X146380000Y-89960000D01*
G36*
X146380000Y-89960000D02*
G01*
X145880000Y-89960000D01*
X145880000Y-89460000D01*
X146380000Y-89960000D01*
G37*
%TO.C,C17*%
X121410000Y-114667420D02*
X121410000Y-114948580D01*
X122430000Y-114667420D02*
X122430000Y-114948580D01*
%TO.C,C32*%
X108710000Y-99427420D02*
X108710000Y-99708580D01*
X109730000Y-99427420D02*
X109730000Y-99708580D01*
%TO.C,FB2*%
X128630000Y-112087242D02*
X128630000Y-110416758D01*
X130450000Y-112087242D02*
X130450000Y-110416758D01*
%TO.C,C9*%
X136546000Y-112375836D02*
X136546000Y-112160164D01*
X137266000Y-112375836D02*
X137266000Y-112160164D01*
%TO.C,C12*%
X128924164Y-115718000D02*
X129139836Y-115718000D01*
X128924164Y-116438000D02*
X129139836Y-116438000D01*
%TO.C,C14*%
X117863252Y-114327000D02*
X117340748Y-114327000D01*
X117863252Y-115797000D02*
X117340748Y-115797000D01*
%TO.C,C3*%
X105558000Y-112375836D02*
X105558000Y-112160164D01*
X106278000Y-112375836D02*
X106278000Y-112160164D01*
%TO.C,R5*%
X140590000Y-112421641D02*
X140590000Y-112114359D01*
X141350000Y-112421641D02*
X141350000Y-112114359D01*
%TO.C,C1*%
X126091836Y-99462000D02*
X125876164Y-99462000D01*
X126091836Y-100182000D02*
X125876164Y-100182000D01*
D15*
%TO.C,U3*%
X106850000Y-110664000D02*
X106850000Y-110814000D01*
X106850000Y-110664000D02*
X107490000Y-110664000D01*
X106850000Y-113364000D02*
X107490000Y-113364000D01*
X106875000Y-113089000D02*
X106875000Y-113239000D01*
X108410000Y-110664000D02*
X108850000Y-110664000D01*
X108410000Y-113364000D02*
X109050000Y-113364000D01*
X109050000Y-113214000D02*
X109050000Y-113364000D01*
X109410000Y-110664000D02*
X109050000Y-110664000D01*
X109050000Y-110304000D01*
X109410000Y-110664000D01*
G36*
X109410000Y-110664000D02*
G01*
X109050000Y-110664000D01*
X109050000Y-110304000D01*
X109410000Y-110664000D01*
G37*
D14*
%TO.C,C16*%
X117115000Y-107549836D02*
X117115000Y-107334164D01*
X117835000Y-107549836D02*
X117835000Y-107334164D01*
%TO.C,FB1*%
X110488000Y-99730779D02*
X110488000Y-99405221D01*
X111508000Y-99730779D02*
X111508000Y-99405221D01*
%TO.C,TP8*%
X128716000Y-88392000D02*
G75*
G02*
X127316000Y-88392000I-700000J0D01*
G01*
X127316000Y-88392000D02*
G75*
G02*
X128716000Y-88392000I700000J0D01*
G01*
%TO.C,U7*%
X116692000Y-110454000D02*
X118512000Y-110454000D01*
X116692000Y-110504000D02*
X116692000Y-110454000D01*
X116692000Y-112404000D02*
X116692000Y-111624000D01*
X116692000Y-113574000D02*
X116692000Y-113524000D01*
X118512000Y-110454000D02*
X118512000Y-110504000D01*
X118512000Y-113524000D02*
X118512000Y-113574000D01*
X118512000Y-113574000D02*
X116692000Y-113574000D01*
X119292000Y-113854000D02*
X118812000Y-113854000D01*
X119052000Y-113524000D01*
X119292000Y-113854000D01*
G36*
X119292000Y-113854000D02*
G01*
X118812000Y-113854000D01*
X119052000Y-113524000D01*
X119292000Y-113854000D01*
G37*
%TO.C,J2*%
X109920000Y-80224000D02*
X109920000Y-81374000D01*
X109920000Y-81374000D02*
X110970000Y-81374000D01*
X110970000Y-81374000D02*
X110970000Y-82364000D01*
X111090000Y-78254000D02*
X114970000Y-78254000D01*
X116140000Y-80224000D02*
X116140000Y-81374000D01*
X116140000Y-81374000D02*
X115090000Y-81374000D01*
%TO.C,TP5*%
X113730000Y-115062000D02*
G75*
G02*
X112330000Y-115062000I-700000J0D01*
G01*
X112330000Y-115062000D02*
G75*
G02*
X113730000Y-115062000I700000J0D01*
G01*
%TO.C,C20*%
X111504000Y-106793420D02*
X111504000Y-107074580D01*
X112524000Y-106793420D02*
X112524000Y-107074580D01*
%TO.C,R10*%
X140701500Y-83041258D02*
X140701500Y-82566742D01*
X141746500Y-83041258D02*
X141746500Y-82566742D01*
%TO.C,C6*%
X125116000Y-95357836D02*
X125116000Y-95142164D01*
X125836000Y-95357836D02*
X125836000Y-95142164D01*
%TO.C,FB3*%
X113954779Y-112520000D02*
X113629221Y-112520000D01*
X113954779Y-113540000D02*
X113629221Y-113540000D01*
%TO.C,R9*%
X137288000Y-110389641D02*
X137288000Y-110082359D01*
X138048000Y-110389641D02*
X138048000Y-110082359D01*
%TO.C,R4*%
X135510000Y-112421641D02*
X135510000Y-112114359D01*
X136270000Y-112421641D02*
X136270000Y-112114359D01*
%TO.C,C19*%
X121552580Y-108456000D02*
X121271420Y-108456000D01*
X121552580Y-109476000D02*
X121271420Y-109476000D01*
%TO.C,C11*%
X129399420Y-114044000D02*
X129680580Y-114044000D01*
X129399420Y-115064000D02*
X129680580Y-115064000D01*
%TO.C,R14*%
X122048000Y-84481641D02*
X122048000Y-84174359D01*
X122808000Y-84481641D02*
X122808000Y-84174359D01*
%TO.C,C7*%
X108317420Y-105408000D02*
X108598580Y-105408000D01*
X108317420Y-106428000D02*
X108598580Y-106428000D01*
%TO.C,SW2*%
X129514000Y-81874000D02*
X129514000Y-86274000D01*
X131014000Y-81874000D02*
X131114000Y-81874000D01*
X131014000Y-86274000D02*
X131114000Y-86274000D01*
X132614000Y-86274000D02*
X132614000Y-81874000D01*
%TO.C,R3*%
X138812000Y-110389641D02*
X138812000Y-110082359D01*
X139572000Y-110389641D02*
X139572000Y-110082359D01*
%TO.C,F1*%
X131424000Y-111854064D02*
X131424000Y-110649936D01*
X133244000Y-111854064D02*
X133244000Y-110649936D01*
%TD*%
%LPC*%
D16*
%TO.C,U6*%
X115737000Y-107514000D02*
X115417000Y-107834000D01*
X114387000Y-107834000D01*
X114387000Y-106034000D01*
X115737000Y-106034000D01*
X115737000Y-107514000D01*
G36*
X115737000Y-107514000D02*
G01*
X115417000Y-107834000D01*
X114387000Y-107834000D01*
X114387000Y-106034000D01*
X115737000Y-106034000D01*
X115737000Y-107514000D01*
G37*
%TD*%
D17*
%TO.C,U6*%
X116212000Y-107734000D03*
X116212000Y-106934000D03*
X116212000Y-106134000D03*
X113912000Y-106134000D03*
X113912000Y-106934000D03*
X113912000Y-107734000D03*
%TD*%
D18*
%TO.C,R8*%
X123698000Y-98804000D03*
X123698000Y-99824000D03*
%TD*%
D19*
%TO.C,U5*%
X106594000Y-89702000D03*
X106594000Y-90952000D03*
X106594000Y-92202000D03*
X106594000Y-93452000D03*
X106594000Y-94702000D03*
D20*
X108244000Y-96352000D03*
X109494000Y-96352000D03*
X110744000Y-96352000D03*
X111994000Y-96352000D03*
X113244000Y-96352000D03*
D19*
X114894000Y-94702000D03*
X114894000Y-93452000D03*
X114894000Y-92202000D03*
X114894000Y-90952000D03*
X114894000Y-89702000D03*
D20*
X113244000Y-88052000D03*
X111994000Y-88052000D03*
X110744000Y-88052000D03*
X109494000Y-88052000D03*
X108244000Y-88052000D03*
D21*
X110744000Y-92202000D03*
%TD*%
D22*
%TO.C,TP6*%
X104394000Y-98806000D03*
%TD*%
D23*
%TO.C,C18*%
X106213000Y-98793000D03*
X106213000Y-100343000D03*
%TD*%
D24*
%TO.C,C34*%
X107737000Y-98834000D03*
X107737000Y-99794000D03*
%TD*%
D25*
%TO.C,C27*%
X115037000Y-102616000D03*
X113137000Y-102616000D03*
%TD*%
D26*
%TO.C,R13*%
X120217363Y-104215363D03*
X119050637Y-103048637D03*
%TD*%
D27*
%TO.C,C13*%
X109446000Y-86106000D03*
X108486000Y-86106000D03*
%TD*%
D28*
%TO.C,J1*%
X135032000Y-115632000D03*
X140812000Y-115632000D03*
D29*
X134722000Y-114557000D03*
X135522000Y-114557000D03*
D30*
X136672000Y-114557000D03*
X137672000Y-114557000D03*
X138172000Y-114557000D03*
X139172000Y-114557000D03*
D29*
X140322000Y-114557000D03*
X141122000Y-114557000D03*
X141122000Y-114557000D03*
X140322000Y-114557000D03*
D30*
X139672000Y-114557000D03*
X138672000Y-114557000D03*
X137172000Y-114557000D03*
X136172000Y-114557000D03*
D29*
X135522000Y-114557000D03*
X134722000Y-114557000D03*
D31*
X132812000Y-115132000D03*
X132812000Y-119062000D03*
X143032000Y-115132000D03*
X143032000Y-119062000D03*
%TD*%
D32*
%TO.C,H4*%
X148063949Y-117583949D03*
%TD*%
D18*
%TO.C,R7*%
X122682000Y-98804000D03*
X122682000Y-99824000D03*
%TD*%
D33*
%TO.C,C25*%
X122428000Y-82776000D03*
X122428000Y-81816000D03*
%TD*%
D24*
%TO.C,C2*%
X106680000Y-107470000D03*
X106680000Y-108430000D03*
%TD*%
D34*
%TO.C,R12*%
X139192000Y-88455000D03*
X139192000Y-86805000D03*
%TD*%
D32*
%TO.C,H3*%
X105936051Y-117583949D03*
%TD*%
D18*
%TO.C,R6*%
X122682000Y-96772000D03*
X122682000Y-97792000D03*
%TD*%
D35*
%TO.C,C15*%
X125476000Y-110164000D03*
X125476000Y-116404000D03*
%TD*%
D36*
%TO.C,SW1*%
X125768000Y-82024000D03*
X125768000Y-86124000D03*
X124168000Y-82024000D03*
X124168000Y-86124000D03*
%TD*%
D22*
%TO.C,TP2*%
X144526000Y-112268000D03*
%TD*%
%TO.C,TP3*%
X127508000Y-92710000D03*
%TD*%
D33*
%TO.C,C31*%
X143510000Y-88618000D03*
X143510000Y-87658000D03*
%TD*%
D37*
%TO.C,C23*%
X124300000Y-104902000D03*
X129700000Y-104902000D03*
%TD*%
D38*
%TO.C,D2*%
X142812000Y-83591500D03*
X142812000Y-82016500D03*
%TD*%
D39*
%TO.C,R11*%
X121920000Y-110681000D03*
X121920000Y-112331000D03*
%TD*%
D23*
%TO.C,C8*%
X110236000Y-113271000D03*
X110236000Y-114821000D03*
%TD*%
D40*
%TO.C,R15*%
X128524000Y-84838000D03*
X128524000Y-83818000D03*
%TD*%
D24*
%TO.C,C22*%
X134874000Y-82324000D03*
X134874000Y-83284000D03*
%TD*%
D41*
%TO.C,U1*%
X124976000Y-98756500D03*
X125476000Y-98756500D03*
X125976000Y-98756500D03*
X125976000Y-97331500D03*
X125476000Y-97331500D03*
X124976000Y-97331500D03*
%TD*%
D23*
%TO.C,C28*%
X116586000Y-102349000D03*
X116586000Y-103899000D03*
%TD*%
D42*
%TO.C,C26*%
X129019000Y-90932000D03*
X130569000Y-90932000D03*
%TD*%
D43*
%TO.C,U2*%
X109158000Y-108350000D03*
X109158000Y-107550000D03*
X107758000Y-107550000D03*
X107758000Y-108350000D03*
%TD*%
D33*
%TO.C,C30*%
X128524000Y-82776000D03*
X128524000Y-81816000D03*
%TD*%
D27*
%TO.C,C21*%
X121638000Y-107442000D03*
X120678000Y-107442000D03*
%TD*%
D44*
%TO.C,L1*%
X129032000Y-97451000D03*
X129032000Y-95081000D03*
%TD*%
D32*
%TO.C,H2*%
X148063948Y-81280000D03*
%TD*%
D24*
%TO.C,C10*%
X123698000Y-96802000D03*
X123698000Y-97762000D03*
%TD*%
D22*
%TO.C,TP7*%
X125730000Y-89154000D03*
%TD*%
D45*
%TO.C,TP1*%
X129286000Y-119126000D03*
%TD*%
D46*
%TO.C,D3*%
X136356000Y-83719000D03*
X137456000Y-83719000D03*
X137456000Y-81889000D03*
X136356000Y-81889000D03*
%TD*%
D22*
%TO.C,TP4*%
X128016000Y-99822000D03*
%TD*%
D33*
%TO.C,C5*%
X109982000Y-111986000D03*
X109982000Y-111026000D03*
%TD*%
%TO.C,C4*%
X139954000Y-112748000D03*
X139954000Y-111788000D03*
%TD*%
D32*
%TO.C,H1*%
X105936052Y-81280000D03*
%TD*%
D47*
%TO.C,U4*%
X138780000Y-111843000D03*
X138080000Y-111843000D03*
X138430000Y-112693000D03*
%TD*%
D33*
%TO.C,C29*%
X142240000Y-88618000D03*
X142240000Y-87658000D03*
%TD*%
D48*
%TO.C,U9*%
X115224500Y-100518000D03*
X115224500Y-99568000D03*
X115224500Y-98618000D03*
X112949500Y-98618000D03*
X112949500Y-100518000D03*
%TD*%
D42*
%TO.C,C24*%
X113017000Y-111252000D03*
X114567000Y-111252000D03*
%TD*%
D49*
%TO.C,C33*%
X145034000Y-88405000D03*
X145034000Y-86855000D03*
%TD*%
D50*
%TO.C,D1*%
X142494000Y-112618000D03*
X142494000Y-111918000D03*
%TD*%
D51*
%TO.C,U8*%
X145180000Y-90310000D03*
X143680000Y-90310000D03*
X142180000Y-90310000D03*
X140680000Y-90310000D03*
X139180000Y-90310000D03*
X137680000Y-90310000D03*
X136180000Y-90310000D03*
X134680000Y-90310000D03*
X133180000Y-90310000D03*
X133180000Y-107810000D03*
X134680000Y-107810000D03*
X136180000Y-107810000D03*
X137680000Y-107810000D03*
X139180000Y-107810000D03*
X140680000Y-107810000D03*
X142180000Y-107810000D03*
X143680000Y-107810000D03*
X145180000Y-107810000D03*
D52*
X139530000Y-98920000D03*
X138430000Y-98920000D03*
X140080000Y-99470000D03*
X138980000Y-99470000D03*
X137880000Y-99470000D03*
X139530000Y-100020000D03*
D53*
X138980000Y-100020000D03*
D52*
X138430000Y-100020000D03*
X140080000Y-100570000D03*
X138980000Y-100570000D03*
X137880000Y-100570000D03*
X139530000Y-101120000D03*
X138430000Y-101120000D03*
%TD*%
D23*
%TO.C,C17*%
X121920000Y-114033000D03*
X121920000Y-115583000D03*
%TD*%
%TO.C,C32*%
X109220000Y-98793000D03*
X109220000Y-100343000D03*
%TD*%
D54*
%TO.C,FB2*%
X129540000Y-112827000D03*
X129540000Y-109677000D03*
%TD*%
D33*
%TO.C,C9*%
X136906000Y-112748000D03*
X136906000Y-111788000D03*
%TD*%
D55*
%TO.C,C12*%
X128552000Y-116078000D03*
X129512000Y-116078000D03*
%TD*%
D25*
%TO.C,C14*%
X118552000Y-115062000D03*
X116652000Y-115062000D03*
%TD*%
D33*
%TO.C,C3*%
X105918000Y-112748000D03*
X105918000Y-111788000D03*
%TD*%
D40*
%TO.C,R5*%
X140970000Y-112778000D03*
X140970000Y-111758000D03*
%TD*%
D27*
%TO.C,C1*%
X126464000Y-99822000D03*
X125504000Y-99822000D03*
%TD*%
D56*
%TO.C,U3*%
X108750000Y-111039000D03*
X108750000Y-111689000D03*
X108750000Y-112339000D03*
X108750000Y-112989000D03*
X107150000Y-112989000D03*
X107150000Y-112339000D03*
X107150000Y-111689000D03*
X107150000Y-111039000D03*
%TD*%
D33*
%TO.C,C16*%
X117475000Y-107922000D03*
X117475000Y-106962000D03*
%TD*%
D38*
%TO.C,FB1*%
X110998000Y-100355500D03*
X110998000Y-98780500D03*
%TD*%
D22*
%TO.C,TP8*%
X128016000Y-88392000D03*
%TD*%
D48*
%TO.C,U7*%
X118739500Y-112964000D03*
X118739500Y-112014000D03*
X118739500Y-111064000D03*
X116464500Y-111064000D03*
X116464500Y-112964000D03*
%TD*%
D57*
%TO.C,J2*%
X111530000Y-81589000D03*
X112530000Y-81589000D03*
X113530000Y-81589000D03*
X114530000Y-81589000D03*
D58*
X110230000Y-79064000D03*
X115830000Y-79064000D03*
%TD*%
D22*
%TO.C,TP5*%
X113030000Y-115062000D03*
%TD*%
D23*
%TO.C,C20*%
X112014000Y-106159000D03*
X112014000Y-107709000D03*
%TD*%
D34*
%TO.C,R10*%
X141224000Y-83629000D03*
X141224000Y-81979000D03*
%TD*%
D33*
%TO.C,C6*%
X125476000Y-95730000D03*
X125476000Y-94770000D03*
%TD*%
D59*
%TO.C,FB3*%
X114579500Y-113030000D03*
X113004500Y-113030000D03*
%TD*%
D40*
%TO.C,R9*%
X137668000Y-110746000D03*
X137668000Y-109726000D03*
%TD*%
%TO.C,R4*%
X135890000Y-112778000D03*
X135890000Y-111758000D03*
%TD*%
D60*
%TO.C,C19*%
X122187000Y-108966000D03*
X120637000Y-108966000D03*
%TD*%
D42*
%TO.C,C11*%
X128765000Y-114554000D03*
X130315000Y-114554000D03*
%TD*%
D40*
%TO.C,R14*%
X122428000Y-84838000D03*
X122428000Y-83818000D03*
%TD*%
D42*
%TO.C,C7*%
X107683000Y-105918000D03*
X109233000Y-105918000D03*
%TD*%
D36*
%TO.C,SW2*%
X131864000Y-82024000D03*
X131864000Y-86124000D03*
X130264000Y-82024000D03*
X130264000Y-86124000D03*
%TD*%
D40*
%TO.C,R3*%
X139192000Y-110746000D03*
X139192000Y-109726000D03*
%TD*%
D61*
%TO.C,F1*%
X132334000Y-112652000D03*
X132334000Y-109852000D03*
%TD*%
%LPD*%
M02*
