%TF.GenerationSoftware,KiCad,Pcbnew,9.0.7*%
%TF.CreationDate,2026-04-13T19:26:54+02:00*%
%TF.ProjectId,air_quality_sensor,6169725f-7175-4616-9c69-74795f73656e,1.0*%
%TF.SameCoordinates,Original*%
%TF.FileFunction,Copper,L3,Inr*%
%TF.FilePolarity,Positive*%
%FSLAX46Y46*%
G04 Gerber Fmt 4.6, Leading zero omitted, Abs format (unit mm)*
G04 Created by KiCad (PCBNEW 9.0.7) date 2026-04-13 19:26:54*
%MOMM*%
%LPD*%
G01*
G04 APERTURE LIST*
%ADD10C,0.200000*%
%TA.AperFunction,NonConductor*%
%ADD11C,0.200000*%
%TD*%
%TA.AperFunction,ComponentPad*%
%ADD12C,4.700000*%
%TD*%
%TA.AperFunction,ComponentPad*%
%ADD13C,2.000000*%
%TD*%
%TA.AperFunction,HeatsinkPad*%
%ADD14C,0.600000*%
%TD*%
%TA.AperFunction,ViaPad*%
%ADD15C,0.500000*%
%TD*%
%TA.AperFunction,Conductor*%
%ADD16C,0.400000*%
%TD*%
G04 APERTURE END LIST*
D10*
D11*
X102830219Y-110823332D02*
X102830219Y-110204285D01*
X102830219Y-110204285D02*
X103211171Y-110537618D01*
X103211171Y-110537618D02*
X103211171Y-110394761D01*
X103211171Y-110394761D02*
X103258790Y-110299523D01*
X103258790Y-110299523D02*
X103306409Y-110251904D01*
X103306409Y-110251904D02*
X103401647Y-110204285D01*
X103401647Y-110204285D02*
X103639742Y-110204285D01*
X103639742Y-110204285D02*
X103734980Y-110251904D01*
X103734980Y-110251904D02*
X103782600Y-110299523D01*
X103782600Y-110299523D02*
X103830219Y-110394761D01*
X103830219Y-110394761D02*
X103830219Y-110680475D01*
X103830219Y-110680475D02*
X103782600Y-110775713D01*
X103782600Y-110775713D02*
X103734980Y-110823332D01*
D12*
%TO.N,N/C*%
%TO.C,H4*%
X148063949Y-117583949D03*
%TD*%
%TO.N,N/C*%
%TO.C,H3*%
X105936051Y-117583949D03*
%TD*%
%TO.N,N/C*%
%TO.C,H2*%
X148063948Y-81280000D03*
%TD*%
D13*
%TO.N,GND*%
%TO.C,TP1*%
X129286000Y-119126000D03*
%TD*%
D12*
%TO.N,N/C*%
%TO.C,H1*%
X105936052Y-81280000D03*
%TD*%
D14*
%TO.N,GND*%
%TO.C,U8*%
X139530000Y-98920000D03*
X138430000Y-98920000D03*
X140080000Y-99470000D03*
X138980000Y-99470000D03*
X137880000Y-99470000D03*
X139530000Y-100020000D03*
X138430000Y-100020000D03*
X140080000Y-100570000D03*
X138980000Y-100570000D03*
X137880000Y-100570000D03*
X139530000Y-101120000D03*
X138430000Y-101120000D03*
%TD*%
D15*
%TO.N,+3V3*%
X123190000Y-96774000D03*
%TO.N,VBUS*%
X135543228Y-115062903D03*
X140023191Y-115443734D03*
%TO.N,GND*%
X103124000Y-95504000D03*
X120650000Y-81026000D03*
X103124000Y-86106000D03*
X137414000Y-119126000D03*
X133858000Y-99060000D03*
X103124000Y-105918000D03*
X119126000Y-81026000D03*
X136144000Y-87122000D03*
X133858000Y-99822000D03*
X126238000Y-102362000D03*
X103124000Y-105156000D03*
X103886000Y-106680000D03*
X113792000Y-118618000D03*
X119888000Y-80264000D03*
X121412000Y-93472000D03*
X138176000Y-118364000D03*
X138938000Y-118364000D03*
X136906000Y-86360000D03*
X104648000Y-106680000D03*
X123190000Y-118618000D03*
X127762000Y-101600000D03*
X127762000Y-103124000D03*
X122174000Y-93472000D03*
X113030000Y-120142000D03*
X127762000Y-102362000D03*
X122428000Y-118618000D03*
X104648000Y-86868000D03*
X138176000Y-119888000D03*
X119126000Y-79502000D03*
X122936000Y-92710000D03*
X103886000Y-86106000D03*
X110490000Y-109220000D03*
X119888000Y-81026000D03*
X103124000Y-97028000D03*
X138430000Y-112693000D03*
X126238000Y-103124000D03*
X112268000Y-119380000D03*
X104648000Y-86106000D03*
X133858000Y-100584000D03*
X104648000Y-87630000D03*
X138938000Y-119888000D03*
X135382000Y-100584000D03*
X134620000Y-99822000D03*
X135382000Y-99060000D03*
X104648000Y-95504000D03*
X138176000Y-119126000D03*
X119888000Y-79502000D03*
X113030000Y-119380000D03*
X112268000Y-118618000D03*
X138938000Y-119126000D03*
X103886000Y-105156000D03*
X135382000Y-85598000D03*
X121666000Y-118618000D03*
X112268000Y-120142000D03*
X122936000Y-93472000D03*
X104648000Y-105918000D03*
X122174000Y-94234000D03*
X111252000Y-110744000D03*
X136906000Y-87122000D03*
X103886000Y-95504000D03*
X127000000Y-103124000D03*
X137414000Y-118364000D03*
X121412000Y-92710000D03*
X136906000Y-85598000D03*
X120650000Y-79502000D03*
X121666000Y-119380000D03*
X135382000Y-86360000D03*
X112014000Y-109220000D03*
X103886000Y-87630000D03*
X111252000Y-109982000D03*
X103124000Y-87630000D03*
X137414000Y-119888000D03*
X103124000Y-96266000D03*
X120650000Y-80264000D03*
X113792000Y-119380000D03*
X113030000Y-118618000D03*
X110490000Y-110744000D03*
X103886000Y-86868000D03*
X121412000Y-94234000D03*
X104648000Y-105156000D03*
X104648000Y-97028000D03*
X135382000Y-99822000D03*
X122174000Y-92710000D03*
X122936000Y-94234000D03*
X136144000Y-86360000D03*
X123190000Y-120142000D03*
X103886000Y-97028000D03*
X127000000Y-101600000D03*
X121666000Y-120142000D03*
X112014000Y-110744000D03*
X103886000Y-96266000D03*
X126238000Y-101600000D03*
X113792000Y-120142000D03*
X136144000Y-85598000D03*
X104648000Y-96266000D03*
X123190000Y-119380000D03*
X110490000Y-109982000D03*
X122428000Y-119380000D03*
X135382000Y-87122000D03*
X111252000Y-109220000D03*
X127000000Y-102362000D03*
X134620000Y-99060000D03*
X119126000Y-80264000D03*
X122428000Y-120142000D03*
X103124000Y-86868000D03*
X103124000Y-106680000D03*
X103886000Y-105918000D03*
X134620000Y-100584000D03*
X112014000Y-109982000D03*
%TO.N,+5V*%
X128016000Y-99822000D03*
X121666000Y-107188000D03*
X121666000Y-110744000D03*
X122428000Y-109220000D03*
X126492000Y-109474000D03*
X130302000Y-109220000D03*
X126492000Y-110236000D03*
X121920000Y-108712000D03*
X130302000Y-109982000D03*
X128778000Y-109220000D03*
X126492000Y-110998000D03*
X129540000Y-109220000D03*
X124206000Y-104394000D03*
X126238000Y-98552000D03*
X124460000Y-109474000D03*
X125730000Y-104394000D03*
X122682000Y-104394000D03*
X123444000Y-104394000D03*
X125476000Y-109474000D03*
X125730000Y-105410000D03*
X124968000Y-104394000D03*
X135077072Y-82077949D03*
X122174000Y-110490000D03*
X125476000Y-110998000D03*
X129540000Y-109982000D03*
X128778000Y-109982000D03*
X135890000Y-81889000D03*
X123444000Y-105410000D03*
X124968000Y-105410000D03*
X125476000Y-110236000D03*
X124206000Y-105410000D03*
X124460000Y-110998000D03*
X127254000Y-99822000D03*
X124460000Y-110236000D03*
X122682000Y-105410000D03*
X126464000Y-99822000D03*
%TO.N,+3V3*%
X144862003Y-88405000D03*
X129794000Y-95504000D03*
X128270000Y-95504000D03*
X141903997Y-88405000D03*
X143681997Y-88405000D03*
X122346015Y-96769354D03*
X127508000Y-94742000D03*
X129032000Y-95504000D03*
X130556000Y-94742000D03*
X144272000Y-88405000D03*
X122682000Y-85090000D03*
X125730000Y-96012000D03*
X130556000Y-95504000D03*
X129794000Y-94742000D03*
X127508000Y-92710000D03*
X112522000Y-82296000D03*
X142494000Y-88405000D03*
X125222000Y-95504000D03*
X128778000Y-85090000D03*
X129032000Y-94742000D03*
X128270000Y-84582000D03*
X124034003Y-96774000D03*
X143084003Y-88405000D03*
X112522000Y-80772000D03*
X128270000Y-94742000D03*
X127508000Y-95504000D03*
X122174000Y-84582000D03*
%TO.N,+3V3_SENS*%
X110236000Y-112426997D03*
X106172000Y-112494000D03*
X111677997Y-113017000D03*
X107566081Y-106426000D03*
X112090290Y-106724759D03*
X113017805Y-112685804D03*
X116757997Y-107696000D03*
X109728000Y-111689000D03*
X113014906Y-112095809D03*
X107188000Y-107550000D03*
X106934000Y-112463998D03*
X113030000Y-111506000D03*
X110998000Y-113017000D03*
X111252000Y-106934000D03*
X109162000Y-111689000D03*
X110236000Y-113017000D03*
X113030000Y-115062000D03*
X117348000Y-107696000D03*
X112268000Y-113017000D03*
X107555313Y-107002042D03*
X110998000Y-107442000D03*
%TO.N,Net-(JP3-A)*%
X115316000Y-100330000D03*
%TO.N,+3V3_SCD*%
X109494000Y-87926003D03*
X108712000Y-98806000D03*
X109494000Y-86785997D03*
X108121997Y-98806000D03*
X107524003Y-98806000D03*
X106934000Y-98806000D03*
X109494000Y-97282000D03*
X109494000Y-87376000D03*
X109494000Y-97872003D03*
X105664000Y-98806000D03*
X109728000Y-98806000D03*
%TO.N,VBUS*%
X140308455Y-114363760D03*
X131572000Y-112268000D03*
X144526000Y-112268000D03*
X133096000Y-113030000D03*
X131572000Y-113030000D03*
X133096000Y-112268000D03*
X135518493Y-114473420D03*
X142830003Y-112776000D03*
X142240000Y-112776000D03*
X135793002Y-115553884D03*
X132334000Y-112652000D03*
X140349710Y-114952319D03*
%TO.N,Net-(JP1-B)*%
X125476000Y-96774000D03*
%TO.N,Net-(JP2-B)*%
X119380000Y-111379000D03*
%TO.N,Net-(JP3-B)*%
X115443000Y-98806000D03*
%TO.N,/ESP32_SDA*%
X113284000Y-96266000D03*
X109474000Y-108337171D03*
X108712000Y-112214002D03*
X125730000Y-89154000D03*
X116078000Y-106172000D03*
X117094000Y-89662000D03*
X136906000Y-89154000D03*
X113284000Y-97028000D03*
X115824000Y-88392000D03*
X113284000Y-95504000D03*
X113538000Y-82550000D03*
%TO.N,/ESP32_SCL*%
X112014000Y-95504000D03*
X135868000Y-88392000D03*
X108458000Y-113030000D03*
X113792000Y-107696000D03*
X114554000Y-82550000D03*
X109474000Y-107508000D03*
X128016000Y-88392000D03*
X112014000Y-97028000D03*
X112014000Y-96266000D03*
%TO.N,Net-(JP2-A)*%
X119253000Y-112776000D03*
%TO.N,/ESP32_ADC1_CH4*%
X142240000Y-91440000D03*
%TO.N,/ESP32_ADC1_CH3*%
X140716000Y-106680000D03*
%TO.N,Net-(U8-IO0)*%
X145034000Y-103886000D03*
%TO.N,Net-(U8-IO1)*%
X143002000Y-103886000D03*
%TO.N,Net-(U8-IO2)*%
X140970000Y-103886000D03*
%TO.N,+3V3_SCD*%
X110317809Y-98790906D03*
%TD*%
D16*
%TO.N,+5V*%
X135309000Y-81889000D02*
X132080000Y-85118000D01*
X135890000Y-81889000D02*
X135309000Y-81889000D01*
X132080000Y-95758000D02*
X128016000Y-99822000D01*
X132080000Y-85118000D02*
X132080000Y-95758000D01*
X126464000Y-99822000D02*
X128016000Y-99822000D01*
%TD*%
%TA.AperFunction,Conductor*%
%TO.N,+3V3_SCD*%
G36*
X119323039Y-85109685D02*
G01*
X119368794Y-85162489D01*
X119380000Y-85214000D01*
X119380000Y-103762000D01*
X119360315Y-103829039D01*
X119307511Y-103874794D01*
X119256000Y-103886000D01*
X102224501Y-103886000D01*
X102157462Y-103866315D01*
X102111707Y-103813511D01*
X102100501Y-103762000D01*
X102100501Y-100250943D01*
X114715500Y-100250943D01*
X114715500Y-100409056D01*
X114756423Y-100561783D01*
X114756426Y-100561790D01*
X114835475Y-100698709D01*
X114835479Y-100698714D01*
X114835480Y-100698716D01*
X114947284Y-100810520D01*
X114947286Y-100810521D01*
X114947290Y-100810524D01*
X115084209Y-100889573D01*
X115084216Y-100889577D01*
X115236943Y-100930500D01*
X115236945Y-100930500D01*
X115395055Y-100930500D01*
X115395057Y-100930500D01*
X115547784Y-100889577D01*
X115684716Y-100810520D01*
X115796520Y-100698716D01*
X115875577Y-100561784D01*
X115916500Y-100409057D01*
X115916500Y-100250943D01*
X115875577Y-100098216D01*
X115875573Y-100098209D01*
X115796524Y-99961290D01*
X115796518Y-99961282D01*
X115684717Y-99849481D01*
X115684709Y-99849475D01*
X115547790Y-99770426D01*
X115547786Y-99770424D01*
X115547784Y-99770423D01*
X115395057Y-99729500D01*
X115236943Y-99729500D01*
X115084216Y-99770423D01*
X115084209Y-99770426D01*
X114947290Y-99849475D01*
X114947282Y-99849481D01*
X114835481Y-99961282D01*
X114835475Y-99961290D01*
X114756426Y-100098209D01*
X114756423Y-100098216D01*
X114715500Y-100250943D01*
X102100501Y-100250943D01*
X102100501Y-98726943D01*
X114842500Y-98726943D01*
X114842500Y-98885056D01*
X114883423Y-99037783D01*
X114883426Y-99037790D01*
X114962475Y-99174709D01*
X114962479Y-99174714D01*
X114962480Y-99174716D01*
X115074284Y-99286520D01*
X115074286Y-99286521D01*
X115074290Y-99286524D01*
X115211209Y-99365573D01*
X115211216Y-99365577D01*
X115363943Y-99406500D01*
X115363945Y-99406500D01*
X115522055Y-99406500D01*
X115522057Y-99406500D01*
X115674784Y-99365577D01*
X115811716Y-99286520D01*
X115923520Y-99174716D01*
X116002577Y-99037784D01*
X116043500Y-98885057D01*
X116043500Y-98726943D01*
X116002577Y-98574216D01*
X116002573Y-98574209D01*
X115923524Y-98437290D01*
X115923518Y-98437282D01*
X115811717Y-98325481D01*
X115811709Y-98325475D01*
X115674790Y-98246426D01*
X115674786Y-98246424D01*
X115674784Y-98246423D01*
X115522057Y-98205500D01*
X115363943Y-98205500D01*
X115211216Y-98246423D01*
X115211209Y-98246426D01*
X115074290Y-98325475D01*
X115074282Y-98325481D01*
X114962481Y-98437282D01*
X114962475Y-98437290D01*
X114883426Y-98574209D01*
X114883423Y-98574216D01*
X114842500Y-98726943D01*
X102100501Y-98726943D01*
X102100501Y-95424943D01*
X102523500Y-95424943D01*
X102523500Y-95583056D01*
X102564423Y-95735783D01*
X102564423Y-95735784D01*
X102614777Y-95823001D01*
X102631248Y-95890901D01*
X102614777Y-95946999D01*
X102564423Y-96034215D01*
X102564423Y-96034216D01*
X102523500Y-96186943D01*
X102523500Y-96345056D01*
X102564423Y-96497783D01*
X102564423Y-96497784D01*
X102614777Y-96585001D01*
X102631248Y-96652901D01*
X102614777Y-96708999D01*
X102564423Y-96796215D01*
X102564423Y-96796216D01*
X102523500Y-96948943D01*
X102523500Y-97107056D01*
X102564423Y-97259783D01*
X102564426Y-97259790D01*
X102643475Y-97396709D01*
X102643479Y-97396714D01*
X102643480Y-97396716D01*
X102755284Y-97508520D01*
X102755286Y-97508521D01*
X102755290Y-97508524D01*
X102892209Y-97587573D01*
X102892216Y-97587577D01*
X103044943Y-97628500D01*
X103044945Y-97628500D01*
X103203055Y-97628500D01*
X103203057Y-97628500D01*
X103355784Y-97587577D01*
X103443000Y-97537222D01*
X103510900Y-97520750D01*
X103566999Y-97537222D01*
X103654216Y-97587577D01*
X103806943Y-97628500D01*
X103806945Y-97628500D01*
X103965055Y-97628500D01*
X103965057Y-97628500D01*
X104117784Y-97587577D01*
X104205000Y-97537222D01*
X104272900Y-97520750D01*
X104328999Y-97537222D01*
X104416216Y-97587577D01*
X104568943Y-97628500D01*
X104568945Y-97628500D01*
X104727055Y-97628500D01*
X104727057Y-97628500D01*
X104879784Y-97587577D01*
X105016716Y-97508520D01*
X105128520Y-97396716D01*
X105207577Y-97259784D01*
X105248500Y-97107057D01*
X105248500Y-96948943D01*
X105207577Y-96796216D01*
X105157222Y-96708999D01*
X105140750Y-96641100D01*
X105157223Y-96585000D01*
X105207577Y-96497784D01*
X105248500Y-96345057D01*
X105248500Y-96186943D01*
X105207577Y-96034216D01*
X105157222Y-95946999D01*
X105140750Y-95879100D01*
X105157223Y-95823000D01*
X105207577Y-95735784D01*
X105248500Y-95583057D01*
X105248500Y-95424943D01*
X111413500Y-95424943D01*
X111413500Y-95583056D01*
X111454423Y-95735783D01*
X111454423Y-95735784D01*
X111504777Y-95823001D01*
X111521248Y-95890901D01*
X111504777Y-95946999D01*
X111454423Y-96034215D01*
X111454423Y-96034216D01*
X111413500Y-96186943D01*
X111413500Y-96345056D01*
X111454423Y-96497783D01*
X111454423Y-96497784D01*
X111504777Y-96585001D01*
X111521248Y-96652901D01*
X111504777Y-96708999D01*
X111454423Y-96796215D01*
X111454423Y-96796216D01*
X111413500Y-96948943D01*
X111413500Y-97107056D01*
X111454423Y-97259783D01*
X111454426Y-97259790D01*
X111533475Y-97396709D01*
X111533479Y-97396714D01*
X111533480Y-97396716D01*
X111645284Y-97508520D01*
X111645286Y-97508521D01*
X111645290Y-97508524D01*
X111782209Y-97587573D01*
X111782216Y-97587577D01*
X111934943Y-97628500D01*
X111934945Y-97628500D01*
X112093055Y-97628500D01*
X112093057Y-97628500D01*
X112245784Y-97587577D01*
X112382716Y-97508520D01*
X112494520Y-97396716D01*
X112541612Y-97315148D01*
X112592179Y-97266933D01*
X112660786Y-97253709D01*
X112725651Y-97279677D01*
X112756387Y-97315147D01*
X112803480Y-97396716D01*
X112915284Y-97508520D01*
X112915286Y-97508521D01*
X112915290Y-97508524D01*
X113052209Y-97587573D01*
X113052216Y-97587577D01*
X113204943Y-97628500D01*
X113204945Y-97628500D01*
X113363055Y-97628500D01*
X113363057Y-97628500D01*
X113515784Y-97587577D01*
X113652716Y-97508520D01*
X113764520Y-97396716D01*
X113843577Y-97259784D01*
X113884500Y-97107057D01*
X113884500Y-96948943D01*
X113843577Y-96796216D01*
X113793222Y-96708999D01*
X113776750Y-96641100D01*
X113793223Y-96585000D01*
X113843577Y-96497784D01*
X113884500Y-96345057D01*
X113884500Y-96186943D01*
X113843577Y-96034216D01*
X113793222Y-95946999D01*
X113776750Y-95879100D01*
X113793223Y-95823000D01*
X113843577Y-95735784D01*
X113884500Y-95583057D01*
X113884500Y-95424943D01*
X113843577Y-95272216D01*
X113832091Y-95252322D01*
X113764524Y-95135290D01*
X113764518Y-95135282D01*
X113652717Y-95023481D01*
X113652709Y-95023475D01*
X113515790Y-94944426D01*
X113515786Y-94944424D01*
X113515784Y-94944423D01*
X113363057Y-94903500D01*
X113204943Y-94903500D01*
X113052216Y-94944423D01*
X113052209Y-94944426D01*
X112915290Y-95023475D01*
X112915282Y-95023481D01*
X112803481Y-95135282D01*
X112803477Y-95135287D01*
X112756387Y-95216851D01*
X112705820Y-95265067D01*
X112637213Y-95278290D01*
X112572348Y-95252322D01*
X112541613Y-95216851D01*
X112494522Y-95135287D01*
X112494518Y-95135282D01*
X112382717Y-95023481D01*
X112382709Y-95023475D01*
X112245790Y-94944426D01*
X112245786Y-94944424D01*
X112245784Y-94944423D01*
X112093057Y-94903500D01*
X111934943Y-94903500D01*
X111782216Y-94944423D01*
X111782209Y-94944426D01*
X111645290Y-95023475D01*
X111645282Y-95023481D01*
X111533481Y-95135282D01*
X111533475Y-95135290D01*
X111454426Y-95272209D01*
X111454423Y-95272216D01*
X111413500Y-95424943D01*
X105248500Y-95424943D01*
X105207577Y-95272216D01*
X105196091Y-95252322D01*
X105128524Y-95135290D01*
X105128518Y-95135282D01*
X105016717Y-95023481D01*
X105016709Y-95023475D01*
X104879790Y-94944426D01*
X104879786Y-94944424D01*
X104879784Y-94944423D01*
X104727057Y-94903500D01*
X104568943Y-94903500D01*
X104416216Y-94944423D01*
X104416215Y-94944423D01*
X104328999Y-94994777D01*
X104261099Y-95011248D01*
X104205001Y-94994777D01*
X104117784Y-94944423D01*
X103965057Y-94903500D01*
X103806943Y-94903500D01*
X103654216Y-94944423D01*
X103654215Y-94944423D01*
X103566999Y-94994777D01*
X103499099Y-95011248D01*
X103443001Y-94994777D01*
X103355784Y-94944423D01*
X103203057Y-94903500D01*
X103044943Y-94903500D01*
X102892216Y-94944423D01*
X102892209Y-94944426D01*
X102755290Y-95023475D01*
X102755282Y-95023481D01*
X102643481Y-95135282D01*
X102643475Y-95135290D01*
X102564426Y-95272209D01*
X102564423Y-95272216D01*
X102523500Y-95424943D01*
X102100501Y-95424943D01*
X102100501Y-89582943D01*
X116493500Y-89582943D01*
X116493500Y-89741056D01*
X116534423Y-89893783D01*
X116534426Y-89893790D01*
X116613475Y-90030709D01*
X116613479Y-90030714D01*
X116613480Y-90030716D01*
X116725284Y-90142520D01*
X116725286Y-90142521D01*
X116725290Y-90142524D01*
X116862209Y-90221573D01*
X116862216Y-90221577D01*
X117014943Y-90262500D01*
X117014945Y-90262500D01*
X117173055Y-90262500D01*
X117173057Y-90262500D01*
X117325784Y-90221577D01*
X117462716Y-90142520D01*
X117574520Y-90030716D01*
X117653577Y-89893784D01*
X117694500Y-89741057D01*
X117694500Y-89582943D01*
X117653577Y-89430216D01*
X117653573Y-89430209D01*
X117574524Y-89293290D01*
X117574518Y-89293282D01*
X117462717Y-89181481D01*
X117462709Y-89181475D01*
X117325790Y-89102426D01*
X117325786Y-89102424D01*
X117325784Y-89102423D01*
X117173057Y-89061500D01*
X117014943Y-89061500D01*
X116862216Y-89102423D01*
X116862209Y-89102426D01*
X116725290Y-89181475D01*
X116725282Y-89181481D01*
X116613481Y-89293282D01*
X116613475Y-89293290D01*
X116534426Y-89430209D01*
X116534423Y-89430216D01*
X116493500Y-89582943D01*
X102100501Y-89582943D01*
X102100501Y-88312943D01*
X115223500Y-88312943D01*
X115223500Y-88471056D01*
X115264423Y-88623783D01*
X115264426Y-88623790D01*
X115343475Y-88760709D01*
X115343479Y-88760714D01*
X115343480Y-88760716D01*
X115455284Y-88872520D01*
X115455286Y-88872521D01*
X115455290Y-88872524D01*
X115592209Y-88951573D01*
X115592216Y-88951577D01*
X115744943Y-88992500D01*
X115744945Y-88992500D01*
X115903055Y-88992500D01*
X115903057Y-88992500D01*
X116055784Y-88951577D01*
X116192716Y-88872520D01*
X116304520Y-88760716D01*
X116383577Y-88623784D01*
X116424500Y-88471057D01*
X116424500Y-88312943D01*
X116383577Y-88160216D01*
X116347793Y-88098236D01*
X116304524Y-88023290D01*
X116304518Y-88023282D01*
X116192717Y-87911481D01*
X116192709Y-87911475D01*
X116055790Y-87832426D01*
X116055786Y-87832424D01*
X116055784Y-87832423D01*
X115903057Y-87791500D01*
X115744943Y-87791500D01*
X115592216Y-87832423D01*
X115592209Y-87832426D01*
X115455290Y-87911475D01*
X115455282Y-87911481D01*
X115343481Y-88023282D01*
X115343475Y-88023290D01*
X115264426Y-88160209D01*
X115264423Y-88160216D01*
X115223500Y-88312943D01*
X102100501Y-88312943D01*
X102100501Y-86026943D01*
X102523500Y-86026943D01*
X102523500Y-86185056D01*
X102564423Y-86337783D01*
X102564423Y-86337784D01*
X102614777Y-86425001D01*
X102631248Y-86492901D01*
X102614777Y-86548999D01*
X102564423Y-86636215D01*
X102564423Y-86636216D01*
X102523500Y-86788943D01*
X102523500Y-86947056D01*
X102564423Y-87099783D01*
X102564423Y-87099784D01*
X102614777Y-87187001D01*
X102631248Y-87254901D01*
X102614777Y-87310999D01*
X102564423Y-87398215D01*
X102564423Y-87398216D01*
X102523500Y-87550943D01*
X102523500Y-87709057D01*
X102545591Y-87791500D01*
X102564423Y-87861783D01*
X102564426Y-87861790D01*
X102643475Y-87998709D01*
X102643479Y-87998714D01*
X102643480Y-87998716D01*
X102755284Y-88110520D01*
X102755286Y-88110521D01*
X102755290Y-88110524D01*
X102892209Y-88189573D01*
X102892216Y-88189577D01*
X103044943Y-88230500D01*
X103044945Y-88230500D01*
X103203055Y-88230500D01*
X103203057Y-88230500D01*
X103355784Y-88189577D01*
X103443000Y-88139222D01*
X103510900Y-88122750D01*
X103566999Y-88139222D01*
X103654216Y-88189577D01*
X103806943Y-88230500D01*
X103806945Y-88230500D01*
X103965055Y-88230500D01*
X103965057Y-88230500D01*
X104117784Y-88189577D01*
X104205000Y-88139222D01*
X104272900Y-88122750D01*
X104328999Y-88139222D01*
X104416216Y-88189577D01*
X104568943Y-88230500D01*
X104568945Y-88230500D01*
X104727055Y-88230500D01*
X104727057Y-88230500D01*
X104879784Y-88189577D01*
X104879786Y-88189575D01*
X104879788Y-88189575D01*
X105016709Y-88110524D01*
X105016708Y-88110524D01*
X105016716Y-88110520D01*
X105128520Y-87998716D01*
X105207577Y-87861784D01*
X105248500Y-87709057D01*
X105248500Y-87550943D01*
X105207577Y-87398216D01*
X105157222Y-87310999D01*
X105140750Y-87243100D01*
X105157223Y-87187000D01*
X105207577Y-87099784D01*
X105248500Y-86947057D01*
X105248500Y-86788943D01*
X105207577Y-86636216D01*
X105157222Y-86548999D01*
X105140750Y-86481100D01*
X105157223Y-86425000D01*
X105207577Y-86337784D01*
X105248500Y-86185057D01*
X105248500Y-86026943D01*
X105207577Y-85874216D01*
X105207573Y-85874209D01*
X105128524Y-85737290D01*
X105128518Y-85737282D01*
X105016717Y-85625481D01*
X105016709Y-85625475D01*
X104879790Y-85546426D01*
X104879786Y-85546424D01*
X104879784Y-85546423D01*
X104727057Y-85505500D01*
X104568943Y-85505500D01*
X104416216Y-85546423D01*
X104416215Y-85546423D01*
X104328999Y-85596777D01*
X104261099Y-85613248D01*
X104205001Y-85596777D01*
X104117784Y-85546423D01*
X103965057Y-85505500D01*
X103806943Y-85505500D01*
X103654216Y-85546423D01*
X103654215Y-85546423D01*
X103566999Y-85596777D01*
X103499099Y-85613248D01*
X103443001Y-85596777D01*
X103355784Y-85546423D01*
X103203057Y-85505500D01*
X103044943Y-85505500D01*
X102892216Y-85546423D01*
X102892209Y-85546426D01*
X102755290Y-85625475D01*
X102755282Y-85625481D01*
X102643481Y-85737282D01*
X102643475Y-85737290D01*
X102564426Y-85874209D01*
X102564423Y-85874216D01*
X102523500Y-86026943D01*
X102100501Y-86026943D01*
X102100501Y-85214000D01*
X102120186Y-85146961D01*
X102172990Y-85101206D01*
X102224501Y-85090000D01*
X119256000Y-85090000D01*
X119323039Y-85109685D01*
G37*
%TD.AperFunction*%
%TD*%
%TA.AperFunction,Conductor*%
%TO.N,VBUS*%
G36*
X146223039Y-108833185D02*
G01*
X146268794Y-108885989D01*
X146280000Y-108937500D01*
X146280000Y-113060000D01*
X151775500Y-113060000D01*
X151842539Y-113079685D01*
X151888294Y-113132489D01*
X151899500Y-113184000D01*
X151899500Y-119375933D01*
X151899235Y-119384043D01*
X151882583Y-119638104D01*
X151880465Y-119654186D01*
X151831591Y-119899888D01*
X151827393Y-119915554D01*
X151746864Y-120152786D01*
X151740657Y-120167772D01*
X151629853Y-120392460D01*
X151621743Y-120406507D01*
X151482559Y-120614811D01*
X151472685Y-120627679D01*
X151307503Y-120816033D01*
X151296034Y-120827502D01*
X151107679Y-120992685D01*
X151094811Y-121002559D01*
X150886507Y-121141743D01*
X150872460Y-121149853D01*
X150647772Y-121260657D01*
X150632786Y-121266864D01*
X150395555Y-121347393D01*
X150379889Y-121351591D01*
X150134187Y-121400465D01*
X150118105Y-121402583D01*
X149864059Y-121419234D01*
X149855949Y-121419499D01*
X130426000Y-121419499D01*
X130358961Y-121399814D01*
X130313206Y-121347010D01*
X130302000Y-121295499D01*
X130302000Y-120065495D01*
X130321685Y-119998456D01*
X130325682Y-119992610D01*
X130382044Y-119915031D01*
X130441051Y-119833816D01*
X130537557Y-119644412D01*
X130603246Y-119442243D01*
X130636500Y-119232287D01*
X130636500Y-119019713D01*
X130603246Y-118809757D01*
X130537557Y-118607588D01*
X130441051Y-118418184D01*
X130441049Y-118418181D01*
X130391296Y-118349700D01*
X130391296Y-118349699D01*
X130344248Y-118284943D01*
X136813500Y-118284943D01*
X136813500Y-118443056D01*
X136854423Y-118595783D01*
X136854423Y-118595784D01*
X136904777Y-118683001D01*
X136921248Y-118750901D01*
X136904777Y-118806999D01*
X136854423Y-118894215D01*
X136854423Y-118894216D01*
X136813500Y-119046943D01*
X136813500Y-119205057D01*
X136820797Y-119232287D01*
X136854423Y-119357783D01*
X136854423Y-119357784D01*
X136904777Y-119445001D01*
X136921248Y-119512901D01*
X136904777Y-119568999D01*
X136854423Y-119656215D01*
X136854423Y-119656216D01*
X136813500Y-119808943D01*
X136813500Y-119967057D01*
X136839877Y-120065495D01*
X136854423Y-120119783D01*
X136854426Y-120119790D01*
X136933475Y-120256709D01*
X136933479Y-120256714D01*
X136933480Y-120256716D01*
X137045284Y-120368520D01*
X137045286Y-120368521D01*
X137045290Y-120368524D01*
X137099376Y-120399750D01*
X137182216Y-120447577D01*
X137334943Y-120488500D01*
X137334945Y-120488500D01*
X137493055Y-120488500D01*
X137493057Y-120488500D01*
X137645784Y-120447577D01*
X137733000Y-120397222D01*
X137800900Y-120380750D01*
X137856999Y-120397222D01*
X137944216Y-120447577D01*
X138096943Y-120488500D01*
X138096945Y-120488500D01*
X138255055Y-120488500D01*
X138255057Y-120488500D01*
X138407784Y-120447577D01*
X138495000Y-120397222D01*
X138562900Y-120380750D01*
X138618999Y-120397222D01*
X138706216Y-120447577D01*
X138858943Y-120488500D01*
X138858945Y-120488500D01*
X139017055Y-120488500D01*
X139017057Y-120488500D01*
X139169784Y-120447577D01*
X139306716Y-120368520D01*
X139418520Y-120256716D01*
X139497577Y-120119784D01*
X139538500Y-119967057D01*
X139538500Y-119808943D01*
X139497577Y-119656216D01*
X139447222Y-119568999D01*
X139430750Y-119501100D01*
X139447223Y-119445000D01*
X139448817Y-119442239D01*
X139497577Y-119357784D01*
X139538500Y-119205057D01*
X139538500Y-119046943D01*
X139497577Y-118894216D01*
X139447222Y-118806999D01*
X139430750Y-118739100D01*
X139447223Y-118683000D01*
X139497577Y-118595784D01*
X139538500Y-118443057D01*
X139538500Y-118284943D01*
X139497577Y-118132216D01*
X139476608Y-118095896D01*
X139418524Y-117995290D01*
X139418518Y-117995282D01*
X139306717Y-117883481D01*
X139306709Y-117883475D01*
X139169790Y-117804426D01*
X139169786Y-117804424D01*
X139169784Y-117804423D01*
X139017057Y-117763500D01*
X138858943Y-117763500D01*
X138706216Y-117804423D01*
X138706215Y-117804423D01*
X138618999Y-117854777D01*
X138551099Y-117871248D01*
X138495001Y-117854777D01*
X138407784Y-117804423D01*
X138255057Y-117763500D01*
X138096943Y-117763500D01*
X137944216Y-117804423D01*
X137944215Y-117804423D01*
X137856999Y-117854777D01*
X137789099Y-117871248D01*
X137733001Y-117854777D01*
X137645784Y-117804423D01*
X137493057Y-117763500D01*
X137334943Y-117763500D01*
X137182216Y-117804423D01*
X137182209Y-117804426D01*
X137045290Y-117883475D01*
X137045282Y-117883481D01*
X136933481Y-117995282D01*
X136933475Y-117995290D01*
X136854426Y-118132209D01*
X136854423Y-118132216D01*
X136813500Y-118284943D01*
X130344248Y-118284943D01*
X130325682Y-118259389D01*
X130302202Y-118193583D01*
X130302000Y-118186504D01*
X130302000Y-117432285D01*
X145363449Y-117432285D01*
X145363449Y-117735612D01*
X145397406Y-118036997D01*
X145397409Y-118037011D01*
X145464902Y-118332720D01*
X145464906Y-118332732D01*
X145565082Y-118619017D01*
X145696682Y-118892287D01*
X145697894Y-118894216D01*
X145858057Y-119149113D01*
X145924386Y-119232287D01*
X146045407Y-119384043D01*
X146047170Y-119386253D01*
X146261645Y-119600728D01*
X146498785Y-119789841D01*
X146755608Y-119951214D01*
X147028884Y-120082817D01*
X147238327Y-120156104D01*
X147315165Y-120182991D01*
X147315177Y-120182995D01*
X147610886Y-120250489D01*
X147610895Y-120250490D01*
X147610900Y-120250491D01*
X147811823Y-120273129D01*
X147912286Y-120284448D01*
X147912289Y-120284449D01*
X147912292Y-120284449D01*
X148215609Y-120284449D01*
X148215610Y-120284448D01*
X148369643Y-120267093D01*
X148516997Y-120250491D01*
X148517000Y-120250490D01*
X148517012Y-120250489D01*
X148812721Y-120182995D01*
X149099014Y-120082817D01*
X149372290Y-119951214D01*
X149629113Y-119789841D01*
X149866253Y-119600728D01*
X150080728Y-119386253D01*
X150269841Y-119149113D01*
X150431214Y-118892290D01*
X150562817Y-118619014D01*
X150662995Y-118332721D01*
X150730489Y-118037012D01*
X150737933Y-117970949D01*
X150764448Y-117735612D01*
X150764449Y-117735608D01*
X150764449Y-117432289D01*
X150764448Y-117432285D01*
X150730491Y-117130900D01*
X150730490Y-117130895D01*
X150730489Y-117130886D01*
X150662995Y-116835177D01*
X150562817Y-116548884D01*
X150431214Y-116275608D01*
X150269841Y-116018785D01*
X150080728Y-115781645D01*
X149866253Y-115567170D01*
X149629113Y-115378057D01*
X149376772Y-115219500D01*
X149372287Y-115216682D01*
X149099017Y-115085082D01*
X148812732Y-114984906D01*
X148812720Y-114984902D01*
X148584505Y-114932813D01*
X148517012Y-114917409D01*
X148517009Y-114917408D01*
X148516997Y-114917406D01*
X148215612Y-114883449D01*
X148215606Y-114883449D01*
X147912292Y-114883449D01*
X147912285Y-114883449D01*
X147610900Y-114917406D01*
X147610886Y-114917409D01*
X147315177Y-114984902D01*
X147315165Y-114984906D01*
X147028880Y-115085082D01*
X146755610Y-115216682D01*
X146498786Y-115378056D01*
X146261645Y-115567169D01*
X146047169Y-115781645D01*
X145858056Y-116018786D01*
X145696682Y-116275610D01*
X145565082Y-116548880D01*
X145464906Y-116835165D01*
X145464902Y-116835177D01*
X145397409Y-117130886D01*
X145397406Y-117130900D01*
X145363449Y-117432285D01*
X130302000Y-117432285D01*
X130302000Y-115564133D01*
X134516500Y-115564133D01*
X134516500Y-115699867D01*
X134538413Y-115781645D01*
X134551632Y-115830978D01*
X134619495Y-115948520D01*
X134619497Y-115948522D01*
X134619498Y-115948524D01*
X134715476Y-116044502D01*
X134715477Y-116044503D01*
X134715479Y-116044504D01*
X134833021Y-116112367D01*
X134833022Y-116112367D01*
X134833025Y-116112369D01*
X134964133Y-116147500D01*
X134964135Y-116147500D01*
X135099865Y-116147500D01*
X135099867Y-116147500D01*
X135230975Y-116112369D01*
X135348524Y-116044502D01*
X135444502Y-115948524D01*
X135512369Y-115830975D01*
X135547500Y-115699867D01*
X135547500Y-115564133D01*
X140296500Y-115564133D01*
X140296500Y-115699867D01*
X140318413Y-115781645D01*
X140331632Y-115830978D01*
X140399495Y-115948520D01*
X140399497Y-115948522D01*
X140399498Y-115948524D01*
X140495476Y-116044502D01*
X140495477Y-116044503D01*
X140495479Y-116044504D01*
X140613021Y-116112367D01*
X140613022Y-116112367D01*
X140613025Y-116112369D01*
X140744133Y-116147500D01*
X140744135Y-116147500D01*
X140879865Y-116147500D01*
X140879867Y-116147500D01*
X141010975Y-116112369D01*
X141128524Y-116044502D01*
X141224502Y-115948524D01*
X141292369Y-115830975D01*
X141327500Y-115699867D01*
X141327500Y-115564133D01*
X141292369Y-115433025D01*
X141224502Y-115315476D01*
X141128524Y-115219498D01*
X141128522Y-115219497D01*
X141128520Y-115219495D01*
X141010978Y-115151632D01*
X141010979Y-115151632D01*
X140995484Y-115147480D01*
X140879867Y-115116500D01*
X140744133Y-115116500D01*
X140628515Y-115147480D01*
X140613021Y-115151632D01*
X140495479Y-115219495D01*
X140495473Y-115219500D01*
X140399500Y-115315473D01*
X140399495Y-115315479D01*
X140331632Y-115433021D01*
X140331631Y-115433025D01*
X140296500Y-115564133D01*
X135547500Y-115564133D01*
X135512369Y-115433025D01*
X135444502Y-115315476D01*
X135348524Y-115219498D01*
X135348522Y-115219497D01*
X135348520Y-115219495D01*
X135230978Y-115151632D01*
X135230979Y-115151632D01*
X135215484Y-115147480D01*
X135099867Y-115116500D01*
X134964133Y-115116500D01*
X134848515Y-115147480D01*
X134833021Y-115151632D01*
X134715479Y-115219495D01*
X134715473Y-115219500D01*
X134619500Y-115315473D01*
X134619495Y-115315479D01*
X134551632Y-115433021D01*
X134551631Y-115433025D01*
X134516500Y-115564133D01*
X130302000Y-115564133D01*
X130302000Y-112613943D01*
X137829500Y-112613943D01*
X137829500Y-112772056D01*
X137870423Y-112924783D01*
X137870426Y-112924790D01*
X137949475Y-113061709D01*
X137949479Y-113061714D01*
X137949480Y-113061716D01*
X138061284Y-113173520D01*
X138061286Y-113173521D01*
X138061290Y-113173524D01*
X138198209Y-113252573D01*
X138198216Y-113252577D01*
X138350943Y-113293500D01*
X138350945Y-113293500D01*
X138509055Y-113293500D01*
X138509057Y-113293500D01*
X138661784Y-113252577D01*
X138798716Y-113173520D01*
X138910520Y-113061716D01*
X138989577Y-112924784D01*
X139030500Y-112772057D01*
X139030500Y-112613943D01*
X138989577Y-112461216D01*
X138989573Y-112461209D01*
X138910524Y-112324290D01*
X138910518Y-112324282D01*
X138798717Y-112212481D01*
X138798709Y-112212475D01*
X138661790Y-112133426D01*
X138661786Y-112133424D01*
X138661784Y-112133423D01*
X138509057Y-112092500D01*
X138350943Y-112092500D01*
X138198216Y-112133423D01*
X138198209Y-112133426D01*
X138061290Y-112212475D01*
X138061282Y-112212481D01*
X137949481Y-112324282D01*
X137949475Y-112324290D01*
X137870426Y-112461209D01*
X137870423Y-112461216D01*
X137829500Y-112613943D01*
X130302000Y-112613943D01*
X130302000Y-111557362D01*
X130321685Y-111490323D01*
X130338319Y-111469681D01*
X131064000Y-110744000D01*
X131064000Y-108937500D01*
X131083685Y-108870461D01*
X131136489Y-108824706D01*
X131188000Y-108813500D01*
X146156000Y-108813500D01*
X146223039Y-108833185D01*
G37*
%TD.AperFunction*%
%TD*%
%TA.AperFunction,Conductor*%
%TO.N,+3V3*%
G36*
X149864058Y-77444714D02*
G01*
X150118113Y-77461365D01*
X150134170Y-77463480D01*
X150379893Y-77512358D01*
X150395533Y-77516548D01*
X150632783Y-77597085D01*
X150647760Y-77603289D01*
X150872447Y-77714094D01*
X150886490Y-77722201D01*
X151094798Y-77861391D01*
X151107665Y-77871265D01*
X151296012Y-78036443D01*
X151307482Y-78047913D01*
X151472659Y-78236266D01*
X151482533Y-78249135D01*
X151621715Y-78457441D01*
X151629825Y-78471488D01*
X151740623Y-78696171D01*
X151746830Y-78711156D01*
X151827354Y-78948383D01*
X151831552Y-78964051D01*
X151880423Y-79209761D01*
X151882540Y-79225843D01*
X151899234Y-79480625D01*
X151899499Y-79488730D01*
X151899499Y-79520440D01*
X151899499Y-79549830D01*
X151899499Y-79549832D01*
X151899500Y-79559824D01*
X151899500Y-84936000D01*
X151879815Y-85003039D01*
X151827011Y-85048794D01*
X151775500Y-85060000D01*
X146280000Y-85060000D01*
X146280000Y-108334000D01*
X146260315Y-108401039D01*
X146207511Y-108446794D01*
X146156000Y-108458000D01*
X131188000Y-108458000D01*
X131120961Y-108438315D01*
X131075206Y-108385511D01*
X131064000Y-108334000D01*
X131064000Y-106600943D01*
X140115500Y-106600943D01*
X140115500Y-106759057D01*
X140118502Y-106770258D01*
X140156423Y-106911783D01*
X140156426Y-106911790D01*
X140235475Y-107048709D01*
X140235479Y-107048714D01*
X140235480Y-107048716D01*
X140347284Y-107160520D01*
X140347286Y-107160521D01*
X140347290Y-107160524D01*
X140442478Y-107215480D01*
X140484216Y-107239577D01*
X140636943Y-107280500D01*
X140636945Y-107280500D01*
X140795055Y-107280500D01*
X140795057Y-107280500D01*
X140947784Y-107239577D01*
X141084716Y-107160520D01*
X141196520Y-107048716D01*
X141275577Y-106911784D01*
X141316500Y-106759057D01*
X141316500Y-106600943D01*
X141275577Y-106448216D01*
X141261816Y-106424381D01*
X141196524Y-106311290D01*
X141196518Y-106311282D01*
X141084717Y-106199481D01*
X141084709Y-106199475D01*
X140947790Y-106120426D01*
X140947786Y-106120424D01*
X140947784Y-106120423D01*
X140795057Y-106079500D01*
X140636943Y-106079500D01*
X140484216Y-106120423D01*
X140484209Y-106120426D01*
X140347290Y-106199475D01*
X140347282Y-106199481D01*
X140235481Y-106311282D01*
X140235475Y-106311290D01*
X140156426Y-106448209D01*
X140156423Y-106448216D01*
X140115500Y-106600943D01*
X131064000Y-106600943D01*
X131064000Y-103806943D01*
X140369500Y-103806943D01*
X140369500Y-103965056D01*
X140410423Y-104117783D01*
X140410426Y-104117790D01*
X140489475Y-104254709D01*
X140489479Y-104254714D01*
X140489480Y-104254716D01*
X140601284Y-104366520D01*
X140601286Y-104366521D01*
X140601290Y-104366524D01*
X140738209Y-104445573D01*
X140738216Y-104445577D01*
X140890943Y-104486500D01*
X140890945Y-104486500D01*
X141049055Y-104486500D01*
X141049057Y-104486500D01*
X141201784Y-104445577D01*
X141338716Y-104366520D01*
X141450520Y-104254716D01*
X141529577Y-104117784D01*
X141570500Y-103965057D01*
X141570500Y-103806943D01*
X142401500Y-103806943D01*
X142401500Y-103965056D01*
X142442423Y-104117783D01*
X142442426Y-104117790D01*
X142521475Y-104254709D01*
X142521479Y-104254714D01*
X142521480Y-104254716D01*
X142633284Y-104366520D01*
X142633286Y-104366521D01*
X142633290Y-104366524D01*
X142770209Y-104445573D01*
X142770216Y-104445577D01*
X142922943Y-104486500D01*
X142922945Y-104486500D01*
X143081055Y-104486500D01*
X143081057Y-104486500D01*
X143233784Y-104445577D01*
X143370716Y-104366520D01*
X143482520Y-104254716D01*
X143561577Y-104117784D01*
X143602500Y-103965057D01*
X143602500Y-103806943D01*
X144433500Y-103806943D01*
X144433500Y-103965056D01*
X144474423Y-104117783D01*
X144474426Y-104117790D01*
X144553475Y-104254709D01*
X144553479Y-104254714D01*
X144553480Y-104254716D01*
X144665284Y-104366520D01*
X144665286Y-104366521D01*
X144665290Y-104366524D01*
X144802209Y-104445573D01*
X144802216Y-104445577D01*
X144954943Y-104486500D01*
X144954945Y-104486500D01*
X145113055Y-104486500D01*
X145113057Y-104486500D01*
X145265784Y-104445577D01*
X145402716Y-104366520D01*
X145514520Y-104254716D01*
X145593577Y-104117784D01*
X145634500Y-103965057D01*
X145634500Y-103806943D01*
X145593577Y-103654216D01*
X145557793Y-103592236D01*
X145514524Y-103517290D01*
X145514518Y-103517282D01*
X145402717Y-103405481D01*
X145402709Y-103405475D01*
X145265790Y-103326426D01*
X145265786Y-103326424D01*
X145265784Y-103326423D01*
X145113057Y-103285500D01*
X144954943Y-103285500D01*
X144802216Y-103326423D01*
X144802209Y-103326426D01*
X144665290Y-103405475D01*
X144665282Y-103405481D01*
X144553481Y-103517282D01*
X144553475Y-103517290D01*
X144474426Y-103654209D01*
X144474423Y-103654216D01*
X144433500Y-103806943D01*
X143602500Y-103806943D01*
X143561577Y-103654216D01*
X143525793Y-103592236D01*
X143482524Y-103517290D01*
X143482518Y-103517282D01*
X143370717Y-103405481D01*
X143370709Y-103405475D01*
X143233790Y-103326426D01*
X143233786Y-103326424D01*
X143233784Y-103326423D01*
X143081057Y-103285500D01*
X142922943Y-103285500D01*
X142770216Y-103326423D01*
X142770209Y-103326426D01*
X142633290Y-103405475D01*
X142633282Y-103405481D01*
X142521481Y-103517282D01*
X142521475Y-103517290D01*
X142442426Y-103654209D01*
X142442423Y-103654216D01*
X142401500Y-103806943D01*
X141570500Y-103806943D01*
X141529577Y-103654216D01*
X141493793Y-103592236D01*
X141450524Y-103517290D01*
X141450518Y-103517282D01*
X141338717Y-103405481D01*
X141338709Y-103405475D01*
X141201790Y-103326426D01*
X141201786Y-103326424D01*
X141201784Y-103326423D01*
X141049057Y-103285500D01*
X140890943Y-103285500D01*
X140738216Y-103326423D01*
X140738209Y-103326426D01*
X140601290Y-103405475D01*
X140601282Y-103405481D01*
X140489481Y-103517282D01*
X140489475Y-103517290D01*
X140410426Y-103654209D01*
X140410423Y-103654216D01*
X140369500Y-103806943D01*
X131064000Y-103806943D01*
X131064000Y-98980943D01*
X133257500Y-98980943D01*
X133257500Y-99139057D01*
X133295336Y-99280261D01*
X133298423Y-99291783D01*
X133298423Y-99291784D01*
X133348777Y-99379001D01*
X133365248Y-99446901D01*
X133348777Y-99502999D01*
X133298423Y-99590215D01*
X133298423Y-99590216D01*
X133257500Y-99742943D01*
X133257500Y-99901057D01*
X133277760Y-99976666D01*
X133298423Y-100053783D01*
X133298423Y-100053784D01*
X133348777Y-100141001D01*
X133365248Y-100208901D01*
X133348777Y-100264999D01*
X133298423Y-100352215D01*
X133298423Y-100352216D01*
X133257500Y-100504943D01*
X133257500Y-100663056D01*
X133298423Y-100815783D01*
X133298426Y-100815790D01*
X133377475Y-100952709D01*
X133377479Y-100952714D01*
X133377480Y-100952716D01*
X133489284Y-101064520D01*
X133489286Y-101064521D01*
X133489290Y-101064524D01*
X133584478Y-101119480D01*
X133626216Y-101143577D01*
X133778943Y-101184500D01*
X133778945Y-101184500D01*
X133937055Y-101184500D01*
X133937057Y-101184500D01*
X134089784Y-101143577D01*
X134177000Y-101093222D01*
X134244900Y-101076750D01*
X134300999Y-101093222D01*
X134388216Y-101143577D01*
X134540943Y-101184500D01*
X134540945Y-101184500D01*
X134699055Y-101184500D01*
X134699057Y-101184500D01*
X134851784Y-101143577D01*
X134939000Y-101093222D01*
X135006900Y-101076750D01*
X135062999Y-101093222D01*
X135150216Y-101143577D01*
X135302943Y-101184500D01*
X135302945Y-101184500D01*
X135461055Y-101184500D01*
X135461057Y-101184500D01*
X135613784Y-101143577D01*
X135750716Y-101064520D01*
X135862520Y-100952716D01*
X135941577Y-100815784D01*
X135982500Y-100663057D01*
X135982500Y-100504943D01*
X135941577Y-100352216D01*
X135891222Y-100264999D01*
X135874750Y-100197100D01*
X135891223Y-100141000D01*
X135941577Y-100053784D01*
X135982500Y-99901057D01*
X135982500Y-99742943D01*
X135941577Y-99590216D01*
X135909162Y-99534071D01*
X137229499Y-99534071D01*
X137254497Y-99659738D01*
X137254499Y-99659744D01*
X137303533Y-99778124D01*
X137303538Y-99778133D01*
X137374723Y-99884668D01*
X137374726Y-99884672D01*
X137422373Y-99932319D01*
X137455858Y-99993642D01*
X137450874Y-100063334D01*
X137422373Y-100107681D01*
X137374726Y-100155327D01*
X137374723Y-100155331D01*
X137303538Y-100261866D01*
X137303533Y-100261875D01*
X137254499Y-100380255D01*
X137254497Y-100380261D01*
X137229500Y-100505928D01*
X137229500Y-100505931D01*
X137229500Y-100634069D01*
X137229500Y-100634071D01*
X137229499Y-100634071D01*
X137254497Y-100759738D01*
X137254499Y-100759744D01*
X137303533Y-100878124D01*
X137303538Y-100878133D01*
X137374723Y-100984668D01*
X137374726Y-100984672D01*
X137465327Y-101075273D01*
X137465331Y-101075276D01*
X137571866Y-101146461D01*
X137571872Y-101146464D01*
X137571873Y-101146465D01*
X137690256Y-101195501D01*
X137704281Y-101198290D01*
X137766191Y-101230674D01*
X137800767Y-101291389D01*
X137801708Y-101295716D01*
X137804497Y-101309738D01*
X137804498Y-101309742D01*
X137853533Y-101428124D01*
X137853538Y-101428133D01*
X137924723Y-101534668D01*
X137924726Y-101534672D01*
X138015327Y-101625273D01*
X138015331Y-101625276D01*
X138121866Y-101696461D01*
X138121872Y-101696464D01*
X138121873Y-101696465D01*
X138240256Y-101745501D01*
X138240260Y-101745501D01*
X138240261Y-101745502D01*
X138365928Y-101770500D01*
X138365931Y-101770500D01*
X138494071Y-101770500D01*
X138578615Y-101753682D01*
X138619744Y-101745501D01*
X138738127Y-101696465D01*
X138844669Y-101625276D01*
X138844672Y-101625273D01*
X138892319Y-101577627D01*
X138953642Y-101544142D01*
X139023334Y-101549126D01*
X139067681Y-101577627D01*
X139115327Y-101625273D01*
X139115331Y-101625276D01*
X139221866Y-101696461D01*
X139221872Y-101696464D01*
X139221873Y-101696465D01*
X139340256Y-101745501D01*
X139340260Y-101745501D01*
X139340261Y-101745502D01*
X139465928Y-101770500D01*
X139465931Y-101770500D01*
X139594071Y-101770500D01*
X139678615Y-101753682D01*
X139719744Y-101745501D01*
X139838127Y-101696465D01*
X139944669Y-101625276D01*
X140035276Y-101534669D01*
X140106465Y-101428127D01*
X140155501Y-101309744D01*
X140158290Y-101295719D01*
X140190673Y-101233809D01*
X140251388Y-101199232D01*
X140255703Y-101198293D01*
X140269744Y-101195501D01*
X140388127Y-101146465D01*
X140494669Y-101075276D01*
X140585276Y-100984669D01*
X140656465Y-100878127D01*
X140705501Y-100759744D01*
X140730500Y-100634069D01*
X140730500Y-100505931D01*
X140730500Y-100505928D01*
X140705502Y-100380261D01*
X140705501Y-100380260D01*
X140705501Y-100380256D01*
X140656465Y-100261873D01*
X140656464Y-100261872D01*
X140656461Y-100261866D01*
X140585276Y-100155331D01*
X140585273Y-100155327D01*
X140537627Y-100107681D01*
X140504142Y-100046358D01*
X140509126Y-99976666D01*
X140537627Y-99932319D01*
X140585273Y-99884672D01*
X140585276Y-99884669D01*
X140656465Y-99778127D01*
X140705501Y-99659744D01*
X140730500Y-99534069D01*
X140730500Y-99405931D01*
X140730500Y-99405928D01*
X140705502Y-99280261D01*
X140705501Y-99280260D01*
X140705501Y-99280256D01*
X140656465Y-99161873D01*
X140656464Y-99161872D01*
X140656461Y-99161866D01*
X140585276Y-99055331D01*
X140585273Y-99055327D01*
X140494672Y-98964726D01*
X140494668Y-98964723D01*
X140388133Y-98893538D01*
X140388124Y-98893533D01*
X140269742Y-98844498D01*
X140269738Y-98844497D01*
X140255716Y-98841708D01*
X140193805Y-98809323D01*
X140159231Y-98748607D01*
X140158291Y-98744284D01*
X140155501Y-98730256D01*
X140106465Y-98611873D01*
X140106464Y-98611872D01*
X140106461Y-98611866D01*
X140035276Y-98505331D01*
X140035273Y-98505327D01*
X139944672Y-98414726D01*
X139944668Y-98414723D01*
X139838133Y-98343538D01*
X139838124Y-98343533D01*
X139719744Y-98294499D01*
X139719738Y-98294497D01*
X139594071Y-98269500D01*
X139594069Y-98269500D01*
X139465931Y-98269500D01*
X139465929Y-98269500D01*
X139340261Y-98294497D01*
X139340255Y-98294499D01*
X139221875Y-98343533D01*
X139221866Y-98343538D01*
X139115331Y-98414723D01*
X139115327Y-98414726D01*
X139067681Y-98462373D01*
X139006358Y-98495858D01*
X138936666Y-98490874D01*
X138892319Y-98462373D01*
X138844672Y-98414726D01*
X138844668Y-98414723D01*
X138738133Y-98343538D01*
X138738124Y-98343533D01*
X138619744Y-98294499D01*
X138619738Y-98294497D01*
X138494071Y-98269500D01*
X138494069Y-98269500D01*
X138365931Y-98269500D01*
X138365929Y-98269500D01*
X138240261Y-98294497D01*
X138240255Y-98294499D01*
X138121875Y-98343533D01*
X138121866Y-98343538D01*
X138015331Y-98414723D01*
X138015327Y-98414726D01*
X137924726Y-98505327D01*
X137924723Y-98505331D01*
X137853538Y-98611866D01*
X137853533Y-98611875D01*
X137804498Y-98730257D01*
X137804497Y-98730260D01*
X137801708Y-98744284D01*
X137769322Y-98806195D01*
X137708606Y-98840768D01*
X137704284Y-98841708D01*
X137690260Y-98844497D01*
X137690257Y-98844498D01*
X137571875Y-98893533D01*
X137571866Y-98893538D01*
X137465331Y-98964723D01*
X137465327Y-98964726D01*
X137374726Y-99055327D01*
X137374723Y-99055331D01*
X137303538Y-99161866D01*
X137303533Y-99161875D01*
X137254499Y-99280255D01*
X137254497Y-99280261D01*
X137229500Y-99405928D01*
X137229500Y-99405931D01*
X137229500Y-99534069D01*
X137229500Y-99534071D01*
X137229499Y-99534071D01*
X135909162Y-99534071D01*
X135891222Y-99502999D01*
X135888392Y-99491334D01*
X135881430Y-99481557D01*
X135880308Y-99458010D01*
X135874750Y-99435100D01*
X135878593Y-99422011D01*
X135878105Y-99411767D01*
X135891220Y-99379004D01*
X135941577Y-99291784D01*
X135982500Y-99139057D01*
X135982500Y-98980943D01*
X135941577Y-98828216D01*
X135928863Y-98806195D01*
X135862524Y-98691290D01*
X135862518Y-98691282D01*
X135750717Y-98579481D01*
X135750709Y-98579475D01*
X135613790Y-98500426D01*
X135613786Y-98500424D01*
X135613784Y-98500423D01*
X135461057Y-98459500D01*
X135302943Y-98459500D01*
X135150216Y-98500423D01*
X135150215Y-98500423D01*
X135062999Y-98550777D01*
X134995099Y-98567248D01*
X134939001Y-98550777D01*
X134851784Y-98500423D01*
X134834747Y-98495858D01*
X134699057Y-98459500D01*
X134540943Y-98459500D01*
X134388216Y-98500423D01*
X134388215Y-98500423D01*
X134300999Y-98550777D01*
X134233099Y-98567248D01*
X134177001Y-98550777D01*
X134089784Y-98500423D01*
X134072747Y-98495858D01*
X133937057Y-98459500D01*
X133778943Y-98459500D01*
X133626216Y-98500423D01*
X133626209Y-98500426D01*
X133489290Y-98579475D01*
X133489282Y-98579481D01*
X133377481Y-98691282D01*
X133377475Y-98691290D01*
X133298426Y-98828209D01*
X133298423Y-98828216D01*
X133257500Y-98980943D01*
X131064000Y-98980943D01*
X131064000Y-98552000D01*
X130363886Y-98552000D01*
X130296847Y-98532315D01*
X130251092Y-98479511D01*
X130241148Y-98410353D01*
X130270173Y-98346797D01*
X130276205Y-98340319D01*
X130545049Y-98071475D01*
X132520510Y-96096015D01*
X132592984Y-95970485D01*
X132630500Y-95830474D01*
X132630500Y-95685526D01*
X132630500Y-91360943D01*
X141639500Y-91360943D01*
X141639500Y-91519056D01*
X141680423Y-91671783D01*
X141680426Y-91671790D01*
X141759475Y-91808709D01*
X141759479Y-91808714D01*
X141759480Y-91808716D01*
X141871284Y-91920520D01*
X141871286Y-91920521D01*
X141871290Y-91920524D01*
X142008209Y-91999573D01*
X142008216Y-91999577D01*
X142160943Y-92040500D01*
X142160945Y-92040500D01*
X142319055Y-92040500D01*
X142319057Y-92040500D01*
X142471784Y-91999577D01*
X142608716Y-91920520D01*
X142720520Y-91808716D01*
X142799577Y-91671784D01*
X142840500Y-91519057D01*
X142840500Y-91360943D01*
X142799577Y-91208216D01*
X142799573Y-91208209D01*
X142720524Y-91071290D01*
X142720518Y-91071282D01*
X142608717Y-90959481D01*
X142608709Y-90959475D01*
X142471790Y-90880426D01*
X142471786Y-90880424D01*
X142471784Y-90880423D01*
X142319057Y-90839500D01*
X142160943Y-90839500D01*
X142008216Y-90880423D01*
X142008209Y-90880426D01*
X141871290Y-90959475D01*
X141871282Y-90959481D01*
X141759481Y-91071282D01*
X141759475Y-91071290D01*
X141680426Y-91208209D01*
X141680423Y-91208216D01*
X141639500Y-91360943D01*
X132630500Y-91360943D01*
X132630500Y-85518943D01*
X134781500Y-85518943D01*
X134781500Y-85677056D01*
X134822423Y-85829783D01*
X134822423Y-85829784D01*
X134872777Y-85917001D01*
X134889248Y-85984901D01*
X134872777Y-86040999D01*
X134822423Y-86128215D01*
X134822423Y-86128216D01*
X134781500Y-86280943D01*
X134781500Y-86439056D01*
X134822423Y-86591783D01*
X134822423Y-86591784D01*
X134872777Y-86679001D01*
X134889248Y-86746901D01*
X134872777Y-86802999D01*
X134822423Y-86890215D01*
X134822423Y-86890216D01*
X134781500Y-87042943D01*
X134781500Y-87201056D01*
X134822423Y-87353783D01*
X134822426Y-87353790D01*
X134901475Y-87490709D01*
X134901479Y-87490714D01*
X134901480Y-87490716D01*
X135013284Y-87602520D01*
X135013286Y-87602521D01*
X135013290Y-87602524D01*
X135150209Y-87681573D01*
X135150216Y-87681577D01*
X135302943Y-87722500D01*
X135302945Y-87722500D01*
X135388902Y-87722500D01*
X135455941Y-87742185D01*
X135501696Y-87794989D01*
X135511640Y-87864147D01*
X135482615Y-87927703D01*
X135476583Y-87934181D01*
X135387481Y-88023282D01*
X135387475Y-88023290D01*
X135308426Y-88160209D01*
X135308423Y-88160216D01*
X135267500Y-88312943D01*
X135267500Y-88471057D01*
X135304148Y-88607827D01*
X135308423Y-88623783D01*
X135308426Y-88623790D01*
X135387475Y-88760709D01*
X135387479Y-88760714D01*
X135387480Y-88760716D01*
X135499284Y-88872520D01*
X135499286Y-88872521D01*
X135499290Y-88872524D01*
X135613001Y-88938174D01*
X135636216Y-88951577D01*
X135788943Y-88992500D01*
X135788945Y-88992500D01*
X135947055Y-88992500D01*
X135947057Y-88992500D01*
X136099784Y-88951577D01*
X136123000Y-88938173D01*
X136190897Y-88921701D01*
X136256924Y-88944553D01*
X136300115Y-88999474D01*
X136306552Y-89066885D01*
X136306561Y-89066887D01*
X136306556Y-89066923D01*
X136306757Y-89069027D01*
X136305638Y-89073893D01*
X136305500Y-89074945D01*
X136305500Y-89233056D01*
X136346423Y-89385783D01*
X136346426Y-89385790D01*
X136425475Y-89522709D01*
X136425479Y-89522714D01*
X136425480Y-89522716D01*
X136537284Y-89634520D01*
X136537286Y-89634521D01*
X136537290Y-89634524D01*
X136674209Y-89713573D01*
X136674216Y-89713577D01*
X136826943Y-89754500D01*
X136826945Y-89754500D01*
X136985055Y-89754500D01*
X136985057Y-89754500D01*
X137137784Y-89713577D01*
X137274716Y-89634520D01*
X137386520Y-89522716D01*
X137465577Y-89385784D01*
X137506500Y-89233057D01*
X137506500Y-89074943D01*
X137465577Y-88922216D01*
X137436884Y-88872518D01*
X137386524Y-88785290D01*
X137386518Y-88785282D01*
X137274717Y-88673481D01*
X137274709Y-88673475D01*
X137137790Y-88594426D01*
X137137786Y-88594424D01*
X137137784Y-88594423D01*
X136985057Y-88553500D01*
X136826943Y-88553500D01*
X136674216Y-88594423D01*
X136674213Y-88594424D01*
X136650998Y-88607827D01*
X136583097Y-88624297D01*
X136517071Y-88601443D01*
X136473882Y-88546521D01*
X136467447Y-88479114D01*
X136467439Y-88479113D01*
X136467444Y-88479074D01*
X136467243Y-88476967D01*
X136468362Y-88472101D01*
X136468500Y-88471055D01*
X136468500Y-88312945D01*
X136468500Y-88312943D01*
X136427577Y-88160216D01*
X136427573Y-88160209D01*
X136348524Y-88023290D01*
X136348518Y-88023282D01*
X136236653Y-87911417D01*
X136221176Y-87883074D01*
X136204451Y-87855423D01*
X136204528Y-87852585D01*
X136203168Y-87850094D01*
X136205472Y-87817868D01*
X136206351Y-87785579D01*
X136207949Y-87783234D01*
X136208152Y-87780402D01*
X136227512Y-87754540D01*
X136245709Y-87727850D01*
X136248606Y-87726362D01*
X136250024Y-87724469D01*
X136275908Y-87709583D01*
X136283870Y-87706204D01*
X136375784Y-87681577D01*
X136469582Y-87627422D01*
X136476574Y-87624457D01*
X136504032Y-87621268D01*
X136530900Y-87614750D01*
X136539192Y-87617185D01*
X136545978Y-87616397D01*
X136560140Y-87623335D01*
X136586999Y-87631222D01*
X136674216Y-87681577D01*
X136826943Y-87722500D01*
X136826945Y-87722500D01*
X136985055Y-87722500D01*
X136985057Y-87722500D01*
X137137784Y-87681577D01*
X137274716Y-87602520D01*
X137386520Y-87490716D01*
X137465577Y-87353784D01*
X137506500Y-87201057D01*
X137506500Y-87042943D01*
X137465577Y-86890216D01*
X137415222Y-86802999D01*
X137398750Y-86735100D01*
X137415223Y-86679000D01*
X137465577Y-86591784D01*
X137506500Y-86439057D01*
X137506500Y-86280943D01*
X137465577Y-86128216D01*
X137415222Y-86040999D01*
X137398750Y-85973100D01*
X137415223Y-85917000D01*
X137465577Y-85829784D01*
X137506500Y-85677057D01*
X137506500Y-85518943D01*
X137465577Y-85366216D01*
X137432951Y-85309705D01*
X137386524Y-85229290D01*
X137386518Y-85229282D01*
X137274717Y-85117481D01*
X137274709Y-85117475D01*
X137137790Y-85038426D01*
X137137786Y-85038424D01*
X137137784Y-85038423D01*
X136985057Y-84997500D01*
X136826943Y-84997500D01*
X136674216Y-85038423D01*
X136674215Y-85038423D01*
X136586999Y-85088777D01*
X136519099Y-85105248D01*
X136463001Y-85088777D01*
X136375784Y-85038423D01*
X136342610Y-85029534D01*
X136223057Y-84997500D01*
X136064943Y-84997500D01*
X135912216Y-85038423D01*
X135912215Y-85038423D01*
X135824999Y-85088777D01*
X135757099Y-85105248D01*
X135701001Y-85088777D01*
X135613784Y-85038423D01*
X135580610Y-85029534D01*
X135461057Y-84997500D01*
X135302943Y-84997500D01*
X135150216Y-85038423D01*
X135150209Y-85038426D01*
X135013290Y-85117475D01*
X135013282Y-85117481D01*
X134901481Y-85229282D01*
X134901475Y-85229290D01*
X134822426Y-85366209D01*
X134822423Y-85366216D01*
X134781500Y-85518943D01*
X132630500Y-85518943D01*
X132630500Y-85397386D01*
X132650185Y-85330347D01*
X132666819Y-85309705D01*
X133996025Y-83980499D01*
X135368632Y-82607891D01*
X135394300Y-82588194D01*
X135445788Y-82558469D01*
X135527128Y-82477128D01*
X135588447Y-82443646D01*
X135649944Y-82448043D01*
X135650365Y-82446473D01*
X135658214Y-82448576D01*
X135658216Y-82448577D01*
X135810943Y-82489500D01*
X135810945Y-82489500D01*
X135969055Y-82489500D01*
X135969057Y-82489500D01*
X136121784Y-82448577D01*
X136258716Y-82369520D01*
X136370520Y-82257716D01*
X136449577Y-82120784D01*
X136490500Y-81968057D01*
X136490500Y-81809943D01*
X136449577Y-81657216D01*
X136415060Y-81597430D01*
X136370524Y-81520290D01*
X136370518Y-81520282D01*
X136258717Y-81408481D01*
X136258709Y-81408475D01*
X136121790Y-81329426D01*
X136121786Y-81329424D01*
X136121784Y-81329423D01*
X135969057Y-81288500D01*
X135810943Y-81288500D01*
X135658216Y-81329423D01*
X135658214Y-81329423D01*
X135650365Y-81331527D01*
X135650179Y-81330834D01*
X135611637Y-81338500D01*
X135236525Y-81338500D01*
X135152519Y-81361009D01*
X135096513Y-81376016D01*
X135096512Y-81376017D01*
X134970986Y-81448489D01*
X134945026Y-81474449D01*
X134889441Y-81506540D01*
X134845294Y-81518369D01*
X134845281Y-81518375D01*
X134708362Y-81597424D01*
X134708354Y-81597430D01*
X134596553Y-81709231D01*
X134596547Y-81709239D01*
X134517498Y-81846158D01*
X134517494Y-81846167D01*
X134505663Y-81890319D01*
X134473570Y-81945904D01*
X131639489Y-84779985D01*
X131620081Y-84813602D01*
X131583547Y-84876882D01*
X131567016Y-84905515D01*
X131529500Y-85045525D01*
X131529500Y-85045527D01*
X131529500Y-95478612D01*
X131509815Y-95545651D01*
X131493181Y-95566293D01*
X128543793Y-98515681D01*
X128482470Y-98549166D01*
X128456112Y-98552000D01*
X126954831Y-98552000D01*
X126887792Y-98532315D01*
X126842037Y-98479511D01*
X126835059Y-98460102D01*
X126797577Y-98320216D01*
X126797573Y-98320209D01*
X126718524Y-98183290D01*
X126718518Y-98183282D01*
X126606717Y-98071481D01*
X126606709Y-98071475D01*
X126469790Y-97992426D01*
X126469786Y-97992424D01*
X126469784Y-97992423D01*
X126317057Y-97951500D01*
X126158943Y-97951500D01*
X126006216Y-97992423D01*
X126006209Y-97992426D01*
X125869290Y-98071475D01*
X125869282Y-98071481D01*
X125757481Y-98183282D01*
X125757475Y-98183290D01*
X125678426Y-98320209D01*
X125678423Y-98320216D01*
X125640942Y-98460095D01*
X125604579Y-98519754D01*
X125541732Y-98550283D01*
X125521169Y-98552000D01*
X119859500Y-98552000D01*
X119792461Y-98532315D01*
X119746706Y-98479511D01*
X119735500Y-98428000D01*
X119735500Y-96694943D01*
X124875500Y-96694943D01*
X124875500Y-96853056D01*
X124916423Y-97005783D01*
X124916426Y-97005790D01*
X124995475Y-97142709D01*
X124995479Y-97142714D01*
X124995480Y-97142716D01*
X125107284Y-97254520D01*
X125107286Y-97254521D01*
X125107290Y-97254524D01*
X125244209Y-97333573D01*
X125244216Y-97333577D01*
X125396943Y-97374500D01*
X125396945Y-97374500D01*
X125555055Y-97374500D01*
X125555057Y-97374500D01*
X125707784Y-97333577D01*
X125844716Y-97254520D01*
X125956520Y-97142716D01*
X126035577Y-97005784D01*
X126076500Y-96853057D01*
X126076500Y-96694943D01*
X126035577Y-96542216D01*
X126035573Y-96542209D01*
X125956524Y-96405290D01*
X125956518Y-96405282D01*
X125844717Y-96293481D01*
X125844709Y-96293475D01*
X125707790Y-96214426D01*
X125707786Y-96214424D01*
X125707784Y-96214423D01*
X125555057Y-96173500D01*
X125396943Y-96173500D01*
X125244216Y-96214423D01*
X125244209Y-96214426D01*
X125107290Y-96293475D01*
X125107282Y-96293481D01*
X124995481Y-96405282D01*
X124995475Y-96405290D01*
X124916426Y-96542209D01*
X124916423Y-96542216D01*
X124875500Y-96694943D01*
X119735500Y-96694943D01*
X119735500Y-92630943D01*
X120811500Y-92630943D01*
X120811500Y-92789056D01*
X120852423Y-92941783D01*
X120852423Y-92941784D01*
X120902777Y-93029001D01*
X120919248Y-93096901D01*
X120902777Y-93152999D01*
X120852423Y-93240215D01*
X120852423Y-93240216D01*
X120811500Y-93392943D01*
X120811500Y-93551056D01*
X120852423Y-93703783D01*
X120852423Y-93703784D01*
X120902777Y-93791001D01*
X120919248Y-93858901D01*
X120902777Y-93914999D01*
X120852423Y-94002215D01*
X120852423Y-94002216D01*
X120811500Y-94154943D01*
X120811500Y-94313056D01*
X120852423Y-94465783D01*
X120852426Y-94465790D01*
X120931475Y-94602709D01*
X120931479Y-94602714D01*
X120931480Y-94602716D01*
X121043284Y-94714520D01*
X121043286Y-94714521D01*
X121043290Y-94714524D01*
X121180209Y-94793573D01*
X121180216Y-94793577D01*
X121332943Y-94834500D01*
X121332945Y-94834500D01*
X121491055Y-94834500D01*
X121491057Y-94834500D01*
X121643784Y-94793577D01*
X121731000Y-94743222D01*
X121798900Y-94726750D01*
X121854999Y-94743222D01*
X121942216Y-94793577D01*
X122094943Y-94834500D01*
X122094945Y-94834500D01*
X122253055Y-94834500D01*
X122253057Y-94834500D01*
X122405784Y-94793577D01*
X122493000Y-94743222D01*
X122560900Y-94726750D01*
X122616999Y-94743222D01*
X122704216Y-94793577D01*
X122856943Y-94834500D01*
X122856945Y-94834500D01*
X123015055Y-94834500D01*
X123015057Y-94834500D01*
X123167784Y-94793577D01*
X123304716Y-94714520D01*
X123416520Y-94602716D01*
X123495577Y-94465784D01*
X123536500Y-94313057D01*
X123536500Y-94154943D01*
X123495577Y-94002216D01*
X123445222Y-93914999D01*
X123428750Y-93847100D01*
X123445223Y-93791000D01*
X123495577Y-93703784D01*
X123536500Y-93551057D01*
X123536500Y-93392943D01*
X123495577Y-93240216D01*
X123445222Y-93152999D01*
X123428750Y-93085100D01*
X123445223Y-93029000D01*
X123495577Y-92941784D01*
X123536500Y-92789057D01*
X123536500Y-92630943D01*
X123495577Y-92478216D01*
X123495573Y-92478209D01*
X123416524Y-92341290D01*
X123416518Y-92341282D01*
X123304717Y-92229481D01*
X123304709Y-92229475D01*
X123167790Y-92150426D01*
X123167786Y-92150424D01*
X123167784Y-92150423D01*
X123015057Y-92109500D01*
X122856943Y-92109500D01*
X122704216Y-92150423D01*
X122704215Y-92150423D01*
X122616999Y-92200777D01*
X122549099Y-92217248D01*
X122493001Y-92200777D01*
X122405784Y-92150423D01*
X122253057Y-92109500D01*
X122094943Y-92109500D01*
X121942216Y-92150423D01*
X121942215Y-92150423D01*
X121854999Y-92200777D01*
X121787099Y-92217248D01*
X121731001Y-92200777D01*
X121643784Y-92150423D01*
X121491057Y-92109500D01*
X121332943Y-92109500D01*
X121180216Y-92150423D01*
X121180209Y-92150426D01*
X121043290Y-92229475D01*
X121043282Y-92229481D01*
X120931481Y-92341282D01*
X120931475Y-92341290D01*
X120852426Y-92478209D01*
X120852423Y-92478216D01*
X120811500Y-92630943D01*
X119735500Y-92630943D01*
X119735500Y-89074943D01*
X125129500Y-89074943D01*
X125129500Y-89233056D01*
X125170423Y-89385783D01*
X125170426Y-89385790D01*
X125249475Y-89522709D01*
X125249479Y-89522714D01*
X125249480Y-89522716D01*
X125361284Y-89634520D01*
X125361286Y-89634521D01*
X125361290Y-89634524D01*
X125498209Y-89713573D01*
X125498216Y-89713577D01*
X125650943Y-89754500D01*
X125650945Y-89754500D01*
X125809055Y-89754500D01*
X125809057Y-89754500D01*
X125961784Y-89713577D01*
X126098716Y-89634520D01*
X126210520Y-89522716D01*
X126289577Y-89385784D01*
X126330500Y-89233057D01*
X126330500Y-89074943D01*
X126289577Y-88922216D01*
X126260884Y-88872518D01*
X126210524Y-88785290D01*
X126210518Y-88785282D01*
X126098717Y-88673481D01*
X126098709Y-88673475D01*
X125961790Y-88594426D01*
X125961786Y-88594424D01*
X125961784Y-88594423D01*
X125809057Y-88553500D01*
X125650943Y-88553500D01*
X125498216Y-88594423D01*
X125498209Y-88594426D01*
X125361290Y-88673475D01*
X125361282Y-88673481D01*
X125249481Y-88785282D01*
X125249475Y-88785290D01*
X125170426Y-88922209D01*
X125170423Y-88922216D01*
X125129500Y-89074943D01*
X119735500Y-89074943D01*
X119735500Y-88312943D01*
X127415500Y-88312943D01*
X127415500Y-88471057D01*
X127452148Y-88607827D01*
X127456423Y-88623783D01*
X127456426Y-88623790D01*
X127535475Y-88760709D01*
X127535479Y-88760714D01*
X127535480Y-88760716D01*
X127647284Y-88872520D01*
X127647286Y-88872521D01*
X127647290Y-88872524D01*
X127761001Y-88938174D01*
X127784216Y-88951577D01*
X127936943Y-88992500D01*
X127936945Y-88992500D01*
X128095055Y-88992500D01*
X128095057Y-88992500D01*
X128247784Y-88951577D01*
X128384716Y-88872520D01*
X128496520Y-88760716D01*
X128575577Y-88623784D01*
X128616500Y-88471057D01*
X128616500Y-88312943D01*
X128575577Y-88160216D01*
X128575573Y-88160209D01*
X128496524Y-88023290D01*
X128496518Y-88023282D01*
X128384717Y-87911481D01*
X128384709Y-87911475D01*
X128247790Y-87832426D01*
X128247786Y-87832424D01*
X128247784Y-87832423D01*
X128095057Y-87791500D01*
X127936943Y-87791500D01*
X127784216Y-87832423D01*
X127784209Y-87832426D01*
X127647290Y-87911475D01*
X127647282Y-87911481D01*
X127535481Y-88023282D01*
X127535475Y-88023290D01*
X127456426Y-88160209D01*
X127456423Y-88160216D01*
X127415500Y-88312943D01*
X119735500Y-88312943D01*
X119735500Y-85214008D01*
X119735499Y-85213991D01*
X119727375Y-85138430D01*
X119716169Y-85086919D01*
X119698497Y-85029536D01*
X119637463Y-84929686D01*
X119634000Y-84925689D01*
X119634000Y-84836000D01*
X119546623Y-84836000D01*
X119528525Y-84819589D01*
X119423198Y-84768586D01*
X119423195Y-84768585D01*
X119356160Y-84748901D01*
X119356154Y-84748899D01*
X119266105Y-84735952D01*
X119256000Y-84734500D01*
X102224501Y-84734500D01*
X102157462Y-84714815D01*
X102111707Y-84662011D01*
X102100501Y-84610500D01*
X102100501Y-81128336D01*
X103235552Y-81128336D01*
X103235552Y-81431663D01*
X103269509Y-81733048D01*
X103269512Y-81733062D01*
X103337005Y-82028771D01*
X103337009Y-82028783D01*
X103437185Y-82315068D01*
X103568785Y-82588338D01*
X103568787Y-82588341D01*
X103730160Y-82845164D01*
X103919273Y-83082304D01*
X104133748Y-83296779D01*
X104370888Y-83485892D01*
X104627711Y-83647265D01*
X104900987Y-83778868D01*
X105116003Y-83854105D01*
X105187268Y-83879042D01*
X105187280Y-83879046D01*
X105482989Y-83946540D01*
X105482998Y-83946541D01*
X105483003Y-83946542D01*
X105683926Y-83969180D01*
X105784389Y-83980499D01*
X105784392Y-83980500D01*
X105784395Y-83980500D01*
X106087712Y-83980500D01*
X106087713Y-83980499D01*
X106241746Y-83963144D01*
X106389100Y-83946542D01*
X106389103Y-83946541D01*
X106389115Y-83946540D01*
X106684824Y-83879046D01*
X106971117Y-83778868D01*
X107244393Y-83647265D01*
X107501216Y-83485892D01*
X107738356Y-83296779D01*
X107952831Y-83082304D01*
X108141944Y-82845164D01*
X108303317Y-82588341D01*
X108359853Y-82470943D01*
X112937500Y-82470943D01*
X112937500Y-82629056D01*
X112978423Y-82781783D01*
X112978426Y-82781790D01*
X113057475Y-82918709D01*
X113057479Y-82918714D01*
X113057480Y-82918716D01*
X113169284Y-83030520D01*
X113169286Y-83030521D01*
X113169290Y-83030524D01*
X113258977Y-83082304D01*
X113306216Y-83109577D01*
X113458943Y-83150500D01*
X113458945Y-83150500D01*
X113617055Y-83150500D01*
X113617057Y-83150500D01*
X113769784Y-83109577D01*
X113906716Y-83030520D01*
X113958319Y-82978917D01*
X114019642Y-82945432D01*
X114089334Y-82950416D01*
X114133681Y-82978917D01*
X114185284Y-83030520D01*
X114185286Y-83030521D01*
X114185290Y-83030524D01*
X114274977Y-83082304D01*
X114322216Y-83109577D01*
X114474943Y-83150500D01*
X114474945Y-83150500D01*
X114633055Y-83150500D01*
X114633057Y-83150500D01*
X114785784Y-83109577D01*
X114922716Y-83030520D01*
X115034520Y-82918716D01*
X115113577Y-82781784D01*
X115154500Y-82629057D01*
X115154500Y-82470943D01*
X115113577Y-82318216D01*
X115062000Y-82228881D01*
X115034524Y-82181290D01*
X115034518Y-82181282D01*
X114922717Y-82069481D01*
X114922709Y-82069475D01*
X114785790Y-81990426D01*
X114785786Y-81990424D01*
X114785784Y-81990423D01*
X114633057Y-81949500D01*
X114474943Y-81949500D01*
X114322216Y-81990423D01*
X114322209Y-81990426D01*
X114185290Y-82069475D01*
X114185282Y-82069481D01*
X114133681Y-82121083D01*
X114072358Y-82154568D01*
X114002666Y-82149584D01*
X113958319Y-82121083D01*
X113906717Y-82069481D01*
X113906709Y-82069475D01*
X113769790Y-81990426D01*
X113769786Y-81990424D01*
X113769784Y-81990423D01*
X113617057Y-81949500D01*
X113458943Y-81949500D01*
X113306216Y-81990423D01*
X113306209Y-81990426D01*
X113169290Y-82069475D01*
X113169282Y-82069481D01*
X113057481Y-82181282D01*
X113057475Y-82181290D01*
X112978426Y-82318209D01*
X112978423Y-82318216D01*
X112937500Y-82470943D01*
X108359853Y-82470943D01*
X108370624Y-82448577D01*
X108389677Y-82409014D01*
X108389678Y-82409012D01*
X108434915Y-82315076D01*
X108434916Y-82315073D01*
X108434920Y-82315065D01*
X108535098Y-82028772D01*
X108602592Y-81733063D01*
X108605277Y-81709239D01*
X108624883Y-81535223D01*
X108636552Y-81431657D01*
X108636552Y-81128343D01*
X108602592Y-80826937D01*
X108535098Y-80531228D01*
X108434920Y-80244935D01*
X108303317Y-79971659D01*
X108141944Y-79714836D01*
X107952831Y-79477696D01*
X107898078Y-79422943D01*
X118525500Y-79422943D01*
X118525500Y-79581056D01*
X118566423Y-79733783D01*
X118566423Y-79733784D01*
X118616777Y-79821001D01*
X118633248Y-79888901D01*
X118616777Y-79944999D01*
X118566423Y-80032215D01*
X118566423Y-80032216D01*
X118525500Y-80184943D01*
X118525500Y-80343056D01*
X118566423Y-80495783D01*
X118566423Y-80495784D01*
X118616777Y-80583001D01*
X118633248Y-80650901D01*
X118616777Y-80706999D01*
X118566423Y-80794215D01*
X118566423Y-80794216D01*
X118525500Y-80946943D01*
X118525500Y-81105057D01*
X118531740Y-81128343D01*
X118566423Y-81257783D01*
X118566426Y-81257790D01*
X118645475Y-81394709D01*
X118645479Y-81394714D01*
X118645480Y-81394716D01*
X118757284Y-81506520D01*
X118757286Y-81506521D01*
X118757290Y-81506524D01*
X118894209Y-81585573D01*
X118894216Y-81585577D01*
X119046943Y-81626500D01*
X119046945Y-81626500D01*
X119205055Y-81626500D01*
X119205057Y-81626500D01*
X119357784Y-81585577D01*
X119445000Y-81535222D01*
X119512900Y-81518750D01*
X119568999Y-81535222D01*
X119656216Y-81585577D01*
X119808943Y-81626500D01*
X119808945Y-81626500D01*
X119967055Y-81626500D01*
X119967057Y-81626500D01*
X120119784Y-81585577D01*
X120207000Y-81535222D01*
X120274900Y-81518750D01*
X120330999Y-81535222D01*
X120418216Y-81585577D01*
X120570943Y-81626500D01*
X120570945Y-81626500D01*
X120729055Y-81626500D01*
X120729057Y-81626500D01*
X120881784Y-81585577D01*
X121018716Y-81506520D01*
X121130520Y-81394716D01*
X121209577Y-81257784D01*
X121244262Y-81128336D01*
X145363448Y-81128336D01*
X145363448Y-81431663D01*
X145397405Y-81733048D01*
X145397408Y-81733062D01*
X145464901Y-82028771D01*
X145464905Y-82028783D01*
X145565081Y-82315068D01*
X145696681Y-82588338D01*
X145696683Y-82588341D01*
X145858056Y-82845164D01*
X146047169Y-83082304D01*
X146261644Y-83296779D01*
X146498784Y-83485892D01*
X146755607Y-83647265D01*
X147028883Y-83778868D01*
X147243899Y-83854105D01*
X147315164Y-83879042D01*
X147315176Y-83879046D01*
X147610885Y-83946540D01*
X147610894Y-83946541D01*
X147610899Y-83946542D01*
X147811822Y-83969180D01*
X147912285Y-83980499D01*
X147912288Y-83980500D01*
X147912291Y-83980500D01*
X148215608Y-83980500D01*
X148215609Y-83980499D01*
X148369642Y-83963144D01*
X148516996Y-83946542D01*
X148516999Y-83946541D01*
X148517011Y-83946540D01*
X148812720Y-83879046D01*
X149099013Y-83778868D01*
X149372289Y-83647265D01*
X149629112Y-83485892D01*
X149866252Y-83296779D01*
X150080727Y-83082304D01*
X150269840Y-82845164D01*
X150431213Y-82588341D01*
X150562816Y-82315065D01*
X150662994Y-82028772D01*
X150730488Y-81733063D01*
X150733173Y-81709239D01*
X150752779Y-81535223D01*
X150764448Y-81431657D01*
X150764448Y-81128343D01*
X150730488Y-80826937D01*
X150662994Y-80531228D01*
X150562816Y-80244935D01*
X150431213Y-79971659D01*
X150269840Y-79714836D01*
X150080727Y-79477696D01*
X149866252Y-79263221D01*
X149819371Y-79225835D01*
X149799207Y-79209754D01*
X149629112Y-79074108D01*
X149372289Y-78912735D01*
X149372286Y-78912733D01*
X149099016Y-78781133D01*
X148812731Y-78680957D01*
X148812719Y-78680953D01*
X148584504Y-78628864D01*
X148517011Y-78613460D01*
X148517008Y-78613459D01*
X148516996Y-78613457D01*
X148215611Y-78579500D01*
X148215605Y-78579500D01*
X147912291Y-78579500D01*
X147912284Y-78579500D01*
X147610899Y-78613457D01*
X147610885Y-78613460D01*
X147315176Y-78680953D01*
X147315164Y-78680957D01*
X147028879Y-78781133D01*
X146755609Y-78912733D01*
X146498785Y-79074107D01*
X146261644Y-79263220D01*
X146047168Y-79477696D01*
X145858055Y-79714837D01*
X145696681Y-79971661D01*
X145565081Y-80244931D01*
X145464905Y-80531216D01*
X145464901Y-80531228D01*
X145397408Y-80826937D01*
X145397405Y-80826951D01*
X145363448Y-81128336D01*
X121244262Y-81128336D01*
X121250500Y-81105057D01*
X121250500Y-80946943D01*
X121209577Y-80794216D01*
X121159222Y-80706999D01*
X121142750Y-80639100D01*
X121159223Y-80583000D01*
X121209577Y-80495784D01*
X121250500Y-80343057D01*
X121250500Y-80184943D01*
X121209577Y-80032216D01*
X121159222Y-79944999D01*
X121142750Y-79877100D01*
X121159223Y-79821000D01*
X121209577Y-79733784D01*
X121250500Y-79581057D01*
X121250500Y-79422943D01*
X121209577Y-79270216D01*
X121209573Y-79270209D01*
X121130524Y-79133290D01*
X121130518Y-79133282D01*
X121018717Y-79021481D01*
X121018709Y-79021475D01*
X120881790Y-78942426D01*
X120881786Y-78942424D01*
X120881784Y-78942423D01*
X120729057Y-78901500D01*
X120570943Y-78901500D01*
X120418216Y-78942423D01*
X120418215Y-78942423D01*
X120330999Y-78992777D01*
X120263099Y-79009248D01*
X120207001Y-78992777D01*
X120119784Y-78942423D01*
X119967057Y-78901500D01*
X119808943Y-78901500D01*
X119656216Y-78942423D01*
X119656215Y-78942423D01*
X119568999Y-78992777D01*
X119501099Y-79009248D01*
X119445001Y-78992777D01*
X119357784Y-78942423D01*
X119205057Y-78901500D01*
X119046943Y-78901500D01*
X118894216Y-78942423D01*
X118894209Y-78942426D01*
X118757290Y-79021475D01*
X118757282Y-79021481D01*
X118645481Y-79133282D01*
X118645475Y-79133290D01*
X118566426Y-79270209D01*
X118566423Y-79270216D01*
X118525500Y-79422943D01*
X107898078Y-79422943D01*
X107738356Y-79263221D01*
X107691475Y-79225835D01*
X107671311Y-79209754D01*
X107501216Y-79074108D01*
X107244393Y-78912735D01*
X107244390Y-78912733D01*
X106971120Y-78781133D01*
X106684835Y-78680957D01*
X106684823Y-78680953D01*
X106456608Y-78628864D01*
X106389115Y-78613460D01*
X106389112Y-78613459D01*
X106389100Y-78613457D01*
X106087715Y-78579500D01*
X106087709Y-78579500D01*
X105784395Y-78579500D01*
X105784388Y-78579500D01*
X105483003Y-78613457D01*
X105482989Y-78613460D01*
X105187280Y-78680953D01*
X105187268Y-78680957D01*
X104900983Y-78781133D01*
X104627713Y-78912733D01*
X104370889Y-79074107D01*
X104133748Y-79263220D01*
X103919272Y-79477696D01*
X103730159Y-79714837D01*
X103568785Y-79971661D01*
X103437185Y-80244931D01*
X103337009Y-80531216D01*
X103337005Y-80531228D01*
X103269512Y-80826937D01*
X103269509Y-80826951D01*
X103235552Y-81128336D01*
X102100501Y-81128336D01*
X102100501Y-79487986D01*
X102100766Y-79479878D01*
X102100909Y-79477696D01*
X102117413Y-79225824D01*
X102119528Y-79209761D01*
X102168402Y-78964032D01*
X102172595Y-78948382D01*
X102253126Y-78711133D01*
X102259332Y-78696153D01*
X102259438Y-78695938D01*
X102370136Y-78471455D01*
X102378237Y-78457423D01*
X102517433Y-78249096D01*
X102527294Y-78236246D01*
X102692489Y-78047873D01*
X102703947Y-78036415D01*
X102892310Y-77871222D01*
X102905171Y-77861354D01*
X102971088Y-77817308D01*
X103113489Y-77722157D01*
X103127513Y-77714059D01*
X103352226Y-77603243D01*
X103367197Y-77597041D01*
X103604453Y-77516502D01*
X103620089Y-77512313D01*
X103865825Y-77463432D01*
X103881876Y-77461318D01*
X104135222Y-77444713D01*
X104143303Y-77444449D01*
X149855948Y-77444449D01*
X149864058Y-77444714D01*
G37*
%TD.AperFunction*%
%TD*%
%TA.AperFunction,Conductor*%
%TO.N,+5V*%
G36*
X126672887Y-98821512D02*
G01*
X126674324Y-98818546D01*
X126682306Y-98822411D01*
X126787633Y-98873414D01*
X126854672Y-98893099D01*
X126854673Y-98893099D01*
X126854676Y-98893100D01*
X126884540Y-98897393D01*
X126954831Y-98907500D01*
X126954832Y-98907500D01*
X128456113Y-98907500D01*
X128458112Y-98907392D01*
X128494116Y-98905463D01*
X128494146Y-98905459D01*
X128494157Y-98905459D01*
X128508857Y-98903877D01*
X128520474Y-98902629D01*
X128542301Y-98899595D01*
X128617644Y-98873413D01*
X128652841Y-98861182D01*
X128657480Y-98858649D01*
X128714166Y-98827696D01*
X128714171Y-98827691D01*
X128717297Y-98825684D01*
X128784336Y-98806000D01*
X130029115Y-98806000D01*
X130081942Y-98821512D01*
X130083379Y-98818546D01*
X130091361Y-98822411D01*
X130196688Y-98873414D01*
X130263727Y-98893099D01*
X130263728Y-98893099D01*
X130263731Y-98893100D01*
X130293595Y-98897393D01*
X130363886Y-98907500D01*
X130584500Y-98907500D01*
X130651539Y-98927185D01*
X130697294Y-98979989D01*
X130708500Y-99031500D01*
X130708500Y-108334008D01*
X130716625Y-108409570D01*
X130727831Y-108461082D01*
X130745502Y-108518463D01*
X130745505Y-108518469D01*
X130776605Y-108569348D01*
X130794773Y-108636814D01*
X130782410Y-108688059D01*
X130742585Y-108770305D01*
X130722901Y-108837339D01*
X130722899Y-108837345D01*
X130708500Y-108937500D01*
X130708500Y-110540138D01*
X130688815Y-110607177D01*
X130672181Y-110627819D01*
X129794000Y-111505999D01*
X129794000Y-117700387D01*
X129774315Y-117767426D01*
X129721511Y-117813181D01*
X129652353Y-117823125D01*
X129631685Y-117818319D01*
X129602244Y-117808754D01*
X129497265Y-117792127D01*
X129392287Y-117775500D01*
X129179713Y-117775500D01*
X129131042Y-117783208D01*
X128969760Y-117808753D01*
X128767585Y-117874444D01*
X128578179Y-117970951D01*
X128406213Y-118095890D01*
X128255890Y-118246213D01*
X128130951Y-118418179D01*
X128034444Y-118607585D01*
X127968753Y-118809760D01*
X127935500Y-119019713D01*
X127935500Y-119232286D01*
X127966671Y-119429095D01*
X127968754Y-119442243D01*
X128024253Y-119613052D01*
X128034444Y-119644414D01*
X128130951Y-119833820D01*
X128255890Y-120005786D01*
X128406213Y-120156109D01*
X128578179Y-120281048D01*
X128578181Y-120281049D01*
X128578184Y-120281051D01*
X128767588Y-120377557D01*
X128969757Y-120443246D01*
X129179713Y-120476500D01*
X129179714Y-120476500D01*
X129392286Y-120476500D01*
X129392287Y-120476500D01*
X129602243Y-120443246D01*
X129631684Y-120433679D01*
X129701522Y-120431685D01*
X129761355Y-120467764D01*
X129792184Y-120530465D01*
X129794000Y-120551611D01*
X129794000Y-121295499D01*
X129774315Y-121362538D01*
X129721511Y-121408293D01*
X129670000Y-121419499D01*
X119859500Y-121419499D01*
X119792461Y-121399814D01*
X119746706Y-121347010D01*
X119735500Y-121295499D01*
X119735500Y-118538943D01*
X121065500Y-118538943D01*
X121065500Y-118697057D01*
X121082166Y-118759253D01*
X121106423Y-118849783D01*
X121106423Y-118849784D01*
X121156777Y-118937001D01*
X121173248Y-119004901D01*
X121156777Y-119060999D01*
X121106423Y-119148215D01*
X121106423Y-119148216D01*
X121065500Y-119300943D01*
X121065500Y-119459057D01*
X121082166Y-119521253D01*
X121106423Y-119611783D01*
X121106423Y-119611784D01*
X121156777Y-119699001D01*
X121173248Y-119766901D01*
X121156777Y-119822999D01*
X121106423Y-119910215D01*
X121106423Y-119910216D01*
X121065500Y-120062943D01*
X121065500Y-120221057D01*
X121105491Y-120370303D01*
X121106423Y-120373783D01*
X121106426Y-120373790D01*
X121185475Y-120510709D01*
X121185479Y-120510714D01*
X121185480Y-120510716D01*
X121297284Y-120622520D01*
X121297286Y-120622521D01*
X121297290Y-120622524D01*
X121434209Y-120701573D01*
X121434216Y-120701577D01*
X121586943Y-120742500D01*
X121586945Y-120742500D01*
X121745055Y-120742500D01*
X121745057Y-120742500D01*
X121897784Y-120701577D01*
X121985000Y-120651222D01*
X122052900Y-120634750D01*
X122108999Y-120651222D01*
X122196216Y-120701577D01*
X122348943Y-120742500D01*
X122348945Y-120742500D01*
X122507055Y-120742500D01*
X122507057Y-120742500D01*
X122659784Y-120701577D01*
X122747000Y-120651222D01*
X122814900Y-120634750D01*
X122870999Y-120651222D01*
X122958216Y-120701577D01*
X123110943Y-120742500D01*
X123110945Y-120742500D01*
X123269055Y-120742500D01*
X123269057Y-120742500D01*
X123421784Y-120701577D01*
X123558716Y-120622520D01*
X123670520Y-120510716D01*
X123749577Y-120373784D01*
X123790500Y-120221057D01*
X123790500Y-120062943D01*
X123749577Y-119910216D01*
X123699222Y-119822999D01*
X123682750Y-119755100D01*
X123699223Y-119699000D01*
X123707573Y-119684537D01*
X123749577Y-119611784D01*
X123790500Y-119459057D01*
X123790500Y-119300943D01*
X123749577Y-119148216D01*
X123699222Y-119060999D01*
X123682750Y-118993100D01*
X123699223Y-118937000D01*
X123716457Y-118907150D01*
X123749577Y-118849784D01*
X123790500Y-118697057D01*
X123790500Y-118538943D01*
X123749577Y-118386216D01*
X123718129Y-118331746D01*
X123670524Y-118249290D01*
X123670518Y-118249282D01*
X123558717Y-118137481D01*
X123558709Y-118137475D01*
X123421790Y-118058426D01*
X123421786Y-118058424D01*
X123421784Y-118058423D01*
X123269057Y-118017500D01*
X123110943Y-118017500D01*
X122958216Y-118058423D01*
X122958215Y-118058423D01*
X122870999Y-118108777D01*
X122803099Y-118125248D01*
X122747001Y-118108777D01*
X122659784Y-118058423D01*
X122507057Y-118017500D01*
X122348943Y-118017500D01*
X122196216Y-118058423D01*
X122196215Y-118058423D01*
X122108999Y-118108777D01*
X122041099Y-118125248D01*
X121985001Y-118108777D01*
X121897784Y-118058423D01*
X121745057Y-118017500D01*
X121586943Y-118017500D01*
X121434216Y-118058423D01*
X121434209Y-118058426D01*
X121297290Y-118137475D01*
X121297282Y-118137481D01*
X121185481Y-118249282D01*
X121185475Y-118249290D01*
X121106426Y-118386209D01*
X121106423Y-118386216D01*
X121065500Y-118538943D01*
X119735500Y-118538943D01*
X119735500Y-113500508D01*
X119735499Y-113500491D01*
X119727375Y-113424930D01*
X119716169Y-113373419D01*
X119698497Y-113316036D01*
X119697713Y-113314754D01*
X119697409Y-113313624D01*
X119695307Y-113308963D01*
X119696062Y-113308622D01*
X119679545Y-113247290D01*
X119700736Y-113180711D01*
X119715835Y-113162401D01*
X119733518Y-113144718D01*
X119733518Y-113144717D01*
X119733520Y-113144716D01*
X119812577Y-113007784D01*
X119853500Y-112855057D01*
X119853500Y-112696943D01*
X119812577Y-112544216D01*
X119766667Y-112464697D01*
X119733524Y-112407290D01*
X119733518Y-112407282D01*
X119670319Y-112344083D01*
X119636834Y-112282760D01*
X119634000Y-112256402D01*
X119634000Y-111997342D01*
X119653685Y-111930303D01*
X119695999Y-111889955D01*
X119748716Y-111859520D01*
X119860520Y-111747716D01*
X119939577Y-111610784D01*
X119980500Y-111458057D01*
X119980500Y-111299943D01*
X119939577Y-111147216D01*
X119939573Y-111147209D01*
X119860524Y-111010290D01*
X119860518Y-111010282D01*
X119748487Y-110898251D01*
X119715002Y-110836928D01*
X119717191Y-110775632D01*
X119721099Y-110762327D01*
X119735500Y-110662168D01*
X119735500Y-104365500D01*
X119727375Y-104289930D01*
X119716169Y-104238419D01*
X119698497Y-104181036D01*
X119667393Y-104130151D01*
X119649224Y-104062687D01*
X119661589Y-104011440D01*
X119701414Y-103929198D01*
X119721099Y-103862159D01*
X119735500Y-103762000D01*
X119735500Y-101520943D01*
X125637500Y-101520943D01*
X125637500Y-101679056D01*
X125678423Y-101831783D01*
X125678423Y-101831784D01*
X125728777Y-101919001D01*
X125745248Y-101986901D01*
X125728777Y-102042999D01*
X125678423Y-102130215D01*
X125678423Y-102130216D01*
X125637500Y-102282943D01*
X125637500Y-102441056D01*
X125678423Y-102593783D01*
X125678423Y-102593784D01*
X125728777Y-102681001D01*
X125745248Y-102748901D01*
X125728777Y-102804999D01*
X125678423Y-102892215D01*
X125678423Y-102892216D01*
X125637500Y-103044943D01*
X125637500Y-103203056D01*
X125678423Y-103355783D01*
X125678426Y-103355790D01*
X125757475Y-103492709D01*
X125757479Y-103492714D01*
X125757480Y-103492716D01*
X125869284Y-103604520D01*
X125869286Y-103604521D01*
X125869290Y-103604524D01*
X126006209Y-103683573D01*
X126006216Y-103683577D01*
X126158943Y-103724500D01*
X126158945Y-103724500D01*
X126317055Y-103724500D01*
X126317057Y-103724500D01*
X126469784Y-103683577D01*
X126557000Y-103633222D01*
X126624900Y-103616750D01*
X126680999Y-103633222D01*
X126768216Y-103683577D01*
X126920943Y-103724500D01*
X126920945Y-103724500D01*
X127079055Y-103724500D01*
X127079057Y-103724500D01*
X127231784Y-103683577D01*
X127319000Y-103633222D01*
X127386900Y-103616750D01*
X127442999Y-103633222D01*
X127530216Y-103683577D01*
X127682943Y-103724500D01*
X127682945Y-103724500D01*
X127841055Y-103724500D01*
X127841057Y-103724500D01*
X127993784Y-103683577D01*
X128130716Y-103604520D01*
X128242520Y-103492716D01*
X128321577Y-103355784D01*
X128362500Y-103203057D01*
X128362500Y-103044943D01*
X128321577Y-102892216D01*
X128271222Y-102804999D01*
X128254750Y-102737100D01*
X128271223Y-102681000D01*
X128321577Y-102593784D01*
X128362500Y-102441057D01*
X128362500Y-102282943D01*
X128321577Y-102130216D01*
X128271222Y-102042999D01*
X128254750Y-101975100D01*
X128271223Y-101919000D01*
X128321577Y-101831784D01*
X128362500Y-101679057D01*
X128362500Y-101520943D01*
X128321577Y-101368216D01*
X128310564Y-101349140D01*
X128242524Y-101231290D01*
X128242518Y-101231282D01*
X128130717Y-101119481D01*
X128130709Y-101119475D01*
X127993790Y-101040426D01*
X127993786Y-101040424D01*
X127993784Y-101040423D01*
X127841057Y-100999500D01*
X127682943Y-100999500D01*
X127530216Y-101040423D01*
X127530215Y-101040423D01*
X127442999Y-101090777D01*
X127375099Y-101107248D01*
X127319001Y-101090777D01*
X127231784Y-101040423D01*
X127079057Y-100999500D01*
X126920943Y-100999500D01*
X126768216Y-101040423D01*
X126768215Y-101040423D01*
X126680999Y-101090777D01*
X126613099Y-101107248D01*
X126557001Y-101090777D01*
X126469784Y-101040423D01*
X126317057Y-100999500D01*
X126158943Y-100999500D01*
X126006216Y-101040423D01*
X126006209Y-101040426D01*
X125869290Y-101119475D01*
X125869282Y-101119481D01*
X125757481Y-101231282D01*
X125757475Y-101231290D01*
X125678426Y-101368209D01*
X125678423Y-101368216D01*
X125637500Y-101520943D01*
X119735500Y-101520943D01*
X119735500Y-99031500D01*
X119755185Y-98964461D01*
X119807989Y-98918706D01*
X119859500Y-98907500D01*
X125521179Y-98907500D01*
X125550731Y-98906268D01*
X125550735Y-98906267D01*
X125550750Y-98906267D01*
X125571313Y-98904550D01*
X125584820Y-98903162D01*
X125697065Y-98870052D01*
X125759912Y-98839523D01*
X125781253Y-98825769D01*
X125848267Y-98806000D01*
X126620060Y-98806000D01*
X126672887Y-98821512D01*
G37*
%TD.AperFunction*%
%TD*%
%TA.AperFunction,Conductor*%
%TO.N,+3V3_SENS*%
G36*
X119323039Y-104261185D02*
G01*
X119368794Y-104313989D01*
X119380000Y-104365500D01*
X119380000Y-110662168D01*
X119360315Y-110729207D01*
X119307511Y-110774962D01*
X119288094Y-110781943D01*
X119148214Y-110819423D01*
X119148209Y-110819426D01*
X119011290Y-110898475D01*
X119011282Y-110898481D01*
X118899481Y-111010282D01*
X118899475Y-111010290D01*
X118820426Y-111147209D01*
X118820423Y-111147216D01*
X118779500Y-111299943D01*
X118779500Y-111458056D01*
X118820423Y-111610783D01*
X118820426Y-111610790D01*
X118899475Y-111747709D01*
X118899479Y-111747714D01*
X118899480Y-111747716D01*
X119011284Y-111859520D01*
X119011286Y-111859521D01*
X119011290Y-111859524D01*
X119148209Y-111938573D01*
X119148216Y-111938577D01*
X119156179Y-111940710D01*
X119215839Y-111977075D01*
X119246368Y-112039921D01*
X119238074Y-112109297D01*
X119193588Y-112163175D01*
X119156179Y-112180259D01*
X119125234Y-112188551D01*
X119021214Y-112216423D01*
X119021209Y-112216426D01*
X118884290Y-112295475D01*
X118884282Y-112295481D01*
X118772481Y-112407282D01*
X118772475Y-112407290D01*
X118693426Y-112544209D01*
X118693423Y-112544216D01*
X118652500Y-112696943D01*
X118652500Y-112855056D01*
X118693423Y-113007783D01*
X118693426Y-113007790D01*
X118772475Y-113144709D01*
X118772479Y-113144714D01*
X118772480Y-113144716D01*
X118884284Y-113256520D01*
X118884286Y-113256521D01*
X118884290Y-113256524D01*
X119021209Y-113335573D01*
X119021216Y-113335577D01*
X119173943Y-113376500D01*
X119173945Y-113376500D01*
X119256000Y-113376500D01*
X119323039Y-113396185D01*
X119368794Y-113448989D01*
X119380000Y-113500500D01*
X119380000Y-121295499D01*
X119360315Y-121362538D01*
X119307511Y-121408293D01*
X119256000Y-121419499D01*
X104144052Y-121419499D01*
X104135942Y-121419234D01*
X103881895Y-121402583D01*
X103865814Y-121400465D01*
X103830770Y-121393494D01*
X103620111Y-121351591D01*
X103604445Y-121347393D01*
X103367213Y-121266864D01*
X103352227Y-121260657D01*
X103127539Y-121149853D01*
X103113492Y-121141743D01*
X102905188Y-121002559D01*
X102892320Y-120992685D01*
X102703966Y-120827503D01*
X102692497Y-120816034D01*
X102628009Y-120742500D01*
X102527311Y-120627676D01*
X102517440Y-120614811D01*
X102514383Y-120610236D01*
X102378256Y-120406507D01*
X102370146Y-120392460D01*
X102316881Y-120284449D01*
X102259339Y-120167765D01*
X102253135Y-120152786D01*
X102172606Y-119915555D01*
X102168408Y-119899889D01*
X102153114Y-119823000D01*
X102119532Y-119654173D01*
X102117417Y-119638115D01*
X102100766Y-119384058D01*
X102100501Y-119375949D01*
X102100501Y-117432285D01*
X103235551Y-117432285D01*
X103235551Y-117735612D01*
X103269508Y-118036997D01*
X103269511Y-118037011D01*
X103337004Y-118332720D01*
X103337008Y-118332732D01*
X103437184Y-118619017D01*
X103568784Y-118892287D01*
X103568786Y-118892290D01*
X103730159Y-119149113D01*
X103851241Y-119300945D01*
X103917521Y-119384058D01*
X103919272Y-119386253D01*
X104133747Y-119600728D01*
X104370887Y-119789841D01*
X104627710Y-119951214D01*
X104900986Y-120082817D01*
X105116002Y-120158054D01*
X105187267Y-120182991D01*
X105187279Y-120182995D01*
X105482988Y-120250489D01*
X105482997Y-120250490D01*
X105483002Y-120250491D01*
X105683925Y-120273129D01*
X105784388Y-120284448D01*
X105784391Y-120284449D01*
X105784394Y-120284449D01*
X106087711Y-120284449D01*
X106087712Y-120284448D01*
X106241745Y-120267093D01*
X106389099Y-120250491D01*
X106389102Y-120250490D01*
X106389114Y-120250489D01*
X106684823Y-120182995D01*
X106971116Y-120082817D01*
X107244392Y-119951214D01*
X107501215Y-119789841D01*
X107738355Y-119600728D01*
X107952830Y-119386253D01*
X108141943Y-119149113D01*
X108303316Y-118892290D01*
X108434919Y-118619014D01*
X108462936Y-118538943D01*
X111667500Y-118538943D01*
X111667500Y-118697056D01*
X111708423Y-118849783D01*
X111708423Y-118849784D01*
X111758777Y-118937001D01*
X111775248Y-119004901D01*
X111758777Y-119060999D01*
X111708423Y-119148215D01*
X111708423Y-119148216D01*
X111667500Y-119300943D01*
X111667500Y-119459056D01*
X111708423Y-119611783D01*
X111708423Y-119611784D01*
X111758777Y-119699001D01*
X111775248Y-119766901D01*
X111758777Y-119822999D01*
X111708423Y-119910215D01*
X111708423Y-119910216D01*
X111667500Y-120062943D01*
X111667500Y-120221057D01*
X111675387Y-120250489D01*
X111708423Y-120373783D01*
X111708426Y-120373790D01*
X111787475Y-120510709D01*
X111787479Y-120510714D01*
X111787480Y-120510716D01*
X111899284Y-120622520D01*
X111899286Y-120622521D01*
X111899290Y-120622524D01*
X112036209Y-120701573D01*
X112036216Y-120701577D01*
X112188943Y-120742500D01*
X112188945Y-120742500D01*
X112347055Y-120742500D01*
X112347057Y-120742500D01*
X112499784Y-120701577D01*
X112587000Y-120651222D01*
X112654900Y-120634750D01*
X112710999Y-120651222D01*
X112798216Y-120701577D01*
X112950943Y-120742500D01*
X112950945Y-120742500D01*
X113109055Y-120742500D01*
X113109057Y-120742500D01*
X113261784Y-120701577D01*
X113349000Y-120651222D01*
X113416900Y-120634750D01*
X113472999Y-120651222D01*
X113560216Y-120701577D01*
X113712943Y-120742500D01*
X113712945Y-120742500D01*
X113871055Y-120742500D01*
X113871057Y-120742500D01*
X114023784Y-120701577D01*
X114160716Y-120622520D01*
X114272520Y-120510716D01*
X114351577Y-120373784D01*
X114392500Y-120221057D01*
X114392500Y-120062943D01*
X114351577Y-119910216D01*
X114301222Y-119822999D01*
X114284750Y-119755100D01*
X114301223Y-119699000D01*
X114351577Y-119611784D01*
X114392500Y-119459057D01*
X114392500Y-119300943D01*
X114351577Y-119148216D01*
X114301222Y-119060999D01*
X114284750Y-118993100D01*
X114301223Y-118937000D01*
X114327038Y-118892287D01*
X114351577Y-118849784D01*
X114392500Y-118697057D01*
X114392500Y-118538943D01*
X114351577Y-118386216D01*
X114351573Y-118386209D01*
X114272524Y-118249290D01*
X114272518Y-118249282D01*
X114160717Y-118137481D01*
X114160709Y-118137475D01*
X114023790Y-118058426D01*
X114023786Y-118058424D01*
X114023784Y-118058423D01*
X113871057Y-118017500D01*
X113712943Y-118017500D01*
X113560216Y-118058423D01*
X113560215Y-118058423D01*
X113472999Y-118108777D01*
X113405099Y-118125248D01*
X113349001Y-118108777D01*
X113261784Y-118058423D01*
X113109057Y-118017500D01*
X112950943Y-118017500D01*
X112798216Y-118058423D01*
X112798215Y-118058423D01*
X112710999Y-118108777D01*
X112643099Y-118125248D01*
X112587001Y-118108777D01*
X112499784Y-118058423D01*
X112347057Y-118017500D01*
X112188943Y-118017500D01*
X112036216Y-118058423D01*
X112036209Y-118058426D01*
X111899290Y-118137475D01*
X111899282Y-118137481D01*
X111787481Y-118249282D01*
X111787475Y-118249290D01*
X111708426Y-118386209D01*
X111708423Y-118386216D01*
X111667500Y-118538943D01*
X108462936Y-118538943D01*
X108464027Y-118535825D01*
X108480112Y-118489861D01*
X108535093Y-118332732D01*
X108535097Y-118332720D01*
X108602591Y-118037012D01*
X108604790Y-118017500D01*
X108636550Y-117735612D01*
X108636551Y-117735608D01*
X108636551Y-117432289D01*
X108636550Y-117432285D01*
X108602593Y-117130900D01*
X108602592Y-117130895D01*
X108602591Y-117130886D01*
X108535097Y-116835177D01*
X108434919Y-116548884D01*
X108303316Y-116275608D01*
X108141943Y-116018785D01*
X107952830Y-115781645D01*
X107738355Y-115567170D01*
X107501215Y-115378057D01*
X107244392Y-115216684D01*
X107244389Y-115216682D01*
X106971119Y-115085082D01*
X106684834Y-114984906D01*
X106684822Y-114984902D01*
X106456607Y-114932813D01*
X106389114Y-114917409D01*
X106389111Y-114917408D01*
X106389099Y-114917406D01*
X106087714Y-114883449D01*
X106087708Y-114883449D01*
X105784394Y-114883449D01*
X105784387Y-114883449D01*
X105483002Y-114917406D01*
X105482988Y-114917409D01*
X105187279Y-114984902D01*
X105187267Y-114984906D01*
X104900982Y-115085082D01*
X104627712Y-115216682D01*
X104370888Y-115378056D01*
X104133747Y-115567169D01*
X103919271Y-115781645D01*
X103730158Y-116018786D01*
X103568784Y-116275610D01*
X103437184Y-116548880D01*
X103337008Y-116835165D01*
X103337004Y-116835177D01*
X103269511Y-117130886D01*
X103269508Y-117130900D01*
X103235551Y-117432285D01*
X102100501Y-117432285D01*
X102100501Y-114424000D01*
X102120186Y-114356961D01*
X102172990Y-114311206D01*
X102224501Y-114300000D01*
X104648000Y-114300000D01*
X104648000Y-112950943D01*
X107857500Y-112950943D01*
X107857500Y-113109056D01*
X107898423Y-113261783D01*
X107898426Y-113261790D01*
X107977475Y-113398709D01*
X107977479Y-113398714D01*
X107977480Y-113398716D01*
X108089284Y-113510520D01*
X108089286Y-113510521D01*
X108089290Y-113510524D01*
X108226209Y-113589573D01*
X108226216Y-113589577D01*
X108378943Y-113630500D01*
X108378945Y-113630500D01*
X108537055Y-113630500D01*
X108537057Y-113630500D01*
X108689784Y-113589577D01*
X108826716Y-113510520D01*
X108938520Y-113398716D01*
X109017577Y-113261784D01*
X109058500Y-113109057D01*
X109058500Y-112950943D01*
X109026599Y-112831886D01*
X109028262Y-112762041D01*
X109067424Y-112704178D01*
X109074851Y-112699022D01*
X109080709Y-112694525D01*
X109080716Y-112694522D01*
X109192520Y-112582718D01*
X109271577Y-112445786D01*
X109312500Y-112293059D01*
X109312500Y-112134945D01*
X109271577Y-111982218D01*
X109246379Y-111938573D01*
X109192524Y-111845292D01*
X109192518Y-111845284D01*
X109080717Y-111733483D01*
X109080709Y-111733477D01*
X108943790Y-111654428D01*
X108943786Y-111654426D01*
X108943784Y-111654425D01*
X108791057Y-111613502D01*
X108632943Y-111613502D01*
X108480216Y-111654425D01*
X108480209Y-111654428D01*
X108343290Y-111733477D01*
X108343282Y-111733483D01*
X108231481Y-111845284D01*
X108231475Y-111845292D01*
X108152426Y-111982211D01*
X108152423Y-111982218D01*
X108111500Y-112134945D01*
X108111500Y-112293059D01*
X108112149Y-112295480D01*
X108143400Y-112412112D01*
X108141737Y-112481962D01*
X108102574Y-112539824D01*
X108095154Y-112544976D01*
X108089281Y-112549482D01*
X107977481Y-112661282D01*
X107977475Y-112661290D01*
X107898426Y-112798209D01*
X107898423Y-112798216D01*
X107857500Y-112950943D01*
X104648000Y-112950943D01*
X104648000Y-107950000D01*
X102224501Y-107950000D01*
X102157462Y-107930315D01*
X102111707Y-107877511D01*
X102100501Y-107826000D01*
X102100501Y-107428943D01*
X108873500Y-107428943D01*
X108873500Y-107587057D01*
X108881509Y-107616945D01*
X108914423Y-107739783D01*
X108914423Y-107739784D01*
X108984167Y-107860586D01*
X109000638Y-107928486D01*
X108984167Y-107984584D01*
X108914423Y-108105386D01*
X108914423Y-108105387D01*
X108873500Y-108258114D01*
X108873500Y-108416227D01*
X108914423Y-108568954D01*
X108914426Y-108568961D01*
X108993475Y-108705880D01*
X108993479Y-108705885D01*
X108993480Y-108705887D01*
X109105284Y-108817691D01*
X109105286Y-108817692D01*
X109105290Y-108817695D01*
X109206726Y-108876258D01*
X109242216Y-108896748D01*
X109394943Y-108937671D01*
X109394945Y-108937671D01*
X109553055Y-108937671D01*
X109553057Y-108937671D01*
X109705784Y-108896748D01*
X109741275Y-108876257D01*
X109809172Y-108859785D01*
X109875199Y-108882637D01*
X109918390Y-108937558D01*
X109925032Y-109007111D01*
X109923048Y-109015738D01*
X109889500Y-109140943D01*
X109889500Y-109299056D01*
X109930423Y-109451783D01*
X109930423Y-109451784D01*
X109980777Y-109539001D01*
X109997248Y-109606901D01*
X109980777Y-109662999D01*
X109930423Y-109750215D01*
X109930423Y-109750216D01*
X109889500Y-109902943D01*
X109889500Y-110061056D01*
X109930423Y-110213783D01*
X109930423Y-110213784D01*
X109980777Y-110301001D01*
X109997248Y-110368901D01*
X109980777Y-110424999D01*
X109930423Y-110512215D01*
X109930423Y-110512216D01*
X109889500Y-110664943D01*
X109889500Y-110823057D01*
X109909710Y-110898480D01*
X109930423Y-110975783D01*
X109930426Y-110975790D01*
X110009475Y-111112709D01*
X110009479Y-111112714D01*
X110009480Y-111112716D01*
X110121284Y-111224520D01*
X110121286Y-111224521D01*
X110121290Y-111224524D01*
X110251922Y-111299943D01*
X110258216Y-111303577D01*
X110410943Y-111344500D01*
X110410945Y-111344500D01*
X110569055Y-111344500D01*
X110569057Y-111344500D01*
X110721784Y-111303577D01*
X110809000Y-111253222D01*
X110876900Y-111236750D01*
X110932999Y-111253222D01*
X111020216Y-111303577D01*
X111172943Y-111344500D01*
X111172945Y-111344500D01*
X111331055Y-111344500D01*
X111331057Y-111344500D01*
X111483784Y-111303577D01*
X111571000Y-111253222D01*
X111638900Y-111236750D01*
X111694999Y-111253222D01*
X111782216Y-111303577D01*
X111934943Y-111344500D01*
X111934945Y-111344500D01*
X112093055Y-111344500D01*
X112093057Y-111344500D01*
X112245784Y-111303577D01*
X112382716Y-111224520D01*
X112494520Y-111112716D01*
X112573577Y-110975784D01*
X112614500Y-110823057D01*
X112614500Y-110664943D01*
X112573577Y-110512216D01*
X112523222Y-110424999D01*
X112506750Y-110357100D01*
X112523223Y-110301000D01*
X112573577Y-110213784D01*
X112614500Y-110061057D01*
X112614500Y-109902943D01*
X112573577Y-109750216D01*
X112523222Y-109662999D01*
X112506750Y-109595100D01*
X112523223Y-109539000D01*
X112573577Y-109451784D01*
X112614500Y-109299057D01*
X112614500Y-109140943D01*
X112573577Y-108988216D01*
X112544330Y-108937558D01*
X112494524Y-108851290D01*
X112494518Y-108851282D01*
X112382717Y-108739481D01*
X112382709Y-108739475D01*
X112245790Y-108660426D01*
X112245786Y-108660424D01*
X112245784Y-108660423D01*
X112093057Y-108619500D01*
X111934943Y-108619500D01*
X111782216Y-108660423D01*
X111782215Y-108660423D01*
X111694999Y-108710777D01*
X111627099Y-108727248D01*
X111571001Y-108710777D01*
X111483784Y-108660423D01*
X111331057Y-108619500D01*
X111172943Y-108619500D01*
X111020216Y-108660423D01*
X111020215Y-108660423D01*
X110932999Y-108710777D01*
X110865099Y-108727248D01*
X110809001Y-108710777D01*
X110721784Y-108660423D01*
X110569057Y-108619500D01*
X110410943Y-108619500D01*
X110258216Y-108660423D01*
X110258211Y-108660425D01*
X110222724Y-108680913D01*
X110154823Y-108697384D01*
X110088797Y-108674531D01*
X110045607Y-108619609D01*
X110038967Y-108550055D01*
X110040944Y-108541457D01*
X110074500Y-108416228D01*
X110074500Y-108258114D01*
X110033577Y-108105387D01*
X109963831Y-107984583D01*
X109947359Y-107916685D01*
X109963830Y-107860589D01*
X110033577Y-107739784D01*
X110066492Y-107616943D01*
X113191500Y-107616943D01*
X113191500Y-107775057D01*
X113218953Y-107877511D01*
X113232423Y-107927783D01*
X113232426Y-107927790D01*
X113311475Y-108064709D01*
X113311479Y-108064714D01*
X113311480Y-108064716D01*
X113423284Y-108176520D01*
X113423286Y-108176521D01*
X113423290Y-108176524D01*
X113560209Y-108255573D01*
X113560216Y-108255577D01*
X113712943Y-108296500D01*
X113712945Y-108296500D01*
X113871055Y-108296500D01*
X113871057Y-108296500D01*
X114023784Y-108255577D01*
X114160716Y-108176520D01*
X114272520Y-108064716D01*
X114351577Y-107927784D01*
X114392500Y-107775057D01*
X114392500Y-107616943D01*
X114351577Y-107464216D01*
X114351573Y-107464209D01*
X114272524Y-107327290D01*
X114272518Y-107327282D01*
X114160717Y-107215481D01*
X114160709Y-107215475D01*
X114023790Y-107136426D01*
X114023786Y-107136424D01*
X114023784Y-107136423D01*
X113871057Y-107095500D01*
X113712943Y-107095500D01*
X113560216Y-107136423D01*
X113560209Y-107136426D01*
X113423290Y-107215475D01*
X113423282Y-107215481D01*
X113311481Y-107327282D01*
X113311475Y-107327290D01*
X113232426Y-107464209D01*
X113232423Y-107464216D01*
X113191500Y-107616943D01*
X110066492Y-107616943D01*
X110074500Y-107587057D01*
X110074500Y-107428943D01*
X110033577Y-107276216D01*
X110012423Y-107239575D01*
X109954524Y-107139290D01*
X109954518Y-107139282D01*
X109842717Y-107027481D01*
X109842709Y-107027475D01*
X109705790Y-106948426D01*
X109705786Y-106948424D01*
X109705784Y-106948423D01*
X109553057Y-106907500D01*
X109394943Y-106907500D01*
X109242216Y-106948423D01*
X109242209Y-106948426D01*
X109105290Y-107027475D01*
X109105282Y-107027481D01*
X108993481Y-107139282D01*
X108993475Y-107139290D01*
X108914426Y-107276209D01*
X108914423Y-107276216D01*
X108873500Y-107428943D01*
X102100501Y-107428943D01*
X102100501Y-105076943D01*
X102523500Y-105076943D01*
X102523500Y-105235056D01*
X102564423Y-105387783D01*
X102564423Y-105387784D01*
X102614777Y-105475001D01*
X102631248Y-105542901D01*
X102614777Y-105598999D01*
X102564423Y-105686215D01*
X102564423Y-105686216D01*
X102523500Y-105838943D01*
X102523500Y-105997056D01*
X102564423Y-106149783D01*
X102564423Y-106149784D01*
X102614777Y-106237001D01*
X102631248Y-106304901D01*
X102614777Y-106360999D01*
X102564423Y-106448215D01*
X102564423Y-106448216D01*
X102523500Y-106600943D01*
X102523500Y-106759056D01*
X102564423Y-106911783D01*
X102564426Y-106911790D01*
X102643475Y-107048709D01*
X102643479Y-107048714D01*
X102643480Y-107048716D01*
X102755284Y-107160520D01*
X102755286Y-107160521D01*
X102755290Y-107160524D01*
X102850478Y-107215480D01*
X102892216Y-107239577D01*
X103044943Y-107280500D01*
X103044945Y-107280500D01*
X103203055Y-107280500D01*
X103203057Y-107280500D01*
X103355784Y-107239577D01*
X103443000Y-107189222D01*
X103510900Y-107172750D01*
X103566999Y-107189222D01*
X103654216Y-107239577D01*
X103806943Y-107280500D01*
X103806945Y-107280500D01*
X103965055Y-107280500D01*
X103965057Y-107280500D01*
X104117784Y-107239577D01*
X104205000Y-107189222D01*
X104272900Y-107172750D01*
X104328999Y-107189222D01*
X104416216Y-107239577D01*
X104568943Y-107280500D01*
X104568945Y-107280500D01*
X104727055Y-107280500D01*
X104727057Y-107280500D01*
X104879784Y-107239577D01*
X105016716Y-107160520D01*
X105128520Y-107048716D01*
X105207577Y-106911784D01*
X105248500Y-106759057D01*
X105248500Y-106600943D01*
X105207577Y-106448216D01*
X105157222Y-106360999D01*
X105156322Y-106357287D01*
X105153719Y-106354491D01*
X105148149Y-106323601D01*
X105140750Y-106293100D01*
X105141802Y-106288396D01*
X105141322Y-106285730D01*
X105144754Y-106275209D01*
X105150055Y-106251533D01*
X105153162Y-106244033D01*
X105207577Y-106149784D01*
X105222807Y-106092943D01*
X115477500Y-106092943D01*
X115477500Y-106251057D01*
X115491928Y-106304901D01*
X115518423Y-106403783D01*
X115518426Y-106403790D01*
X115597475Y-106540709D01*
X115597479Y-106540714D01*
X115597480Y-106540716D01*
X115709284Y-106652520D01*
X115709286Y-106652521D01*
X115709290Y-106652524D01*
X115846209Y-106731573D01*
X115846216Y-106731577D01*
X115998943Y-106772500D01*
X115998945Y-106772500D01*
X116157055Y-106772500D01*
X116157057Y-106772500D01*
X116309784Y-106731577D01*
X116446716Y-106652520D01*
X116558520Y-106540716D01*
X116637577Y-106403784D01*
X116678500Y-106251057D01*
X116678500Y-106092943D01*
X116637577Y-105940216D01*
X116579108Y-105838943D01*
X116558524Y-105803290D01*
X116558518Y-105803282D01*
X116446717Y-105691481D01*
X116446709Y-105691475D01*
X116309790Y-105612426D01*
X116309786Y-105612424D01*
X116309784Y-105612423D01*
X116157057Y-105571500D01*
X115998943Y-105571500D01*
X115846216Y-105612423D01*
X115846209Y-105612426D01*
X115709290Y-105691475D01*
X115709282Y-105691481D01*
X115597481Y-105803282D01*
X115597475Y-105803290D01*
X115518426Y-105940209D01*
X115518423Y-105940216D01*
X115477500Y-106092943D01*
X105222807Y-106092943D01*
X105248500Y-105997057D01*
X105248500Y-105838943D01*
X105207577Y-105686216D01*
X105157222Y-105598999D01*
X105140750Y-105531100D01*
X105157223Y-105475000D01*
X105207577Y-105387784D01*
X105248500Y-105235057D01*
X105248500Y-105076943D01*
X105207577Y-104924216D01*
X105207573Y-104924209D01*
X105128524Y-104787290D01*
X105128518Y-104787282D01*
X105016717Y-104675481D01*
X105016709Y-104675475D01*
X104879790Y-104596426D01*
X104879786Y-104596424D01*
X104879784Y-104596423D01*
X104727057Y-104555500D01*
X104568943Y-104555500D01*
X104416216Y-104596423D01*
X104416215Y-104596423D01*
X104328999Y-104646777D01*
X104261099Y-104663248D01*
X104205001Y-104646777D01*
X104117784Y-104596423D01*
X103965057Y-104555500D01*
X103806943Y-104555500D01*
X103654216Y-104596423D01*
X103654215Y-104596423D01*
X103566999Y-104646777D01*
X103499099Y-104663248D01*
X103443001Y-104646777D01*
X103355784Y-104596423D01*
X103203057Y-104555500D01*
X103044943Y-104555500D01*
X102892216Y-104596423D01*
X102892209Y-104596426D01*
X102755290Y-104675475D01*
X102755282Y-104675481D01*
X102643481Y-104787282D01*
X102643475Y-104787290D01*
X102564426Y-104924209D01*
X102564423Y-104924216D01*
X102523500Y-105076943D01*
X102100501Y-105076943D01*
X102100501Y-104365500D01*
X102120186Y-104298461D01*
X102172990Y-104252706D01*
X102224501Y-104241500D01*
X119256000Y-104241500D01*
X119323039Y-104261185D01*
G37*
%TD.AperFunction*%
%TD*%
M02*
