M48
; DRILL file {KiCad 9.0.7} date 2026-04-13T19:26:54+0200
; FORMAT={-:-/ absolute / inch / decimal}
; #@! TF.CreationDate,2026-04-13T19:26:54+02:00
; #@! TF.GenerationSoftware,Kicad,Pcbnew,9.0.7
; #@! TF.FileFunction,Plated,1,4,PTH
FMAT,2
INCH
; #@! TA.AperFunction,Plated,PTH,ComponentDrill
T1C0.0079
; #@! TA.AperFunction,Plated,PTH,ViaDrill
T2C0.0118
; #@! TA.AperFunction,Plated,PTH,ComponentDrill
T3C0.0394
; #@! TA.AperFunction,Plated,PTH,ComponentDrill
T4C0.1063
%
G90
G05
T1
X5.4283Y-3.9161
X5.4283Y-3.9594
X5.45Y-3.8945
X5.45Y-3.9378
X5.45Y-3.9811
X5.4717Y-3.9161
X5.4717Y-3.9594
X5.4933Y-3.8945
X5.4933Y-3.9378
X5.4933Y-3.9811
X5.515Y-3.9161
X5.515Y-3.9594
T2
X4.06Y-3.39
X4.06Y-3.42
X4.06Y-3.45
X4.06Y-3.76
X4.06Y-3.79
X4.06Y-3.82
X4.06Y-4.14
X4.06Y-4.17
X4.06Y-4.2
X4.09Y-3.39
X4.09Y-3.42
X4.09Y-3.45
X4.09Y-3.76
X4.09Y-3.79
X4.09Y-3.82
X4.09Y-4.14
X4.09Y-4.17
X4.09Y-4.2
X4.12Y-3.39
X4.12Y-3.42
X4.12Y-3.45
X4.12Y-3.76
X4.12Y-3.79
X4.12Y-3.82
X4.12Y-4.14
X4.12Y-4.17
X4.12Y-4.2
X4.16Y-3.89
X4.18Y-4.4289
X4.21Y-3.89
X4.21Y-4.4277
X4.22Y-4.2343
X4.2332Y-3.89
X4.2345Y-4.2127
X4.2349Y-4.19
X4.2568Y-3.89
X4.27Y-4.45
X4.28Y-3.89
X4.28Y-4.4179
X4.2977Y-4.3972
X4.31Y-4.2326
X4.31Y-4.2652
X4.3108Y-3.4168
X4.3108Y-3.44
X4.3108Y-3.4617
X4.3108Y-3.83
X4.3108Y-3.8532
X4.32Y-3.89
X4.32Y-4.3972
X4.34Y-4.4263
X4.34Y-4.4495
X4.3432Y-3.8894
X4.35Y-4.3
X4.35Y-4.33
X4.35Y-4.36
X4.37Y-4.23
X4.37Y-4.4495
X4.38Y-4.21
X4.38Y-4.3
X4.38Y-4.33
X4.38Y-4.36
X4.3968Y-4.4495
X4.41Y-3.76
X4.41Y-3.79
X4.41Y-3.82
X4.41Y-4.3
X4.41Y-4.33
X4.41Y-4.36
X4.413Y-4.2018
X4.42Y-4.4495
X4.42Y-4.67
X4.42Y-4.7
X4.42Y-4.73
X4.43Y-3.18
X4.43Y-3.24
X4.4494Y-4.4132
X4.4495Y-4.4364
X4.45Y-4.39
X4.45Y-4.53
X4.45Y-4.67
X4.45Y-4.7
X4.45Y-4.73
X4.46Y-3.76
X4.46Y-3.79
X4.46Y-3.82
X4.47Y-3.25
X4.48Y-4.24
X4.48Y-4.67
X4.48Y-4.7
X4.48Y-4.73
X4.51Y-3.25
X4.54Y-3.95
X4.545Y-3.89
X4.56Y-3.48
X4.57Y-4.18
X4.5968Y-4.24
X4.61Y-3.53
X4.62Y-4.24
X4.69Y-3.13
X4.69Y-3.16
X4.69Y-3.19
X4.695Y-4.44
X4.7Y-4.385
X4.72Y-3.13
X4.72Y-3.16
X4.72Y-3.19
X4.75Y-3.13
X4.75Y-3.16
X4.75Y-3.19
X4.78Y-3.65
X4.78Y-3.68
X4.78Y-3.71
X4.79Y-4.22
X4.79Y-4.36
X4.79Y-4.67
X4.79Y-4.7
X4.79Y-4.73
X4.8Y-4.28
X4.81Y-3.33
X4.81Y-3.65
X4.81Y-3.68
X4.81Y-3.71
X4.81Y-4.35
X4.8168Y-3.8098
X4.82Y-4.3
X4.82Y-4.67
X4.82Y-4.7
X4.82Y-4.73
X4.83Y-3.35
X4.83Y-4.11
X4.83Y-4.15
X4.84Y-3.65
X4.84Y-3.68
X4.84Y-3.71
X4.85Y-3.81
X4.85Y-4.67
X4.85Y-4.7
X4.85Y-4.73
X4.86Y-4.11
X4.86Y-4.15
X4.8832Y-3.81
X4.89Y-4.11
X4.89Y-4.15
X4.9Y-4.31
X4.9Y-4.34
X4.9Y-4.37
X4.92Y-4.11
X4.92Y-4.15
X4.93Y-3.76
X4.94Y-3.81
X4.94Y-4.31
X4.94Y-4.34
X4.94Y-4.37
X4.95Y-3.51
X4.95Y-3.78
X4.95Y-4.11
X4.95Y-4.15
X4.97Y-3.88
X4.97Y-4.0
X4.97Y-4.03
X4.97Y-4.06
X4.9789Y-3.93
X4.98Y-4.31
X4.98Y-4.34
X4.98Y-4.37
X5.0Y-4.0
X5.0Y-4.03
X5.0Y-4.06
X5.01Y-3.93
X5.02Y-3.65
X5.02Y-3.73
X5.02Y-3.76
X5.03Y-4.0
X5.03Y-4.03
X5.03Y-4.06
X5.04Y-3.48
X5.04Y-3.93
X5.05Y-3.33
X5.05Y-3.73
X5.05Y-3.76
X5.07Y-3.35
X5.07Y-4.3
X5.07Y-4.33
X5.08Y-3.73
X5.08Y-3.76
X5.1Y-4.3
X5.1Y-4.33
X5.11Y-3.73
X5.11Y-3.76
X5.13Y-4.3
X5.13Y-4.33
X5.14Y-3.73
X5.14Y-3.76
X5.18Y-4.42
X5.18Y-4.45
X5.21Y-4.4351
X5.24Y-4.42
X5.24Y-4.45
X5.27Y-3.9
X5.27Y-3.93
X5.27Y-3.96
X5.3Y-3.9
X5.3Y-3.93
X5.3Y-3.96
X5.318Y-3.2314
X5.33Y-3.37
X5.33Y-3.4
X5.33Y-3.43
X5.33Y-3.9
X5.33Y-3.93
X5.33Y-3.96
X5.3354Y-4.5068
X5.3363Y-4.53
X5.3462Y-4.5494
X5.3491Y-3.48
X5.35Y-3.224
X5.36Y-3.37
X5.36Y-3.4
X5.36Y-3.43
X5.39Y-3.37
X5.39Y-3.4
X5.39Y-3.43
X5.39Y-3.51
X5.41Y-4.66
X5.41Y-4.69
X5.41Y-4.72
X5.44Y-4.66
X5.44Y-4.69
X5.44Y-4.72
X5.45Y-4.4367
X5.47Y-4.66
X5.47Y-4.69
X5.47Y-4.72
X5.5127Y-4.545
X5.524Y-4.5025
X5.5256Y-4.5257
X5.54Y-4.2
X5.55Y-4.09
X5.5868Y-3.4805
X5.6Y-3.6
X5.6Y-4.44
X5.61Y-3.4805
X5.6232Y-4.44
X5.63Y-4.09
X5.6332Y-3.4805
X5.6568Y-3.4805
X5.68Y-3.4805
X5.69Y-4.42
X5.7032Y-3.4805
X5.71Y-4.09
T3
X5.09Y-4.69
T4
X4.1707Y-4.6293
X4.1707Y-3.2
X5.8293Y-3.2
X5.8293Y-4.6293
M30
