%TF.GenerationSoftware,KiCad,Pcbnew,9.0.7*%
%TF.CreationDate,2026-04-13T19:26:54+02:00*%
%TF.ProjectId,air_quality_sensor,6169725f-7175-4616-9c69-74795f73656e,1.0*%
%TF.SameCoordinates,Original*%
%TF.FileFunction,Copper,L4,Bot*%
%TF.FilePolarity,Positive*%
%FSLAX46Y46*%
G04 Gerber Fmt 4.6, Leading zero omitted, Abs format (unit mm)*
G04 Created by KiCad (PCBNEW 9.0.7) date 2026-04-13 19:26:54*
%MOMM*%
%LPD*%
G01*
G04 APERTURE LIST*
G04 Aperture macros list*
%AMRoundRect*
0 Rectangle with rounded corners*
0 $1 Rounding radius*
0 $2 $3 $4 $5 $6 $7 $8 $9 X,Y pos of 4 corners*
0 Add a 4 corners polygon primitive as box body*
4,1,4,$2,$3,$4,$5,$6,$7,$8,$9,$2,$3,0*
0 Add four circle primitives for the rounded corners*
1,1,$1+$1,$2,$3*
1,1,$1+$1,$4,$5*
1,1,$1+$1,$6,$7*
1,1,$1+$1,$8,$9*
0 Add four rect primitives between the rounded corners*
20,1,$1+$1,$2,$3,$4,$5,0*
20,1,$1+$1,$4,$5,$6,$7,0*
20,1,$1+$1,$6,$7,$8,$9,0*
20,1,$1+$1,$8,$9,$2,$3,0*%
G04 Aperture macros list end*
%ADD10C,0.200000*%
%TA.AperFunction,NonConductor*%
%ADD11C,0.200000*%
%TD*%
%TA.AperFunction,ComponentPad*%
%ADD12C,4.700000*%
%TD*%
%TA.AperFunction,ComponentPad*%
%ADD13C,2.000000*%
%TD*%
%TA.AperFunction,HeatsinkPad*%
%ADD14C,0.600000*%
%TD*%
%TA.AperFunction,SMDPad,CuDef*%
%ADD15C,1.000000*%
%TD*%
%TA.AperFunction,SMDPad,CuDef*%
%ADD16RoundRect,0.135000X0.135000X0.185000X-0.135000X0.185000X-0.135000X-0.185000X0.135000X-0.185000X0*%
%TD*%
%TA.AperFunction,SMDPad,CuDef*%
%ADD17RoundRect,0.135000X-0.185000X0.135000X-0.185000X-0.135000X0.185000X-0.135000X0.185000X0.135000X0*%
%TD*%
%TA.AperFunction,SMDPad,CuDef*%
%ADD18RoundRect,0.135000X-0.135000X-0.185000X0.135000X-0.185000X0.135000X0.185000X-0.135000X0.185000X0*%
%TD*%
%TA.AperFunction,SMDPad,CuDef*%
%ADD19RoundRect,0.135000X0.185000X-0.135000X0.185000X0.135000X-0.185000X0.135000X-0.185000X-0.135000X0*%
%TD*%
%TA.AperFunction,ViaPad*%
%ADD20C,0.500000*%
%TD*%
%TA.AperFunction,Conductor*%
%ADD21C,0.200000*%
%TD*%
G04 APERTURE END LIST*
D10*
D11*
X103163552Y-109029523D02*
X103830219Y-109029523D01*
X102782600Y-109267618D02*
X103496885Y-109505713D01*
X103496885Y-109505713D02*
X103496885Y-108886666D01*
D12*
%TO.P,H4,1*%
%TO.N,N/C*%
X148063949Y-117583949D03*
%TD*%
%TO.P,H3,1*%
%TO.N,N/C*%
X105936051Y-117583949D03*
%TD*%
%TO.P,H2,1*%
%TO.N,N/C*%
X148063948Y-81280000D03*
%TD*%
D13*
%TO.P,TP1,1,1*%
%TO.N,GND*%
X129286000Y-119126000D03*
%TD*%
D12*
%TO.P,H1,1*%
%TO.N,N/C*%
X105936052Y-81280000D03*
%TD*%
D14*
%TO.P,U8,19,GND*%
%TO.N,GND*%
X139530000Y-98920000D03*
X138430000Y-98920000D03*
X140080000Y-99470000D03*
X138980000Y-99470000D03*
X137880000Y-99470000D03*
X139530000Y-100020000D03*
X138430000Y-100020000D03*
X140080000Y-100570000D03*
X138980000Y-100570000D03*
X137880000Y-100570000D03*
X139530000Y-101120000D03*
X138430000Y-101120000D03*
%TD*%
D15*
%TO.P,TP9,1,1*%
%TO.N,Net-(U8-IO0)*%
X145034000Y-103886000D03*
%TD*%
%TO.P,TP10,1,1*%
%TO.N,Net-(U8-IO1)*%
X143002000Y-103886000D03*
%TD*%
%TO.P,TP12,1,1*%
%TO.N,/ESP32_ADC1_CH4*%
X142240000Y-94996000D03*
%TD*%
D16*
%TO.P,R19,1*%
%TO.N,/ESP32_ADC1_CH3*%
X120144000Y-106426000D03*
%TO.P,R19,2*%
%TO.N,GND*%
X119124000Y-106426000D03*
%TD*%
D17*
%TO.P,R1,1*%
%TO.N,+3V3_SENS*%
X111506000Y-107440000D03*
%TO.P,R1,2*%
%TO.N,/ESP32_SDA*%
X111506000Y-108460000D03*
%TD*%
D18*
%TO.P,R18,1*%
%TO.N,+3V3_SENS*%
X119124000Y-107442000D03*
%TO.P,R18,2*%
%TO.N,/ESP32_ADC1_CH3*%
X120144000Y-107442000D03*
%TD*%
D19*
%TO.P,R2,1*%
%TO.N,+3V3_SENS*%
X110490000Y-107444000D03*
%TO.P,R2,2*%
%TO.N,/ESP32_SCL*%
X110490000Y-106424000D03*
%TD*%
%TO.P,JP3,1,A*%
%TO.N,Net-(JP3-A)*%
X115257644Y-100061919D03*
%TO.P,JP3,2,B*%
%TO.N,Net-(JP3-B)*%
X115257644Y-99041919D03*
%TD*%
%TO.P,JP1,1,A*%
%TO.N,+5V*%
X125984000Y-98554000D03*
%TO.P,JP1,2,B*%
%TO.N,Net-(JP1-B)*%
X125984000Y-97534000D03*
%TD*%
%TO.P,JP2,1,A*%
%TO.N,Net-(JP2-A)*%
X118872000Y-112524000D03*
%TO.P,JP2,2,B*%
%TO.N,Net-(JP2-B)*%
X118872000Y-111504000D03*
%TD*%
D15*
%TO.P,TP11,1,1*%
%TO.N,Net-(U8-IO2)*%
X140970000Y-103886000D03*
%TD*%
D20*
%TO.N,+3V3*%
X123190000Y-96774000D03*
%TO.N,VBUS*%
X135543228Y-115062903D03*
X140023191Y-115443734D03*
%TO.N,GND*%
X103124000Y-95504000D03*
X120650000Y-81026000D03*
X103124000Y-86106000D03*
X137414000Y-119126000D03*
X133858000Y-99060000D03*
X103124000Y-105918000D03*
X119126000Y-81026000D03*
X136144000Y-87122000D03*
X133858000Y-99822000D03*
X126238000Y-102362000D03*
X103124000Y-105156000D03*
X103886000Y-106680000D03*
X113792000Y-118618000D03*
X119888000Y-80264000D03*
X121412000Y-93472000D03*
X138176000Y-118364000D03*
X138938000Y-118364000D03*
X136906000Y-86360000D03*
X104648000Y-106680000D03*
X123190000Y-118618000D03*
X127762000Y-101600000D03*
X127762000Y-103124000D03*
X122174000Y-93472000D03*
X113030000Y-120142000D03*
X127762000Y-102362000D03*
X122428000Y-118618000D03*
X104648000Y-86868000D03*
X138176000Y-119888000D03*
X119126000Y-79502000D03*
X122936000Y-92710000D03*
X103886000Y-86106000D03*
X110490000Y-109220000D03*
X119888000Y-81026000D03*
X103124000Y-97028000D03*
X138430000Y-112693000D03*
X126238000Y-103124000D03*
X112268000Y-119380000D03*
X104648000Y-86106000D03*
X133858000Y-100584000D03*
X104648000Y-87630000D03*
X138938000Y-119888000D03*
X135382000Y-100584000D03*
X134620000Y-99822000D03*
X135382000Y-99060000D03*
X104648000Y-95504000D03*
X138176000Y-119126000D03*
X119888000Y-79502000D03*
X113030000Y-119380000D03*
X112268000Y-118618000D03*
X138938000Y-119126000D03*
X103886000Y-105156000D03*
X135382000Y-85598000D03*
X121666000Y-118618000D03*
X112268000Y-120142000D03*
X122936000Y-93472000D03*
X104648000Y-105918000D03*
X122174000Y-94234000D03*
X111252000Y-110744000D03*
X136906000Y-87122000D03*
X103886000Y-95504000D03*
X127000000Y-103124000D03*
X137414000Y-118364000D03*
X121412000Y-92710000D03*
X136906000Y-85598000D03*
X120650000Y-79502000D03*
X121666000Y-119380000D03*
X135382000Y-86360000D03*
X112014000Y-109220000D03*
X103886000Y-87630000D03*
X111252000Y-109982000D03*
X103124000Y-87630000D03*
X137414000Y-119888000D03*
X103124000Y-96266000D03*
X120650000Y-80264000D03*
X113792000Y-119380000D03*
X113030000Y-118618000D03*
X110490000Y-110744000D03*
X103886000Y-86868000D03*
X121412000Y-94234000D03*
X104648000Y-105156000D03*
X104648000Y-97028000D03*
X135382000Y-99822000D03*
X122174000Y-92710000D03*
X122936000Y-94234000D03*
X136144000Y-86360000D03*
X123190000Y-120142000D03*
X103886000Y-97028000D03*
X127000000Y-101600000D03*
X121666000Y-120142000D03*
X112014000Y-110744000D03*
X103886000Y-96266000D03*
X126238000Y-101600000D03*
X113792000Y-120142000D03*
X136144000Y-85598000D03*
X104648000Y-96266000D03*
X123190000Y-119380000D03*
X110490000Y-109982000D03*
X122428000Y-119380000D03*
X135382000Y-87122000D03*
X111252000Y-109220000D03*
X127000000Y-102362000D03*
X134620000Y-99060000D03*
X119126000Y-80264000D03*
X122428000Y-120142000D03*
X103124000Y-86868000D03*
X103124000Y-106680000D03*
X103886000Y-105918000D03*
X134620000Y-100584000D03*
X112014000Y-109982000D03*
%TO.N,+5V*%
X128016000Y-99822000D03*
X121666000Y-107188000D03*
X121666000Y-110744000D03*
X122428000Y-109220000D03*
X126492000Y-109474000D03*
X130302000Y-109220000D03*
X126492000Y-110236000D03*
X121920000Y-108712000D03*
X130302000Y-109982000D03*
X128778000Y-109220000D03*
X126492000Y-110998000D03*
X129540000Y-109220000D03*
X124206000Y-104394000D03*
X126238000Y-98552000D03*
X124460000Y-109474000D03*
X125730000Y-104394000D03*
X122682000Y-104394000D03*
X123444000Y-104394000D03*
X125476000Y-109474000D03*
X125730000Y-105410000D03*
X124968000Y-104394000D03*
X135077072Y-82077949D03*
X122174000Y-110490000D03*
X125476000Y-110998000D03*
X129540000Y-109982000D03*
X128778000Y-109982000D03*
X135890000Y-81889000D03*
X123444000Y-105410000D03*
X124968000Y-105410000D03*
X125476000Y-110236000D03*
X124206000Y-105410000D03*
X124460000Y-110998000D03*
X127254000Y-99822000D03*
X124460000Y-110236000D03*
X122682000Y-105410000D03*
X126464000Y-99822000D03*
%TO.N,+3V3*%
X144862003Y-88405000D03*
X129794000Y-95504000D03*
X128270000Y-95504000D03*
X141903997Y-88405000D03*
X143681997Y-88405000D03*
X122346015Y-96769354D03*
X127508000Y-94742000D03*
X129032000Y-95504000D03*
X130556000Y-94742000D03*
X144272000Y-88405000D03*
X122682000Y-85090000D03*
X125730000Y-96012000D03*
X130556000Y-95504000D03*
X129794000Y-94742000D03*
X127508000Y-92710000D03*
X112522000Y-82296000D03*
X142494000Y-88405000D03*
X125222000Y-95504000D03*
X128778000Y-85090000D03*
X129032000Y-94742000D03*
X128270000Y-84582000D03*
X124034003Y-96774000D03*
X143084003Y-88405000D03*
X112522000Y-80772000D03*
X128270000Y-94742000D03*
X127508000Y-95504000D03*
X122174000Y-84582000D03*
%TO.N,+3V3_SENS*%
X110236000Y-112426997D03*
X106172000Y-112494000D03*
X111677997Y-113017000D03*
X107566081Y-106426000D03*
X112090290Y-106724759D03*
X113017805Y-112685804D03*
X116757997Y-107696000D03*
X109728000Y-111689000D03*
X113014906Y-112095809D03*
X107188000Y-107550000D03*
X106934000Y-112463998D03*
X113030000Y-111506000D03*
X110998000Y-113017000D03*
X111252000Y-106934000D03*
X109162000Y-111689000D03*
X110236000Y-113017000D03*
X113030000Y-115062000D03*
X117348000Y-107696000D03*
X112268000Y-113017000D03*
X107555313Y-107002042D03*
X110998000Y-107442000D03*
%TO.N,Net-(JP3-A)*%
X115316000Y-100330000D03*
%TO.N,+3V3_SCD*%
X109494000Y-87926003D03*
X108712000Y-98806000D03*
X109494000Y-86785997D03*
X108121997Y-98806000D03*
X107524003Y-98806000D03*
X106934000Y-98806000D03*
X109494000Y-97282000D03*
X109494000Y-87376000D03*
X109494000Y-97872003D03*
X105664000Y-98806000D03*
X109728000Y-98806000D03*
%TO.N,VBUS*%
X140308455Y-114363760D03*
X131572000Y-112268000D03*
X144526000Y-112268000D03*
X133096000Y-113030000D03*
X131572000Y-113030000D03*
X133096000Y-112268000D03*
X135518493Y-114473420D03*
X142830003Y-112776000D03*
X142240000Y-112776000D03*
X135793002Y-115553884D03*
X132334000Y-112652000D03*
X140349710Y-114952319D03*
%TO.N,Net-(JP1-B)*%
X125476000Y-96774000D03*
%TO.N,Net-(JP2-B)*%
X119380000Y-111379000D03*
%TO.N,Net-(JP3-B)*%
X115443000Y-98806000D03*
%TO.N,/ESP32_SDA*%
X113284000Y-96266000D03*
X109474000Y-108337171D03*
X108712000Y-112214002D03*
X125730000Y-89154000D03*
X116078000Y-106172000D03*
X117094000Y-89662000D03*
X136906000Y-89154000D03*
X113284000Y-97028000D03*
X115824000Y-88392000D03*
X113284000Y-95504000D03*
X113538000Y-82550000D03*
%TO.N,/ESP32_SCL*%
X112014000Y-95504000D03*
X135868000Y-88392000D03*
X108458000Y-113030000D03*
X113792000Y-107696000D03*
X114554000Y-82550000D03*
X109474000Y-107508000D03*
X128016000Y-88392000D03*
X112014000Y-97028000D03*
X112014000Y-96266000D03*
%TO.N,Net-(JP2-A)*%
X119253000Y-112776000D03*
%TO.N,/ESP32_ADC1_CH4*%
X142240000Y-91440000D03*
%TO.N,/ESP32_ADC1_CH3*%
X140716000Y-106680000D03*
%TO.N,Net-(U8-IO0)*%
X145034000Y-103886000D03*
%TO.N,Net-(U8-IO1)*%
X143002000Y-103886000D03*
%TO.N,Net-(U8-IO2)*%
X140970000Y-103886000D03*
%TO.N,+3V3_SCD*%
X110317809Y-98790906D03*
%TD*%
D21*
%TO.N,+3V3_SENS*%
X116757997Y-107696000D02*
X117348000Y-107696000D01*
%TO.N,/ESP32_SCL*%
X109408000Y-107508000D02*
X107950000Y-108966000D01*
X109919000Y-106997000D02*
X109919000Y-106995000D01*
X109474000Y-107508000D02*
X109408000Y-107508000D01*
X107950000Y-108966000D02*
X107950000Y-112522000D01*
X109474000Y-107442000D02*
X109919000Y-106997000D01*
X107950000Y-112522000D02*
X108458000Y-113030000D01*
X109474000Y-107508000D02*
X109474000Y-107442000D01*
X109919000Y-106995000D02*
X110490000Y-106424000D01*
%TO.N,/ESP32_SDA*%
X116078000Y-106680000D02*
X116078000Y-106172000D01*
X109474000Y-108337171D02*
X114420829Y-108337171D01*
X114420829Y-108337171D02*
X116078000Y-106680000D01*
X109474000Y-108337171D02*
X109340829Y-108337171D01*
X109340829Y-108337171D02*
X108712000Y-108966000D01*
X108712000Y-108966000D02*
X108712000Y-112214002D01*
%TO.N,+3V3_SENS*%
X118364000Y-107442000D02*
X118110000Y-107696000D01*
X119124000Y-107442000D02*
X118364000Y-107442000D01*
X110494000Y-107440000D02*
X110490000Y-107444000D01*
X118110000Y-107696000D02*
X117348000Y-107696000D01*
X111506000Y-107440000D02*
X110494000Y-107440000D01*
%TO.N,Net-(JP1-B)*%
X125476000Y-96774000D02*
X125476000Y-97026000D01*
X125476000Y-97026000D02*
X125984000Y-97534000D01*
%TO.N,Net-(JP2-B)*%
X118872000Y-111504000D02*
X119255000Y-111504000D01*
X119255000Y-111504000D02*
X119380000Y-111379000D01*
%TO.N,/ESP32_SDA*%
X113284000Y-97028000D02*
X113284000Y-103124000D01*
X117602000Y-89154000D02*
X117094000Y-89662000D01*
X125730000Y-89154000D02*
X117602000Y-89154000D01*
X117094000Y-89662000D02*
X113284000Y-93472000D01*
X113284000Y-103124000D02*
X116078000Y-105918000D01*
X113284000Y-95504000D02*
X113284000Y-96266000D01*
X113284000Y-93472000D02*
X113284000Y-95504000D01*
X136906000Y-89154000D02*
X125730000Y-89154000D01*
X113284000Y-96266000D02*
X113284000Y-97028000D01*
X116078000Y-105918000D02*
X116078000Y-106172000D01*
X113538000Y-82550000D02*
X113538000Y-86106000D01*
X113538000Y-86106000D02*
X115824000Y-88392000D01*
%TO.N,/ESP32_SCL*%
X112014000Y-97028000D02*
X112014000Y-102108000D01*
X117348000Y-88646000D02*
X112014000Y-93980000D01*
X110492000Y-106424000D02*
X112014000Y-104902000D01*
X117348000Y-88646000D02*
X114554000Y-85852000D01*
X112014000Y-95504000D02*
X112014000Y-96266000D01*
X117602000Y-88392000D02*
X117348000Y-88646000D01*
X112014000Y-104902000D02*
X112014000Y-102108000D01*
X112014000Y-96266000D02*
X112014000Y-97028000D01*
X110490000Y-106424000D02*
X110492000Y-106424000D01*
X114554000Y-85852000D02*
X114554000Y-82550000D01*
X112014000Y-105918000D02*
X113792000Y-107696000D01*
X112014000Y-93980000D02*
X112014000Y-95504000D01*
X112014000Y-102108000D02*
X112014000Y-105918000D01*
X135868000Y-88392000D02*
X117602000Y-88392000D01*
%TO.N,/ESP32_ADC1_CH4*%
X142240000Y-94996000D02*
X142240000Y-91440000D01*
%TO.N,/ESP32_ADC1_CH3*%
X140462000Y-106426000D02*
X140716000Y-106680000D01*
X120144000Y-106426000D02*
X140462000Y-106426000D01*
X120144000Y-106426000D02*
X120144000Y-107442000D01*
%TD*%
%TA.AperFunction,Conductor*%
%TO.N,GND*%
G36*
X149863249Y-77444661D02*
G01*
X150119733Y-77461471D01*
X150132561Y-77463160D01*
X150381492Y-77512676D01*
X150394000Y-77516028D01*
X150634339Y-77597613D01*
X150646286Y-77602562D01*
X150873920Y-77714820D01*
X150885128Y-77721291D01*
X151096157Y-77862299D01*
X151106427Y-77870179D01*
X151297248Y-78037527D01*
X151306405Y-78046685D01*
X151473739Y-78237497D01*
X151481620Y-78247767D01*
X151578555Y-78392844D01*
X151622626Y-78458802D01*
X151629101Y-78470018D01*
X151741347Y-78697638D01*
X151746303Y-78709602D01*
X151827882Y-78949939D01*
X151831233Y-78962447D01*
X151880743Y-79211368D01*
X151882433Y-79224208D01*
X151899287Y-79481434D01*
X151899499Y-79487906D01*
X151899499Y-79519782D01*
X151899499Y-79549830D01*
X151899499Y-79549832D01*
X151899500Y-79557809D01*
X151899500Y-84961000D01*
X151880593Y-85019191D01*
X151831093Y-85055155D01*
X151800500Y-85060000D01*
X146280000Y-85060000D01*
X146280000Y-113060000D01*
X151800500Y-113060000D01*
X151858691Y-113078907D01*
X151894655Y-113128407D01*
X151899500Y-113159000D01*
X151899500Y-119376759D01*
X151899288Y-119383234D01*
X151882476Y-119639730D01*
X151880786Y-119652569D01*
X151831271Y-119901498D01*
X151827919Y-119914007D01*
X151746335Y-120154344D01*
X151741379Y-120166307D01*
X151629130Y-120393926D01*
X151622655Y-120405142D01*
X151481647Y-120616175D01*
X151473764Y-120626448D01*
X151306423Y-120817265D01*
X151297266Y-120826422D01*
X151106448Y-120993764D01*
X151096175Y-121001647D01*
X150885142Y-121142655D01*
X150873926Y-121149130D01*
X150646307Y-121261379D01*
X150634344Y-121266335D01*
X150394008Y-121347919D01*
X150381499Y-121351271D01*
X150132571Y-121400786D01*
X150119732Y-121402476D01*
X149863251Y-121419287D01*
X149856776Y-121419499D01*
X104143225Y-121419499D01*
X104136750Y-121419287D01*
X103880268Y-121402476D01*
X103867429Y-121400786D01*
X103618501Y-121351271D01*
X103605992Y-121347919D01*
X103365655Y-121266335D01*
X103353692Y-121261379D01*
X103126073Y-121149130D01*
X103114857Y-121142655D01*
X102903824Y-121001647D01*
X102893551Y-120993764D01*
X102702734Y-120826423D01*
X102693577Y-120817266D01*
X102526235Y-120626448D01*
X102518352Y-120616175D01*
X102377344Y-120405142D01*
X102370869Y-120393926D01*
X102258620Y-120166307D01*
X102253664Y-120154344D01*
X102172078Y-119914003D01*
X102168728Y-119901499D01*
X102144789Y-119781148D01*
X102119212Y-119652563D01*
X102117523Y-119639732D01*
X102110075Y-119526099D01*
X102100712Y-119383234D01*
X102100501Y-119376775D01*
X102100501Y-117440714D01*
X103385551Y-117440714D01*
X103385551Y-117727183D01*
X103417624Y-118011845D01*
X103481369Y-118291134D01*
X103575981Y-118561518D01*
X103700274Y-118819616D01*
X103795434Y-118971062D01*
X103852685Y-119062176D01*
X104031294Y-119286144D01*
X104233856Y-119488706D01*
X104457824Y-119667315D01*
X104579103Y-119743519D01*
X104700383Y-119819725D01*
X104776316Y-119856292D01*
X104958479Y-119944017D01*
X104958482Y-119944018D01*
X104958481Y-119944018D01*
X105228865Y-120038630D01*
X105228868Y-120038630D01*
X105228869Y-120038631D01*
X105508153Y-120102375D01*
X105792818Y-120134449D01*
X105792819Y-120134449D01*
X106079283Y-120134449D01*
X106079284Y-120134449D01*
X106363949Y-120102375D01*
X106643233Y-120038631D01*
X106643596Y-120038504D01*
X106643597Y-120038504D01*
X106913620Y-119944018D01*
X106913619Y-119944018D01*
X106913623Y-119944017D01*
X107171720Y-119819724D01*
X107414278Y-119667315D01*
X107638246Y-119488706D01*
X107840808Y-119286144D01*
X108019417Y-119062176D01*
X108041131Y-119027619D01*
X128036000Y-119027619D01*
X128036000Y-119224380D01*
X128066778Y-119418710D01*
X128066779Y-119418714D01*
X128127576Y-119605826D01*
X128127578Y-119605829D01*
X128216907Y-119781148D01*
X128242319Y-119816125D01*
X128803036Y-119255407D01*
X128820075Y-119318993D01*
X128885901Y-119433007D01*
X128978993Y-119526099D01*
X129093007Y-119591925D01*
X129156590Y-119608962D01*
X128595874Y-120169678D01*
X128630860Y-120195097D01*
X128806170Y-120284421D01*
X128806173Y-120284423D01*
X128993285Y-120345220D01*
X128993289Y-120345221D01*
X129187620Y-120376000D01*
X129384380Y-120376000D01*
X129578710Y-120345221D01*
X129578714Y-120345220D01*
X129765826Y-120284423D01*
X129765829Y-120284421D01*
X129941142Y-120195096D01*
X129941148Y-120195092D01*
X129976125Y-120169679D01*
X129976125Y-120169678D01*
X129415409Y-119608962D01*
X129478993Y-119591925D01*
X129593007Y-119526099D01*
X129686099Y-119433007D01*
X129751925Y-119318993D01*
X129768962Y-119255409D01*
X130329678Y-119816125D01*
X130329679Y-119816125D01*
X130355092Y-119781148D01*
X130355096Y-119781142D01*
X130444421Y-119605829D01*
X130444423Y-119605826D01*
X130505220Y-119418714D01*
X130505221Y-119418710D01*
X130536000Y-119224380D01*
X130536000Y-119027619D01*
X130505221Y-118833289D01*
X130505220Y-118833285D01*
X130444423Y-118646173D01*
X130444421Y-118646170D01*
X130355097Y-118470860D01*
X130329678Y-118435874D01*
X129768962Y-118996590D01*
X129751925Y-118933007D01*
X129686099Y-118818993D01*
X129593007Y-118725901D01*
X129478993Y-118660075D01*
X129415407Y-118643036D01*
X129976125Y-118082319D01*
X129941148Y-118056907D01*
X129765829Y-117967578D01*
X129765826Y-117967576D01*
X129578714Y-117906779D01*
X129578710Y-117906778D01*
X129384380Y-117876000D01*
X129187620Y-117876000D01*
X128993289Y-117906778D01*
X128993285Y-117906779D01*
X128806173Y-117967576D01*
X128806170Y-117967578D01*
X128630856Y-118056904D01*
X128595873Y-118082319D01*
X129156591Y-118643037D01*
X129093007Y-118660075D01*
X128978993Y-118725901D01*
X128885901Y-118818993D01*
X128820075Y-118933007D01*
X128803037Y-118996591D01*
X128242319Y-118435873D01*
X128216904Y-118470856D01*
X128127578Y-118646170D01*
X128127576Y-118646173D01*
X128066779Y-118833285D01*
X128066778Y-118833289D01*
X128036000Y-119027619D01*
X108041131Y-119027619D01*
X108171826Y-118819618D01*
X108296119Y-118561521D01*
X108390733Y-118291131D01*
X108454477Y-118011847D01*
X108486551Y-117727182D01*
X108486551Y-117440716D01*
X108486551Y-117440714D01*
X145513449Y-117440714D01*
X145513449Y-117727183D01*
X145545522Y-118011845D01*
X145609267Y-118291134D01*
X145703879Y-118561518D01*
X145828172Y-118819616D01*
X145923332Y-118971062D01*
X145980583Y-119062176D01*
X146159192Y-119286144D01*
X146361754Y-119488706D01*
X146585722Y-119667315D01*
X146707001Y-119743519D01*
X146828281Y-119819725D01*
X146904214Y-119856292D01*
X147086377Y-119944017D01*
X147086380Y-119944018D01*
X147086379Y-119944018D01*
X147356763Y-120038630D01*
X147356766Y-120038630D01*
X147356767Y-120038631D01*
X147636051Y-120102375D01*
X147920716Y-120134449D01*
X147920717Y-120134449D01*
X148207181Y-120134449D01*
X148207182Y-120134449D01*
X148491847Y-120102375D01*
X148771131Y-120038631D01*
X149041521Y-119944017D01*
X149299618Y-119819724D01*
X149542176Y-119667315D01*
X149766144Y-119488706D01*
X149968706Y-119286144D01*
X150147315Y-119062176D01*
X150299724Y-118819618D01*
X150424017Y-118561521D01*
X150518631Y-118291131D01*
X150582375Y-118011847D01*
X150614449Y-117727182D01*
X150614449Y-117440716D01*
X150582375Y-117156051D01*
X150518631Y-116876767D01*
X150424017Y-116606377D01*
X150299725Y-116348281D01*
X150173565Y-116147499D01*
X150147315Y-116105722D01*
X149968706Y-115881754D01*
X149766144Y-115679192D01*
X149542176Y-115500583D01*
X149532614Y-115494575D01*
X149299616Y-115348172D01*
X149041517Y-115223879D01*
X149041518Y-115223879D01*
X148771134Y-115129267D01*
X148491845Y-115065522D01*
X148207183Y-115033449D01*
X148207182Y-115033449D01*
X147920716Y-115033449D01*
X147920714Y-115033449D01*
X147636052Y-115065522D01*
X147356763Y-115129267D01*
X147086379Y-115223879D01*
X146828281Y-115348172D01*
X146585721Y-115500583D01*
X146361755Y-115679191D01*
X146159191Y-115881755D01*
X145980583Y-116105721D01*
X145828172Y-116348281D01*
X145703879Y-116606379D01*
X145609267Y-116876763D01*
X145545522Y-117156052D01*
X145513449Y-117440714D01*
X108486551Y-117440714D01*
X108454477Y-117156051D01*
X108390733Y-116876767D01*
X108296119Y-116606377D01*
X108171827Y-116348281D01*
X108045667Y-116147499D01*
X108019417Y-116105722D01*
X107840808Y-115881754D01*
X107638246Y-115679192D01*
X107493963Y-115564130D01*
X134516500Y-115564130D01*
X134516500Y-115699869D01*
X134551630Y-115830974D01*
X134551632Y-115830978D01*
X134613735Y-115938543D01*
X134619498Y-115948524D01*
X134715476Y-116044502D01*
X134715478Y-116044503D01*
X134833021Y-116112367D01*
X134833025Y-116112369D01*
X134964130Y-116147499D01*
X134964132Y-116147500D01*
X134964133Y-116147500D01*
X135099868Y-116147500D01*
X135099868Y-116147499D01*
X135230975Y-116112369D01*
X135348524Y-116044502D01*
X135438750Y-115954275D01*
X135493264Y-115926499D01*
X135553697Y-115936070D01*
X135558252Y-115938543D01*
X135619114Y-115973682D01*
X135619116Y-115973683D01*
X135733693Y-116004384D01*
X135733695Y-116004384D01*
X135852309Y-116004384D01*
X135852311Y-116004384D01*
X135966888Y-115973683D01*
X135966890Y-115973681D01*
X135966892Y-115973681D01*
X136069610Y-115914376D01*
X136069610Y-115914375D01*
X136069615Y-115914373D01*
X136153491Y-115830497D01*
X136168659Y-115804226D01*
X136212799Y-115727774D01*
X136212799Y-115727772D01*
X136212801Y-115727770D01*
X136243502Y-115613193D01*
X136243502Y-115494575D01*
X136219114Y-115403558D01*
X136219114Y-115403556D01*
X136213987Y-115384425D01*
X139572691Y-115384425D01*
X139572691Y-115503043D01*
X139589060Y-115564132D01*
X139603393Y-115617624D01*
X139662698Y-115720342D01*
X139662700Y-115720344D01*
X139662702Y-115720347D01*
X139746578Y-115804223D01*
X139746580Y-115804224D01*
X139746582Y-115804226D01*
X139849301Y-115863531D01*
X139849302Y-115863531D01*
X139849305Y-115863533D01*
X139963882Y-115894234D01*
X139963884Y-115894234D01*
X140082498Y-115894234D01*
X140082500Y-115894234D01*
X140197077Y-115863533D01*
X140226353Y-115846629D01*
X140286201Y-115833908D01*
X140342097Y-115858794D01*
X140361590Y-115882866D01*
X140393735Y-115938543D01*
X140399498Y-115948524D01*
X140495476Y-116044502D01*
X140495478Y-116044503D01*
X140613021Y-116112367D01*
X140613025Y-116112369D01*
X140744130Y-116147499D01*
X140744132Y-116147500D01*
X140744133Y-116147500D01*
X140879868Y-116147500D01*
X140879868Y-116147499D01*
X141010975Y-116112369D01*
X141128524Y-116044502D01*
X141224502Y-115948524D01*
X141292369Y-115830975D01*
X141327500Y-115699867D01*
X141327500Y-115564133D01*
X141292369Y-115433025D01*
X141224502Y-115315476D01*
X141128524Y-115219498D01*
X141128521Y-115219496D01*
X141010978Y-115151632D01*
X141010974Y-115151630D01*
X140873599Y-115114820D01*
X140874399Y-115111831D01*
X140830529Y-115090609D01*
X140801630Y-115036678D01*
X140801204Y-115018117D01*
X140800210Y-115018117D01*
X140800210Y-114893011D01*
X140799140Y-114889017D01*
X140769509Y-114778433D01*
X140769507Y-114778429D01*
X140769507Y-114778428D01*
X140707951Y-114671811D01*
X140695229Y-114611963D01*
X140707952Y-114572809D01*
X140728254Y-114537646D01*
X140758955Y-114423069D01*
X140758955Y-114304451D01*
X140728254Y-114189874D01*
X140728252Y-114189871D01*
X140728252Y-114189869D01*
X140668947Y-114087151D01*
X140668945Y-114087149D01*
X140668944Y-114087147D01*
X140585068Y-114003271D01*
X140585065Y-114003269D01*
X140585063Y-114003267D01*
X140482344Y-113943962D01*
X140482345Y-113943962D01*
X140468806Y-113940334D01*
X140367764Y-113913260D01*
X140249146Y-113913260D01*
X140179022Y-113932049D01*
X140134564Y-113943962D01*
X140031846Y-114003267D01*
X139947962Y-114087151D01*
X139888657Y-114189869D01*
X139888656Y-114189874D01*
X139857955Y-114304451D01*
X139857955Y-114423069D01*
X139885029Y-114524111D01*
X139888657Y-114537650D01*
X139950213Y-114644266D01*
X139962935Y-114704114D01*
X139950214Y-114743265D01*
X139929912Y-114778429D01*
X139929911Y-114778433D01*
X139900281Y-114889015D01*
X139899210Y-114893011D01*
X139899210Y-114937964D01*
X139880303Y-114996155D01*
X139849711Y-115023700D01*
X139746580Y-115083243D01*
X139662698Y-115167125D01*
X139603393Y-115269843D01*
X139603392Y-115269848D01*
X139572691Y-115384425D01*
X136213987Y-115384425D01*
X136212801Y-115379998D01*
X136212799Y-115379994D01*
X136153494Y-115277275D01*
X136153492Y-115277273D01*
X136153491Y-115277271D01*
X136069615Y-115193395D01*
X136043226Y-115178159D01*
X136002286Y-115132688D01*
X135993728Y-115092423D01*
X135993728Y-115003595D01*
X135993486Y-115002691D01*
X135963027Y-114889017D01*
X135909461Y-114796240D01*
X135896740Y-114736392D01*
X135909460Y-114697243D01*
X135938292Y-114647306D01*
X135968993Y-114532729D01*
X135968993Y-114414111D01*
X135938292Y-114299534D01*
X135938290Y-114299531D01*
X135938290Y-114299529D01*
X135878985Y-114196811D01*
X135878983Y-114196809D01*
X135878982Y-114196807D01*
X135795106Y-114112931D01*
X135795103Y-114112929D01*
X135795101Y-114112927D01*
X135692382Y-114053622D01*
X135692383Y-114053622D01*
X135678844Y-114049994D01*
X135577802Y-114022920D01*
X135459184Y-114022920D01*
X135389060Y-114041709D01*
X135344602Y-114053622D01*
X135241884Y-114112927D01*
X135158000Y-114196811D01*
X135098695Y-114299529D01*
X135098694Y-114299534D01*
X135067993Y-114414111D01*
X135067993Y-114532729D01*
X135089100Y-114611500D01*
X135098695Y-114647310D01*
X135152258Y-114740082D01*
X135164980Y-114799930D01*
X135152259Y-114839082D01*
X135123429Y-114889015D01*
X135102961Y-114965401D01*
X135094722Y-114996155D01*
X135092728Y-115003595D01*
X135092728Y-115017500D01*
X135073821Y-115075691D01*
X135024321Y-115111655D01*
X134993728Y-115116500D01*
X134964130Y-115116500D01*
X134833025Y-115151630D01*
X134833021Y-115151632D01*
X134715478Y-115219496D01*
X134619496Y-115315478D01*
X134551632Y-115433021D01*
X134551630Y-115433025D01*
X134516500Y-115564130D01*
X107493963Y-115564130D01*
X107414278Y-115500583D01*
X107404716Y-115494575D01*
X107171718Y-115348172D01*
X106913619Y-115223879D01*
X106913620Y-115223879D01*
X106643236Y-115129267D01*
X106483108Y-115092720D01*
X106363947Y-115065522D01*
X106079285Y-115033449D01*
X106079284Y-115033449D01*
X105792818Y-115033449D01*
X105792816Y-115033449D01*
X105508154Y-115065522D01*
X105228865Y-115129267D01*
X104958481Y-115223879D01*
X104700383Y-115348172D01*
X104457823Y-115500583D01*
X104233857Y-115679191D01*
X104031293Y-115881755D01*
X103852685Y-116105721D01*
X103700274Y-116348281D01*
X103575981Y-116606379D01*
X103481369Y-116876763D01*
X103417624Y-117156052D01*
X103385551Y-117440714D01*
X102100501Y-117440714D01*
X102100501Y-115002691D01*
X112579500Y-115002691D01*
X112579500Y-115121309D01*
X112594733Y-115178159D01*
X112610202Y-115235890D01*
X112669507Y-115338608D01*
X112669509Y-115338610D01*
X112669511Y-115338613D01*
X112753387Y-115422489D01*
X112753389Y-115422490D01*
X112753391Y-115422492D01*
X112856110Y-115481797D01*
X112856111Y-115481797D01*
X112856114Y-115481799D01*
X112970691Y-115512500D01*
X112970693Y-115512500D01*
X113089307Y-115512500D01*
X113089309Y-115512500D01*
X113203886Y-115481799D01*
X113203888Y-115481797D01*
X113203890Y-115481797D01*
X113221019Y-115471908D01*
X113306608Y-115422492D01*
X113306608Y-115422491D01*
X113306613Y-115422489D01*
X113390489Y-115338613D01*
X113449799Y-115235886D01*
X113480500Y-115121309D01*
X113480500Y-115002691D01*
X113449799Y-114888114D01*
X113449797Y-114888111D01*
X113449797Y-114888109D01*
X113390492Y-114785391D01*
X113390490Y-114785389D01*
X113390489Y-114785387D01*
X113306613Y-114701511D01*
X113306610Y-114701509D01*
X113306608Y-114701507D01*
X113203889Y-114642202D01*
X113203890Y-114642202D01*
X113183050Y-114636618D01*
X113089309Y-114611500D01*
X112970691Y-114611500D01*
X112900567Y-114630289D01*
X112856109Y-114642202D01*
X112753391Y-114701507D01*
X112669507Y-114785391D01*
X112610202Y-114888109D01*
X112609959Y-114889017D01*
X112579500Y-115002691D01*
X102100501Y-115002691D01*
X102100501Y-114399000D01*
X102119408Y-114340809D01*
X102168908Y-114304845D01*
X102199501Y-114300000D01*
X104647999Y-114300000D01*
X104648000Y-114300000D01*
X104648000Y-112434691D01*
X105721500Y-112434691D01*
X105721500Y-112553309D01*
X105747749Y-112651270D01*
X105752202Y-112667890D01*
X105811507Y-112770608D01*
X105811509Y-112770610D01*
X105811511Y-112770613D01*
X105895387Y-112854489D01*
X105895389Y-112854490D01*
X105895391Y-112854492D01*
X105998110Y-112913797D01*
X105998111Y-112913797D01*
X105998114Y-112913799D01*
X106112691Y-112944500D01*
X106112693Y-112944500D01*
X106231307Y-112944500D01*
X106231309Y-112944500D01*
X106345886Y-112913799D01*
X106345888Y-112913797D01*
X106345890Y-112913797D01*
X106448608Y-112854492D01*
X106448608Y-112854491D01*
X106448613Y-112854489D01*
X106497999Y-112805102D01*
X106552514Y-112777327D01*
X106612946Y-112786898D01*
X106638001Y-112805101D01*
X106657387Y-112824487D01*
X106657389Y-112824488D01*
X106657391Y-112824490D01*
X106760110Y-112883795D01*
X106760111Y-112883795D01*
X106760114Y-112883797D01*
X106874691Y-112914498D01*
X106874693Y-112914498D01*
X106993307Y-112914498D01*
X106993309Y-112914498D01*
X107107886Y-112883797D01*
X107107888Y-112883795D01*
X107107890Y-112883795D01*
X107210608Y-112824490D01*
X107210608Y-112824489D01*
X107210613Y-112824487D01*
X107294489Y-112740611D01*
X107294618Y-112740387D01*
X107353797Y-112637888D01*
X107353797Y-112637886D01*
X107353799Y-112637884D01*
X107384500Y-112523307D01*
X107384500Y-112404689D01*
X107353799Y-112290112D01*
X107353797Y-112290109D01*
X107353797Y-112290107D01*
X107294492Y-112187389D01*
X107294490Y-112187387D01*
X107294489Y-112187385D01*
X107210613Y-112103509D01*
X107210610Y-112103507D01*
X107210608Y-112103505D01*
X107107889Y-112044200D01*
X107107890Y-112044200D01*
X107079153Y-112036500D01*
X106993309Y-112013498D01*
X106874691Y-112013498D01*
X106804567Y-112032287D01*
X106760109Y-112044200D01*
X106657391Y-112103505D01*
X106657385Y-112103510D01*
X106608000Y-112152894D01*
X106553483Y-112180670D01*
X106493051Y-112171098D01*
X106467997Y-112152895D01*
X106448613Y-112133511D01*
X106448610Y-112133509D01*
X106448608Y-112133507D01*
X106345889Y-112074202D01*
X106345890Y-112074202D01*
X106317183Y-112066510D01*
X106231309Y-112043500D01*
X106112691Y-112043500D01*
X106044921Y-112061659D01*
X105998109Y-112074202D01*
X105895391Y-112133507D01*
X105811507Y-112217391D01*
X105752202Y-112320109D01*
X105739453Y-112367689D01*
X105721500Y-112434691D01*
X104648000Y-112434691D01*
X104648000Y-108926435D01*
X107649500Y-108926435D01*
X107649500Y-112561564D01*
X107669978Y-112637988D01*
X107669979Y-112637990D01*
X107676336Y-112649000D01*
X107685286Y-112664502D01*
X107686438Y-112666496D01*
X107686438Y-112666499D01*
X107686439Y-112666499D01*
X107686440Y-112666500D01*
X107709540Y-112706511D01*
X107978505Y-112975476D01*
X108006281Y-113029991D01*
X108007500Y-113045478D01*
X108007500Y-113089309D01*
X108024955Y-113154452D01*
X108038202Y-113203890D01*
X108097507Y-113306608D01*
X108097509Y-113306610D01*
X108097511Y-113306613D01*
X108181387Y-113390489D01*
X108181389Y-113390490D01*
X108181391Y-113390492D01*
X108284110Y-113449797D01*
X108284111Y-113449797D01*
X108284114Y-113449799D01*
X108398691Y-113480500D01*
X108398693Y-113480500D01*
X108517307Y-113480500D01*
X108517309Y-113480500D01*
X108631886Y-113449799D01*
X108631888Y-113449797D01*
X108631890Y-113449797D01*
X108734608Y-113390492D01*
X108734608Y-113390491D01*
X108734613Y-113390489D01*
X108818489Y-113306613D01*
X108877799Y-113203886D01*
X108908500Y-113089309D01*
X108908500Y-112970691D01*
X108877799Y-112856114D01*
X108832222Y-112777173D01*
X108819500Y-112717324D01*
X108844386Y-112661429D01*
X108880082Y-112636204D01*
X108885878Y-112633803D01*
X108885886Y-112633801D01*
X108924055Y-112611764D01*
X108988608Y-112574494D01*
X108988608Y-112574493D01*
X108988613Y-112574491D01*
X109072489Y-112490615D01*
X109074977Y-112486306D01*
X109131797Y-112387892D01*
X109131797Y-112387890D01*
X109131799Y-112387888D01*
X109162500Y-112273311D01*
X109162500Y-112231222D01*
X109171148Y-112204603D01*
X109178302Y-112177565D01*
X109180440Y-112176006D01*
X109181407Y-112173031D01*
X109225730Y-112138910D01*
X109230704Y-112136982D01*
X109335886Y-112108799D01*
X109402111Y-112070563D01*
X109409230Y-112067805D01*
X109432525Y-112066510D01*
X109455348Y-112061659D01*
X109464764Y-112064718D01*
X109470321Y-112064410D01*
X109476927Y-112068670D01*
X109494500Y-112074380D01*
X109554114Y-112108799D01*
X109668691Y-112139500D01*
X109668693Y-112139500D01*
X109717624Y-112139500D01*
X109775815Y-112158407D01*
X109811779Y-112207907D01*
X109813250Y-112264120D01*
X109785500Y-112367688D01*
X109785500Y-112486306D01*
X109816201Y-112600883D01*
X109854085Y-112666500D01*
X109857548Y-112672497D01*
X109870270Y-112732345D01*
X109857548Y-112771498D01*
X109816202Y-112843109D01*
X109811759Y-112859690D01*
X109785500Y-112957691D01*
X109785500Y-113076309D01*
X109807657Y-113159000D01*
X109816202Y-113190890D01*
X109875507Y-113293608D01*
X109875509Y-113293610D01*
X109875511Y-113293613D01*
X109959387Y-113377489D01*
X109959389Y-113377490D01*
X109959391Y-113377492D01*
X110062110Y-113436797D01*
X110062111Y-113436797D01*
X110062114Y-113436799D01*
X110176691Y-113467500D01*
X110176693Y-113467500D01*
X110295307Y-113467500D01*
X110295309Y-113467500D01*
X110409886Y-113436799D01*
X110409888Y-113436797D01*
X110409890Y-113436797D01*
X110512608Y-113377492D01*
X110512608Y-113377491D01*
X110512613Y-113377489D01*
X110546998Y-113343103D01*
X110601513Y-113315328D01*
X110661945Y-113324899D01*
X110687000Y-113343102D01*
X110721387Y-113377489D01*
X110721389Y-113377490D01*
X110721391Y-113377492D01*
X110824110Y-113436797D01*
X110824111Y-113436797D01*
X110824114Y-113436799D01*
X110938691Y-113467500D01*
X110938693Y-113467500D01*
X111057307Y-113467500D01*
X111057309Y-113467500D01*
X111171886Y-113436799D01*
X111171888Y-113436797D01*
X111171890Y-113436797D01*
X111274606Y-113377493D01*
X111274605Y-113377493D01*
X111274613Y-113377489D01*
X111274618Y-113377483D01*
X111277724Y-113375101D01*
X111335399Y-113354672D01*
X111394066Y-113372045D01*
X111398267Y-113375097D01*
X111401388Y-113377492D01*
X111504107Y-113436797D01*
X111504108Y-113436797D01*
X111504111Y-113436799D01*
X111618688Y-113467500D01*
X111618690Y-113467500D01*
X111737304Y-113467500D01*
X111737306Y-113467500D01*
X111851883Y-113436799D01*
X111923497Y-113395451D01*
X111983345Y-113382730D01*
X112022498Y-113395452D01*
X112094110Y-113436797D01*
X112094111Y-113436797D01*
X112094114Y-113436799D01*
X112208691Y-113467500D01*
X112208693Y-113467500D01*
X112327307Y-113467500D01*
X112327309Y-113467500D01*
X112441886Y-113436799D01*
X112441888Y-113436797D01*
X112441890Y-113436797D01*
X112544608Y-113377492D01*
X112544608Y-113377491D01*
X112544613Y-113377489D01*
X112628489Y-113293613D01*
X112687799Y-113190886D01*
X112695112Y-113163591D01*
X112728433Y-113112279D01*
X112785554Y-113090351D01*
X112840236Y-113103477D01*
X112842440Y-113104749D01*
X112843919Y-113105603D01*
X112958496Y-113136304D01*
X112958498Y-113136304D01*
X113077112Y-113136304D01*
X113077114Y-113136304D01*
X113191691Y-113105603D01*
X113191693Y-113105601D01*
X113191695Y-113105601D01*
X113294413Y-113046296D01*
X113294413Y-113046295D01*
X113294418Y-113046293D01*
X113378294Y-112962417D01*
X113385529Y-112949886D01*
X113437602Y-112859694D01*
X113437602Y-112859692D01*
X113437604Y-112859690D01*
X113468305Y-112745113D01*
X113468305Y-112626495D01*
X113437604Y-112511918D01*
X113394808Y-112437795D01*
X113382087Y-112377948D01*
X113394806Y-112338800D01*
X113434705Y-112269695D01*
X113465406Y-112155118D01*
X113465406Y-112036500D01*
X113434705Y-111921923D01*
X113434703Y-111921920D01*
X113434703Y-111921918D01*
X113400961Y-111863476D01*
X113388239Y-111803628D01*
X113400961Y-111764475D01*
X113449799Y-111679886D01*
X113480500Y-111565309D01*
X113480500Y-111446691D01*
X113455145Y-111352065D01*
X113455145Y-111352063D01*
X113449799Y-111332114D01*
X113449797Y-111332110D01*
X113448397Y-111329685D01*
X118351500Y-111329685D01*
X118351500Y-111678314D01*
X118357932Y-111727174D01*
X118357932Y-111727175D01*
X118407933Y-111834401D01*
X118407934Y-111834402D01*
X118407935Y-111834404D01*
X118491596Y-111918065D01*
X118491597Y-111918065D01*
X118491598Y-111918066D01*
X118504915Y-111924276D01*
X118549663Y-111966005D01*
X118561337Y-112026066D01*
X118535478Y-112081518D01*
X118504915Y-112103724D01*
X118491598Y-112109933D01*
X118407933Y-112193598D01*
X118357932Y-112300824D01*
X118357932Y-112300825D01*
X118355393Y-112320114D01*
X118351500Y-112349684D01*
X118351500Y-112698316D01*
X118354341Y-112719896D01*
X118357932Y-112747174D01*
X118357932Y-112747175D01*
X118407933Y-112854401D01*
X118407934Y-112854402D01*
X118407935Y-112854404D01*
X118491596Y-112938065D01*
X118491597Y-112938065D01*
X118491598Y-112938066D01*
X118598824Y-112988067D01*
X118598825Y-112988067D01*
X118598827Y-112988068D01*
X118647684Y-112994500D01*
X118801802Y-112994500D01*
X118859993Y-113013407D01*
X118887538Y-113044000D01*
X118892511Y-113052613D01*
X118976387Y-113136489D01*
X118976389Y-113136490D01*
X118976391Y-113136492D01*
X119079110Y-113195797D01*
X119079111Y-113195797D01*
X119079114Y-113195799D01*
X119193691Y-113226500D01*
X119193693Y-113226500D01*
X119312307Y-113226500D01*
X119312309Y-113226500D01*
X119426886Y-113195799D01*
X119426888Y-113195797D01*
X119426890Y-113195797D01*
X119529608Y-113136492D01*
X119529608Y-113136491D01*
X119529613Y-113136489D01*
X119613489Y-113052613D01*
X119617138Y-113046293D01*
X119672797Y-112949890D01*
X119672797Y-112949888D01*
X119672799Y-112949886D01*
X119703500Y-112835309D01*
X119703500Y-112716691D01*
X119672799Y-112602114D01*
X119672797Y-112602111D01*
X119672797Y-112602109D01*
X119613492Y-112499391D01*
X119613490Y-112499389D01*
X119613489Y-112499387D01*
X119529613Y-112415511D01*
X119529610Y-112415509D01*
X119431636Y-112358943D01*
X119390796Y-112313697D01*
X119386500Y-112304113D01*
X119386068Y-112300827D01*
X119343104Y-112208691D01*
X131121500Y-112208691D01*
X131121500Y-112327309D01*
X131145133Y-112415507D01*
X131152202Y-112441890D01*
X131211507Y-112544608D01*
X131211512Y-112544614D01*
X131245894Y-112578997D01*
X131273671Y-112633514D01*
X131264099Y-112693946D01*
X131245894Y-112719003D01*
X131211512Y-112753385D01*
X131211507Y-112753391D01*
X131152202Y-112856109D01*
X131144784Y-112883795D01*
X131121500Y-112970691D01*
X131121500Y-113089309D01*
X131138955Y-113154452D01*
X131152202Y-113203890D01*
X131211507Y-113306608D01*
X131211509Y-113306610D01*
X131211511Y-113306613D01*
X131295387Y-113390489D01*
X131295389Y-113390490D01*
X131295391Y-113390492D01*
X131398110Y-113449797D01*
X131398111Y-113449797D01*
X131398114Y-113449799D01*
X131512691Y-113480500D01*
X131512693Y-113480500D01*
X131631307Y-113480500D01*
X131631309Y-113480500D01*
X131745886Y-113449799D01*
X131745888Y-113449797D01*
X131745890Y-113449797D01*
X131848608Y-113390492D01*
X131848608Y-113390491D01*
X131848613Y-113390489D01*
X131932489Y-113306613D01*
X131991799Y-113203886D01*
X132011607Y-113129959D01*
X132044930Y-113078647D01*
X132102051Y-113056720D01*
X132156732Y-113069847D01*
X132160110Y-113071797D01*
X132160111Y-113071797D01*
X132160114Y-113071799D01*
X132274691Y-113102500D01*
X132274693Y-113102500D01*
X132393307Y-113102500D01*
X132393309Y-113102500D01*
X132507886Y-113071799D01*
X132511263Y-113069848D01*
X132571111Y-113057126D01*
X132627007Y-113082010D01*
X132656392Y-113129960D01*
X132658142Y-113136489D01*
X132676202Y-113203890D01*
X132735507Y-113306608D01*
X132735509Y-113306610D01*
X132735511Y-113306613D01*
X132819387Y-113390489D01*
X132819389Y-113390490D01*
X132819391Y-113390492D01*
X132922110Y-113449797D01*
X132922111Y-113449797D01*
X132922114Y-113449799D01*
X133036691Y-113480500D01*
X133036693Y-113480500D01*
X133155307Y-113480500D01*
X133155309Y-113480500D01*
X133269886Y-113449799D01*
X133269888Y-113449797D01*
X133269890Y-113449797D01*
X133372608Y-113390492D01*
X133372608Y-113390491D01*
X133372613Y-113390489D01*
X133456489Y-113306613D01*
X133515799Y-113203886D01*
X133546500Y-113089309D01*
X133546500Y-112970691D01*
X133515799Y-112856114D01*
X133515797Y-112856111D01*
X133515797Y-112856109D01*
X133465033Y-112768184D01*
X133465030Y-112768181D01*
X133456489Y-112753387D01*
X133419841Y-112716739D01*
X133419799Y-112716691D01*
X141789500Y-112716691D01*
X141789500Y-112835309D01*
X141810719Y-112914498D01*
X141820202Y-112949890D01*
X141879507Y-113052608D01*
X141879509Y-113052610D01*
X141879511Y-113052613D01*
X141963387Y-113136489D01*
X141963389Y-113136490D01*
X141963391Y-113136492D01*
X142066110Y-113195797D01*
X142066111Y-113195797D01*
X142066114Y-113195799D01*
X142180691Y-113226500D01*
X142180693Y-113226500D01*
X142299307Y-113226500D01*
X142299309Y-113226500D01*
X142413886Y-113195799D01*
X142485500Y-113154451D01*
X142545348Y-113141730D01*
X142584501Y-113154452D01*
X142656113Y-113195797D01*
X142656114Y-113195797D01*
X142656117Y-113195799D01*
X142770694Y-113226500D01*
X142770696Y-113226500D01*
X142889310Y-113226500D01*
X142889312Y-113226500D01*
X143003889Y-113195799D01*
X143003891Y-113195797D01*
X143003893Y-113195797D01*
X143106611Y-113136492D01*
X143106611Y-113136491D01*
X143106616Y-113136489D01*
X143190492Y-113052613D01*
X143194141Y-113046293D01*
X143249800Y-112949890D01*
X143249800Y-112949888D01*
X143249802Y-112949886D01*
X143280503Y-112835309D01*
X143280503Y-112716691D01*
X143249802Y-112602114D01*
X143249800Y-112602111D01*
X143249800Y-112602109D01*
X143190495Y-112499391D01*
X143190493Y-112499389D01*
X143190492Y-112499387D01*
X143106616Y-112415511D01*
X143106613Y-112415509D01*
X143106611Y-112415507D01*
X143003892Y-112356202D01*
X143003893Y-112356202D01*
X142979567Y-112349684D01*
X142889312Y-112325500D01*
X142770694Y-112325500D01*
X142702334Y-112343817D01*
X142656112Y-112356202D01*
X142584501Y-112397548D01*
X142524653Y-112410270D01*
X142485500Y-112397548D01*
X142485467Y-112397529D01*
X142413886Y-112356201D01*
X142299309Y-112325500D01*
X142180691Y-112325500D01*
X142112331Y-112343817D01*
X142066109Y-112356202D01*
X141963391Y-112415507D01*
X141879507Y-112499391D01*
X141820202Y-112602109D01*
X141804369Y-112661198D01*
X141789500Y-112716691D01*
X133419799Y-112716691D01*
X133417731Y-112714337D01*
X133406835Y-112689035D01*
X133394328Y-112664487D01*
X133394848Y-112661198D01*
X133393532Y-112658141D01*
X133399588Y-112631271D01*
X133403899Y-112604055D01*
X133406543Y-112600414D01*
X133406986Y-112598453D01*
X133409703Y-112596066D01*
X133422102Y-112578999D01*
X133456489Y-112544613D01*
X133475366Y-112511918D01*
X133515797Y-112441890D01*
X133515797Y-112441888D01*
X133515799Y-112441886D01*
X133546500Y-112327309D01*
X133546500Y-112208691D01*
X144075500Y-112208691D01*
X144075500Y-112327309D01*
X144099133Y-112415507D01*
X144106202Y-112441890D01*
X144165507Y-112544608D01*
X144165509Y-112544610D01*
X144165511Y-112544613D01*
X144249387Y-112628489D01*
X144249389Y-112628490D01*
X144249391Y-112628492D01*
X144352110Y-112687797D01*
X144352111Y-112687797D01*
X144352114Y-112687799D01*
X144466691Y-112718500D01*
X144466693Y-112718500D01*
X144585307Y-112718500D01*
X144585309Y-112718500D01*
X144699886Y-112687799D01*
X144699888Y-112687797D01*
X144699890Y-112687797D01*
X144802608Y-112628492D01*
X144802608Y-112628491D01*
X144802613Y-112628489D01*
X144886489Y-112544613D01*
X144905366Y-112511918D01*
X144945797Y-112441890D01*
X144945797Y-112441888D01*
X144945799Y-112441886D01*
X144976500Y-112327309D01*
X144976500Y-112208691D01*
X144945799Y-112094114D01*
X144945797Y-112094110D01*
X144945797Y-112094109D01*
X144886492Y-111991391D01*
X144886490Y-111991389D01*
X144886489Y-111991387D01*
X144802613Y-111907511D01*
X144802610Y-111907509D01*
X144802608Y-111907507D01*
X144699889Y-111848202D01*
X144699890Y-111848202D01*
X144686351Y-111844574D01*
X144585309Y-111817500D01*
X144466691Y-111817500D01*
X144403616Y-111834401D01*
X144352109Y-111848202D01*
X144249391Y-111907507D01*
X144165507Y-111991391D01*
X144106202Y-112094109D01*
X144094198Y-112138910D01*
X144075500Y-112208691D01*
X133546500Y-112208691D01*
X133515799Y-112094114D01*
X133515797Y-112094110D01*
X133515797Y-112094109D01*
X133456492Y-111991391D01*
X133456490Y-111991389D01*
X133456489Y-111991387D01*
X133372613Y-111907511D01*
X133372610Y-111907509D01*
X133372608Y-111907507D01*
X133269889Y-111848202D01*
X133269890Y-111848202D01*
X133256351Y-111844574D01*
X133155309Y-111817500D01*
X133036691Y-111817500D01*
X132973616Y-111834401D01*
X132922109Y-111848202D01*
X132819391Y-111907507D01*
X132735507Y-111991391D01*
X132676202Y-112094110D01*
X132676201Y-112094112D01*
X132654999Y-112173236D01*
X132621675Y-112224549D01*
X132564553Y-112246475D01*
X132514024Y-112234344D01*
X132513884Y-112234685D01*
X132511737Y-112233795D01*
X132509876Y-112233349D01*
X132507889Y-112232202D01*
X132507890Y-112232202D01*
X132494351Y-112228574D01*
X132393309Y-112201500D01*
X132274691Y-112201500D01*
X132204567Y-112220289D01*
X132160109Y-112232202D01*
X132160108Y-112232203D01*
X132158118Y-112233352D01*
X132156509Y-112233693D01*
X132154116Y-112234685D01*
X132153932Y-112234241D01*
X132098269Y-112246068D01*
X132042376Y-112221176D01*
X132012999Y-112173234D01*
X132008145Y-112155118D01*
X131991799Y-112094114D01*
X131991797Y-112094110D01*
X131991797Y-112094109D01*
X131932492Y-111991391D01*
X131932490Y-111991389D01*
X131932489Y-111991387D01*
X131848613Y-111907511D01*
X131848610Y-111907509D01*
X131848608Y-111907507D01*
X131745889Y-111848202D01*
X131745890Y-111848202D01*
X131732351Y-111844574D01*
X131631309Y-111817500D01*
X131512691Y-111817500D01*
X131449616Y-111834401D01*
X131398109Y-111848202D01*
X131295391Y-111907507D01*
X131211507Y-111991391D01*
X131152202Y-112094109D01*
X131140198Y-112138910D01*
X131121500Y-112208691D01*
X119343104Y-112208691D01*
X119336065Y-112193596D01*
X119252404Y-112109935D01*
X119239085Y-112103724D01*
X119194337Y-112061997D01*
X119182662Y-112001936D01*
X119208519Y-111946483D01*
X119216978Y-111938423D01*
X119227084Y-111929871D01*
X119252404Y-111918065D01*
X119314885Y-111855583D01*
X119318030Y-111852923D01*
X119342719Y-111842829D01*
X119366489Y-111830719D01*
X119373740Y-111830148D01*
X119374666Y-111829770D01*
X119375609Y-111830001D01*
X119381976Y-111829500D01*
X119439307Y-111829500D01*
X119439309Y-111829500D01*
X119553886Y-111798799D01*
X119553888Y-111798797D01*
X119553890Y-111798797D01*
X119656608Y-111739492D01*
X119656608Y-111739491D01*
X119656613Y-111739489D01*
X119740489Y-111655613D01*
X119799799Y-111552886D01*
X119830500Y-111438309D01*
X119830500Y-111319691D01*
X119799799Y-111205114D01*
X119799797Y-111205111D01*
X119799797Y-111205109D01*
X119740492Y-111102391D01*
X119740490Y-111102389D01*
X119740489Y-111102387D01*
X119656613Y-111018511D01*
X119656610Y-111018509D01*
X119656608Y-111018507D01*
X119553889Y-110959202D01*
X119553890Y-110959202D01*
X119540351Y-110955574D01*
X119439309Y-110928500D01*
X119320691Y-110928500D01*
X119275907Y-110940500D01*
X119206109Y-110959202D01*
X119100398Y-111020236D01*
X119050898Y-111033500D01*
X118647684Y-111033500D01*
X118631398Y-111035644D01*
X118598825Y-111039932D01*
X118598824Y-111039932D01*
X118491598Y-111089933D01*
X118407933Y-111173598D01*
X118357932Y-111280824D01*
X118357932Y-111280825D01*
X118357932Y-111280827D01*
X118351655Y-111328511D01*
X118351500Y-111329685D01*
X113448397Y-111329685D01*
X113390492Y-111229391D01*
X113390490Y-111229389D01*
X113390489Y-111229387D01*
X113306613Y-111145511D01*
X113306610Y-111145509D01*
X113306608Y-111145507D01*
X113203889Y-111086202D01*
X113203890Y-111086202D01*
X113190351Y-111082574D01*
X113089309Y-111055500D01*
X112970691Y-111055500D01*
X112900567Y-111074289D01*
X112856109Y-111086202D01*
X112753391Y-111145507D01*
X112669507Y-111229391D01*
X112610202Y-111332109D01*
X112604855Y-111352066D01*
X112579500Y-111446691D01*
X112579500Y-111565309D01*
X112603696Y-111655608D01*
X112610202Y-111679890D01*
X112643945Y-111738333D01*
X112656667Y-111798181D01*
X112643945Y-111837334D01*
X112595108Y-111921920D01*
X112595107Y-111921922D01*
X112595107Y-111921923D01*
X112564406Y-112036500D01*
X112564406Y-112155118D01*
X112588057Y-112243383D01*
X112595108Y-112269699D01*
X112637901Y-112343817D01*
X112641405Y-112360302D01*
X112649474Y-112375099D01*
X112647279Y-112387937D01*
X112650623Y-112403665D01*
X112641598Y-112435776D01*
X112639890Y-112439372D01*
X112598006Y-112511918D01*
X112588361Y-112547910D01*
X112584499Y-112556047D01*
X112569364Y-112572053D01*
X112557368Y-112590526D01*
X112548780Y-112593822D01*
X112542462Y-112600505D01*
X112520810Y-112604558D01*
X112500246Y-112612452D01*
X112490781Y-112610180D01*
X112482322Y-112611764D01*
X112466922Y-112604453D01*
X112445571Y-112599328D01*
X112441888Y-112597202D01*
X112441887Y-112597201D01*
X112441886Y-112597201D01*
X112327309Y-112566500D01*
X112208691Y-112566500D01*
X112160175Y-112579500D01*
X112094109Y-112597202D01*
X112022498Y-112638548D01*
X111962650Y-112651270D01*
X111923497Y-112638548D01*
X111922527Y-112637988D01*
X111864444Y-112604453D01*
X111851885Y-112597202D01*
X111851884Y-112597201D01*
X111851883Y-112597201D01*
X111737306Y-112566500D01*
X111618688Y-112566500D01*
X111570172Y-112579500D01*
X111504106Y-112597202D01*
X111401382Y-112656511D01*
X111398261Y-112658906D01*
X111340584Y-112679327D01*
X111281919Y-112661946D01*
X111277730Y-112658903D01*
X111274615Y-112656513D01*
X111274613Y-112656511D01*
X111274609Y-112656509D01*
X111274607Y-112656507D01*
X111171889Y-112597202D01*
X111171890Y-112597202D01*
X111158351Y-112593574D01*
X111057309Y-112566500D01*
X110938691Y-112566500D01*
X110890175Y-112579500D01*
X110824109Y-112597202D01*
X110821353Y-112598344D01*
X110819226Y-112598510D01*
X110817846Y-112598881D01*
X110817777Y-112598624D01*
X110760355Y-112603135D01*
X110708191Y-112571159D01*
X110684784Y-112514627D01*
X110686791Y-112492887D01*
X110685653Y-112492738D01*
X110686500Y-112486305D01*
X110686500Y-112367689D01*
X110684521Y-112360302D01*
X110655799Y-112253111D01*
X110655797Y-112253108D01*
X110655797Y-112253106D01*
X110596492Y-112150388D01*
X110596490Y-112150386D01*
X110596489Y-112150384D01*
X110512613Y-112066508D01*
X110512610Y-112066506D01*
X110512608Y-112066504D01*
X110409889Y-112007199D01*
X110409890Y-112007199D01*
X110390248Y-112001936D01*
X110295309Y-111976497D01*
X110246376Y-111976497D01*
X110188185Y-111957590D01*
X110152221Y-111908090D01*
X110150749Y-111851876D01*
X110178500Y-111748309D01*
X110178500Y-111629691D01*
X110147799Y-111515114D01*
X110147797Y-111515111D01*
X110147797Y-111515109D01*
X110088492Y-111412391D01*
X110088490Y-111412389D01*
X110088489Y-111412387D01*
X110004613Y-111328511D01*
X110004610Y-111328509D01*
X110004608Y-111328507D01*
X109901889Y-111269202D01*
X109901890Y-111269202D01*
X109877497Y-111262666D01*
X109787309Y-111238500D01*
X109668691Y-111238500D01*
X109611402Y-111253850D01*
X109554112Y-111269201D01*
X109494500Y-111303619D01*
X109434651Y-111316340D01*
X109395500Y-111303619D01*
X109335887Y-111269201D01*
X109297693Y-111258967D01*
X109221309Y-111238500D01*
X109111500Y-111238500D01*
X109053309Y-111219593D01*
X109017345Y-111170093D01*
X109012500Y-111139500D01*
X109012500Y-110684691D01*
X121215500Y-110684691D01*
X121215500Y-110803309D01*
X121234902Y-110875719D01*
X121246202Y-110917890D01*
X121305507Y-111020608D01*
X121305509Y-111020610D01*
X121305511Y-111020613D01*
X121389387Y-111104489D01*
X121389389Y-111104490D01*
X121389391Y-111104492D01*
X121492110Y-111163797D01*
X121492111Y-111163797D01*
X121492114Y-111163799D01*
X121606691Y-111194500D01*
X121606693Y-111194500D01*
X121725307Y-111194500D01*
X121725309Y-111194500D01*
X121839886Y-111163799D01*
X121839888Y-111163797D01*
X121839890Y-111163797D01*
X121942608Y-111104492D01*
X121942608Y-111104491D01*
X121942613Y-111104489D01*
X122026489Y-111020613D01*
X122044163Y-110989999D01*
X122089631Y-110949059D01*
X122129899Y-110940500D01*
X122233307Y-110940500D01*
X122233309Y-110940500D01*
X122347886Y-110909799D01*
X122347888Y-110909797D01*
X122347890Y-110909797D01*
X122450608Y-110850492D01*
X122450608Y-110850491D01*
X122450613Y-110850489D01*
X122534489Y-110766613D01*
X122560598Y-110721391D01*
X122593797Y-110663890D01*
X122593797Y-110663888D01*
X122593799Y-110663886D01*
X122624500Y-110549309D01*
X122624500Y-110430691D01*
X122593799Y-110316114D01*
X122593797Y-110316111D01*
X122593797Y-110316109D01*
X122534492Y-110213391D01*
X122534490Y-110213389D01*
X122534489Y-110213387D01*
X122450613Y-110129511D01*
X122450610Y-110129509D01*
X122450608Y-110129507D01*
X122347889Y-110070202D01*
X122347890Y-110070202D01*
X122317686Y-110062109D01*
X122233309Y-110039500D01*
X122114691Y-110039500D01*
X122044567Y-110058289D01*
X122000109Y-110070202D01*
X121897391Y-110129507D01*
X121813510Y-110213388D01*
X121807911Y-110223087D01*
X121795835Y-110244001D01*
X121750367Y-110284941D01*
X121710100Y-110293500D01*
X121606691Y-110293500D01*
X121552185Y-110308105D01*
X121492109Y-110324202D01*
X121389391Y-110383507D01*
X121305507Y-110467391D01*
X121246202Y-110570109D01*
X121233638Y-110617000D01*
X121215500Y-110684691D01*
X109012500Y-110684691D01*
X109012500Y-109131477D01*
X109031407Y-109073286D01*
X109041490Y-109061480D01*
X109295887Y-108807082D01*
X109350402Y-108779306D01*
X109391511Y-108781460D01*
X109414691Y-108787671D01*
X109414692Y-108787671D01*
X109533307Y-108787671D01*
X109533309Y-108787671D01*
X109647886Y-108756970D01*
X109647888Y-108756968D01*
X109647890Y-108756968D01*
X109750608Y-108697663D01*
X109750608Y-108697662D01*
X109750613Y-108697660D01*
X109781607Y-108666666D01*
X109836124Y-108638890D01*
X109851610Y-108637671D01*
X110907644Y-108637671D01*
X110965835Y-108656578D01*
X110997368Y-108694831D01*
X111041933Y-108790401D01*
X111041934Y-108790402D01*
X111041935Y-108790404D01*
X111125596Y-108874065D01*
X111125597Y-108874065D01*
X111125598Y-108874066D01*
X111232824Y-108924067D01*
X111232825Y-108924067D01*
X111232827Y-108924068D01*
X111281684Y-108930500D01*
X111281685Y-108930500D01*
X111730314Y-108930500D01*
X111730316Y-108930500D01*
X111779173Y-108924068D01*
X111886404Y-108874065D01*
X111970065Y-108790404D01*
X112014632Y-108694831D01*
X112053928Y-108652691D01*
X121469500Y-108652691D01*
X121469500Y-108771309D01*
X121474616Y-108790401D01*
X121500202Y-108885890D01*
X121559507Y-108988608D01*
X121559509Y-108988610D01*
X121559511Y-108988613D01*
X121643387Y-109072489D01*
X121643389Y-109072490D01*
X121643391Y-109072492D01*
X121746110Y-109131797D01*
X121746111Y-109131797D01*
X121746114Y-109131799D01*
X121860691Y-109162500D01*
X121878500Y-109162500D01*
X121936691Y-109181407D01*
X121972655Y-109230907D01*
X121977500Y-109261500D01*
X121977500Y-109279309D01*
X121988705Y-109321126D01*
X122008202Y-109393890D01*
X122067507Y-109496608D01*
X122067509Y-109496610D01*
X122067511Y-109496613D01*
X122151387Y-109580489D01*
X122151389Y-109580490D01*
X122151391Y-109580492D01*
X122254110Y-109639797D01*
X122254111Y-109639797D01*
X122254114Y-109639799D01*
X122368691Y-109670500D01*
X122368693Y-109670500D01*
X122487307Y-109670500D01*
X122487309Y-109670500D01*
X122601886Y-109639799D01*
X122601888Y-109639797D01*
X122601890Y-109639797D01*
X122704608Y-109580492D01*
X122704608Y-109580491D01*
X122704613Y-109580489D01*
X122788489Y-109496613D01*
X122835787Y-109414691D01*
X124009500Y-109414691D01*
X124009500Y-109533309D01*
X124026373Y-109596280D01*
X124040202Y-109647890D01*
X124099507Y-109750608D01*
X124099512Y-109750614D01*
X124133894Y-109784997D01*
X124161671Y-109839514D01*
X124152099Y-109899946D01*
X124133894Y-109925003D01*
X124099512Y-109959385D01*
X124099507Y-109959391D01*
X124040202Y-110062109D01*
X124040201Y-110062114D01*
X124009500Y-110176691D01*
X124009500Y-110295309D01*
X124022143Y-110342492D01*
X124040202Y-110409890D01*
X124099507Y-110512608D01*
X124099512Y-110512614D01*
X124133894Y-110546997D01*
X124161671Y-110601514D01*
X124152099Y-110661946D01*
X124133894Y-110687003D01*
X124099512Y-110721385D01*
X124099507Y-110721391D01*
X124040202Y-110824109D01*
X124040201Y-110824114D01*
X124009500Y-110938691D01*
X124009500Y-111057309D01*
X124021579Y-111102387D01*
X124040202Y-111171890D01*
X124099507Y-111274608D01*
X124099509Y-111274610D01*
X124099511Y-111274613D01*
X124183387Y-111358489D01*
X124183389Y-111358490D01*
X124183391Y-111358492D01*
X124286110Y-111417797D01*
X124286111Y-111417797D01*
X124286114Y-111417799D01*
X124400691Y-111448500D01*
X124400693Y-111448500D01*
X124519307Y-111448500D01*
X124519309Y-111448500D01*
X124633886Y-111417799D01*
X124633888Y-111417797D01*
X124633890Y-111417797D01*
X124736608Y-111358492D01*
X124736608Y-111358491D01*
X124736613Y-111358489D01*
X124820489Y-111274613D01*
X124846598Y-111229391D01*
X124882264Y-111167617D01*
X124927733Y-111126676D01*
X124988583Y-111120280D01*
X125041571Y-111150873D01*
X125053736Y-111167617D01*
X125115507Y-111274608D01*
X125115509Y-111274610D01*
X125115511Y-111274613D01*
X125199387Y-111358489D01*
X125199389Y-111358490D01*
X125199391Y-111358492D01*
X125302110Y-111417797D01*
X125302111Y-111417797D01*
X125302114Y-111417799D01*
X125416691Y-111448500D01*
X125416693Y-111448500D01*
X125535307Y-111448500D01*
X125535309Y-111448500D01*
X125649886Y-111417799D01*
X125649888Y-111417797D01*
X125649890Y-111417797D01*
X125752608Y-111358492D01*
X125752608Y-111358491D01*
X125752613Y-111358489D01*
X125836489Y-111274613D01*
X125862598Y-111229391D01*
X125898264Y-111167617D01*
X125943733Y-111126676D01*
X126004583Y-111120280D01*
X126057571Y-111150873D01*
X126069736Y-111167617D01*
X126131507Y-111274608D01*
X126131509Y-111274610D01*
X126131511Y-111274613D01*
X126215387Y-111358489D01*
X126215389Y-111358490D01*
X126215391Y-111358492D01*
X126318110Y-111417797D01*
X126318111Y-111417797D01*
X126318114Y-111417799D01*
X126432691Y-111448500D01*
X126432693Y-111448500D01*
X126551307Y-111448500D01*
X126551309Y-111448500D01*
X126665886Y-111417799D01*
X126665888Y-111417797D01*
X126665890Y-111417797D01*
X126768608Y-111358492D01*
X126768608Y-111358491D01*
X126768613Y-111358489D01*
X126852489Y-111274613D01*
X126878598Y-111229391D01*
X126911797Y-111171890D01*
X126911797Y-111171888D01*
X126911799Y-111171886D01*
X126942500Y-111057309D01*
X126942500Y-110938691D01*
X126911799Y-110824114D01*
X126911797Y-110824111D01*
X126911797Y-110824109D01*
X126852492Y-110721391D01*
X126852490Y-110721389D01*
X126852489Y-110721387D01*
X126818103Y-110687001D01*
X126790328Y-110632487D01*
X126799899Y-110572055D01*
X126818102Y-110546999D01*
X126852489Y-110512613D01*
X126878598Y-110467391D01*
X126911797Y-110409890D01*
X126911797Y-110409888D01*
X126911799Y-110409886D01*
X126942500Y-110295309D01*
X126942500Y-110176691D01*
X126911799Y-110062114D01*
X126911797Y-110062111D01*
X126911797Y-110062109D01*
X126852492Y-109959391D01*
X126852490Y-109959389D01*
X126852489Y-109959387D01*
X126818103Y-109925001D01*
X126790328Y-109870487D01*
X126799899Y-109810055D01*
X126818102Y-109784999D01*
X126852489Y-109750613D01*
X126878598Y-109705391D01*
X126911797Y-109647890D01*
X126911797Y-109647888D01*
X126911799Y-109647886D01*
X126942500Y-109533309D01*
X126942500Y-109414691D01*
X126911799Y-109300114D01*
X126911797Y-109300111D01*
X126911797Y-109300109D01*
X126856139Y-109203707D01*
X126856136Y-109203704D01*
X126852491Y-109197391D01*
X126852489Y-109197387D01*
X126815793Y-109160691D01*
X128327500Y-109160691D01*
X128327500Y-109279309D01*
X128338705Y-109321126D01*
X128358202Y-109393890D01*
X128417507Y-109496608D01*
X128417512Y-109496614D01*
X128451894Y-109530997D01*
X128479671Y-109585514D01*
X128470099Y-109645946D01*
X128451894Y-109671003D01*
X128417512Y-109705385D01*
X128417507Y-109705391D01*
X128358202Y-109808109D01*
X128345638Y-109855000D01*
X128327500Y-109922691D01*
X128327500Y-110041309D01*
X128346902Y-110113719D01*
X128358202Y-110155890D01*
X128417507Y-110258608D01*
X128417509Y-110258610D01*
X128417511Y-110258613D01*
X128501387Y-110342489D01*
X128501389Y-110342490D01*
X128501391Y-110342492D01*
X128604110Y-110401797D01*
X128604111Y-110401797D01*
X128604114Y-110401799D01*
X128718691Y-110432500D01*
X128718693Y-110432500D01*
X128837307Y-110432500D01*
X128837309Y-110432500D01*
X128951886Y-110401799D01*
X128951888Y-110401797D01*
X128951890Y-110401797D01*
X129054608Y-110342492D01*
X129054608Y-110342491D01*
X129054613Y-110342489D01*
X129088998Y-110308103D01*
X129143513Y-110280328D01*
X129203945Y-110289899D01*
X129229000Y-110308102D01*
X129263387Y-110342489D01*
X129263389Y-110342490D01*
X129263391Y-110342492D01*
X129366110Y-110401797D01*
X129366111Y-110401797D01*
X129366114Y-110401799D01*
X129480691Y-110432500D01*
X129480693Y-110432500D01*
X129599307Y-110432500D01*
X129599309Y-110432500D01*
X129713886Y-110401799D01*
X129713888Y-110401797D01*
X129713890Y-110401797D01*
X129816608Y-110342492D01*
X129816608Y-110342491D01*
X129816613Y-110342489D01*
X129850998Y-110308103D01*
X129905513Y-110280328D01*
X129965945Y-110289899D01*
X129991000Y-110308102D01*
X130025387Y-110342489D01*
X130025389Y-110342490D01*
X130025391Y-110342492D01*
X130128110Y-110401797D01*
X130128111Y-110401797D01*
X130128114Y-110401799D01*
X130242691Y-110432500D01*
X130242693Y-110432500D01*
X130361307Y-110432500D01*
X130361309Y-110432500D01*
X130475886Y-110401799D01*
X130475888Y-110401797D01*
X130475890Y-110401797D01*
X130578608Y-110342492D01*
X130578608Y-110342491D01*
X130578613Y-110342489D01*
X130662489Y-110258613D01*
X130688600Y-110213388D01*
X130721797Y-110155890D01*
X130721797Y-110155888D01*
X130721799Y-110155886D01*
X130752500Y-110041309D01*
X130752500Y-109922691D01*
X130721799Y-109808114D01*
X130721797Y-109808111D01*
X130721797Y-109808109D01*
X130662492Y-109705391D01*
X130662490Y-109705389D01*
X130662489Y-109705387D01*
X130628103Y-109671001D01*
X130600328Y-109616487D01*
X130609899Y-109556055D01*
X130628102Y-109530999D01*
X130662489Y-109496613D01*
X130721799Y-109393886D01*
X130752500Y-109279309D01*
X130752500Y-109160691D01*
X130721799Y-109046114D01*
X130721797Y-109046111D01*
X130721797Y-109046109D01*
X130662492Y-108943391D01*
X130662490Y-108943389D01*
X130662489Y-108943387D01*
X130578613Y-108859511D01*
X130578610Y-108859509D01*
X130578608Y-108859507D01*
X130475889Y-108800202D01*
X130475890Y-108800202D01*
X130439312Y-108790401D01*
X130361309Y-108769500D01*
X130242691Y-108769500D01*
X130197948Y-108781489D01*
X130128109Y-108800202D01*
X130025391Y-108859507D01*
X130025385Y-108859512D01*
X129991003Y-108893894D01*
X129936486Y-108921671D01*
X129876054Y-108912099D01*
X129850997Y-108893894D01*
X129816614Y-108859512D01*
X129816608Y-108859507D01*
X129713889Y-108800202D01*
X129713890Y-108800202D01*
X129677312Y-108790401D01*
X129599309Y-108769500D01*
X129480691Y-108769500D01*
X129435948Y-108781489D01*
X129366109Y-108800202D01*
X129263391Y-108859507D01*
X129263385Y-108859512D01*
X129229003Y-108893894D01*
X129174486Y-108921671D01*
X129114054Y-108912099D01*
X129088997Y-108893894D01*
X129054614Y-108859512D01*
X129054608Y-108859507D01*
X128951889Y-108800202D01*
X128951890Y-108800202D01*
X128915312Y-108790401D01*
X128837309Y-108769500D01*
X128718691Y-108769500D01*
X128673948Y-108781489D01*
X128604109Y-108800202D01*
X128501391Y-108859507D01*
X128417507Y-108943391D01*
X128358202Y-109046109D01*
X128341037Y-109110169D01*
X128327500Y-109160691D01*
X126815793Y-109160691D01*
X126768613Y-109113511D01*
X126768610Y-109113509D01*
X126768608Y-109113507D01*
X126665889Y-109054202D01*
X126665890Y-109054202D01*
X126635686Y-109046109D01*
X126551309Y-109023500D01*
X126432691Y-109023500D01*
X126362567Y-109042289D01*
X126318109Y-109054202D01*
X126215391Y-109113507D01*
X126131507Y-109197391D01*
X126069736Y-109304382D01*
X126024267Y-109345323D01*
X125963416Y-109351719D01*
X125910428Y-109321126D01*
X125898264Y-109304382D01*
X125836492Y-109197391D01*
X125836490Y-109197389D01*
X125836489Y-109197387D01*
X125752613Y-109113511D01*
X125752610Y-109113509D01*
X125752608Y-109113507D01*
X125649889Y-109054202D01*
X125649890Y-109054202D01*
X125619686Y-109046109D01*
X125535309Y-109023500D01*
X125416691Y-109023500D01*
X125346567Y-109042289D01*
X125302109Y-109054202D01*
X125199391Y-109113507D01*
X125115507Y-109197391D01*
X125053736Y-109304382D01*
X125008267Y-109345323D01*
X124947416Y-109351719D01*
X124894428Y-109321126D01*
X124882264Y-109304382D01*
X124820492Y-109197391D01*
X124820490Y-109197389D01*
X124820489Y-109197387D01*
X124736613Y-109113511D01*
X124736610Y-109113509D01*
X124736608Y-109113507D01*
X124633889Y-109054202D01*
X124633890Y-109054202D01*
X124603686Y-109046109D01*
X124519309Y-109023500D01*
X124400691Y-109023500D01*
X124330567Y-109042289D01*
X124286109Y-109054202D01*
X124183391Y-109113507D01*
X124099507Y-109197391D01*
X124040202Y-109300109D01*
X124040201Y-109300114D01*
X124009500Y-109414691D01*
X122835787Y-109414691D01*
X122847799Y-109393886D01*
X122878500Y-109279309D01*
X122878500Y-109160691D01*
X122847799Y-109046114D01*
X122847797Y-109046111D01*
X122847797Y-109046109D01*
X122788492Y-108943391D01*
X122788490Y-108943389D01*
X122788489Y-108943387D01*
X122704613Y-108859511D01*
X122704610Y-108859509D01*
X122704608Y-108859507D01*
X122601889Y-108800202D01*
X122601890Y-108800202D01*
X122565312Y-108790401D01*
X122487309Y-108769500D01*
X122487307Y-108769500D01*
X122469500Y-108769500D01*
X122411309Y-108750593D01*
X122375345Y-108701093D01*
X122370500Y-108670500D01*
X122370500Y-108652692D01*
X122360987Y-108617190D01*
X122339799Y-108538114D01*
X122339797Y-108538111D01*
X122339797Y-108538109D01*
X122280492Y-108435391D01*
X122280490Y-108435389D01*
X122280489Y-108435387D01*
X122196613Y-108351511D01*
X122196610Y-108351509D01*
X122196608Y-108351507D01*
X122093889Y-108292202D01*
X122093890Y-108292202D01*
X122080351Y-108288574D01*
X121979309Y-108261500D01*
X121860691Y-108261500D01*
X121790567Y-108280289D01*
X121746109Y-108292202D01*
X121643391Y-108351507D01*
X121559507Y-108435391D01*
X121500202Y-108538109D01*
X121500201Y-108538114D01*
X121469500Y-108652691D01*
X112053928Y-108652691D01*
X112056360Y-108650083D01*
X112104356Y-108637671D01*
X114460392Y-108637671D01*
X114460392Y-108637670D01*
X114536818Y-108617192D01*
X114605340Y-108577631D01*
X114661289Y-108521682D01*
X115546280Y-107636691D01*
X116307497Y-107636691D01*
X116307497Y-107755309D01*
X116333561Y-107852581D01*
X116338199Y-107869890D01*
X116397504Y-107972608D01*
X116397506Y-107972610D01*
X116397508Y-107972613D01*
X116481384Y-108056489D01*
X116481386Y-108056490D01*
X116481388Y-108056492D01*
X116584107Y-108115797D01*
X116584108Y-108115797D01*
X116584111Y-108115799D01*
X116698688Y-108146500D01*
X116698690Y-108146500D01*
X116817304Y-108146500D01*
X116817306Y-108146500D01*
X116931883Y-108115799D01*
X117003497Y-108074451D01*
X117063345Y-108061730D01*
X117102498Y-108074452D01*
X117174110Y-108115797D01*
X117174111Y-108115797D01*
X117174114Y-108115799D01*
X117288691Y-108146500D01*
X117288693Y-108146500D01*
X117407307Y-108146500D01*
X117407309Y-108146500D01*
X117521886Y-108115799D01*
X117521888Y-108115797D01*
X117521890Y-108115797D01*
X117624608Y-108056492D01*
X117624608Y-108056491D01*
X117624613Y-108056489D01*
X117655607Y-108025495D01*
X117710124Y-107997719D01*
X117725610Y-107996500D01*
X118149563Y-107996500D01*
X118149563Y-107996499D01*
X118225989Y-107976021D01*
X118294511Y-107936460D01*
X118350460Y-107880511D01*
X118459475Y-107771496D01*
X118466592Y-107767869D01*
X118471288Y-107761407D01*
X118493336Y-107754243D01*
X118513992Y-107743719D01*
X118529479Y-107742500D01*
X118609605Y-107742500D01*
X118667796Y-107761407D01*
X118699329Y-107799660D01*
X118709933Y-107822401D01*
X118709934Y-107822402D01*
X118709935Y-107822404D01*
X118793596Y-107906065D01*
X118793597Y-107906065D01*
X118793598Y-107906066D01*
X118900824Y-107956067D01*
X118900825Y-107956067D01*
X118900827Y-107956068D01*
X118949684Y-107962500D01*
X118949685Y-107962500D01*
X119298314Y-107962500D01*
X119298316Y-107962500D01*
X119347173Y-107956068D01*
X119454404Y-107906065D01*
X119538065Y-107822404D01*
X119544275Y-107809085D01*
X119586003Y-107764337D01*
X119646064Y-107752662D01*
X119701517Y-107778519D01*
X119723724Y-107809084D01*
X119729935Y-107822404D01*
X119813596Y-107906065D01*
X119813597Y-107906065D01*
X119813598Y-107906066D01*
X119920824Y-107956067D01*
X119920825Y-107956067D01*
X119920827Y-107956068D01*
X119969684Y-107962500D01*
X119969685Y-107962500D01*
X120318314Y-107962500D01*
X120318316Y-107962500D01*
X120367173Y-107956068D01*
X120474404Y-107906065D01*
X120558065Y-107822404D01*
X120608068Y-107715173D01*
X120614500Y-107666316D01*
X120614500Y-107217684D01*
X120608068Y-107168827D01*
X120604874Y-107161978D01*
X120558066Y-107061598D01*
X120558065Y-107061597D01*
X120558065Y-107061596D01*
X120500470Y-107004001D01*
X120495661Y-106994563D01*
X120487430Y-106987893D01*
X120482083Y-106967913D01*
X120472695Y-106949487D01*
X120474352Y-106939023D01*
X120471613Y-106928787D01*
X120478379Y-106913596D01*
X120482266Y-106889055D01*
X120493558Y-106871673D01*
X120496813Y-106867655D01*
X120558065Y-106806404D01*
X120573814Y-106772629D01*
X120581477Y-106763173D01*
X120597428Y-106752820D01*
X120610399Y-106738912D01*
X120624467Y-106735273D01*
X120632802Y-106729865D01*
X120643252Y-106730416D01*
X120658395Y-106726500D01*
X121251391Y-106726500D01*
X121309582Y-106745407D01*
X121345546Y-106794907D01*
X121345546Y-106856093D01*
X121321396Y-106895501D01*
X121312889Y-106904009D01*
X121305508Y-106911390D01*
X121305507Y-106911391D01*
X121246202Y-107014109D01*
X121241449Y-107031847D01*
X121215500Y-107128691D01*
X121215500Y-107247309D01*
X121239133Y-107335507D01*
X121246202Y-107361890D01*
X121305507Y-107464608D01*
X121305509Y-107464610D01*
X121305511Y-107464613D01*
X121389387Y-107548489D01*
X121389389Y-107548490D01*
X121389391Y-107548492D01*
X121492110Y-107607797D01*
X121492111Y-107607797D01*
X121492114Y-107607799D01*
X121606691Y-107638500D01*
X121606693Y-107638500D01*
X121725307Y-107638500D01*
X121725309Y-107638500D01*
X121839886Y-107607799D01*
X121839888Y-107607797D01*
X121839890Y-107607797D01*
X121942608Y-107548492D01*
X121942608Y-107548491D01*
X121942613Y-107548489D01*
X122026489Y-107464613D01*
X122048505Y-107426481D01*
X122085797Y-107361890D01*
X122085797Y-107361888D01*
X122085799Y-107361886D01*
X122116500Y-107247309D01*
X122116500Y-107128691D01*
X122085799Y-107014114D01*
X122085797Y-107014111D01*
X122085797Y-107014109D01*
X122026492Y-106911391D01*
X122026490Y-106911389D01*
X122026489Y-106911387D01*
X122010603Y-106895501D01*
X121982828Y-106840987D01*
X121992399Y-106780555D01*
X122035664Y-106737290D01*
X122080609Y-106726500D01*
X140186103Y-106726500D01*
X140244294Y-106745407D01*
X140280258Y-106794907D01*
X140281722Y-106799850D01*
X140289134Y-106827511D01*
X140296202Y-106853890D01*
X140355507Y-106956608D01*
X140355509Y-106956610D01*
X140355511Y-106956613D01*
X140439387Y-107040489D01*
X140439389Y-107040490D01*
X140439391Y-107040492D01*
X140542110Y-107099797D01*
X140542111Y-107099797D01*
X140542114Y-107099799D01*
X140656691Y-107130500D01*
X140656693Y-107130500D01*
X140775307Y-107130500D01*
X140775309Y-107130500D01*
X140889886Y-107099799D01*
X140889888Y-107099797D01*
X140889890Y-107099797D01*
X140992608Y-107040492D01*
X140992608Y-107040491D01*
X140992613Y-107040489D01*
X141076489Y-106956613D01*
X141090894Y-106931663D01*
X141135797Y-106853890D01*
X141135797Y-106853888D01*
X141135799Y-106853886D01*
X141166500Y-106739309D01*
X141166500Y-106620691D01*
X141135799Y-106506114D01*
X141135797Y-106506111D01*
X141135797Y-106506109D01*
X141076492Y-106403391D01*
X141076490Y-106403389D01*
X141076489Y-106403387D01*
X140992613Y-106319511D01*
X140992610Y-106319509D01*
X140992608Y-106319507D01*
X140889889Y-106260202D01*
X140889890Y-106260202D01*
X140859686Y-106252109D01*
X140775309Y-106229500D01*
X140775307Y-106229500D01*
X140731479Y-106229500D01*
X140728040Y-106228382D01*
X140724531Y-106229256D01*
X140709168Y-106222250D01*
X140673288Y-106210593D01*
X140667811Y-106206311D01*
X140664508Y-106203537D01*
X140646511Y-106185540D01*
X140643047Y-106183540D01*
X140635528Y-106179199D01*
X140635527Y-106179198D01*
X140577992Y-106145980D01*
X140577985Y-106145977D01*
X140501564Y-106125500D01*
X140501562Y-106125500D01*
X120658395Y-106125500D01*
X120600204Y-106106593D01*
X120568671Y-106068340D01*
X120558066Y-106045598D01*
X120558065Y-106045597D01*
X120558065Y-106045596D01*
X120474404Y-105961935D01*
X120474402Y-105961934D01*
X120474401Y-105961933D01*
X120367175Y-105911932D01*
X120334601Y-105907644D01*
X120318316Y-105905500D01*
X119969684Y-105905500D01*
X119953398Y-105907644D01*
X119920825Y-105911932D01*
X119920824Y-105911932D01*
X119813598Y-105961933D01*
X119813595Y-105961935D01*
X119735348Y-106040182D01*
X119680831Y-106067959D01*
X119620399Y-106058387D01*
X119582277Y-106020265D01*
X119581432Y-106020869D01*
X119577814Y-106015802D01*
X119577135Y-106015123D01*
X119576684Y-106014220D01*
X119576666Y-106014194D01*
X119485806Y-105923334D01*
X119374000Y-105868675D01*
X119374000Y-106327000D01*
X119355093Y-106385191D01*
X119305593Y-106421155D01*
X119275000Y-106426000D01*
X119124001Y-106426000D01*
X119124000Y-106426001D01*
X119124000Y-106577000D01*
X119105093Y-106635191D01*
X119055593Y-106671155D01*
X119025000Y-106676000D01*
X118608147Y-106676000D01*
X118614903Y-106722375D01*
X118671335Y-106837807D01*
X118732526Y-106898998D01*
X118760303Y-106953515D01*
X118750732Y-107013947D01*
X118742865Y-107026847D01*
X118738188Y-107033342D01*
X118709935Y-107061596D01*
X118695391Y-107092784D01*
X118689948Y-107100345D01*
X118672422Y-107113193D01*
X118657601Y-107129088D01*
X118647005Y-107131828D01*
X118640603Y-107136522D01*
X118628655Y-107136573D01*
X118609605Y-107141500D01*
X118324435Y-107141500D01*
X118248012Y-107161978D01*
X118200324Y-107189511D01*
X118200323Y-107189510D01*
X118179489Y-107201539D01*
X118014524Y-107366504D01*
X117960008Y-107394281D01*
X117944521Y-107395500D01*
X117725610Y-107395500D01*
X117667419Y-107376593D01*
X117655607Y-107366505D01*
X117643001Y-107353899D01*
X117624613Y-107335511D01*
X117624610Y-107335509D01*
X117624609Y-107335508D01*
X117624608Y-107335507D01*
X117521889Y-107276202D01*
X117521890Y-107276202D01*
X117482636Y-107265684D01*
X117407309Y-107245500D01*
X117288691Y-107245500D01*
X117218567Y-107264289D01*
X117174109Y-107276202D01*
X117102498Y-107317548D01*
X117042650Y-107330270D01*
X117003497Y-107317548D01*
X116931885Y-107276202D01*
X116931884Y-107276201D01*
X116931883Y-107276201D01*
X116817306Y-107245500D01*
X116698688Y-107245500D01*
X116628564Y-107264289D01*
X116584106Y-107276202D01*
X116481388Y-107335507D01*
X116397504Y-107419391D01*
X116338199Y-107522109D01*
X116338198Y-107522114D01*
X116307497Y-107636691D01*
X115546280Y-107636691D01*
X116318460Y-106864511D01*
X116324592Y-106853890D01*
X116358020Y-106795992D01*
X116358020Y-106795990D01*
X116358022Y-106795988D01*
X116378500Y-106719562D01*
X116378500Y-106640438D01*
X116378500Y-106549609D01*
X116397407Y-106491418D01*
X116407490Y-106479611D01*
X116438489Y-106448613D01*
X116438492Y-106448608D01*
X116497797Y-106345890D01*
X116497797Y-106345888D01*
X116497799Y-106345886D01*
X116528500Y-106231309D01*
X116528500Y-106175999D01*
X118608145Y-106175999D01*
X118608146Y-106176000D01*
X118873999Y-106176000D01*
X118874000Y-106175999D01*
X118874000Y-105868675D01*
X118762193Y-105923334D01*
X118671334Y-106014193D01*
X118614902Y-106129628D01*
X118608145Y-106175999D01*
X116528500Y-106175999D01*
X116528500Y-106112691D01*
X116497799Y-105998114D01*
X116497797Y-105998111D01*
X116497797Y-105998109D01*
X116438492Y-105895391D01*
X116438488Y-105895386D01*
X116381073Y-105837970D01*
X116359614Y-105805854D01*
X116358025Y-105802019D01*
X116358022Y-105802015D01*
X116358022Y-105802012D01*
X116318460Y-105733489D01*
X114919662Y-104334691D01*
X122231500Y-104334691D01*
X122231500Y-104453309D01*
X122245827Y-104506777D01*
X122262202Y-104567890D01*
X122321507Y-104670608D01*
X122321509Y-104670610D01*
X122321511Y-104670613D01*
X122405387Y-104754489D01*
X122405389Y-104754490D01*
X122405391Y-104754492D01*
X122512382Y-104816264D01*
X122553323Y-104861733D01*
X122559719Y-104922584D01*
X122529126Y-104975572D01*
X122512382Y-104987736D01*
X122405391Y-105049507D01*
X122321507Y-105133391D01*
X122262202Y-105236109D01*
X122262201Y-105236114D01*
X122231500Y-105350691D01*
X122231500Y-105469309D01*
X122258574Y-105570351D01*
X122262202Y-105583890D01*
X122321507Y-105686608D01*
X122321509Y-105686610D01*
X122321511Y-105686613D01*
X122405387Y-105770489D01*
X122405389Y-105770490D01*
X122405391Y-105770492D01*
X122508110Y-105829797D01*
X122508111Y-105829797D01*
X122508114Y-105829799D01*
X122622691Y-105860500D01*
X122622693Y-105860500D01*
X122741307Y-105860500D01*
X122741309Y-105860500D01*
X122855886Y-105829799D01*
X122855888Y-105829797D01*
X122855890Y-105829797D01*
X122958608Y-105770492D01*
X122958608Y-105770491D01*
X122958613Y-105770489D01*
X122992998Y-105736103D01*
X123047513Y-105708328D01*
X123107945Y-105717899D01*
X123133000Y-105736102D01*
X123167387Y-105770489D01*
X123167389Y-105770490D01*
X123167391Y-105770492D01*
X123270110Y-105829797D01*
X123270111Y-105829797D01*
X123270114Y-105829799D01*
X123384691Y-105860500D01*
X123384693Y-105860500D01*
X123503307Y-105860500D01*
X123503309Y-105860500D01*
X123617886Y-105829799D01*
X123617888Y-105829797D01*
X123617890Y-105829797D01*
X123720608Y-105770492D01*
X123720608Y-105770491D01*
X123720613Y-105770489D01*
X123754998Y-105736103D01*
X123809513Y-105708328D01*
X123869945Y-105717899D01*
X123895000Y-105736102D01*
X123929387Y-105770489D01*
X123929389Y-105770490D01*
X123929391Y-105770492D01*
X124032110Y-105829797D01*
X124032111Y-105829797D01*
X124032114Y-105829799D01*
X124146691Y-105860500D01*
X124146693Y-105860500D01*
X124265307Y-105860500D01*
X124265309Y-105860500D01*
X124379886Y-105829799D01*
X124379888Y-105829797D01*
X124379890Y-105829797D01*
X124482608Y-105770492D01*
X124482608Y-105770491D01*
X124482613Y-105770489D01*
X124516998Y-105736103D01*
X124571513Y-105708328D01*
X124631945Y-105717899D01*
X124657000Y-105736102D01*
X124691387Y-105770489D01*
X124691389Y-105770490D01*
X124691391Y-105770492D01*
X124794110Y-105829797D01*
X124794111Y-105829797D01*
X124794114Y-105829799D01*
X124908691Y-105860500D01*
X124908693Y-105860500D01*
X125027307Y-105860500D01*
X125027309Y-105860500D01*
X125141886Y-105829799D01*
X125141888Y-105829797D01*
X125141890Y-105829797D01*
X125244608Y-105770492D01*
X125244608Y-105770491D01*
X125244613Y-105770489D01*
X125278998Y-105736103D01*
X125333513Y-105708328D01*
X125393945Y-105717899D01*
X125419000Y-105736102D01*
X125453387Y-105770489D01*
X125453389Y-105770490D01*
X125453391Y-105770492D01*
X125556110Y-105829797D01*
X125556111Y-105829797D01*
X125556114Y-105829799D01*
X125670691Y-105860500D01*
X125670693Y-105860500D01*
X125789307Y-105860500D01*
X125789309Y-105860500D01*
X125903886Y-105829799D01*
X125903888Y-105829797D01*
X125903890Y-105829797D01*
X126006608Y-105770492D01*
X126006608Y-105770491D01*
X126006613Y-105770489D01*
X126090489Y-105686613D01*
X126149799Y-105583886D01*
X126180500Y-105469309D01*
X126180500Y-105350691D01*
X126149799Y-105236114D01*
X126149797Y-105236111D01*
X126149797Y-105236109D01*
X126090492Y-105133391D01*
X126090490Y-105133389D01*
X126090489Y-105133387D01*
X126006613Y-105049511D01*
X126006610Y-105049509D01*
X126006608Y-105049507D01*
X125899617Y-104987736D01*
X125858676Y-104942267D01*
X125852280Y-104881417D01*
X125882873Y-104828429D01*
X125899617Y-104816264D01*
X126006608Y-104754492D01*
X126006608Y-104754491D01*
X126006613Y-104754489D01*
X126090489Y-104670613D01*
X126149799Y-104567886D01*
X126180500Y-104453309D01*
X126180500Y-104334691D01*
X126149799Y-104220114D01*
X126149797Y-104220111D01*
X126149797Y-104220109D01*
X126090492Y-104117391D01*
X126090490Y-104117389D01*
X126090489Y-104117387D01*
X126006613Y-104033511D01*
X126006610Y-104033509D01*
X126006608Y-104033507D01*
X125903889Y-103974202D01*
X125903890Y-103974202D01*
X125890351Y-103970574D01*
X125789309Y-103943500D01*
X125670691Y-103943500D01*
X125600567Y-103962289D01*
X125556109Y-103974202D01*
X125453391Y-104033507D01*
X125453385Y-104033512D01*
X125419003Y-104067894D01*
X125364486Y-104095671D01*
X125304054Y-104086099D01*
X125278997Y-104067894D01*
X125244614Y-104033512D01*
X125244608Y-104033507D01*
X125141889Y-103974202D01*
X125141890Y-103974202D01*
X125128351Y-103970574D01*
X125027309Y-103943500D01*
X124908691Y-103943500D01*
X124838567Y-103962289D01*
X124794109Y-103974202D01*
X124691391Y-104033507D01*
X124691385Y-104033512D01*
X124657003Y-104067894D01*
X124602486Y-104095671D01*
X124542054Y-104086099D01*
X124516997Y-104067894D01*
X124482614Y-104033512D01*
X124482608Y-104033507D01*
X124379889Y-103974202D01*
X124379890Y-103974202D01*
X124366351Y-103970574D01*
X124265309Y-103943500D01*
X124146691Y-103943500D01*
X124076567Y-103962289D01*
X124032109Y-103974202D01*
X123929391Y-104033507D01*
X123929385Y-104033512D01*
X123895003Y-104067894D01*
X123840486Y-104095671D01*
X123780054Y-104086099D01*
X123754997Y-104067894D01*
X123720614Y-104033512D01*
X123720608Y-104033507D01*
X123617889Y-103974202D01*
X123617890Y-103974202D01*
X123604351Y-103970574D01*
X123503309Y-103943500D01*
X123384691Y-103943500D01*
X123314567Y-103962289D01*
X123270109Y-103974202D01*
X123167391Y-104033507D01*
X123167385Y-104033512D01*
X123133003Y-104067894D01*
X123078486Y-104095671D01*
X123018054Y-104086099D01*
X122992997Y-104067894D01*
X122958614Y-104033512D01*
X122958608Y-104033507D01*
X122855889Y-103974202D01*
X122855890Y-103974202D01*
X122842351Y-103970574D01*
X122741309Y-103943500D01*
X122622691Y-103943500D01*
X122552567Y-103962289D01*
X122508109Y-103974202D01*
X122405391Y-104033507D01*
X122321507Y-104117391D01*
X122262202Y-104220109D01*
X122262201Y-104220114D01*
X122231500Y-104334691D01*
X114919662Y-104334691D01*
X114401975Y-103817004D01*
X140269500Y-103817004D01*
X140269500Y-103954995D01*
X140296420Y-104090327D01*
X140296420Y-104090329D01*
X140349222Y-104217806D01*
X140349228Y-104217817D01*
X140425885Y-104332541D01*
X140523458Y-104430114D01*
X140638182Y-104506771D01*
X140638193Y-104506777D01*
X140685283Y-104526282D01*
X140765672Y-104559580D01*
X140901007Y-104586500D01*
X140901008Y-104586500D01*
X141038992Y-104586500D01*
X141038993Y-104586500D01*
X141174328Y-104559580D01*
X141301811Y-104506775D01*
X141416542Y-104430114D01*
X141514114Y-104332542D01*
X141590775Y-104217811D01*
X141643580Y-104090328D01*
X141670500Y-103954993D01*
X141670500Y-103817007D01*
X141670499Y-103817004D01*
X142301500Y-103817004D01*
X142301500Y-103954995D01*
X142328420Y-104090327D01*
X142328420Y-104090329D01*
X142381222Y-104217806D01*
X142381228Y-104217817D01*
X142457885Y-104332541D01*
X142555458Y-104430114D01*
X142670182Y-104506771D01*
X142670193Y-104506777D01*
X142717283Y-104526282D01*
X142797672Y-104559580D01*
X142933007Y-104586500D01*
X142933008Y-104586500D01*
X143070992Y-104586500D01*
X143070993Y-104586500D01*
X143206328Y-104559580D01*
X143333811Y-104506775D01*
X143448542Y-104430114D01*
X143546114Y-104332542D01*
X143622775Y-104217811D01*
X143675580Y-104090328D01*
X143702500Y-103954993D01*
X143702500Y-103817007D01*
X143702499Y-103817004D01*
X144333500Y-103817004D01*
X144333500Y-103954995D01*
X144360420Y-104090327D01*
X144360420Y-104090329D01*
X144413222Y-104217806D01*
X144413228Y-104217817D01*
X144489885Y-104332541D01*
X144587458Y-104430114D01*
X144702182Y-104506771D01*
X144702193Y-104506777D01*
X144749283Y-104526282D01*
X144829672Y-104559580D01*
X144965007Y-104586500D01*
X144965008Y-104586500D01*
X145102992Y-104586500D01*
X145102993Y-104586500D01*
X145238328Y-104559580D01*
X145365811Y-104506775D01*
X145480542Y-104430114D01*
X145578114Y-104332542D01*
X145654775Y-104217811D01*
X145707580Y-104090328D01*
X145734500Y-103954993D01*
X145734500Y-103817007D01*
X145707580Y-103681672D01*
X145654775Y-103554189D01*
X145654774Y-103554187D01*
X145654771Y-103554182D01*
X145578114Y-103439458D01*
X145480541Y-103341885D01*
X145365817Y-103265228D01*
X145365806Y-103265222D01*
X145238328Y-103212420D01*
X145102995Y-103185500D01*
X145102993Y-103185500D01*
X144965007Y-103185500D01*
X144965004Y-103185500D01*
X144829672Y-103212420D01*
X144829670Y-103212420D01*
X144702193Y-103265222D01*
X144702182Y-103265228D01*
X144587458Y-103341885D01*
X144489885Y-103439458D01*
X144413228Y-103554182D01*
X144413222Y-103554193D01*
X144360420Y-103681670D01*
X144360420Y-103681672D01*
X144333500Y-103817004D01*
X143702499Y-103817004D01*
X143675580Y-103681672D01*
X143622775Y-103554189D01*
X143622774Y-103554187D01*
X143622771Y-103554182D01*
X143546114Y-103439458D01*
X143448541Y-103341885D01*
X143333817Y-103265228D01*
X143333806Y-103265222D01*
X143206328Y-103212420D01*
X143070995Y-103185500D01*
X143070993Y-103185500D01*
X142933007Y-103185500D01*
X142933004Y-103185500D01*
X142797672Y-103212420D01*
X142797670Y-103212420D01*
X142670193Y-103265222D01*
X142670182Y-103265228D01*
X142555458Y-103341885D01*
X142457885Y-103439458D01*
X142381228Y-103554182D01*
X142381222Y-103554193D01*
X142328420Y-103681670D01*
X142328420Y-103681672D01*
X142301500Y-103817004D01*
X141670499Y-103817004D01*
X141643580Y-103681672D01*
X141590775Y-103554189D01*
X141590774Y-103554187D01*
X141590771Y-103554182D01*
X141514114Y-103439458D01*
X141416541Y-103341885D01*
X141301817Y-103265228D01*
X141301806Y-103265222D01*
X141174328Y-103212420D01*
X141038995Y-103185500D01*
X141038993Y-103185500D01*
X140901007Y-103185500D01*
X140901004Y-103185500D01*
X140765672Y-103212420D01*
X140765670Y-103212420D01*
X140638193Y-103265222D01*
X140638182Y-103265228D01*
X140523458Y-103341885D01*
X140425885Y-103439458D01*
X140349228Y-103554182D01*
X140349222Y-103554193D01*
X140296420Y-103681670D01*
X140296420Y-103681672D01*
X140269500Y-103817004D01*
X114401975Y-103817004D01*
X113613496Y-103028525D01*
X113585719Y-102974008D01*
X113584500Y-102958521D01*
X113584500Y-98867604D01*
X114737144Y-98867604D01*
X114737144Y-99216233D01*
X114743576Y-99265093D01*
X114743576Y-99265094D01*
X114793577Y-99372320D01*
X114793578Y-99372321D01*
X114793579Y-99372323D01*
X114877240Y-99455984D01*
X114877241Y-99455984D01*
X114877242Y-99455985D01*
X114890559Y-99462195D01*
X114935307Y-99503924D01*
X114946981Y-99563985D01*
X114921122Y-99619437D01*
X114890559Y-99641643D01*
X114877242Y-99647852D01*
X114793577Y-99731517D01*
X114743576Y-99838743D01*
X114743576Y-99838744D01*
X114743576Y-99838745D01*
X114743576Y-99838746D01*
X114737144Y-99887603D01*
X114737144Y-100236235D01*
X114741432Y-100268806D01*
X114743576Y-100285093D01*
X114743576Y-100285094D01*
X114793577Y-100392320D01*
X114793578Y-100392321D01*
X114793579Y-100392323D01*
X114875956Y-100474700D01*
X114892051Y-100498789D01*
X114892956Y-100498267D01*
X114955507Y-100606608D01*
X114955509Y-100606610D01*
X114955511Y-100606613D01*
X115039387Y-100690489D01*
X115039389Y-100690490D01*
X115039391Y-100690492D01*
X115142110Y-100749797D01*
X115142111Y-100749797D01*
X115142114Y-100749799D01*
X115256691Y-100780500D01*
X115256693Y-100780500D01*
X115375307Y-100780500D01*
X115375309Y-100780500D01*
X115489886Y-100749799D01*
X115489888Y-100749797D01*
X115489890Y-100749797D01*
X115592608Y-100690492D01*
X115592608Y-100690491D01*
X115592613Y-100690489D01*
X115676489Y-100606613D01*
X115735799Y-100503886D01*
X115766500Y-100389309D01*
X115766500Y-100317106D01*
X115770455Y-100289404D01*
X115771711Y-100285094D01*
X115771712Y-100285092D01*
X115778144Y-100236235D01*
X115778144Y-99887603D01*
X115771712Y-99838746D01*
X115736247Y-99762691D01*
X126013500Y-99762691D01*
X126013500Y-99881309D01*
X126015187Y-99887604D01*
X126044202Y-99995890D01*
X126103507Y-100098608D01*
X126103509Y-100098610D01*
X126103511Y-100098613D01*
X126187387Y-100182489D01*
X126187389Y-100182490D01*
X126187391Y-100182492D01*
X126290110Y-100241797D01*
X126290111Y-100241797D01*
X126290114Y-100241799D01*
X126404691Y-100272500D01*
X126404693Y-100272500D01*
X126523307Y-100272500D01*
X126523309Y-100272500D01*
X126637886Y-100241799D01*
X126637888Y-100241797D01*
X126637890Y-100241797D01*
X126740608Y-100182492D01*
X126740608Y-100182491D01*
X126740613Y-100182489D01*
X126788998Y-100134103D01*
X126843513Y-100106328D01*
X126903945Y-100115899D01*
X126929000Y-100134102D01*
X126977387Y-100182489D01*
X126977389Y-100182490D01*
X126977391Y-100182492D01*
X127080110Y-100241797D01*
X127080111Y-100241797D01*
X127080114Y-100241799D01*
X127194691Y-100272500D01*
X127194693Y-100272500D01*
X127313307Y-100272500D01*
X127313309Y-100272500D01*
X127427886Y-100241799D01*
X127427888Y-100241797D01*
X127427890Y-100241797D01*
X127530608Y-100182492D01*
X127530608Y-100182491D01*
X127530613Y-100182489D01*
X127564998Y-100148103D01*
X127619513Y-100120328D01*
X127679945Y-100129899D01*
X127705000Y-100148102D01*
X127739387Y-100182489D01*
X127739389Y-100182490D01*
X127739391Y-100182492D01*
X127842110Y-100241797D01*
X127842111Y-100241797D01*
X127842114Y-100241799D01*
X127956691Y-100272500D01*
X127956693Y-100272500D01*
X128075307Y-100272500D01*
X128075309Y-100272500D01*
X128189886Y-100241799D01*
X128189888Y-100241797D01*
X128189890Y-100241797D01*
X128292608Y-100182492D01*
X128292608Y-100182491D01*
X128292613Y-100182489D01*
X128376489Y-100098613D01*
X128397000Y-100063087D01*
X128435797Y-99995890D01*
X128435797Y-99995888D01*
X128435799Y-99995886D01*
X128466500Y-99881309D01*
X128466500Y-99762691D01*
X128435799Y-99648114D01*
X128435797Y-99648111D01*
X128435797Y-99648109D01*
X128376492Y-99545391D01*
X128376490Y-99545389D01*
X128376489Y-99545387D01*
X128292613Y-99461511D01*
X128292610Y-99461509D01*
X128292608Y-99461507D01*
X128189889Y-99402202D01*
X128189890Y-99402202D01*
X128176351Y-99398574D01*
X128075309Y-99371500D01*
X127956691Y-99371500D01*
X127886567Y-99390289D01*
X127842109Y-99402202D01*
X127739391Y-99461507D01*
X127739385Y-99461512D01*
X127705003Y-99495894D01*
X127650486Y-99523671D01*
X127590054Y-99514099D01*
X127564997Y-99495894D01*
X127530614Y-99461512D01*
X127530608Y-99461507D01*
X127427889Y-99402202D01*
X127427890Y-99402202D01*
X127414351Y-99398574D01*
X127313309Y-99371500D01*
X127194691Y-99371500D01*
X127124567Y-99390289D01*
X127080109Y-99402202D01*
X126977391Y-99461507D01*
X126977390Y-99461508D01*
X126977387Y-99461510D01*
X126977387Y-99461511D01*
X126929001Y-99509896D01*
X126874487Y-99537672D01*
X126814055Y-99528101D01*
X126788999Y-99509897D01*
X126740613Y-99461511D01*
X126740610Y-99461509D01*
X126740608Y-99461507D01*
X126637889Y-99402202D01*
X126637890Y-99402202D01*
X126624351Y-99398574D01*
X126523309Y-99371500D01*
X126404691Y-99371500D01*
X126334567Y-99390289D01*
X126290109Y-99402202D01*
X126187391Y-99461507D01*
X126103507Y-99545391D01*
X126044202Y-99648109D01*
X126044201Y-99648114D01*
X126013500Y-99762691D01*
X115736247Y-99762691D01*
X115721709Y-99731515D01*
X115638048Y-99647854D01*
X115624729Y-99641643D01*
X115579981Y-99599916D01*
X115568306Y-99539855D01*
X115594163Y-99484402D01*
X115624728Y-99462194D01*
X115638048Y-99455984D01*
X115721709Y-99372323D01*
X115771712Y-99265092D01*
X115778144Y-99216235D01*
X115778144Y-99148965D01*
X115797051Y-99090774D01*
X115799591Y-99087798D01*
X115799540Y-99087759D01*
X115803485Y-99082616D01*
X115803489Y-99082613D01*
X115812204Y-99067519D01*
X115862797Y-98979890D01*
X115862797Y-98979888D01*
X115862799Y-98979886D01*
X115893500Y-98865309D01*
X115893500Y-98746691D01*
X115862799Y-98632114D01*
X115862797Y-98632111D01*
X115862797Y-98632109D01*
X115803492Y-98529391D01*
X115803490Y-98529389D01*
X115803489Y-98529387D01*
X115719613Y-98445511D01*
X115719610Y-98445509D01*
X115719608Y-98445507D01*
X115616889Y-98386202D01*
X115616890Y-98386202D01*
X115560558Y-98371108D01*
X115502309Y-98355500D01*
X115383691Y-98355500D01*
X115325442Y-98371108D01*
X115269109Y-98386202D01*
X115166391Y-98445507D01*
X115082505Y-98529393D01*
X115078562Y-98534533D01*
X115076522Y-98532967D01*
X115039188Y-98566549D01*
X115011891Y-98574241D01*
X114984469Y-98577851D01*
X114984468Y-98577851D01*
X114877242Y-98627852D01*
X114793577Y-98711517D01*
X114743576Y-98818743D01*
X114743576Y-98818744D01*
X114737144Y-98867604D01*
X113584500Y-98867604D01*
X113584500Y-97405609D01*
X113603407Y-97347418D01*
X113613490Y-97335611D01*
X113644489Y-97304613D01*
X113703799Y-97201886D01*
X113734500Y-97087309D01*
X113734500Y-96968691D01*
X113703799Y-96854114D01*
X113644489Y-96751387D01*
X113611596Y-96718494D01*
X113609803Y-96716495D01*
X113606946Y-96710045D01*
X121895515Y-96710045D01*
X121895515Y-96828663D01*
X121902334Y-96854111D01*
X121926217Y-96943244D01*
X121985522Y-97045962D01*
X121985524Y-97045964D01*
X121985526Y-97045967D01*
X122069402Y-97129843D01*
X122069404Y-97129844D01*
X122069406Y-97129846D01*
X122172125Y-97189151D01*
X122172126Y-97189151D01*
X122172129Y-97189153D01*
X122286706Y-97219854D01*
X122286708Y-97219854D01*
X122405322Y-97219854D01*
X122405324Y-97219854D01*
X122519901Y-97189153D01*
X122519903Y-97189151D01*
X122519905Y-97189151D01*
X122622623Y-97129846D01*
X122622623Y-97129845D01*
X122622628Y-97129843D01*
X122695682Y-97056788D01*
X122750196Y-97029012D01*
X122810628Y-97038583D01*
X122835684Y-97056786D01*
X122913387Y-97134489D01*
X122913389Y-97134490D01*
X122913391Y-97134492D01*
X123016110Y-97193797D01*
X123016111Y-97193797D01*
X123016114Y-97193799D01*
X123130691Y-97224500D01*
X123130693Y-97224500D01*
X123249307Y-97224500D01*
X123249309Y-97224500D01*
X123363886Y-97193799D01*
X123363888Y-97193797D01*
X123363890Y-97193797D01*
X123466608Y-97134492D01*
X123466608Y-97134491D01*
X123466613Y-97134489D01*
X123541999Y-97059102D01*
X123596513Y-97031326D01*
X123656946Y-97040897D01*
X123682001Y-97059100D01*
X123757390Y-97134489D01*
X123757392Y-97134490D01*
X123757394Y-97134492D01*
X123860113Y-97193797D01*
X123860114Y-97193797D01*
X123860117Y-97193799D01*
X123974694Y-97224500D01*
X123974696Y-97224500D01*
X124093310Y-97224500D01*
X124093312Y-97224500D01*
X124207889Y-97193799D01*
X124207891Y-97193797D01*
X124207893Y-97193797D01*
X124310611Y-97134492D01*
X124310611Y-97134491D01*
X124310616Y-97134489D01*
X124394492Y-97050613D01*
X124394495Y-97050608D01*
X124453800Y-96947890D01*
X124453800Y-96947888D01*
X124453802Y-96947886D01*
X124484503Y-96833309D01*
X124484503Y-96714691D01*
X124453802Y-96600114D01*
X124453800Y-96600111D01*
X124453800Y-96600109D01*
X124394495Y-96497391D01*
X124394493Y-96497389D01*
X124394492Y-96497387D01*
X124310616Y-96413511D01*
X124310613Y-96413509D01*
X124310611Y-96413507D01*
X124207892Y-96354202D01*
X124207893Y-96354202D01*
X124190550Y-96349555D01*
X124093312Y-96323500D01*
X123974694Y-96323500D01*
X123904570Y-96342289D01*
X123860112Y-96354202D01*
X123757394Y-96413507D01*
X123757389Y-96413511D01*
X123682004Y-96488896D01*
X123627487Y-96516673D01*
X123567055Y-96507101D01*
X123542000Y-96488898D01*
X123466613Y-96413511D01*
X123466610Y-96413509D01*
X123466608Y-96413507D01*
X123363889Y-96354202D01*
X123363890Y-96354202D01*
X123346547Y-96349555D01*
X123249309Y-96323500D01*
X123130691Y-96323500D01*
X123060567Y-96342289D01*
X123016109Y-96354202D01*
X122913391Y-96413507D01*
X122913386Y-96413511D01*
X122840333Y-96486564D01*
X122785816Y-96514341D01*
X122725384Y-96504769D01*
X122700329Y-96486566D01*
X122622628Y-96408865D01*
X122622625Y-96408863D01*
X122622623Y-96408861D01*
X122519904Y-96349556D01*
X122519905Y-96349556D01*
X122506366Y-96345928D01*
X122405324Y-96318854D01*
X122286706Y-96318854D01*
X122216582Y-96337643D01*
X122172124Y-96349556D01*
X122069406Y-96408861D01*
X121985522Y-96492745D01*
X121926217Y-96595463D01*
X121911500Y-96650390D01*
X121895515Y-96710045D01*
X113606946Y-96710045D01*
X113598446Y-96690856D01*
X113585719Y-96665876D01*
X113585359Y-96661312D01*
X113585023Y-96660552D01*
X113585225Y-96659607D01*
X113584500Y-96650390D01*
X113584500Y-96643609D01*
X113596738Y-96605942D01*
X113597857Y-96600728D01*
X113598669Y-96599999D01*
X113603407Y-96585418D01*
X113613490Y-96573611D01*
X113644489Y-96542613D01*
X113664992Y-96507101D01*
X113703797Y-96439890D01*
X113703797Y-96439888D01*
X113703799Y-96439886D01*
X113734500Y-96325309D01*
X113734500Y-96206691D01*
X113703799Y-96092114D01*
X113703797Y-96092111D01*
X113703797Y-96092109D01*
X113644492Y-95989391D01*
X113644491Y-95989390D01*
X113644490Y-95989389D01*
X113644489Y-95989387D01*
X113613495Y-95958393D01*
X113609868Y-95951275D01*
X113603407Y-95946581D01*
X113596242Y-95924531D01*
X113585719Y-95903876D01*
X113584500Y-95888390D01*
X113584500Y-95881609D01*
X113603407Y-95823418D01*
X113613490Y-95811611D01*
X113644489Y-95780613D01*
X113670598Y-95735391D01*
X113703797Y-95677890D01*
X113703797Y-95677888D01*
X113703799Y-95677886D01*
X113734500Y-95563309D01*
X113734500Y-95444691D01*
X124771500Y-95444691D01*
X124771500Y-95563309D01*
X124785827Y-95616777D01*
X124802202Y-95677890D01*
X124861507Y-95780608D01*
X124861509Y-95780610D01*
X124861511Y-95780613D01*
X124945387Y-95864489D01*
X124945389Y-95864490D01*
X124945391Y-95864492D01*
X125048110Y-95923797D01*
X125048111Y-95923797D01*
X125048114Y-95923799D01*
X125162691Y-95954500D01*
X125180500Y-95954500D01*
X125238691Y-95973407D01*
X125274655Y-96022907D01*
X125279500Y-96053500D01*
X125279500Y-96071309D01*
X125285075Y-96092114D01*
X125310202Y-96185888D01*
X125331561Y-96222882D01*
X125344283Y-96282730D01*
X125319397Y-96338626D01*
X125295326Y-96358119D01*
X125199389Y-96413509D01*
X125115507Y-96497391D01*
X125056202Y-96600109D01*
X125040260Y-96659607D01*
X125025500Y-96714691D01*
X125025500Y-96833309D01*
X125031074Y-96854111D01*
X125056202Y-96947890D01*
X125115507Y-97050608D01*
X125115509Y-97050610D01*
X125115511Y-97050613D01*
X125174344Y-97109446D01*
X125192444Y-97136537D01*
X125192735Y-97136370D01*
X125195290Y-97140797D01*
X125195802Y-97141562D01*
X125195978Y-97141987D01*
X125195979Y-97141989D01*
X125230560Y-97201886D01*
X125235540Y-97210511D01*
X125434505Y-97409476D01*
X125462281Y-97463991D01*
X125463500Y-97479478D01*
X125463500Y-97708314D01*
X125469932Y-97757174D01*
X125469932Y-97757175D01*
X125519933Y-97864401D01*
X125519934Y-97864402D01*
X125519935Y-97864404D01*
X125603596Y-97948065D01*
X125603597Y-97948065D01*
X125603598Y-97948066D01*
X125616915Y-97954276D01*
X125661663Y-97996005D01*
X125673337Y-98056066D01*
X125647478Y-98111518D01*
X125616915Y-98133724D01*
X125603598Y-98139933D01*
X125519933Y-98223598D01*
X125469932Y-98330824D01*
X125469932Y-98330825D01*
X125463500Y-98379685D01*
X125463500Y-98728314D01*
X125469932Y-98777174D01*
X125469932Y-98777175D01*
X125519933Y-98884401D01*
X125519934Y-98884402D01*
X125519935Y-98884404D01*
X125603596Y-98968065D01*
X125603597Y-98968065D01*
X125603598Y-98968066D01*
X125710824Y-99018067D01*
X125710825Y-99018067D01*
X125710827Y-99018068D01*
X125759684Y-99024500D01*
X125759685Y-99024500D01*
X126208314Y-99024500D01*
X126208316Y-99024500D01*
X126257173Y-99018068D01*
X126274093Y-99010177D01*
X126291305Y-99005166D01*
X126291041Y-99004179D01*
X126297307Y-99002500D01*
X126297309Y-99002500D01*
X126411886Y-98971799D01*
X126411888Y-98971797D01*
X126411890Y-98971797D01*
X126514608Y-98912492D01*
X126514608Y-98912491D01*
X126514613Y-98912489D01*
X126598489Y-98828613D01*
X126604187Y-98818744D01*
X126657797Y-98725890D01*
X126657797Y-98725888D01*
X126657799Y-98725886D01*
X126688500Y-98611309D01*
X126688500Y-98492691D01*
X126657799Y-98378114D01*
X126657797Y-98378111D01*
X126657797Y-98378109D01*
X126598492Y-98275391D01*
X126598490Y-98275389D01*
X126598489Y-98275387D01*
X126514613Y-98191511D01*
X126514610Y-98191509D01*
X126514608Y-98191507D01*
X126411889Y-98132202D01*
X126411886Y-98132201D01*
X126392422Y-98126985D01*
X126341108Y-98093660D01*
X126319183Y-98036538D01*
X126335020Y-97977438D01*
X126361270Y-97950258D01*
X126364395Y-97948068D01*
X126364404Y-97948065D01*
X126448065Y-97864404D01*
X126498068Y-97757173D01*
X126504500Y-97708316D01*
X126504500Y-97359684D01*
X126498068Y-97310827D01*
X126495170Y-97304613D01*
X126448066Y-97203598D01*
X126448065Y-97203597D01*
X126448065Y-97203596D01*
X126364404Y-97119935D01*
X126364402Y-97119934D01*
X126364401Y-97119933D01*
X126257175Y-97069932D01*
X126224601Y-97065644D01*
X126208316Y-97063500D01*
X126208315Y-97063500D01*
X125993839Y-97063500D01*
X125935648Y-97044593D01*
X125899684Y-96995093D01*
X125898212Y-96938880D01*
X125926500Y-96833309D01*
X125926500Y-96714691D01*
X125895799Y-96600114D01*
X125874437Y-96563114D01*
X125861716Y-96503270D01*
X125886601Y-96447373D01*
X125910670Y-96427882D01*
X126006613Y-96372489D01*
X126090489Y-96288613D01*
X126149799Y-96185886D01*
X126180500Y-96071309D01*
X126180500Y-95952691D01*
X126149799Y-95838114D01*
X126149797Y-95838111D01*
X126149797Y-95838109D01*
X126090492Y-95735391D01*
X126090490Y-95735389D01*
X126090489Y-95735387D01*
X126006613Y-95651511D01*
X126006610Y-95651509D01*
X126006608Y-95651507D01*
X125903889Y-95592202D01*
X125903890Y-95592202D01*
X125890351Y-95588574D01*
X125789309Y-95561500D01*
X125789307Y-95561500D01*
X125771500Y-95561500D01*
X125713309Y-95542593D01*
X125677345Y-95493093D01*
X125672500Y-95462500D01*
X125672500Y-95444692D01*
X125671924Y-95442541D01*
X125641799Y-95330114D01*
X125641797Y-95330111D01*
X125641797Y-95330109D01*
X125582492Y-95227391D01*
X125582490Y-95227389D01*
X125582489Y-95227387D01*
X125498613Y-95143511D01*
X125498610Y-95143509D01*
X125498608Y-95143507D01*
X125395889Y-95084202D01*
X125395890Y-95084202D01*
X125372949Y-95078055D01*
X125281309Y-95053500D01*
X125162691Y-95053500D01*
X125092567Y-95072289D01*
X125048109Y-95084202D01*
X124945391Y-95143507D01*
X124861507Y-95227391D01*
X124802202Y-95330109D01*
X124802201Y-95330114D01*
X124771500Y-95444691D01*
X113734500Y-95444691D01*
X113703799Y-95330114D01*
X113703797Y-95330111D01*
X113703797Y-95330109D01*
X113644492Y-95227391D01*
X113644491Y-95227390D01*
X113644490Y-95227389D01*
X113644489Y-95227387D01*
X113613495Y-95196393D01*
X113585719Y-95141876D01*
X113584500Y-95126390D01*
X113584500Y-94682691D01*
X127057500Y-94682691D01*
X127057500Y-94801309D01*
X127083012Y-94896520D01*
X127088202Y-94915890D01*
X127147507Y-95018608D01*
X127147512Y-95018614D01*
X127181894Y-95052997D01*
X127209671Y-95107514D01*
X127200099Y-95167946D01*
X127181894Y-95193003D01*
X127147512Y-95227385D01*
X127147507Y-95227391D01*
X127088202Y-95330109D01*
X127088201Y-95330114D01*
X127057500Y-95444691D01*
X127057500Y-95563309D01*
X127071827Y-95616777D01*
X127088202Y-95677890D01*
X127147507Y-95780608D01*
X127147509Y-95780610D01*
X127147511Y-95780613D01*
X127231387Y-95864489D01*
X127231389Y-95864490D01*
X127231391Y-95864492D01*
X127334110Y-95923797D01*
X127334111Y-95923797D01*
X127334114Y-95923799D01*
X127448691Y-95954500D01*
X127448693Y-95954500D01*
X127567307Y-95954500D01*
X127567309Y-95954500D01*
X127681886Y-95923799D01*
X127681888Y-95923797D01*
X127681890Y-95923797D01*
X127784608Y-95864492D01*
X127784608Y-95864491D01*
X127784613Y-95864489D01*
X127818998Y-95830103D01*
X127873513Y-95802328D01*
X127933945Y-95811899D01*
X127959000Y-95830102D01*
X127993387Y-95864489D01*
X127993389Y-95864490D01*
X127993391Y-95864492D01*
X128096110Y-95923797D01*
X128096111Y-95923797D01*
X128096114Y-95923799D01*
X128210691Y-95954500D01*
X128210693Y-95954500D01*
X128329307Y-95954500D01*
X128329309Y-95954500D01*
X128443886Y-95923799D01*
X128443888Y-95923797D01*
X128443890Y-95923797D01*
X128546608Y-95864492D01*
X128546608Y-95864491D01*
X128546613Y-95864489D01*
X128580998Y-95830103D01*
X128635513Y-95802328D01*
X128695945Y-95811899D01*
X128721000Y-95830102D01*
X128755387Y-95864489D01*
X128755389Y-95864490D01*
X128755391Y-95864492D01*
X128858110Y-95923797D01*
X128858111Y-95923797D01*
X128858114Y-95923799D01*
X128972691Y-95954500D01*
X128972693Y-95954500D01*
X129091307Y-95954500D01*
X129091309Y-95954500D01*
X129205886Y-95923799D01*
X129205888Y-95923797D01*
X129205890Y-95923797D01*
X129308608Y-95864492D01*
X129308608Y-95864491D01*
X129308613Y-95864489D01*
X129342998Y-95830103D01*
X129397513Y-95802328D01*
X129457945Y-95811899D01*
X129483000Y-95830102D01*
X129517387Y-95864489D01*
X129517389Y-95864490D01*
X129517391Y-95864492D01*
X129620110Y-95923797D01*
X129620111Y-95923797D01*
X129620114Y-95923799D01*
X129734691Y-95954500D01*
X129734693Y-95954500D01*
X129853307Y-95954500D01*
X129853309Y-95954500D01*
X129967886Y-95923799D01*
X129967888Y-95923797D01*
X129967890Y-95923797D01*
X130070608Y-95864492D01*
X130070608Y-95864491D01*
X130070613Y-95864489D01*
X130104998Y-95830103D01*
X130159513Y-95802328D01*
X130219945Y-95811899D01*
X130245000Y-95830102D01*
X130279387Y-95864489D01*
X130279389Y-95864490D01*
X130279391Y-95864492D01*
X130382110Y-95923797D01*
X130382111Y-95923797D01*
X130382114Y-95923799D01*
X130496691Y-95954500D01*
X130496693Y-95954500D01*
X130615307Y-95954500D01*
X130615309Y-95954500D01*
X130729886Y-95923799D01*
X130729888Y-95923797D01*
X130729890Y-95923797D01*
X130832608Y-95864492D01*
X130832608Y-95864491D01*
X130832613Y-95864489D01*
X130916489Y-95780613D01*
X130942598Y-95735391D01*
X130975797Y-95677890D01*
X130975797Y-95677888D01*
X130975799Y-95677886D01*
X131006500Y-95563309D01*
X131006500Y-95444691D01*
X130975799Y-95330114D01*
X130975797Y-95330111D01*
X130975797Y-95330109D01*
X130916492Y-95227391D01*
X130916490Y-95227389D01*
X130916489Y-95227387D01*
X130882103Y-95193001D01*
X130854328Y-95138487D01*
X130863899Y-95078055D01*
X130882102Y-95052999D01*
X130916489Y-95018613D01*
X130969380Y-94927004D01*
X141539500Y-94927004D01*
X141539500Y-95064995D01*
X141566420Y-95200327D01*
X141566420Y-95200329D01*
X141619222Y-95327806D01*
X141619228Y-95327817D01*
X141695885Y-95442541D01*
X141793458Y-95540114D01*
X141908182Y-95616771D01*
X141908193Y-95616777D01*
X141955283Y-95636282D01*
X142035672Y-95669580D01*
X142171007Y-95696500D01*
X142171008Y-95696500D01*
X142308992Y-95696500D01*
X142308993Y-95696500D01*
X142444328Y-95669580D01*
X142571811Y-95616775D01*
X142686542Y-95540114D01*
X142784114Y-95442542D01*
X142860775Y-95327811D01*
X142913580Y-95200328D01*
X142940500Y-95064993D01*
X142940500Y-94927007D01*
X142913580Y-94791672D01*
X142860775Y-94664189D01*
X142860774Y-94664187D01*
X142860771Y-94664182D01*
X142784114Y-94549458D01*
X142686545Y-94451889D01*
X142686542Y-94451886D01*
X142584498Y-94383702D01*
X142546619Y-94335652D01*
X142540500Y-94301387D01*
X142540500Y-91817609D01*
X142559407Y-91759418D01*
X142569490Y-91747611D01*
X142600489Y-91716613D01*
X142659799Y-91613886D01*
X142690500Y-91499309D01*
X142690500Y-91380691D01*
X142659799Y-91266114D01*
X142659797Y-91266111D01*
X142659797Y-91266109D01*
X142600492Y-91163391D01*
X142600490Y-91163389D01*
X142600489Y-91163387D01*
X142516613Y-91079511D01*
X142516610Y-91079509D01*
X142516608Y-91079507D01*
X142413889Y-91020202D01*
X142413890Y-91020202D01*
X142400351Y-91016574D01*
X142299309Y-90989500D01*
X142180691Y-90989500D01*
X142110567Y-91008289D01*
X142066109Y-91020202D01*
X141963391Y-91079507D01*
X141879507Y-91163391D01*
X141820202Y-91266109D01*
X141820201Y-91266114D01*
X141789500Y-91380691D01*
X141789500Y-91499309D01*
X141816574Y-91600351D01*
X141820202Y-91613890D01*
X141879507Y-91716608D01*
X141879509Y-91716610D01*
X141879511Y-91716613D01*
X141910505Y-91747607D01*
X141938281Y-91802122D01*
X141939500Y-91817609D01*
X141939500Y-94301387D01*
X141920593Y-94359578D01*
X141895502Y-94383702D01*
X141793458Y-94451886D01*
X141793454Y-94451889D01*
X141695885Y-94549458D01*
X141619228Y-94664182D01*
X141619222Y-94664193D01*
X141566420Y-94791670D01*
X141566420Y-94791672D01*
X141539500Y-94927004D01*
X130969380Y-94927004D01*
X130975799Y-94915886D01*
X131006500Y-94801309D01*
X131006500Y-94682691D01*
X130975799Y-94568114D01*
X130975797Y-94568111D01*
X130975797Y-94568109D01*
X130916492Y-94465391D01*
X130916490Y-94465389D01*
X130916489Y-94465387D01*
X130832613Y-94381511D01*
X130832610Y-94381509D01*
X130832608Y-94381507D01*
X130729889Y-94322202D01*
X130729890Y-94322202D01*
X130716351Y-94318574D01*
X130615309Y-94291500D01*
X130496691Y-94291500D01*
X130426567Y-94310289D01*
X130382109Y-94322202D01*
X130279391Y-94381507D01*
X130279385Y-94381512D01*
X130245003Y-94415894D01*
X130190486Y-94443671D01*
X130130054Y-94434099D01*
X130104997Y-94415894D01*
X130070614Y-94381512D01*
X130070608Y-94381507D01*
X129967889Y-94322202D01*
X129967890Y-94322202D01*
X129954351Y-94318574D01*
X129853309Y-94291500D01*
X129734691Y-94291500D01*
X129664567Y-94310289D01*
X129620109Y-94322202D01*
X129517391Y-94381507D01*
X129517385Y-94381512D01*
X129483003Y-94415894D01*
X129428486Y-94443671D01*
X129368054Y-94434099D01*
X129342997Y-94415894D01*
X129308614Y-94381512D01*
X129308608Y-94381507D01*
X129205889Y-94322202D01*
X129205890Y-94322202D01*
X129192351Y-94318574D01*
X129091309Y-94291500D01*
X128972691Y-94291500D01*
X128902567Y-94310289D01*
X128858109Y-94322202D01*
X128755391Y-94381507D01*
X128755385Y-94381512D01*
X128721003Y-94415894D01*
X128666486Y-94443671D01*
X128606054Y-94434099D01*
X128580997Y-94415894D01*
X128546614Y-94381512D01*
X128546608Y-94381507D01*
X128443889Y-94322202D01*
X128443890Y-94322202D01*
X128430351Y-94318574D01*
X128329309Y-94291500D01*
X128210691Y-94291500D01*
X128140567Y-94310289D01*
X128096109Y-94322202D01*
X127993391Y-94381507D01*
X127993385Y-94381512D01*
X127959003Y-94415894D01*
X127904486Y-94443671D01*
X127844054Y-94434099D01*
X127818997Y-94415894D01*
X127784614Y-94381512D01*
X127784608Y-94381507D01*
X127681889Y-94322202D01*
X127681890Y-94322202D01*
X127668351Y-94318574D01*
X127567309Y-94291500D01*
X127448691Y-94291500D01*
X127378567Y-94310289D01*
X127334109Y-94322202D01*
X127231391Y-94381507D01*
X127147507Y-94465391D01*
X127088202Y-94568109D01*
X127088201Y-94568114D01*
X127057500Y-94682691D01*
X113584500Y-94682691D01*
X113584500Y-93637479D01*
X113603407Y-93579288D01*
X113613496Y-93567475D01*
X114530280Y-92650691D01*
X127057500Y-92650691D01*
X127057500Y-92769309D01*
X127084574Y-92870351D01*
X127088202Y-92883890D01*
X127147507Y-92986608D01*
X127147509Y-92986610D01*
X127147511Y-92986613D01*
X127231387Y-93070489D01*
X127231389Y-93070490D01*
X127231391Y-93070492D01*
X127334110Y-93129797D01*
X127334111Y-93129797D01*
X127334114Y-93129799D01*
X127448691Y-93160500D01*
X127448693Y-93160500D01*
X127567307Y-93160500D01*
X127567309Y-93160500D01*
X127681886Y-93129799D01*
X127681888Y-93129797D01*
X127681890Y-93129797D01*
X127784608Y-93070492D01*
X127784608Y-93070491D01*
X127784613Y-93070489D01*
X127868489Y-92986613D01*
X127927799Y-92883886D01*
X127958500Y-92769309D01*
X127958500Y-92650691D01*
X127927799Y-92536114D01*
X127927797Y-92536111D01*
X127927797Y-92536109D01*
X127868492Y-92433391D01*
X127868490Y-92433389D01*
X127868489Y-92433387D01*
X127784613Y-92349511D01*
X127784610Y-92349509D01*
X127784608Y-92349507D01*
X127681889Y-92290202D01*
X127681890Y-92290202D01*
X127668351Y-92286574D01*
X127567309Y-92259500D01*
X127448691Y-92259500D01*
X127378567Y-92278289D01*
X127334109Y-92290202D01*
X127231391Y-92349507D01*
X127147507Y-92433391D01*
X127088202Y-92536109D01*
X127088201Y-92536114D01*
X127057500Y-92650691D01*
X114530280Y-92650691D01*
X117039475Y-90141496D01*
X117093992Y-90113719D01*
X117109479Y-90112500D01*
X117153307Y-90112500D01*
X117153309Y-90112500D01*
X117267886Y-90081799D01*
X117267888Y-90081797D01*
X117267890Y-90081797D01*
X117370608Y-90022492D01*
X117370608Y-90022491D01*
X117370613Y-90022489D01*
X117454489Y-89938613D01*
X117513799Y-89835886D01*
X117544500Y-89721309D01*
X117544500Y-89677479D01*
X117546968Y-89669881D01*
X117545719Y-89661992D01*
X117556243Y-89641336D01*
X117563407Y-89619288D01*
X117573496Y-89607475D01*
X117697475Y-89483496D01*
X117751992Y-89455719D01*
X117767479Y-89454500D01*
X125352390Y-89454500D01*
X125410581Y-89473407D01*
X125422393Y-89483495D01*
X125453387Y-89514489D01*
X125453389Y-89514490D01*
X125453390Y-89514491D01*
X125453391Y-89514492D01*
X125556110Y-89573797D01*
X125556111Y-89573797D01*
X125556114Y-89573799D01*
X125670691Y-89604500D01*
X125670693Y-89604500D01*
X125789307Y-89604500D01*
X125789309Y-89604500D01*
X125903886Y-89573799D01*
X125903888Y-89573797D01*
X125903890Y-89573797D01*
X126006608Y-89514492D01*
X126006608Y-89514491D01*
X126006613Y-89514489D01*
X126037607Y-89483495D01*
X126092124Y-89455719D01*
X126107610Y-89454500D01*
X136528390Y-89454500D01*
X136586581Y-89473407D01*
X136598393Y-89483495D01*
X136629387Y-89514489D01*
X136629389Y-89514490D01*
X136629390Y-89514491D01*
X136629391Y-89514492D01*
X136732110Y-89573797D01*
X136732111Y-89573797D01*
X136732114Y-89573799D01*
X136846691Y-89604500D01*
X136846693Y-89604500D01*
X136965307Y-89604500D01*
X136965309Y-89604500D01*
X137079886Y-89573799D01*
X137079888Y-89573797D01*
X137079890Y-89573797D01*
X137182608Y-89514492D01*
X137182608Y-89514491D01*
X137182613Y-89514489D01*
X137266489Y-89430613D01*
X137325799Y-89327886D01*
X137356500Y-89213309D01*
X137356500Y-89094691D01*
X137325799Y-88980114D01*
X137325797Y-88980111D01*
X137325797Y-88980109D01*
X137266492Y-88877391D01*
X137266490Y-88877389D01*
X137266489Y-88877387D01*
X137182613Y-88793511D01*
X137182610Y-88793509D01*
X137182608Y-88793507D01*
X137079889Y-88734202D01*
X137079890Y-88734202D01*
X137066351Y-88730574D01*
X136965309Y-88703500D01*
X136846691Y-88703500D01*
X136776567Y-88722289D01*
X136732109Y-88734202D01*
X136629391Y-88793507D01*
X136598393Y-88824505D01*
X136543876Y-88852281D01*
X136528390Y-88853500D01*
X136282609Y-88853500D01*
X136224418Y-88834593D01*
X136188454Y-88785093D01*
X136188454Y-88723907D01*
X136212603Y-88684498D01*
X136228489Y-88668613D01*
X136280291Y-88578890D01*
X136287797Y-88565890D01*
X136287797Y-88565888D01*
X136287799Y-88565886D01*
X136318500Y-88451309D01*
X136318500Y-88345691D01*
X141453497Y-88345691D01*
X141453497Y-88464309D01*
X141480571Y-88565351D01*
X141484199Y-88578890D01*
X141543504Y-88681608D01*
X141543506Y-88681610D01*
X141543508Y-88681613D01*
X141627384Y-88765489D01*
X141627386Y-88765490D01*
X141627388Y-88765492D01*
X141730107Y-88824797D01*
X141730108Y-88824797D01*
X141730111Y-88824799D01*
X141844688Y-88855500D01*
X141844690Y-88855500D01*
X141963304Y-88855500D01*
X141963306Y-88855500D01*
X142077883Y-88824799D01*
X142149497Y-88783451D01*
X142209345Y-88770730D01*
X142248498Y-88783452D01*
X142320110Y-88824797D01*
X142320111Y-88824797D01*
X142320114Y-88824799D01*
X142434691Y-88855500D01*
X142434693Y-88855500D01*
X142553307Y-88855500D01*
X142553309Y-88855500D01*
X142667886Y-88824799D01*
X142739500Y-88783451D01*
X142799348Y-88770730D01*
X142838501Y-88783452D01*
X142910113Y-88824797D01*
X142910114Y-88824797D01*
X142910117Y-88824799D01*
X143024694Y-88855500D01*
X143024696Y-88855500D01*
X143143310Y-88855500D01*
X143143312Y-88855500D01*
X143257889Y-88824799D01*
X143333499Y-88781144D01*
X143393348Y-88768423D01*
X143432500Y-88781144D01*
X143508111Y-88824799D01*
X143622688Y-88855500D01*
X143622690Y-88855500D01*
X143741304Y-88855500D01*
X143741306Y-88855500D01*
X143855883Y-88824799D01*
X143927497Y-88783451D01*
X143987345Y-88770730D01*
X144026498Y-88783452D01*
X144098110Y-88824797D01*
X144098111Y-88824797D01*
X144098114Y-88824799D01*
X144212691Y-88855500D01*
X144212693Y-88855500D01*
X144331307Y-88855500D01*
X144331309Y-88855500D01*
X144445886Y-88824799D01*
X144517500Y-88783451D01*
X144577348Y-88770730D01*
X144616501Y-88783452D01*
X144688113Y-88824797D01*
X144688114Y-88824797D01*
X144688117Y-88824799D01*
X144802694Y-88855500D01*
X144802696Y-88855500D01*
X144921310Y-88855500D01*
X144921312Y-88855500D01*
X145035889Y-88824799D01*
X145035891Y-88824797D01*
X145035893Y-88824797D01*
X145138611Y-88765492D01*
X145138611Y-88765491D01*
X145138616Y-88765489D01*
X145222492Y-88681613D01*
X145230001Y-88668608D01*
X145281800Y-88578890D01*
X145281800Y-88578888D01*
X145281802Y-88578886D01*
X145312503Y-88464309D01*
X145312503Y-88345691D01*
X145281802Y-88231114D01*
X145281800Y-88231111D01*
X145281800Y-88231109D01*
X145222495Y-88128391D01*
X145222493Y-88128389D01*
X145222492Y-88128387D01*
X145138616Y-88044511D01*
X145138613Y-88044509D01*
X145138611Y-88044507D01*
X145035892Y-87985202D01*
X145035893Y-87985202D01*
X144987376Y-87972202D01*
X144921312Y-87954500D01*
X144802694Y-87954500D01*
X144743344Y-87970403D01*
X144688112Y-87985202D01*
X144616501Y-88026548D01*
X144556653Y-88039270D01*
X144517500Y-88026548D01*
X144445888Y-87985202D01*
X144445887Y-87985201D01*
X144445886Y-87985201D01*
X144331309Y-87954500D01*
X144212691Y-87954500D01*
X144153341Y-87970403D01*
X144098109Y-87985202D01*
X144026498Y-88026548D01*
X143966650Y-88039270D01*
X143927497Y-88026548D01*
X143855885Y-87985202D01*
X143855884Y-87985201D01*
X143855883Y-87985201D01*
X143741306Y-87954500D01*
X143622688Y-87954500D01*
X143565399Y-87969850D01*
X143508109Y-87985201D01*
X143432500Y-88028855D01*
X143372652Y-88041576D01*
X143333500Y-88028855D01*
X143257890Y-87985201D01*
X143209376Y-87972202D01*
X143143312Y-87954500D01*
X143024694Y-87954500D01*
X142965344Y-87970403D01*
X142910112Y-87985202D01*
X142838501Y-88026548D01*
X142778653Y-88039270D01*
X142739500Y-88026548D01*
X142667888Y-87985202D01*
X142667887Y-87985201D01*
X142667886Y-87985201D01*
X142553309Y-87954500D01*
X142434691Y-87954500D01*
X142375341Y-87970403D01*
X142320109Y-87985202D01*
X142248498Y-88026548D01*
X142188650Y-88039270D01*
X142149497Y-88026548D01*
X142077885Y-87985202D01*
X142077884Y-87985201D01*
X142077883Y-87985201D01*
X141963306Y-87954500D01*
X141844688Y-87954500D01*
X141785338Y-87970403D01*
X141730106Y-87985202D01*
X141627388Y-88044507D01*
X141543504Y-88128391D01*
X141484199Y-88231109D01*
X141484198Y-88231114D01*
X141453497Y-88345691D01*
X136318500Y-88345691D01*
X136318500Y-88332691D01*
X136287799Y-88218114D01*
X136287797Y-88218111D01*
X136287797Y-88218109D01*
X136228492Y-88115391D01*
X136228490Y-88115389D01*
X136228489Y-88115387D01*
X136144613Y-88031511D01*
X136144610Y-88031509D01*
X136144608Y-88031507D01*
X136041889Y-87972202D01*
X136041890Y-87972202D01*
X136001255Y-87961314D01*
X135927309Y-87941500D01*
X135808691Y-87941500D01*
X135760175Y-87954500D01*
X135694109Y-87972202D01*
X135591391Y-88031507D01*
X135560393Y-88062505D01*
X135505876Y-88090281D01*
X135490390Y-88091500D01*
X128393610Y-88091500D01*
X128335419Y-88072593D01*
X128323607Y-88062505D01*
X128292613Y-88031511D01*
X128292610Y-88031509D01*
X128292609Y-88031508D01*
X128292608Y-88031507D01*
X128189889Y-87972202D01*
X128189890Y-87972202D01*
X128149255Y-87961314D01*
X128075309Y-87941500D01*
X127956691Y-87941500D01*
X127908175Y-87954500D01*
X127842109Y-87972202D01*
X127739391Y-88031507D01*
X127708393Y-88062505D01*
X127653876Y-88090281D01*
X127638390Y-88091500D01*
X117562435Y-88091500D01*
X117486011Y-88111978D01*
X117438363Y-88139488D01*
X117438355Y-88139492D01*
X117435373Y-88141215D01*
X117417489Y-88151540D01*
X117411264Y-88157764D01*
X117403355Y-88163099D01*
X117382659Y-88169031D01*
X117363475Y-88178804D01*
X117353877Y-88177282D01*
X117344539Y-88179960D01*
X117324310Y-88172595D01*
X117303044Y-88169225D01*
X117290988Y-88160465D01*
X117287045Y-88159030D01*
X117285153Y-88156225D01*
X117277996Y-88151025D01*
X114883496Y-85756525D01*
X114855719Y-85702008D01*
X114854500Y-85686521D01*
X114854500Y-84522691D01*
X121723500Y-84522691D01*
X121723500Y-84641309D01*
X121731242Y-84670201D01*
X121754202Y-84755890D01*
X121813507Y-84858608D01*
X121813509Y-84858610D01*
X121813511Y-84858613D01*
X121897387Y-84942489D01*
X121897389Y-84942490D01*
X121897391Y-84942492D01*
X122000110Y-85001797D01*
X122000111Y-85001797D01*
X122000114Y-85001799D01*
X122114691Y-85032500D01*
X122132500Y-85032500D01*
X122190691Y-85051407D01*
X122226655Y-85100907D01*
X122231500Y-85131500D01*
X122231500Y-85149309D01*
X122258574Y-85250351D01*
X122262202Y-85263890D01*
X122321507Y-85366608D01*
X122321509Y-85366610D01*
X122321511Y-85366613D01*
X122405387Y-85450489D01*
X122405389Y-85450490D01*
X122405391Y-85450492D01*
X122508110Y-85509797D01*
X122508111Y-85509797D01*
X122508114Y-85509799D01*
X122622691Y-85540500D01*
X122622693Y-85540500D01*
X122741307Y-85540500D01*
X122741309Y-85540500D01*
X122855886Y-85509799D01*
X122855888Y-85509797D01*
X122855890Y-85509797D01*
X122958608Y-85450492D01*
X122958608Y-85450491D01*
X122958613Y-85450489D01*
X123042489Y-85366613D01*
X123101799Y-85263886D01*
X123132500Y-85149309D01*
X123132500Y-85030691D01*
X123101799Y-84916114D01*
X123101797Y-84916111D01*
X123101797Y-84916109D01*
X123042492Y-84813391D01*
X123042490Y-84813389D01*
X123042489Y-84813387D01*
X122958613Y-84729511D01*
X122958610Y-84729509D01*
X122958608Y-84729507D01*
X122855889Y-84670202D01*
X122855890Y-84670202D01*
X122842351Y-84666574D01*
X122741309Y-84639500D01*
X122741307Y-84639500D01*
X122723500Y-84639500D01*
X122708588Y-84634655D01*
X122692907Y-84634655D01*
X122680221Y-84625438D01*
X122665309Y-84620593D01*
X122656092Y-84607907D01*
X122643407Y-84598691D01*
X122638561Y-84583778D01*
X122629345Y-84571093D01*
X122624500Y-84540500D01*
X122624500Y-84522692D01*
X122624500Y-84522691D01*
X127819500Y-84522691D01*
X127819500Y-84641309D01*
X127827242Y-84670201D01*
X127850202Y-84755890D01*
X127909507Y-84858608D01*
X127909509Y-84858610D01*
X127909511Y-84858613D01*
X127993387Y-84942489D01*
X127993389Y-84942490D01*
X127993391Y-84942492D01*
X128096110Y-85001797D01*
X128096111Y-85001797D01*
X128096114Y-85001799D01*
X128210691Y-85032500D01*
X128228500Y-85032500D01*
X128286691Y-85051407D01*
X128322655Y-85100907D01*
X128327500Y-85131500D01*
X128327500Y-85149309D01*
X128354574Y-85250351D01*
X128358202Y-85263890D01*
X128417507Y-85366608D01*
X128417509Y-85366610D01*
X128417511Y-85366613D01*
X128501387Y-85450489D01*
X128501389Y-85450490D01*
X128501391Y-85450492D01*
X128604110Y-85509797D01*
X128604111Y-85509797D01*
X128604114Y-85509799D01*
X128718691Y-85540500D01*
X128718693Y-85540500D01*
X128837307Y-85540500D01*
X128837309Y-85540500D01*
X128951886Y-85509799D01*
X128951888Y-85509797D01*
X128951890Y-85509797D01*
X129054608Y-85450492D01*
X129054608Y-85450491D01*
X129054613Y-85450489D01*
X129138489Y-85366613D01*
X129197799Y-85263886D01*
X129228500Y-85149309D01*
X129228500Y-85030691D01*
X129197799Y-84916114D01*
X129197797Y-84916111D01*
X129197797Y-84916109D01*
X129138492Y-84813391D01*
X129138490Y-84813389D01*
X129138489Y-84813387D01*
X129054613Y-84729511D01*
X129054610Y-84729509D01*
X129054608Y-84729507D01*
X128951889Y-84670202D01*
X128951890Y-84670202D01*
X128938351Y-84666574D01*
X128837309Y-84639500D01*
X128837307Y-84639500D01*
X128819500Y-84639500D01*
X128761309Y-84620593D01*
X128725345Y-84571093D01*
X128720500Y-84540500D01*
X128720500Y-84522692D01*
X128720500Y-84522691D01*
X128689799Y-84408114D01*
X128689797Y-84408111D01*
X128689797Y-84408109D01*
X128630492Y-84305391D01*
X128630490Y-84305389D01*
X128630489Y-84305387D01*
X128546613Y-84221511D01*
X128546610Y-84221509D01*
X128546608Y-84221507D01*
X128443889Y-84162202D01*
X128443890Y-84162202D01*
X128430351Y-84158574D01*
X128329309Y-84131500D01*
X128210691Y-84131500D01*
X128140567Y-84150289D01*
X128096109Y-84162202D01*
X127993391Y-84221507D01*
X127909507Y-84305391D01*
X127850202Y-84408109D01*
X127850201Y-84408114D01*
X127819500Y-84522691D01*
X122624500Y-84522691D01*
X122593799Y-84408114D01*
X122593797Y-84408111D01*
X122593797Y-84408109D01*
X122534492Y-84305391D01*
X122534490Y-84305389D01*
X122534489Y-84305387D01*
X122450613Y-84221511D01*
X122450610Y-84221509D01*
X122450608Y-84221507D01*
X122347889Y-84162202D01*
X122347890Y-84162202D01*
X122334351Y-84158574D01*
X122233309Y-84131500D01*
X122114691Y-84131500D01*
X122044567Y-84150289D01*
X122000109Y-84162202D01*
X121897391Y-84221507D01*
X121813507Y-84305391D01*
X121754202Y-84408109D01*
X121754201Y-84408114D01*
X121723500Y-84522691D01*
X114854500Y-84522691D01*
X114854500Y-82927609D01*
X114873407Y-82869418D01*
X114883490Y-82857611D01*
X114914489Y-82826613D01*
X114973799Y-82723886D01*
X115004500Y-82609309D01*
X115004500Y-82490691D01*
X114973799Y-82376114D01*
X114973797Y-82376111D01*
X114973797Y-82376109D01*
X114914492Y-82273391D01*
X114914490Y-82273389D01*
X114914489Y-82273387D01*
X114830613Y-82189511D01*
X114830610Y-82189509D01*
X114830608Y-82189507D01*
X114727889Y-82130202D01*
X114727890Y-82130202D01*
X114697686Y-82122109D01*
X114613309Y-82099500D01*
X114494691Y-82099500D01*
X114424567Y-82118289D01*
X114380109Y-82130202D01*
X114277391Y-82189507D01*
X114193507Y-82273391D01*
X114131736Y-82380382D01*
X114086267Y-82421323D01*
X114025416Y-82427719D01*
X113972428Y-82397126D01*
X113960264Y-82380382D01*
X113898492Y-82273391D01*
X113898490Y-82273389D01*
X113898489Y-82273387D01*
X113814613Y-82189511D01*
X113814610Y-82189509D01*
X113814608Y-82189507D01*
X113711889Y-82130202D01*
X113711890Y-82130202D01*
X113681686Y-82122109D01*
X113597309Y-82099500D01*
X113478691Y-82099500D01*
X113408567Y-82118289D01*
X113364109Y-82130202D01*
X113261391Y-82189507D01*
X113177509Y-82273389D01*
X113157236Y-82308503D01*
X113111766Y-82349443D01*
X113050916Y-82355838D01*
X112997928Y-82325245D01*
X112973042Y-82269349D01*
X112972500Y-82259002D01*
X112972500Y-82236692D01*
X112959857Y-82189507D01*
X112941799Y-82122114D01*
X112941797Y-82122111D01*
X112941797Y-82122109D01*
X112882492Y-82019391D01*
X112882490Y-82019389D01*
X112882489Y-82019387D01*
X112881742Y-82018640D01*
X134626572Y-82018640D01*
X134626572Y-82137258D01*
X134634170Y-82165613D01*
X134657274Y-82251839D01*
X134716579Y-82354557D01*
X134716581Y-82354559D01*
X134716583Y-82354562D01*
X134800459Y-82438438D01*
X134800461Y-82438439D01*
X134800463Y-82438441D01*
X134903182Y-82497746D01*
X134903183Y-82497746D01*
X134903186Y-82497748D01*
X135017763Y-82528449D01*
X135017765Y-82528449D01*
X135136379Y-82528449D01*
X135136381Y-82528449D01*
X135250958Y-82497748D01*
X135250960Y-82497746D01*
X135250962Y-82497746D01*
X135353680Y-82438441D01*
X135353680Y-82438440D01*
X135353685Y-82438438D01*
X135437561Y-82354562D01*
X135477516Y-82285357D01*
X135522985Y-82244418D01*
X135583835Y-82238022D01*
X135612752Y-82249123D01*
X135716110Y-82308797D01*
X135716111Y-82308797D01*
X135716114Y-82308799D01*
X135830691Y-82339500D01*
X135830693Y-82339500D01*
X135949307Y-82339500D01*
X135949309Y-82339500D01*
X136063886Y-82308799D01*
X136063888Y-82308797D01*
X136063890Y-82308797D01*
X136166608Y-82249492D01*
X136166608Y-82249491D01*
X136166613Y-82249489D01*
X136250489Y-82165613D01*
X136270934Y-82130201D01*
X136309797Y-82062890D01*
X136309797Y-82062888D01*
X136309799Y-82062886D01*
X136340500Y-81948309D01*
X136340500Y-81829691D01*
X136309799Y-81715114D01*
X136309797Y-81715111D01*
X136309797Y-81715109D01*
X136250492Y-81612391D01*
X136250490Y-81612389D01*
X136250489Y-81612387D01*
X136166613Y-81528511D01*
X136166610Y-81528509D01*
X136166608Y-81528507D01*
X136063889Y-81469202D01*
X136063890Y-81469202D01*
X136050351Y-81465574D01*
X135949309Y-81438500D01*
X135830691Y-81438500D01*
X135760567Y-81457289D01*
X135716109Y-81469202D01*
X135613391Y-81528507D01*
X135529509Y-81612389D01*
X135489555Y-81681590D01*
X135444085Y-81722531D01*
X135383234Y-81728925D01*
X135354319Y-81717825D01*
X135250961Y-81658151D01*
X135250962Y-81658151D01*
X135237423Y-81654523D01*
X135136381Y-81627449D01*
X135017763Y-81627449D01*
X134947639Y-81646238D01*
X134903181Y-81658151D01*
X134800463Y-81717456D01*
X134716579Y-81801340D01*
X134657274Y-81904058D01*
X134648846Y-81935511D01*
X134626572Y-82018640D01*
X112881742Y-82018640D01*
X112798613Y-81935511D01*
X112798610Y-81935509D01*
X112798608Y-81935507D01*
X112695889Y-81876202D01*
X112695890Y-81876202D01*
X112682351Y-81872574D01*
X112581309Y-81845500D01*
X112462691Y-81845500D01*
X112392567Y-81864289D01*
X112348109Y-81876202D01*
X112245391Y-81935507D01*
X112161507Y-82019391D01*
X112102202Y-82122109D01*
X112098143Y-82137258D01*
X112071500Y-82236691D01*
X112071500Y-82355309D01*
X112093775Y-82438441D01*
X112102202Y-82469890D01*
X112161507Y-82572608D01*
X112161509Y-82572610D01*
X112161511Y-82572613D01*
X112245387Y-82656489D01*
X112245389Y-82656490D01*
X112245391Y-82656492D01*
X112348110Y-82715797D01*
X112348111Y-82715797D01*
X112348114Y-82715799D01*
X112462691Y-82746500D01*
X112462693Y-82746500D01*
X112581307Y-82746500D01*
X112581309Y-82746500D01*
X112695886Y-82715799D01*
X112695888Y-82715797D01*
X112695890Y-82715797D01*
X112798608Y-82656492D01*
X112798608Y-82656491D01*
X112798613Y-82656489D01*
X112882489Y-82572613D01*
X112882492Y-82572608D01*
X112902764Y-82537497D01*
X112948233Y-82496556D01*
X113009083Y-82490160D01*
X113062071Y-82520753D01*
X113086958Y-82576649D01*
X113087500Y-82586997D01*
X113087500Y-82609309D01*
X113112571Y-82702873D01*
X113118202Y-82723890D01*
X113177507Y-82826608D01*
X113177509Y-82826610D01*
X113177511Y-82826613D01*
X113208505Y-82857607D01*
X113236281Y-82912122D01*
X113237500Y-82927609D01*
X113237500Y-86145564D01*
X113257978Y-86221988D01*
X113257980Y-86221992D01*
X113297538Y-86290508D01*
X113297540Y-86290511D01*
X115344505Y-88337476D01*
X115372281Y-88391991D01*
X115373500Y-88407478D01*
X115373500Y-88451309D01*
X115400574Y-88552351D01*
X115404202Y-88565890D01*
X115463507Y-88668608D01*
X115463509Y-88668610D01*
X115463511Y-88668613D01*
X115547387Y-88752489D01*
X115547389Y-88752490D01*
X115547391Y-88752492D01*
X115650110Y-88811797D01*
X115650111Y-88811797D01*
X115650114Y-88811799D01*
X115764691Y-88842500D01*
X115764693Y-88842500D01*
X115883307Y-88842500D01*
X115883309Y-88842500D01*
X115997886Y-88811799D01*
X115997888Y-88811797D01*
X115997890Y-88811797D01*
X116100608Y-88752492D01*
X116100608Y-88752491D01*
X116100613Y-88752489D01*
X116184489Y-88668613D01*
X116236291Y-88578890D01*
X116243797Y-88565890D01*
X116243797Y-88565888D01*
X116243799Y-88565886D01*
X116274500Y-88451309D01*
X116274500Y-88332691D01*
X116247427Y-88231653D01*
X116250630Y-88170554D01*
X116289135Y-88123004D01*
X116348235Y-88107168D01*
X116405357Y-88129095D01*
X116413047Y-88136018D01*
X116853026Y-88575997D01*
X116880802Y-88630512D01*
X116871231Y-88690944D01*
X116853025Y-88716003D01*
X111829489Y-93739540D01*
X111829488Y-93739539D01*
X111773539Y-93795489D01*
X111733980Y-93864007D01*
X111733978Y-93864011D01*
X111713500Y-93940435D01*
X111713500Y-95126390D01*
X111694593Y-95184581D01*
X111684505Y-95196393D01*
X111653507Y-95227391D01*
X111594202Y-95330109D01*
X111594201Y-95330114D01*
X111563500Y-95444691D01*
X111563500Y-95563309D01*
X111577827Y-95616777D01*
X111594202Y-95677890D01*
X111653507Y-95780608D01*
X111653509Y-95780610D01*
X111653511Y-95780613D01*
X111684505Y-95811607D01*
X111688130Y-95818722D01*
X111694593Y-95823418D01*
X111701756Y-95845466D01*
X111712281Y-95866122D01*
X111713500Y-95881609D01*
X111713500Y-95888390D01*
X111694593Y-95946581D01*
X111684505Y-95958393D01*
X111653507Y-95989391D01*
X111594202Y-96092109D01*
X111594201Y-96092114D01*
X111563500Y-96206691D01*
X111563500Y-96325309D01*
X111576142Y-96372489D01*
X111594202Y-96439890D01*
X111653507Y-96542608D01*
X111653509Y-96542610D01*
X111653511Y-96542613D01*
X111684505Y-96573607D01*
X111688130Y-96580722D01*
X111694593Y-96585418D01*
X111701756Y-96607466D01*
X111712281Y-96628122D01*
X111713500Y-96643609D01*
X111713500Y-96650390D01*
X111694593Y-96708581D01*
X111684505Y-96720393D01*
X111653507Y-96751391D01*
X111594202Y-96854109D01*
X111594201Y-96854114D01*
X111563500Y-96968691D01*
X111563500Y-97087309D01*
X111594201Y-97201886D01*
X111594202Y-97201888D01*
X111594202Y-97201889D01*
X111653507Y-97304608D01*
X111653509Y-97304610D01*
X111653511Y-97304613D01*
X111684505Y-97335607D01*
X111712281Y-97390122D01*
X111713500Y-97405609D01*
X111713500Y-104736521D01*
X111694593Y-104794712D01*
X111684504Y-104806525D01*
X110566525Y-105924504D01*
X110512008Y-105952281D01*
X110496521Y-105953500D01*
X110265684Y-105953500D01*
X110249398Y-105955644D01*
X110216825Y-105959932D01*
X110216824Y-105959932D01*
X110109598Y-106009933D01*
X110025933Y-106093598D01*
X109975932Y-106200824D01*
X109975932Y-106200825D01*
X109969500Y-106249685D01*
X109969500Y-106478521D01*
X109950593Y-106536712D01*
X109940504Y-106548525D01*
X109734489Y-106754540D01*
X109734488Y-106754539D01*
X109678539Y-106810489D01*
X109675888Y-106813944D01*
X109667358Y-106823669D01*
X109459181Y-107031847D01*
X109414800Y-107057471D01*
X109414692Y-107057500D01*
X109414691Y-107057500D01*
X109371425Y-107069093D01*
X109300109Y-107088202D01*
X109197391Y-107147507D01*
X109113507Y-107231391D01*
X109054203Y-107334108D01*
X109054201Y-107334112D01*
X109054201Y-107334114D01*
X109030309Y-107423279D01*
X109023471Y-107448800D01*
X108997848Y-107493180D01*
X107765489Y-108725540D01*
X107765488Y-108725539D01*
X107709539Y-108781489D01*
X107669980Y-108850007D01*
X107669978Y-108850011D01*
X107649500Y-108926435D01*
X104648000Y-108926435D01*
X104648000Y-107950000D01*
X102199501Y-107950000D01*
X102141310Y-107931093D01*
X102105346Y-107881593D01*
X102100501Y-107851000D01*
X102100501Y-107490691D01*
X106737500Y-107490691D01*
X106737500Y-107609309D01*
X106756947Y-107681886D01*
X106768202Y-107723890D01*
X106827507Y-107826608D01*
X106827509Y-107826610D01*
X106827511Y-107826613D01*
X106911387Y-107910489D01*
X106911389Y-107910490D01*
X106911391Y-107910492D01*
X107014110Y-107969797D01*
X107014111Y-107969797D01*
X107014114Y-107969799D01*
X107128691Y-108000500D01*
X107128693Y-108000500D01*
X107247307Y-108000500D01*
X107247309Y-108000500D01*
X107361886Y-107969799D01*
X107361888Y-107969797D01*
X107361890Y-107969797D01*
X107464608Y-107910492D01*
X107464608Y-107910491D01*
X107464613Y-107910489D01*
X107548489Y-107826613D01*
X107558608Y-107809086D01*
X107607797Y-107723890D01*
X107607797Y-107723888D01*
X107607799Y-107723886D01*
X107638500Y-107609309D01*
X107638500Y-107522108D01*
X107657407Y-107463917D01*
X107706907Y-107427953D01*
X107711852Y-107426488D01*
X107729199Y-107421841D01*
X107831926Y-107362531D01*
X107915802Y-107278655D01*
X107943090Y-107231391D01*
X107975110Y-107175932D01*
X107975110Y-107175930D01*
X107975112Y-107175928D01*
X108005813Y-107061351D01*
X108005813Y-106942733D01*
X107975112Y-106828156D01*
X107943178Y-106772846D01*
X107930457Y-106712998D01*
X107943179Y-106673845D01*
X107953947Y-106655195D01*
X107985880Y-106599886D01*
X108016581Y-106485309D01*
X108016581Y-106366691D01*
X107985880Y-106252114D01*
X107985878Y-106252111D01*
X107985878Y-106252109D01*
X107926573Y-106149391D01*
X107926571Y-106149389D01*
X107926570Y-106149387D01*
X107842694Y-106065511D01*
X107842691Y-106065509D01*
X107842689Y-106065507D01*
X107739970Y-106006202D01*
X107739971Y-106006202D01*
X107709767Y-105998109D01*
X107625390Y-105975500D01*
X107506772Y-105975500D01*
X107436908Y-105994220D01*
X107392190Y-106006202D01*
X107289472Y-106065507D01*
X107205588Y-106149391D01*
X107146283Y-106252109D01*
X107146282Y-106252114D01*
X107115581Y-106366691D01*
X107115581Y-106485309D01*
X107140084Y-106576755D01*
X107146283Y-106599890D01*
X107178214Y-106655195D01*
X107190936Y-106715043D01*
X107178215Y-106754195D01*
X107135514Y-106828154D01*
X107119196Y-106889055D01*
X107110503Y-106921500D01*
X107104813Y-106942734D01*
X107104813Y-107029932D01*
X107085906Y-107088123D01*
X107036406Y-107124087D01*
X107031440Y-107125558D01*
X107014110Y-107130202D01*
X106911391Y-107189507D01*
X106827507Y-107273391D01*
X106768202Y-107376109D01*
X106756606Y-107419387D01*
X106737500Y-107490691D01*
X102100501Y-107490691D01*
X102100501Y-98746691D01*
X105213500Y-98746691D01*
X105213500Y-98865309D01*
X105214115Y-98867603D01*
X105244202Y-98979890D01*
X105303507Y-99082608D01*
X105303509Y-99082610D01*
X105303511Y-99082613D01*
X105387387Y-99166489D01*
X105387389Y-99166490D01*
X105387391Y-99166492D01*
X105490110Y-99225797D01*
X105490111Y-99225797D01*
X105490114Y-99225799D01*
X105604691Y-99256500D01*
X105604693Y-99256500D01*
X105723307Y-99256500D01*
X105723309Y-99256500D01*
X105837886Y-99225799D01*
X105837888Y-99225797D01*
X105837890Y-99225797D01*
X105940608Y-99166492D01*
X105940608Y-99166491D01*
X105940613Y-99166489D01*
X106024489Y-99082613D01*
X106033204Y-99067519D01*
X106083797Y-98979890D01*
X106083797Y-98979888D01*
X106083799Y-98979886D01*
X106114500Y-98865309D01*
X106114500Y-98746691D01*
X106483500Y-98746691D01*
X106483500Y-98865309D01*
X106484115Y-98867603D01*
X106514202Y-98979890D01*
X106573507Y-99082608D01*
X106573509Y-99082610D01*
X106573511Y-99082613D01*
X106657387Y-99166489D01*
X106657389Y-99166490D01*
X106657391Y-99166492D01*
X106760110Y-99225797D01*
X106760111Y-99225797D01*
X106760114Y-99225799D01*
X106874691Y-99256500D01*
X106874693Y-99256500D01*
X106993307Y-99256500D01*
X106993309Y-99256500D01*
X107107886Y-99225799D01*
X107179500Y-99184451D01*
X107239348Y-99171730D01*
X107278501Y-99184452D01*
X107350113Y-99225797D01*
X107350114Y-99225797D01*
X107350117Y-99225799D01*
X107464694Y-99256500D01*
X107464696Y-99256500D01*
X107583310Y-99256500D01*
X107583312Y-99256500D01*
X107697889Y-99225799D01*
X107773499Y-99182144D01*
X107833348Y-99169423D01*
X107872500Y-99182144D01*
X107948111Y-99225799D01*
X108062688Y-99256500D01*
X108062690Y-99256500D01*
X108181304Y-99256500D01*
X108181306Y-99256500D01*
X108295883Y-99225799D01*
X108367497Y-99184451D01*
X108427345Y-99171730D01*
X108466498Y-99184452D01*
X108538110Y-99225797D01*
X108538111Y-99225797D01*
X108538114Y-99225799D01*
X108652691Y-99256500D01*
X108652693Y-99256500D01*
X108771307Y-99256500D01*
X108771309Y-99256500D01*
X108885886Y-99225799D01*
X108885888Y-99225797D01*
X108885890Y-99225797D01*
X108988608Y-99166492D01*
X108988608Y-99166491D01*
X108988613Y-99166489D01*
X109072489Y-99082613D01*
X109081204Y-99067519D01*
X109134264Y-98975617D01*
X109179733Y-98934676D01*
X109240583Y-98928280D01*
X109293571Y-98958873D01*
X109305736Y-98975617D01*
X109367507Y-99082608D01*
X109367509Y-99082610D01*
X109367511Y-99082613D01*
X109451387Y-99166489D01*
X109451389Y-99166490D01*
X109451391Y-99166492D01*
X109554110Y-99225797D01*
X109554111Y-99225797D01*
X109554114Y-99225799D01*
X109668691Y-99256500D01*
X109668693Y-99256500D01*
X109787307Y-99256500D01*
X109787309Y-99256500D01*
X109901886Y-99225799D01*
X109986475Y-99176960D01*
X110046324Y-99164239D01*
X110085476Y-99176961D01*
X110143919Y-99210703D01*
X110143920Y-99210703D01*
X110143923Y-99210705D01*
X110258500Y-99241406D01*
X110258502Y-99241406D01*
X110377116Y-99241406D01*
X110377118Y-99241406D01*
X110491695Y-99210705D01*
X110491697Y-99210703D01*
X110491699Y-99210703D01*
X110594417Y-99151398D01*
X110594417Y-99151397D01*
X110594422Y-99151395D01*
X110678298Y-99067519D01*
X110706849Y-99018068D01*
X110737606Y-98964796D01*
X110737606Y-98964794D01*
X110737608Y-98964792D01*
X110768309Y-98850215D01*
X110768309Y-98731597D01*
X110737608Y-98617020D01*
X110737606Y-98617017D01*
X110737606Y-98617015D01*
X110678301Y-98514297D01*
X110678299Y-98514295D01*
X110678298Y-98514293D01*
X110594422Y-98430417D01*
X110594419Y-98430415D01*
X110594417Y-98430413D01*
X110491698Y-98371108D01*
X110491699Y-98371108D01*
X110472606Y-98365992D01*
X110377118Y-98340406D01*
X110258500Y-98340406D01*
X110143923Y-98371107D01*
X110143922Y-98371107D01*
X110143920Y-98371108D01*
X110059334Y-98419945D01*
X110044982Y-98422995D01*
X110032430Y-98430596D01*
X110018741Y-98428573D01*
X109999485Y-98432667D01*
X109971460Y-98425470D01*
X109965723Y-98423057D01*
X109901886Y-98386201D01*
X109836228Y-98368608D01*
X109830007Y-98365992D01*
X109811713Y-98350197D01*
X109791443Y-98337034D01*
X109788953Y-98330547D01*
X109783694Y-98326007D01*
X109778176Y-98302474D01*
X109769516Y-98279912D01*
X109771313Y-98273201D01*
X109769728Y-98266437D01*
X109779097Y-98244154D01*
X109785352Y-98220812D01*
X109792758Y-98211665D01*
X109793444Y-98210035D01*
X109794689Y-98209280D01*
X109798372Y-98204732D01*
X109854489Y-98148616D01*
X109892084Y-98083500D01*
X109913797Y-98045893D01*
X109913797Y-98045891D01*
X109913799Y-98045889D01*
X109944500Y-97931312D01*
X109944500Y-97812694D01*
X109913799Y-97698117D01*
X109913797Y-97698114D01*
X109913797Y-97698112D01*
X109872452Y-97626501D01*
X109859730Y-97566653D01*
X109872452Y-97527500D01*
X109913799Y-97455886D01*
X109944500Y-97341309D01*
X109944500Y-97222691D01*
X109913799Y-97108114D01*
X109913797Y-97108111D01*
X109913797Y-97108109D01*
X109854492Y-97005391D01*
X109854490Y-97005389D01*
X109854489Y-97005387D01*
X109770613Y-96921511D01*
X109770610Y-96921509D01*
X109770608Y-96921507D01*
X109667889Y-96862202D01*
X109667890Y-96862202D01*
X109637686Y-96854109D01*
X109553309Y-96831500D01*
X109434691Y-96831500D01*
X109364567Y-96850289D01*
X109320109Y-96862202D01*
X109217391Y-96921507D01*
X109133507Y-97005391D01*
X109074202Y-97108109D01*
X109065125Y-97141987D01*
X109043500Y-97222691D01*
X109043500Y-97341309D01*
X109061765Y-97409474D01*
X109074202Y-97455888D01*
X109115548Y-97527500D01*
X109128270Y-97587348D01*
X109115548Y-97626501D01*
X109074202Y-97698112D01*
X109071468Y-97708316D01*
X109043500Y-97812694D01*
X109043500Y-97931312D01*
X109063111Y-98004500D01*
X109074202Y-98045893D01*
X109133507Y-98148611D01*
X109133509Y-98148613D01*
X109133511Y-98148616D01*
X109217387Y-98232492D01*
X109217389Y-98232493D01*
X109217391Y-98232495D01*
X109320110Y-98291800D01*
X109320111Y-98291800D01*
X109320114Y-98291802D01*
X109379243Y-98307645D01*
X109430556Y-98340967D01*
X109452483Y-98398089D01*
X109436648Y-98457189D01*
X109423623Y-98473274D01*
X109367511Y-98529386D01*
X109367507Y-98529391D01*
X109305736Y-98636382D01*
X109260267Y-98677323D01*
X109199416Y-98683719D01*
X109146428Y-98653126D01*
X109134264Y-98636382D01*
X109072492Y-98529391D01*
X109072490Y-98529389D01*
X109072489Y-98529387D01*
X108988613Y-98445511D01*
X108988610Y-98445509D01*
X108988608Y-98445507D01*
X108885889Y-98386202D01*
X108885890Y-98386202D01*
X108829558Y-98371108D01*
X108771309Y-98355500D01*
X108652691Y-98355500D01*
X108594442Y-98371108D01*
X108538109Y-98386202D01*
X108466498Y-98427548D01*
X108406650Y-98440270D01*
X108367497Y-98427548D01*
X108354328Y-98419945D01*
X108295883Y-98386201D01*
X108181306Y-98355500D01*
X108062688Y-98355500D01*
X108023532Y-98365992D01*
X107948109Y-98386201D01*
X107872500Y-98429855D01*
X107812652Y-98442576D01*
X107773500Y-98429855D01*
X107697890Y-98386201D01*
X107641561Y-98371108D01*
X107583312Y-98355500D01*
X107464694Y-98355500D01*
X107406445Y-98371108D01*
X107350112Y-98386202D01*
X107278501Y-98427548D01*
X107218653Y-98440270D01*
X107179500Y-98427548D01*
X107166331Y-98419945D01*
X107107886Y-98386201D01*
X106993309Y-98355500D01*
X106874691Y-98355500D01*
X106816442Y-98371108D01*
X106760109Y-98386202D01*
X106657391Y-98445507D01*
X106573507Y-98529391D01*
X106514202Y-98632109D01*
X106514201Y-98632114D01*
X106483500Y-98746691D01*
X106114500Y-98746691D01*
X106083799Y-98632114D01*
X106083797Y-98632111D01*
X106083797Y-98632109D01*
X106024492Y-98529391D01*
X106024490Y-98529389D01*
X106024489Y-98529387D01*
X105940613Y-98445511D01*
X105940610Y-98445509D01*
X105940608Y-98445507D01*
X105837889Y-98386202D01*
X105837890Y-98386202D01*
X105781558Y-98371108D01*
X105723309Y-98355500D01*
X105604691Y-98355500D01*
X105546442Y-98371108D01*
X105490109Y-98386202D01*
X105387391Y-98445507D01*
X105303507Y-98529391D01*
X105244202Y-98632109D01*
X105244201Y-98632114D01*
X105213500Y-98746691D01*
X102100501Y-98746691D01*
X102100501Y-86726688D01*
X109043500Y-86726688D01*
X109043500Y-86845306D01*
X109074201Y-86959883D01*
X109074202Y-86959885D01*
X109115548Y-87031497D01*
X109128270Y-87091345D01*
X109115548Y-87130498D01*
X109074202Y-87202109D01*
X109074201Y-87202114D01*
X109043500Y-87316691D01*
X109043500Y-87435309D01*
X109074201Y-87549886D01*
X109074202Y-87549888D01*
X109104000Y-87601499D01*
X109116722Y-87661348D01*
X109104002Y-87700498D01*
X109074201Y-87752116D01*
X109074201Y-87752117D01*
X109043500Y-87866694D01*
X109043500Y-87985312D01*
X109065360Y-88066895D01*
X109074202Y-88099893D01*
X109133507Y-88202611D01*
X109133509Y-88202613D01*
X109133511Y-88202616D01*
X109217387Y-88286492D01*
X109217389Y-88286493D01*
X109217391Y-88286495D01*
X109320110Y-88345800D01*
X109320111Y-88345800D01*
X109320114Y-88345802D01*
X109434691Y-88376503D01*
X109434693Y-88376503D01*
X109553307Y-88376503D01*
X109553309Y-88376503D01*
X109667886Y-88345802D01*
X109667888Y-88345800D01*
X109667890Y-88345800D01*
X109770608Y-88286495D01*
X109770608Y-88286494D01*
X109770613Y-88286492D01*
X109854489Y-88202616D01*
X109873000Y-88170554D01*
X109913797Y-88099893D01*
X109913797Y-88099891D01*
X109913799Y-88099889D01*
X109944500Y-87985312D01*
X109944500Y-87866694D01*
X109913799Y-87752117D01*
X109883997Y-87700499D01*
X109871276Y-87640654D01*
X109883998Y-87601501D01*
X109913799Y-87549886D01*
X109944500Y-87435309D01*
X109944500Y-87316691D01*
X109913799Y-87202114D01*
X109913797Y-87202111D01*
X109913797Y-87202109D01*
X109872452Y-87130498D01*
X109859730Y-87070650D01*
X109872452Y-87031497D01*
X109913799Y-86959883D01*
X109944500Y-86845306D01*
X109944500Y-86726688D01*
X109913799Y-86612111D01*
X109913797Y-86612108D01*
X109913797Y-86612106D01*
X109854492Y-86509388D01*
X109854490Y-86509386D01*
X109854489Y-86509384D01*
X109770613Y-86425508D01*
X109770610Y-86425506D01*
X109770608Y-86425504D01*
X109667889Y-86366199D01*
X109667890Y-86366199D01*
X109654351Y-86362571D01*
X109553309Y-86335497D01*
X109434691Y-86335497D01*
X109364567Y-86354286D01*
X109320109Y-86366199D01*
X109217391Y-86425504D01*
X109133507Y-86509388D01*
X109074202Y-86612106D01*
X109074201Y-86612111D01*
X109043500Y-86726688D01*
X102100501Y-86726688D01*
X102100501Y-81136765D01*
X103385552Y-81136765D01*
X103385552Y-81423234D01*
X103417625Y-81707896D01*
X103481370Y-81987185D01*
X103575982Y-82257569D01*
X103700275Y-82515667D01*
X103826027Y-82715799D01*
X103852686Y-82758227D01*
X104031295Y-82982195D01*
X104233857Y-83184757D01*
X104457825Y-83363366D01*
X104579104Y-83439570D01*
X104700384Y-83515776D01*
X104839308Y-83582678D01*
X104958480Y-83640068D01*
X104958483Y-83640069D01*
X104958482Y-83640069D01*
X105228866Y-83734681D01*
X105228869Y-83734681D01*
X105228870Y-83734682D01*
X105508154Y-83798426D01*
X105792819Y-83830500D01*
X105792820Y-83830500D01*
X106079284Y-83830500D01*
X106079285Y-83830500D01*
X106363950Y-83798426D01*
X106643234Y-83734682D01*
X106913624Y-83640068D01*
X107171721Y-83515775D01*
X107414279Y-83363366D01*
X107638247Y-83184757D01*
X107840809Y-82982195D01*
X108019418Y-82758227D01*
X108171827Y-82515669D01*
X108296120Y-82257572D01*
X108351432Y-82099500D01*
X108390733Y-81987185D01*
X108416064Y-81876201D01*
X108454478Y-81707898D01*
X108486552Y-81423233D01*
X108486552Y-81136767D01*
X108454478Y-80852102D01*
X108422659Y-80712691D01*
X112071500Y-80712691D01*
X112071500Y-80831309D01*
X112077072Y-80852102D01*
X112102202Y-80945890D01*
X112161507Y-81048608D01*
X112161509Y-81048610D01*
X112161511Y-81048613D01*
X112245387Y-81132489D01*
X112245389Y-81132490D01*
X112245391Y-81132492D01*
X112348110Y-81191797D01*
X112348111Y-81191797D01*
X112348114Y-81191799D01*
X112462691Y-81222500D01*
X112462693Y-81222500D01*
X112581307Y-81222500D01*
X112581309Y-81222500D01*
X112695886Y-81191799D01*
X112695888Y-81191797D01*
X112695890Y-81191797D01*
X112791207Y-81136765D01*
X145513448Y-81136765D01*
X145513448Y-81423234D01*
X145545521Y-81707896D01*
X145609266Y-81987185D01*
X145703878Y-82257569D01*
X145828171Y-82515667D01*
X145953923Y-82715799D01*
X145980582Y-82758227D01*
X146159191Y-82982195D01*
X146361753Y-83184757D01*
X146585721Y-83363366D01*
X146707000Y-83439570D01*
X146828280Y-83515776D01*
X146967204Y-83582678D01*
X147086376Y-83640068D01*
X147086379Y-83640069D01*
X147086378Y-83640069D01*
X147356762Y-83734681D01*
X147356765Y-83734681D01*
X147356766Y-83734682D01*
X147636050Y-83798426D01*
X147920715Y-83830500D01*
X147920716Y-83830500D01*
X148207180Y-83830500D01*
X148207181Y-83830500D01*
X148491846Y-83798426D01*
X148771130Y-83734682D01*
X149041520Y-83640068D01*
X149299617Y-83515775D01*
X149542175Y-83363366D01*
X149766143Y-83184757D01*
X149968705Y-82982195D01*
X150147314Y-82758227D01*
X150299723Y-82515669D01*
X150424016Y-82257572D01*
X150479328Y-82099500D01*
X150518629Y-81987185D01*
X150543960Y-81876201D01*
X150582374Y-81707898D01*
X150614448Y-81423233D01*
X150614448Y-81136767D01*
X150582374Y-80852102D01*
X150518630Y-80572818D01*
X150441432Y-80352201D01*
X150424017Y-80302430D01*
X150299724Y-80044332D01*
X150147313Y-79801772D01*
X149968705Y-79577805D01*
X149766143Y-79375243D01*
X149542175Y-79196634D01*
X149299615Y-79044223D01*
X149041516Y-78919930D01*
X149041517Y-78919930D01*
X148771133Y-78825318D01*
X148491844Y-78761573D01*
X148207182Y-78729500D01*
X148207181Y-78729500D01*
X147920715Y-78729500D01*
X147920713Y-78729500D01*
X147636051Y-78761573D01*
X147356762Y-78825318D01*
X147086378Y-78919930D01*
X146828280Y-79044223D01*
X146585720Y-79196634D01*
X146361754Y-79375242D01*
X146159190Y-79577806D01*
X145980582Y-79801772D01*
X145828171Y-80044332D01*
X145703878Y-80302430D01*
X145609266Y-80572814D01*
X145545521Y-80852103D01*
X145513448Y-81136765D01*
X112791207Y-81136765D01*
X112798608Y-81132492D01*
X112798608Y-81132491D01*
X112798613Y-81132489D01*
X112882489Y-81048613D01*
X112941799Y-80945886D01*
X112972500Y-80831309D01*
X112972500Y-80712691D01*
X112941799Y-80598114D01*
X112941797Y-80598111D01*
X112941797Y-80598109D01*
X112882492Y-80495391D01*
X112882490Y-80495389D01*
X112882489Y-80495387D01*
X112798613Y-80411511D01*
X112798610Y-80411509D01*
X112798608Y-80411507D01*
X112695889Y-80352202D01*
X112695890Y-80352202D01*
X112682351Y-80348574D01*
X112581309Y-80321500D01*
X112462691Y-80321500D01*
X112392567Y-80340289D01*
X112348109Y-80352202D01*
X112245391Y-80411507D01*
X112161507Y-80495391D01*
X112102202Y-80598109D01*
X112102201Y-80598114D01*
X112071500Y-80712691D01*
X108422659Y-80712691D01*
X108390734Y-80572818D01*
X108313537Y-80352202D01*
X108296121Y-80302430D01*
X108171828Y-80044332D01*
X108019417Y-79801772D01*
X107840809Y-79577805D01*
X107638247Y-79375243D01*
X107414279Y-79196634D01*
X107171719Y-79044223D01*
X106913620Y-78919930D01*
X106913621Y-78919930D01*
X106643237Y-78825318D01*
X106363948Y-78761573D01*
X106079286Y-78729500D01*
X106079285Y-78729500D01*
X105792819Y-78729500D01*
X105792817Y-78729500D01*
X105508155Y-78761573D01*
X105228866Y-78825318D01*
X104958482Y-78919930D01*
X104700384Y-79044223D01*
X104457824Y-79196634D01*
X104233858Y-79375242D01*
X104031294Y-79577806D01*
X103852686Y-79801772D01*
X103700275Y-80044332D01*
X103575982Y-80302430D01*
X103481370Y-80572814D01*
X103417625Y-80852103D01*
X103385552Y-81136765D01*
X102100501Y-81136765D01*
X102100501Y-79487160D01*
X102100713Y-79480687D01*
X102107622Y-79375243D01*
X102117520Y-79224191D01*
X102119207Y-79211374D01*
X102168720Y-78962431D01*
X102172070Y-78949929D01*
X102253656Y-78709572D01*
X102258602Y-78697632D01*
X102370863Y-78469981D01*
X102377324Y-78458789D01*
X102518342Y-78247736D01*
X102526211Y-78237480D01*
X102693572Y-78046638D01*
X102702719Y-78037492D01*
X102893551Y-77870133D01*
X102903796Y-77862272D01*
X103114852Y-77721246D01*
X103126047Y-77714782D01*
X103353700Y-77602516D01*
X103365636Y-77597571D01*
X103605990Y-77515980D01*
X103618490Y-77512631D01*
X103867433Y-77463113D01*
X103880258Y-77461424D01*
X104136017Y-77444661D01*
X104142492Y-77444449D01*
X149856774Y-77444449D01*
X149863249Y-77444661D01*
G37*
%TD.AperFunction*%
%TD*%
M02*
