%TF.GenerationSoftware,KiCad,Pcbnew,9.0.7*%
%TF.CreationDate,2026-04-13T19:26:54+02:00*%
%TF.ProjectId,air_quality_sensor,6169725f-7175-4616-9c69-74795f73656e,1.0*%
%TF.SameCoordinates,Original*%
%TF.FileFunction,Legend,Bot*%
%TF.FilePolarity,Positive*%
%FSLAX46Y46*%
G04 Gerber Fmt 4.6, Leading zero omitted, Abs format (unit mm)*
G04 Created by KiCad (PCBNEW 9.0.7) date 2026-04-13 19:26:54*
%MOMM*%
%LPD*%
G01*
G04 APERTURE LIST*
G04 Aperture macros list*
%AMRoundRect*
0 Rectangle with rounded corners*
0 $1 Rounding radius*
0 $2 $3 $4 $5 $6 $7 $8 $9 X,Y pos of 4 corners*
0 Add a 4 corners polygon primitive as box body*
4,1,4,$2,$3,$4,$5,$6,$7,$8,$9,$2,$3,0*
0 Add four circle primitives for the rounded corners*
1,1,$1+$1,$2,$3*
1,1,$1+$1,$4,$5*
1,1,$1+$1,$6,$7*
1,1,$1+$1,$8,$9*
0 Add four rect primitives between the rounded corners*
20,1,$1+$1,$2,$3,$4,$5,0*
20,1,$1+$1,$4,$5,$6,$7,0*
20,1,$1+$1,$6,$7,$8,$9,0*
20,1,$1+$1,$8,$9,$2,$3,0*%
G04 Aperture macros list end*
%ADD10C,0.100000*%
%ADD11C,0.600000*%
%ADD12C,0.150000*%
%ADD13C,0.000000*%
%ADD14C,0.120000*%
%ADD15C,0.010000*%
%ADD16C,0.650000*%
%ADD17C,4.700000*%
%ADD18C,2.000000*%
%ADD19C,1.000000*%
%ADD20RoundRect,0.135000X0.135000X0.185000X-0.135000X0.185000X-0.135000X-0.185000X0.135000X-0.185000X0*%
%ADD21RoundRect,0.135000X-0.185000X0.135000X-0.185000X-0.135000X0.185000X-0.135000X0.185000X0.135000X0*%
%ADD22RoundRect,0.135000X-0.135000X-0.185000X0.135000X-0.185000X0.135000X0.185000X-0.135000X0.185000X0*%
%ADD23RoundRect,0.135000X0.185000X-0.135000X0.185000X0.135000X-0.185000X0.135000X-0.185000X-0.135000X0*%
G04 APERTURE END LIST*
D10*
X115570000Y-100711000D02*
X136906000Y-100711000D01*
X136906000Y-105029000D01*
X115570000Y-105029000D01*
X115570000Y-100711000D01*
G36*
X115570000Y-100711000D02*
G01*
X136906000Y-100711000D01*
X136906000Y-105029000D01*
X115570000Y-105029000D01*
X115570000Y-100711000D01*
G37*
D11*
X143978549Y-89930514D02*
X142549978Y-89930514D01*
X144371406Y-90787657D02*
X142996406Y-87787657D01*
X142996406Y-87787657D02*
X142371406Y-90787657D01*
X141371406Y-90787657D02*
X141121406Y-88787657D01*
X140996406Y-87787657D02*
X141157120Y-87930514D01*
X141157120Y-87930514D02*
X141032120Y-88073371D01*
X141032120Y-88073371D02*
X140871406Y-87930514D01*
X140871406Y-87930514D02*
X140996406Y-87787657D01*
X140996406Y-87787657D02*
X141032120Y-88073371D01*
X139942835Y-90787657D02*
X139692835Y-88787657D01*
X139764264Y-89359085D02*
X139585692Y-89073371D01*
X139585692Y-89073371D02*
X139424978Y-88930514D01*
X139424978Y-88930514D02*
X139121406Y-88787657D01*
X139121406Y-88787657D02*
X138835692Y-88787657D01*
X133835692Y-91073371D02*
X134103549Y-90930514D01*
X134103549Y-90930514D02*
X134353549Y-90644800D01*
X134353549Y-90644800D02*
X134728549Y-90216228D01*
X134728549Y-90216228D02*
X134996407Y-90073371D01*
X134996407Y-90073371D02*
X135282121Y-90073371D01*
X135228549Y-90787657D02*
X135496407Y-90644800D01*
X135496407Y-90644800D02*
X135746407Y-90359085D01*
X135746407Y-90359085D02*
X135817835Y-89787657D01*
X135817835Y-89787657D02*
X135692835Y-88787657D01*
X135692835Y-88787657D02*
X135478549Y-88216228D01*
X135478549Y-88216228D02*
X135157121Y-87930514D01*
X135157121Y-87930514D02*
X134853549Y-87787657D01*
X134853549Y-87787657D02*
X134282121Y-87787657D01*
X134282121Y-87787657D02*
X134014264Y-87930514D01*
X134014264Y-87930514D02*
X133764264Y-88216228D01*
X133764264Y-88216228D02*
X133692835Y-88787657D01*
X133692835Y-88787657D02*
X133817835Y-89787657D01*
X133817835Y-89787657D02*
X134032121Y-90359085D01*
X134032121Y-90359085D02*
X134353549Y-90644800D01*
X134353549Y-90644800D02*
X134657121Y-90787657D01*
X134657121Y-90787657D02*
X135228549Y-90787657D01*
X131121407Y-88787657D02*
X131371407Y-90787657D01*
X132407121Y-88787657D02*
X132603550Y-90359085D01*
X132603550Y-90359085D02*
X132496407Y-90644800D01*
X132496407Y-90644800D02*
X132228550Y-90787657D01*
X132228550Y-90787657D02*
X131799978Y-90787657D01*
X131799978Y-90787657D02*
X131496407Y-90644800D01*
X131496407Y-90644800D02*
X131335692Y-90501942D01*
X128657121Y-90787657D02*
X128460692Y-89216228D01*
X128460692Y-89216228D02*
X128567835Y-88930514D01*
X128567835Y-88930514D02*
X128835692Y-88787657D01*
X128835692Y-88787657D02*
X129407121Y-88787657D01*
X129407121Y-88787657D02*
X129710692Y-88930514D01*
X128639264Y-90644800D02*
X128942835Y-90787657D01*
X128942835Y-90787657D02*
X129657121Y-90787657D01*
X129657121Y-90787657D02*
X129924978Y-90644800D01*
X129924978Y-90644800D02*
X130032121Y-90359085D01*
X130032121Y-90359085D02*
X129996406Y-90073371D01*
X129996406Y-90073371D02*
X129817835Y-89787657D01*
X129817835Y-89787657D02*
X129514264Y-89644800D01*
X129514264Y-89644800D02*
X128799978Y-89644800D01*
X128799978Y-89644800D02*
X128496406Y-89501942D01*
X126799978Y-90787657D02*
X127067835Y-90644800D01*
X127067835Y-90644800D02*
X127174978Y-90359085D01*
X127174978Y-90359085D02*
X126853549Y-87787657D01*
X125657120Y-90787657D02*
X125407120Y-88787657D01*
X125282120Y-87787657D02*
X125442834Y-87930514D01*
X125442834Y-87930514D02*
X125317834Y-88073371D01*
X125317834Y-88073371D02*
X125157120Y-87930514D01*
X125157120Y-87930514D02*
X125282120Y-87787657D01*
X125282120Y-87787657D02*
X125317834Y-88073371D01*
X124407120Y-88787657D02*
X123264263Y-88787657D01*
X123853549Y-87787657D02*
X124174978Y-90359085D01*
X124174978Y-90359085D02*
X124067835Y-90644800D01*
X124067835Y-90644800D02*
X123799978Y-90787657D01*
X123799978Y-90787657D02*
X123514263Y-90787657D01*
X122549977Y-88787657D02*
X122085692Y-90787657D01*
X121121406Y-88787657D02*
X122085692Y-90787657D01*
X122085692Y-90787657D02*
X122460692Y-91501942D01*
X122460692Y-91501942D02*
X122621406Y-91644800D01*
X122621406Y-91644800D02*
X122924977Y-91787657D01*
X118067835Y-90644800D02*
X117657121Y-90787657D01*
X117657121Y-90787657D02*
X116942835Y-90787657D01*
X116942835Y-90787657D02*
X116639264Y-90644800D01*
X116639264Y-90644800D02*
X116478549Y-90501942D01*
X116478549Y-90501942D02*
X116299978Y-90216228D01*
X116299978Y-90216228D02*
X116264264Y-89930514D01*
X116264264Y-89930514D02*
X116371406Y-89644800D01*
X116371406Y-89644800D02*
X116496406Y-89501942D01*
X116496406Y-89501942D02*
X116764264Y-89359085D01*
X116764264Y-89359085D02*
X117317835Y-89216228D01*
X117317835Y-89216228D02*
X117585692Y-89073371D01*
X117585692Y-89073371D02*
X117710692Y-88930514D01*
X117710692Y-88930514D02*
X117817835Y-88644800D01*
X117817835Y-88644800D02*
X117782121Y-88359085D01*
X117782121Y-88359085D02*
X117603549Y-88073371D01*
X117603549Y-88073371D02*
X117442835Y-87930514D01*
X117442835Y-87930514D02*
X117139264Y-87787657D01*
X117139264Y-87787657D02*
X116424978Y-87787657D01*
X116424978Y-87787657D02*
X116014264Y-87930514D01*
X113924978Y-90644800D02*
X114228549Y-90787657D01*
X114228549Y-90787657D02*
X114799978Y-90787657D01*
X114799978Y-90787657D02*
X115067835Y-90644800D01*
X115067835Y-90644800D02*
X115174978Y-90359085D01*
X115174978Y-90359085D02*
X115032121Y-89216228D01*
X115032121Y-89216228D02*
X114853549Y-88930514D01*
X114853549Y-88930514D02*
X114549978Y-88787657D01*
X114549978Y-88787657D02*
X113978549Y-88787657D01*
X113978549Y-88787657D02*
X113710692Y-88930514D01*
X113710692Y-88930514D02*
X113603549Y-89216228D01*
X113603549Y-89216228D02*
X113639263Y-89501942D01*
X113639263Y-89501942D02*
X115103549Y-89787657D01*
X112264263Y-88787657D02*
X112514263Y-90787657D01*
X112299977Y-89073371D02*
X112139263Y-88930514D01*
X112139263Y-88930514D02*
X111835692Y-88787657D01*
X111835692Y-88787657D02*
X111407120Y-88787657D01*
X111407120Y-88787657D02*
X111139263Y-88930514D01*
X111139263Y-88930514D02*
X111032120Y-89216228D01*
X111032120Y-89216228D02*
X111228549Y-90787657D01*
X109924977Y-90644800D02*
X109657120Y-90787657D01*
X109657120Y-90787657D02*
X109085691Y-90787657D01*
X109085691Y-90787657D02*
X108782120Y-90644800D01*
X108782120Y-90644800D02*
X108603548Y-90359085D01*
X108603548Y-90359085D02*
X108585691Y-90216228D01*
X108585691Y-90216228D02*
X108692834Y-89930514D01*
X108692834Y-89930514D02*
X108960691Y-89787657D01*
X108960691Y-89787657D02*
X109389263Y-89787657D01*
X109389263Y-89787657D02*
X109657120Y-89644800D01*
X109657120Y-89644800D02*
X109764263Y-89359085D01*
X109764263Y-89359085D02*
X109746406Y-89216228D01*
X109746406Y-89216228D02*
X109567834Y-88930514D01*
X109567834Y-88930514D02*
X109264263Y-88787657D01*
X109264263Y-88787657D02*
X108835691Y-88787657D01*
X108835691Y-88787657D02*
X108567834Y-88930514D01*
X106942835Y-90787657D02*
X107210692Y-90644800D01*
X107210692Y-90644800D02*
X107335692Y-90501942D01*
X107335692Y-90501942D02*
X107442835Y-90216228D01*
X107442835Y-90216228D02*
X107335692Y-89359085D01*
X107335692Y-89359085D02*
X107157120Y-89073371D01*
X107157120Y-89073371D02*
X106996406Y-88930514D01*
X106996406Y-88930514D02*
X106692835Y-88787657D01*
X106692835Y-88787657D02*
X106264263Y-88787657D01*
X106264263Y-88787657D02*
X105996406Y-88930514D01*
X105996406Y-88930514D02*
X105871406Y-89073371D01*
X105871406Y-89073371D02*
X105764263Y-89359085D01*
X105764263Y-89359085D02*
X105871406Y-90216228D01*
X105871406Y-90216228D02*
X106049977Y-90501942D01*
X106049977Y-90501942D02*
X106210692Y-90644800D01*
X106210692Y-90644800D02*
X106514263Y-90787657D01*
X106514263Y-90787657D02*
X106942835Y-90787657D01*
X104657120Y-90787657D02*
X104407120Y-88787657D01*
X104478549Y-89359085D02*
X104299977Y-89073371D01*
X104299977Y-89073371D02*
X104139263Y-88930514D01*
X104139263Y-88930514D02*
X103835691Y-88787657D01*
X103835691Y-88787657D02*
X103549977Y-88787657D01*
D12*
X144697220Y-93341819D02*
X144697220Y-92675152D01*
X144697220Y-92865628D02*
X144649601Y-92770390D01*
X144649601Y-92770390D02*
X144601982Y-92722771D01*
X144601982Y-92722771D02*
X144506744Y-92675152D01*
X144506744Y-92675152D02*
X144411506Y-92675152D01*
X143697220Y-93294200D02*
X143792458Y-93341819D01*
X143792458Y-93341819D02*
X143982934Y-93341819D01*
X143982934Y-93341819D02*
X144078172Y-93294200D01*
X144078172Y-93294200D02*
X144125791Y-93198961D01*
X144125791Y-93198961D02*
X144125791Y-92818009D01*
X144125791Y-92818009D02*
X144078172Y-92722771D01*
X144078172Y-92722771D02*
X143982934Y-92675152D01*
X143982934Y-92675152D02*
X143792458Y-92675152D01*
X143792458Y-92675152D02*
X143697220Y-92722771D01*
X143697220Y-92722771D02*
X143649601Y-92818009D01*
X143649601Y-92818009D02*
X143649601Y-92913247D01*
X143649601Y-92913247D02*
X144125791Y-93008485D01*
X143316267Y-92675152D02*
X143078172Y-93341819D01*
X143078172Y-93341819D02*
X142840077Y-92675152D01*
X141173410Y-93341819D02*
X141744838Y-93341819D01*
X141459124Y-93341819D02*
X141459124Y-92341819D01*
X141459124Y-92341819D02*
X141554362Y-92484676D01*
X141554362Y-92484676D02*
X141649600Y-92579914D01*
X141649600Y-92579914D02*
X141744838Y-92627533D01*
X139744838Y-93675152D02*
X139744838Y-92246580D01*
X137697219Y-93246580D02*
X137744838Y-93294200D01*
X137744838Y-93294200D02*
X137887695Y-93341819D01*
X137887695Y-93341819D02*
X137982933Y-93341819D01*
X137982933Y-93341819D02*
X138125790Y-93294200D01*
X138125790Y-93294200D02*
X138221028Y-93198961D01*
X138221028Y-93198961D02*
X138268647Y-93103723D01*
X138268647Y-93103723D02*
X138316266Y-92913247D01*
X138316266Y-92913247D02*
X138316266Y-92770390D01*
X138316266Y-92770390D02*
X138268647Y-92579914D01*
X138268647Y-92579914D02*
X138221028Y-92484676D01*
X138221028Y-92484676D02*
X138125790Y-92389438D01*
X138125790Y-92389438D02*
X137982933Y-92341819D01*
X137982933Y-92341819D02*
X137887695Y-92341819D01*
X137887695Y-92341819D02*
X137744838Y-92389438D01*
X137744838Y-92389438D02*
X137697219Y-92437057D01*
X135935314Y-93341819D02*
X136268647Y-92865628D01*
X136506742Y-93341819D02*
X136506742Y-92341819D01*
X136506742Y-92341819D02*
X136125790Y-92341819D01*
X136125790Y-92341819D02*
X136030552Y-92389438D01*
X136030552Y-92389438D02*
X135982933Y-92437057D01*
X135982933Y-92437057D02*
X135935314Y-92532295D01*
X135935314Y-92532295D02*
X135935314Y-92675152D01*
X135935314Y-92675152D02*
X135982933Y-92770390D01*
X135982933Y-92770390D02*
X136030552Y-92818009D01*
X136030552Y-92818009D02*
X136125790Y-92865628D01*
X136125790Y-92865628D02*
X136506742Y-92865628D01*
X135363885Y-93341819D02*
X135459123Y-93294200D01*
X135459123Y-93294200D02*
X135506742Y-93246580D01*
X135506742Y-93246580D02*
X135554361Y-93151342D01*
X135554361Y-93151342D02*
X135554361Y-92865628D01*
X135554361Y-92865628D02*
X135506742Y-92770390D01*
X135506742Y-92770390D02*
X135459123Y-92722771D01*
X135459123Y-92722771D02*
X135363885Y-92675152D01*
X135363885Y-92675152D02*
X135221028Y-92675152D01*
X135221028Y-92675152D02*
X135125790Y-92722771D01*
X135125790Y-92722771D02*
X135078171Y-92770390D01*
X135078171Y-92770390D02*
X135030552Y-92865628D01*
X135030552Y-92865628D02*
X135030552Y-93151342D01*
X135030552Y-93151342D02*
X135078171Y-93246580D01*
X135078171Y-93246580D02*
X135125790Y-93294200D01*
X135125790Y-93294200D02*
X135221028Y-93341819D01*
X135221028Y-93341819D02*
X135363885Y-93341819D01*
X135459123Y-92341819D02*
X135411504Y-92389438D01*
X135411504Y-92389438D02*
X135459123Y-92437057D01*
X135459123Y-92437057D02*
X135506742Y-92389438D01*
X135506742Y-92389438D02*
X135459123Y-92341819D01*
X135459123Y-92341819D02*
X135459123Y-92437057D01*
X135078171Y-92341819D02*
X135030552Y-92389438D01*
X135030552Y-92389438D02*
X135078171Y-92437057D01*
X135078171Y-92437057D02*
X135125790Y-92389438D01*
X135125790Y-92389438D02*
X135078171Y-92341819D01*
X135078171Y-92341819D02*
X135078171Y-92437057D01*
X134601980Y-92675152D02*
X134601980Y-93675152D01*
X134601980Y-92722771D02*
X134506742Y-92675152D01*
X134506742Y-92675152D02*
X134316266Y-92675152D01*
X134316266Y-92675152D02*
X134221028Y-92722771D01*
X134221028Y-92722771D02*
X134173409Y-92770390D01*
X134173409Y-92770390D02*
X134125790Y-92865628D01*
X134125790Y-92865628D02*
X134125790Y-93151342D01*
X134125790Y-93151342D02*
X134173409Y-93246580D01*
X134173409Y-93246580D02*
X134221028Y-93294200D01*
X134221028Y-93294200D02*
X134316266Y-93341819D01*
X134316266Y-93341819D02*
X134506742Y-93341819D01*
X134506742Y-93341819D02*
X134601980Y-93294200D01*
X133697218Y-93341819D02*
X133697218Y-92341819D01*
X133601980Y-92960866D02*
X133316266Y-93341819D01*
X133316266Y-92675152D02*
X133697218Y-93056104D01*
X132506742Y-93294200D02*
X132601980Y-93341819D01*
X132601980Y-93341819D02*
X132792456Y-93341819D01*
X132792456Y-93341819D02*
X132887694Y-93294200D01*
X132887694Y-93294200D02*
X132935313Y-93198961D01*
X132935313Y-93198961D02*
X132935313Y-92818009D01*
X132935313Y-92818009D02*
X132887694Y-92722771D01*
X132887694Y-92722771D02*
X132792456Y-92675152D01*
X132792456Y-92675152D02*
X132601980Y-92675152D01*
X132601980Y-92675152D02*
X132506742Y-92722771D01*
X132506742Y-92722771D02*
X132459123Y-92818009D01*
X132459123Y-92818009D02*
X132459123Y-92913247D01*
X132459123Y-92913247D02*
X132935313Y-93008485D01*
X131030551Y-93675152D02*
X131030551Y-92246580D01*
X129363884Y-92341819D02*
X129268646Y-92341819D01*
X129268646Y-92341819D02*
X129173408Y-92389438D01*
X129173408Y-92389438D02*
X129125789Y-92437057D01*
X129125789Y-92437057D02*
X129078170Y-92532295D01*
X129078170Y-92532295D02*
X129030551Y-92722771D01*
X129030551Y-92722771D02*
X129030551Y-92960866D01*
X129030551Y-92960866D02*
X129078170Y-93151342D01*
X129078170Y-93151342D02*
X129125789Y-93246580D01*
X129125789Y-93246580D02*
X129173408Y-93294200D01*
X129173408Y-93294200D02*
X129268646Y-93341819D01*
X129268646Y-93341819D02*
X129363884Y-93341819D01*
X129363884Y-93341819D02*
X129459122Y-93294200D01*
X129459122Y-93294200D02*
X129506741Y-93246580D01*
X129506741Y-93246580D02*
X129554360Y-93151342D01*
X129554360Y-93151342D02*
X129601979Y-92960866D01*
X129601979Y-92960866D02*
X129601979Y-92722771D01*
X129601979Y-92722771D02*
X129554360Y-92532295D01*
X129554360Y-92532295D02*
X129506741Y-92437057D01*
X129506741Y-92437057D02*
X129459122Y-92389438D01*
X129459122Y-92389438D02*
X129363884Y-92341819D01*
X128173408Y-92675152D02*
X128173408Y-93341819D01*
X128411503Y-92294200D02*
X128649598Y-93008485D01*
X128649598Y-93008485D02*
X128030551Y-93008485D01*
X126935313Y-92294200D02*
X127792455Y-93579914D01*
X126649598Y-92437057D02*
X126601979Y-92389438D01*
X126601979Y-92389438D02*
X126506741Y-92341819D01*
X126506741Y-92341819D02*
X126268646Y-92341819D01*
X126268646Y-92341819D02*
X126173408Y-92389438D01*
X126173408Y-92389438D02*
X126125789Y-92437057D01*
X126125789Y-92437057D02*
X126078170Y-92532295D01*
X126078170Y-92532295D02*
X126078170Y-92627533D01*
X126078170Y-92627533D02*
X126125789Y-92770390D01*
X126125789Y-92770390D02*
X126697217Y-93341819D01*
X126697217Y-93341819D02*
X126078170Y-93341819D01*
X125221027Y-92341819D02*
X125411503Y-92341819D01*
X125411503Y-92341819D02*
X125506741Y-92389438D01*
X125506741Y-92389438D02*
X125554360Y-92437057D01*
X125554360Y-92437057D02*
X125649598Y-92579914D01*
X125649598Y-92579914D02*
X125697217Y-92770390D01*
X125697217Y-92770390D02*
X125697217Y-93151342D01*
X125697217Y-93151342D02*
X125649598Y-93246580D01*
X125649598Y-93246580D02*
X125601979Y-93294200D01*
X125601979Y-93294200D02*
X125506741Y-93341819D01*
X125506741Y-93341819D02*
X125316265Y-93341819D01*
X125316265Y-93341819D02*
X125221027Y-93294200D01*
X125221027Y-93294200D02*
X125173408Y-93246580D01*
X125173408Y-93246580D02*
X125125789Y-93151342D01*
X125125789Y-93151342D02*
X125125789Y-92913247D01*
X125125789Y-92913247D02*
X125173408Y-92818009D01*
X125173408Y-92818009D02*
X125221027Y-92770390D01*
X125221027Y-92770390D02*
X125316265Y-92722771D01*
X125316265Y-92722771D02*
X125506741Y-92722771D01*
X125506741Y-92722771D02*
X125601979Y-92770390D01*
X125601979Y-92770390D02*
X125649598Y-92818009D01*
X125649598Y-92818009D02*
X125697217Y-92913247D01*
X136140649Y-100199819D02*
X136140649Y-99676009D01*
X136140649Y-99676009D02*
X136188268Y-99580771D01*
X136188268Y-99580771D02*
X136283506Y-99533152D01*
X136283506Y-99533152D02*
X136473982Y-99533152D01*
X136473982Y-99533152D02*
X136569220Y-99580771D01*
X136140649Y-100152200D02*
X136235887Y-100199819D01*
X136235887Y-100199819D02*
X136473982Y-100199819D01*
X136473982Y-100199819D02*
X136569220Y-100152200D01*
X136569220Y-100152200D02*
X136616839Y-100056961D01*
X136616839Y-100056961D02*
X136616839Y-99961723D01*
X136616839Y-99961723D02*
X136569220Y-99866485D01*
X136569220Y-99866485D02*
X136473982Y-99818866D01*
X136473982Y-99818866D02*
X136235887Y-99818866D01*
X136235887Y-99818866D02*
X136140649Y-99771247D01*
X135712077Y-100152200D02*
X135616839Y-100199819D01*
X135616839Y-100199819D02*
X135426363Y-100199819D01*
X135426363Y-100199819D02*
X135331125Y-100152200D01*
X135331125Y-100152200D02*
X135283506Y-100056961D01*
X135283506Y-100056961D02*
X135283506Y-100009342D01*
X135283506Y-100009342D02*
X135331125Y-99914104D01*
X135331125Y-99914104D02*
X135426363Y-99866485D01*
X135426363Y-99866485D02*
X135569220Y-99866485D01*
X135569220Y-99866485D02*
X135664458Y-99818866D01*
X135664458Y-99818866D02*
X135712077Y-99723628D01*
X135712077Y-99723628D02*
X135712077Y-99676009D01*
X135712077Y-99676009D02*
X135664458Y-99580771D01*
X135664458Y-99580771D02*
X135569220Y-99533152D01*
X135569220Y-99533152D02*
X135426363Y-99533152D01*
X135426363Y-99533152D02*
X135331125Y-99580771D01*
X134902553Y-100152200D02*
X134807315Y-100199819D01*
X134807315Y-100199819D02*
X134616839Y-100199819D01*
X134616839Y-100199819D02*
X134521601Y-100152200D01*
X134521601Y-100152200D02*
X134473982Y-100056961D01*
X134473982Y-100056961D02*
X134473982Y-100009342D01*
X134473982Y-100009342D02*
X134521601Y-99914104D01*
X134521601Y-99914104D02*
X134616839Y-99866485D01*
X134616839Y-99866485D02*
X134759696Y-99866485D01*
X134759696Y-99866485D02*
X134854934Y-99818866D01*
X134854934Y-99818866D02*
X134902553Y-99723628D01*
X134902553Y-99723628D02*
X134902553Y-99676009D01*
X134902553Y-99676009D02*
X134854934Y-99580771D01*
X134854934Y-99580771D02*
X134759696Y-99533152D01*
X134759696Y-99533152D02*
X134616839Y-99533152D01*
X134616839Y-99533152D02*
X134521601Y-99580771D01*
X133664458Y-100152200D02*
X133759696Y-100199819D01*
X133759696Y-100199819D02*
X133950172Y-100199819D01*
X133950172Y-100199819D02*
X134045410Y-100152200D01*
X134045410Y-100152200D02*
X134093029Y-100056961D01*
X134093029Y-100056961D02*
X134093029Y-99676009D01*
X134093029Y-99676009D02*
X134045410Y-99580771D01*
X134045410Y-99580771D02*
X133950172Y-99533152D01*
X133950172Y-99533152D02*
X133759696Y-99533152D01*
X133759696Y-99533152D02*
X133664458Y-99580771D01*
X133664458Y-99580771D02*
X133616839Y-99676009D01*
X133616839Y-99676009D02*
X133616839Y-99771247D01*
X133616839Y-99771247D02*
X134093029Y-99866485D01*
X133188267Y-100199819D02*
X133188267Y-99533152D01*
X133188267Y-99628390D02*
X133140648Y-99580771D01*
X133140648Y-99580771D02*
X133045410Y-99533152D01*
X133045410Y-99533152D02*
X132902553Y-99533152D01*
X132902553Y-99533152D02*
X132807315Y-99580771D01*
X132807315Y-99580771D02*
X132759696Y-99676009D01*
X132759696Y-99676009D02*
X132759696Y-100199819D01*
X132759696Y-99676009D02*
X132712077Y-99580771D01*
X132712077Y-99580771D02*
X132616839Y-99533152D01*
X132616839Y-99533152D02*
X132473982Y-99533152D01*
X132473982Y-99533152D02*
X132378743Y-99580771D01*
X132378743Y-99580771D02*
X132331124Y-99676009D01*
X132331124Y-99676009D02*
X132331124Y-100199819D01*
X131854934Y-100199819D02*
X131854934Y-99199819D01*
X131854934Y-99580771D02*
X131759696Y-99533152D01*
X131759696Y-99533152D02*
X131569220Y-99533152D01*
X131569220Y-99533152D02*
X131473982Y-99580771D01*
X131473982Y-99580771D02*
X131426363Y-99628390D01*
X131426363Y-99628390D02*
X131378744Y-99723628D01*
X131378744Y-99723628D02*
X131378744Y-100009342D01*
X131378744Y-100009342D02*
X131426363Y-100104580D01*
X131426363Y-100104580D02*
X131473982Y-100152200D01*
X131473982Y-100152200D02*
X131569220Y-100199819D01*
X131569220Y-100199819D02*
X131759696Y-100199819D01*
X131759696Y-100199819D02*
X131854934Y-100152200D01*
X130807315Y-100199819D02*
X130902553Y-100152200D01*
X130902553Y-100152200D02*
X130950172Y-100056961D01*
X130950172Y-100056961D02*
X130950172Y-99199819D01*
X130045410Y-100152200D02*
X130140648Y-100199819D01*
X130140648Y-100199819D02*
X130331124Y-100199819D01*
X130331124Y-100199819D02*
X130426362Y-100152200D01*
X130426362Y-100152200D02*
X130473981Y-100056961D01*
X130473981Y-100056961D02*
X130473981Y-99676009D01*
X130473981Y-99676009D02*
X130426362Y-99580771D01*
X130426362Y-99580771D02*
X130331124Y-99533152D01*
X130331124Y-99533152D02*
X130140648Y-99533152D01*
X130140648Y-99533152D02*
X130045410Y-99580771D01*
X130045410Y-99580771D02*
X129997791Y-99676009D01*
X129997791Y-99676009D02*
X129997791Y-99771247D01*
X129997791Y-99771247D02*
X130473981Y-99866485D01*
X129140648Y-100199819D02*
X129140648Y-99199819D01*
X129140648Y-100152200D02*
X129235886Y-100199819D01*
X129235886Y-100199819D02*
X129426362Y-100199819D01*
X129426362Y-100199819D02*
X129521600Y-100152200D01*
X129521600Y-100152200D02*
X129569219Y-100104580D01*
X129569219Y-100104580D02*
X129616838Y-100009342D01*
X129616838Y-100009342D02*
X129616838Y-99723628D01*
X129616838Y-99723628D02*
X129569219Y-99628390D01*
X129569219Y-99628390D02*
X129521600Y-99580771D01*
X129521600Y-99580771D02*
X129426362Y-99533152D01*
X129426362Y-99533152D02*
X129235886Y-99533152D01*
X129235886Y-99533152D02*
X129140648Y-99580771D01*
X127093028Y-100199819D02*
X127140648Y-100199819D01*
X127140648Y-100199819D02*
X127235886Y-100152200D01*
X127235886Y-100152200D02*
X127378743Y-100009342D01*
X127378743Y-100009342D02*
X127616838Y-99723628D01*
X127616838Y-99723628D02*
X127712076Y-99580771D01*
X127712076Y-99580771D02*
X127759695Y-99437914D01*
X127759695Y-99437914D02*
X127759695Y-99342676D01*
X127759695Y-99342676D02*
X127712076Y-99247438D01*
X127712076Y-99247438D02*
X127616838Y-99199819D01*
X127616838Y-99199819D02*
X127569219Y-99199819D01*
X127569219Y-99199819D02*
X127473981Y-99247438D01*
X127473981Y-99247438D02*
X127426362Y-99342676D01*
X127426362Y-99342676D02*
X127426362Y-99390295D01*
X127426362Y-99390295D02*
X127473981Y-99485533D01*
X127473981Y-99485533D02*
X127521600Y-99533152D01*
X127521600Y-99533152D02*
X127807314Y-99723628D01*
X127807314Y-99723628D02*
X127854933Y-99771247D01*
X127854933Y-99771247D02*
X127902552Y-99866485D01*
X127902552Y-99866485D02*
X127902552Y-100009342D01*
X127902552Y-100009342D02*
X127854933Y-100104580D01*
X127854933Y-100104580D02*
X127807314Y-100152200D01*
X127807314Y-100152200D02*
X127712076Y-100199819D01*
X127712076Y-100199819D02*
X127569219Y-100199819D01*
X127569219Y-100199819D02*
X127473981Y-100152200D01*
X127473981Y-100152200D02*
X127426362Y-100104580D01*
X127426362Y-100104580D02*
X127283505Y-99914104D01*
X127283505Y-99914104D02*
X127235886Y-99771247D01*
X127235886Y-99771247D02*
X127235886Y-99676009D01*
X126045409Y-99533152D02*
X125664457Y-99533152D01*
X125902552Y-99199819D02*
X125902552Y-100056961D01*
X125902552Y-100056961D02*
X125854933Y-100152200D01*
X125854933Y-100152200D02*
X125759695Y-100199819D01*
X125759695Y-100199819D02*
X125664457Y-100199819D01*
X124950171Y-100152200D02*
X125045409Y-100199819D01*
X125045409Y-100199819D02*
X125235885Y-100199819D01*
X125235885Y-100199819D02*
X125331123Y-100152200D01*
X125331123Y-100152200D02*
X125378742Y-100056961D01*
X125378742Y-100056961D02*
X125378742Y-99676009D01*
X125378742Y-99676009D02*
X125331123Y-99580771D01*
X125331123Y-99580771D02*
X125235885Y-99533152D01*
X125235885Y-99533152D02*
X125045409Y-99533152D01*
X125045409Y-99533152D02*
X124950171Y-99580771D01*
X124950171Y-99580771D02*
X124902552Y-99676009D01*
X124902552Y-99676009D02*
X124902552Y-99771247D01*
X124902552Y-99771247D02*
X125378742Y-99866485D01*
X124521599Y-100152200D02*
X124426361Y-100199819D01*
X124426361Y-100199819D02*
X124235885Y-100199819D01*
X124235885Y-100199819D02*
X124140647Y-100152200D01*
X124140647Y-100152200D02*
X124093028Y-100056961D01*
X124093028Y-100056961D02*
X124093028Y-100009342D01*
X124093028Y-100009342D02*
X124140647Y-99914104D01*
X124140647Y-99914104D02*
X124235885Y-99866485D01*
X124235885Y-99866485D02*
X124378742Y-99866485D01*
X124378742Y-99866485D02*
X124473980Y-99818866D01*
X124473980Y-99818866D02*
X124521599Y-99723628D01*
X124521599Y-99723628D02*
X124521599Y-99676009D01*
X124521599Y-99676009D02*
X124473980Y-99580771D01*
X124473980Y-99580771D02*
X124378742Y-99533152D01*
X124378742Y-99533152D02*
X124235885Y-99533152D01*
X124235885Y-99533152D02*
X124140647Y-99580771D01*
X123807313Y-99533152D02*
X123426361Y-99533152D01*
X123664456Y-99199819D02*
X123664456Y-100056961D01*
X123664456Y-100056961D02*
X123616837Y-100152200D01*
X123616837Y-100152200D02*
X123521599Y-100199819D01*
X123521599Y-100199819D02*
X123426361Y-100199819D01*
X122712075Y-100152200D02*
X122807313Y-100199819D01*
X122807313Y-100199819D02*
X122997789Y-100199819D01*
X122997789Y-100199819D02*
X123093027Y-100152200D01*
X123093027Y-100152200D02*
X123140646Y-100056961D01*
X123140646Y-100056961D02*
X123140646Y-99676009D01*
X123140646Y-99676009D02*
X123093027Y-99580771D01*
X123093027Y-99580771D02*
X122997789Y-99533152D01*
X122997789Y-99533152D02*
X122807313Y-99533152D01*
X122807313Y-99533152D02*
X122712075Y-99580771D01*
X122712075Y-99580771D02*
X122664456Y-99676009D01*
X122664456Y-99676009D02*
X122664456Y-99771247D01*
X122664456Y-99771247D02*
X123140646Y-99866485D01*
X121807313Y-100199819D02*
X121807313Y-99199819D01*
X121807313Y-100152200D02*
X121902551Y-100199819D01*
X121902551Y-100199819D02*
X122093027Y-100199819D01*
X122093027Y-100199819D02*
X122188265Y-100152200D01*
X122188265Y-100152200D02*
X122235884Y-100104580D01*
X122235884Y-100104580D02*
X122283503Y-100009342D01*
X122283503Y-100009342D02*
X122283503Y-99723628D01*
X122283503Y-99723628D02*
X122235884Y-99628390D01*
X122235884Y-99628390D02*
X122188265Y-99580771D01*
X122188265Y-99580771D02*
X122093027Y-99533152D01*
X122093027Y-99533152D02*
X121902551Y-99533152D01*
X121902551Y-99533152D02*
X121807313Y-99580771D01*
X120569217Y-100199819D02*
X120569217Y-99533152D01*
X120569217Y-99199819D02*
X120616836Y-99247438D01*
X120616836Y-99247438D02*
X120569217Y-99295057D01*
X120569217Y-99295057D02*
X120521598Y-99247438D01*
X120521598Y-99247438D02*
X120569217Y-99199819D01*
X120569217Y-99199819D02*
X120569217Y-99295057D01*
X120093027Y-99533152D02*
X120093027Y-100199819D01*
X120093027Y-99628390D02*
X120045408Y-99580771D01*
X120045408Y-99580771D02*
X119950170Y-99533152D01*
X119950170Y-99533152D02*
X119807313Y-99533152D01*
X119807313Y-99533152D02*
X119712075Y-99580771D01*
X119712075Y-99580771D02*
X119664456Y-99676009D01*
X119664456Y-99676009D02*
X119664456Y-100199819D01*
X119188265Y-100104580D02*
X119140646Y-100152200D01*
X119140646Y-100152200D02*
X119188265Y-100199819D01*
X119188265Y-100199819D02*
X119235884Y-100152200D01*
X119235884Y-100152200D02*
X119188265Y-100104580D01*
X119188265Y-100104580D02*
X119188265Y-100199819D01*
X119188265Y-99580771D02*
X119140646Y-99628390D01*
X119140646Y-99628390D02*
X119188265Y-99676009D01*
X119188265Y-99676009D02*
X119235884Y-99628390D01*
X119235884Y-99628390D02*
X119188265Y-99580771D01*
X119188265Y-99580771D02*
X119188265Y-99676009D01*
X144488819Y-100152268D02*
X144488819Y-100723696D01*
X145488819Y-100437982D02*
X144488819Y-100437982D01*
X145488819Y-101057030D02*
X144488819Y-101057030D01*
X144488819Y-101057030D02*
X144488819Y-101437982D01*
X144488819Y-101437982D02*
X144536438Y-101533220D01*
X144536438Y-101533220D02*
X144584057Y-101580839D01*
X144584057Y-101580839D02*
X144679295Y-101628458D01*
X144679295Y-101628458D02*
X144822152Y-101628458D01*
X144822152Y-101628458D02*
X144917390Y-101580839D01*
X144917390Y-101580839D02*
X144965009Y-101533220D01*
X144965009Y-101533220D02*
X145012628Y-101437982D01*
X145012628Y-101437982D02*
X145012628Y-101057030D01*
X145488819Y-102104649D02*
X145488819Y-102295125D01*
X145488819Y-102295125D02*
X145441200Y-102390363D01*
X145441200Y-102390363D02*
X145393580Y-102437982D01*
X145393580Y-102437982D02*
X145250723Y-102533220D01*
X145250723Y-102533220D02*
X145060247Y-102580839D01*
X145060247Y-102580839D02*
X144679295Y-102580839D01*
X144679295Y-102580839D02*
X144584057Y-102533220D01*
X144584057Y-102533220D02*
X144536438Y-102485601D01*
X144536438Y-102485601D02*
X144488819Y-102390363D01*
X144488819Y-102390363D02*
X144488819Y-102199887D01*
X144488819Y-102199887D02*
X144536438Y-102104649D01*
X144536438Y-102104649D02*
X144584057Y-102057030D01*
X144584057Y-102057030D02*
X144679295Y-102009411D01*
X144679295Y-102009411D02*
X144917390Y-102009411D01*
X144917390Y-102009411D02*
X145012628Y-102057030D01*
X145012628Y-102057030D02*
X145060247Y-102104649D01*
X145060247Y-102104649D02*
X145107866Y-102199887D01*
X145107866Y-102199887D02*
X145107866Y-102390363D01*
X145107866Y-102390363D02*
X145060247Y-102485601D01*
X145060247Y-102485601D02*
X145012628Y-102533220D01*
X145012628Y-102533220D02*
X144917390Y-102580839D01*
X142456819Y-99199887D02*
X142456819Y-99771315D01*
X143456819Y-99485601D02*
X142456819Y-99485601D01*
X143456819Y-100104649D02*
X142456819Y-100104649D01*
X142456819Y-100104649D02*
X142456819Y-100485601D01*
X142456819Y-100485601D02*
X142504438Y-100580839D01*
X142504438Y-100580839D02*
X142552057Y-100628458D01*
X142552057Y-100628458D02*
X142647295Y-100676077D01*
X142647295Y-100676077D02*
X142790152Y-100676077D01*
X142790152Y-100676077D02*
X142885390Y-100628458D01*
X142885390Y-100628458D02*
X142933009Y-100580839D01*
X142933009Y-100580839D02*
X142980628Y-100485601D01*
X142980628Y-100485601D02*
X142980628Y-100104649D01*
X143456819Y-101628458D02*
X143456819Y-101057030D01*
X143456819Y-101342744D02*
X142456819Y-101342744D01*
X142456819Y-101342744D02*
X142599676Y-101247506D01*
X142599676Y-101247506D02*
X142694914Y-101152268D01*
X142694914Y-101152268D02*
X142742533Y-101057030D01*
X142456819Y-102247506D02*
X142456819Y-102342744D01*
X142456819Y-102342744D02*
X142504438Y-102437982D01*
X142504438Y-102437982D02*
X142552057Y-102485601D01*
X142552057Y-102485601D02*
X142647295Y-102533220D01*
X142647295Y-102533220D02*
X142837771Y-102580839D01*
X142837771Y-102580839D02*
X143075866Y-102580839D01*
X143075866Y-102580839D02*
X143266342Y-102533220D01*
X143266342Y-102533220D02*
X143361580Y-102485601D01*
X143361580Y-102485601D02*
X143409200Y-102437982D01*
X143409200Y-102437982D02*
X143456819Y-102342744D01*
X143456819Y-102342744D02*
X143456819Y-102247506D01*
X143456819Y-102247506D02*
X143409200Y-102152268D01*
X143409200Y-102152268D02*
X143361580Y-102104649D01*
X143361580Y-102104649D02*
X143266342Y-102057030D01*
X143266342Y-102057030D02*
X143075866Y-102009411D01*
X143075866Y-102009411D02*
X142837771Y-102009411D01*
X142837771Y-102009411D02*
X142647295Y-102057030D01*
X142647295Y-102057030D02*
X142552057Y-102104649D01*
X142552057Y-102104649D02*
X142504438Y-102152268D01*
X142504438Y-102152268D02*
X142456819Y-102247506D01*
X141184094Y-94450819D02*
X140612666Y-94450819D01*
X140898380Y-95450819D02*
X140898380Y-94450819D01*
X140279332Y-95450819D02*
X140279332Y-94450819D01*
X140279332Y-94450819D02*
X139898380Y-94450819D01*
X139898380Y-94450819D02*
X139803142Y-94498438D01*
X139803142Y-94498438D02*
X139755523Y-94546057D01*
X139755523Y-94546057D02*
X139707904Y-94641295D01*
X139707904Y-94641295D02*
X139707904Y-94784152D01*
X139707904Y-94784152D02*
X139755523Y-94879390D01*
X139755523Y-94879390D02*
X139803142Y-94927009D01*
X139803142Y-94927009D02*
X139898380Y-94974628D01*
X139898380Y-94974628D02*
X140279332Y-94974628D01*
X138755523Y-95450819D02*
X139326951Y-95450819D01*
X139041237Y-95450819D02*
X139041237Y-94450819D01*
X139041237Y-94450819D02*
X139136475Y-94593676D01*
X139136475Y-94593676D02*
X139231713Y-94688914D01*
X139231713Y-94688914D02*
X139326951Y-94736533D01*
X138374570Y-94546057D02*
X138326951Y-94498438D01*
X138326951Y-94498438D02*
X138231713Y-94450819D01*
X138231713Y-94450819D02*
X137993618Y-94450819D01*
X137993618Y-94450819D02*
X137898380Y-94498438D01*
X137898380Y-94498438D02*
X137850761Y-94546057D01*
X137850761Y-94546057D02*
X137803142Y-94641295D01*
X137803142Y-94641295D02*
X137803142Y-94736533D01*
X137803142Y-94736533D02*
X137850761Y-94879390D01*
X137850761Y-94879390D02*
X138422189Y-95450819D01*
X138422189Y-95450819D02*
X137803142Y-95450819D01*
X122562857Y-106626819D02*
X122896190Y-106150628D01*
X123134285Y-106626819D02*
X123134285Y-105626819D01*
X123134285Y-105626819D02*
X122753333Y-105626819D01*
X122753333Y-105626819D02*
X122658095Y-105674438D01*
X122658095Y-105674438D02*
X122610476Y-105722057D01*
X122610476Y-105722057D02*
X122562857Y-105817295D01*
X122562857Y-105817295D02*
X122562857Y-105960152D01*
X122562857Y-105960152D02*
X122610476Y-106055390D01*
X122610476Y-106055390D02*
X122658095Y-106103009D01*
X122658095Y-106103009D02*
X122753333Y-106150628D01*
X122753333Y-106150628D02*
X123134285Y-106150628D01*
X121610476Y-106626819D02*
X122181904Y-106626819D01*
X121896190Y-106626819D02*
X121896190Y-105626819D01*
X121896190Y-105626819D02*
X121991428Y-105769676D01*
X121991428Y-105769676D02*
X122086666Y-105864914D01*
X122086666Y-105864914D02*
X122181904Y-105912533D01*
X121134285Y-106626819D02*
X120943809Y-106626819D01*
X120943809Y-106626819D02*
X120848571Y-106579200D01*
X120848571Y-106579200D02*
X120800952Y-106531580D01*
X120800952Y-106531580D02*
X120705714Y-106388723D01*
X120705714Y-106388723D02*
X120658095Y-106198247D01*
X120658095Y-106198247D02*
X120658095Y-105817295D01*
X120658095Y-105817295D02*
X120705714Y-105722057D01*
X120705714Y-105722057D02*
X120753333Y-105674438D01*
X120753333Y-105674438D02*
X120848571Y-105626819D01*
X120848571Y-105626819D02*
X121039047Y-105626819D01*
X121039047Y-105626819D02*
X121134285Y-105674438D01*
X121134285Y-105674438D02*
X121181904Y-105722057D01*
X121181904Y-105722057D02*
X121229523Y-105817295D01*
X121229523Y-105817295D02*
X121229523Y-106055390D01*
X121229523Y-106055390D02*
X121181904Y-106150628D01*
X121181904Y-106150628D02*
X121134285Y-106198247D01*
X121134285Y-106198247D02*
X121039047Y-106245866D01*
X121039047Y-106245866D02*
X120848571Y-106245866D01*
X120848571Y-106245866D02*
X120753333Y-106198247D01*
X120753333Y-106198247D02*
X120705714Y-106150628D01*
X120705714Y-106150628D02*
X120658095Y-106055390D01*
X111672666Y-110182819D02*
X112005999Y-109706628D01*
X112244094Y-110182819D02*
X112244094Y-109182819D01*
X112244094Y-109182819D02*
X111863142Y-109182819D01*
X111863142Y-109182819D02*
X111767904Y-109230438D01*
X111767904Y-109230438D02*
X111720285Y-109278057D01*
X111720285Y-109278057D02*
X111672666Y-109373295D01*
X111672666Y-109373295D02*
X111672666Y-109516152D01*
X111672666Y-109516152D02*
X111720285Y-109611390D01*
X111720285Y-109611390D02*
X111767904Y-109659009D01*
X111767904Y-109659009D02*
X111863142Y-109706628D01*
X111863142Y-109706628D02*
X112244094Y-109706628D01*
X110720285Y-110182819D02*
X111291713Y-110182819D01*
X111005999Y-110182819D02*
X111005999Y-109182819D01*
X111005999Y-109182819D02*
X111101237Y-109325676D01*
X111101237Y-109325676D02*
X111196475Y-109420914D01*
X111196475Y-109420914D02*
X111291713Y-109468533D01*
X122562857Y-108150819D02*
X122896190Y-107674628D01*
X123134285Y-108150819D02*
X123134285Y-107150819D01*
X123134285Y-107150819D02*
X122753333Y-107150819D01*
X122753333Y-107150819D02*
X122658095Y-107198438D01*
X122658095Y-107198438D02*
X122610476Y-107246057D01*
X122610476Y-107246057D02*
X122562857Y-107341295D01*
X122562857Y-107341295D02*
X122562857Y-107484152D01*
X122562857Y-107484152D02*
X122610476Y-107579390D01*
X122610476Y-107579390D02*
X122658095Y-107627009D01*
X122658095Y-107627009D02*
X122753333Y-107674628D01*
X122753333Y-107674628D02*
X123134285Y-107674628D01*
X121610476Y-108150819D02*
X122181904Y-108150819D01*
X121896190Y-108150819D02*
X121896190Y-107150819D01*
X121896190Y-107150819D02*
X121991428Y-107293676D01*
X121991428Y-107293676D02*
X122086666Y-107388914D01*
X122086666Y-107388914D02*
X122181904Y-107436533D01*
X121039047Y-107579390D02*
X121134285Y-107531771D01*
X121134285Y-107531771D02*
X121181904Y-107484152D01*
X121181904Y-107484152D02*
X121229523Y-107388914D01*
X121229523Y-107388914D02*
X121229523Y-107341295D01*
X121229523Y-107341295D02*
X121181904Y-107246057D01*
X121181904Y-107246057D02*
X121134285Y-107198438D01*
X121134285Y-107198438D02*
X121039047Y-107150819D01*
X121039047Y-107150819D02*
X120848571Y-107150819D01*
X120848571Y-107150819D02*
X120753333Y-107198438D01*
X120753333Y-107198438D02*
X120705714Y-107246057D01*
X120705714Y-107246057D02*
X120658095Y-107341295D01*
X120658095Y-107341295D02*
X120658095Y-107388914D01*
X120658095Y-107388914D02*
X120705714Y-107484152D01*
X120705714Y-107484152D02*
X120753333Y-107531771D01*
X120753333Y-107531771D02*
X120848571Y-107579390D01*
X120848571Y-107579390D02*
X121039047Y-107579390D01*
X121039047Y-107579390D02*
X121134285Y-107627009D01*
X121134285Y-107627009D02*
X121181904Y-107674628D01*
X121181904Y-107674628D02*
X121229523Y-107769866D01*
X121229523Y-107769866D02*
X121229523Y-107960342D01*
X121229523Y-107960342D02*
X121181904Y-108055580D01*
X121181904Y-108055580D02*
X121134285Y-108103200D01*
X121134285Y-108103200D02*
X121039047Y-108150819D01*
X121039047Y-108150819D02*
X120848571Y-108150819D01*
X120848571Y-108150819D02*
X120753333Y-108103200D01*
X120753333Y-108103200D02*
X120705714Y-108055580D01*
X120705714Y-108055580D02*
X120658095Y-107960342D01*
X120658095Y-107960342D02*
X120658095Y-107769866D01*
X120658095Y-107769866D02*
X120705714Y-107674628D01*
X120705714Y-107674628D02*
X120753333Y-107627009D01*
X120753333Y-107627009D02*
X120848571Y-107579390D01*
X110656666Y-105610819D02*
X110989999Y-105134628D01*
X111228094Y-105610819D02*
X111228094Y-104610819D01*
X111228094Y-104610819D02*
X110847142Y-104610819D01*
X110847142Y-104610819D02*
X110751904Y-104658438D01*
X110751904Y-104658438D02*
X110704285Y-104706057D01*
X110704285Y-104706057D02*
X110656666Y-104801295D01*
X110656666Y-104801295D02*
X110656666Y-104944152D01*
X110656666Y-104944152D02*
X110704285Y-105039390D01*
X110704285Y-105039390D02*
X110751904Y-105087009D01*
X110751904Y-105087009D02*
X110847142Y-105134628D01*
X110847142Y-105134628D02*
X111228094Y-105134628D01*
X110275713Y-104706057D02*
X110228094Y-104658438D01*
X110228094Y-104658438D02*
X110132856Y-104610819D01*
X110132856Y-104610819D02*
X109894761Y-104610819D01*
X109894761Y-104610819D02*
X109799523Y-104658438D01*
X109799523Y-104658438D02*
X109751904Y-104706057D01*
X109751904Y-104706057D02*
X109704285Y-104801295D01*
X109704285Y-104801295D02*
X109704285Y-104896533D01*
X109704285Y-104896533D02*
X109751904Y-105039390D01*
X109751904Y-105039390D02*
X110323332Y-105610819D01*
X110323332Y-105610819D02*
X109704285Y-105610819D01*
X116049977Y-97482738D02*
X116049977Y-98197023D01*
X116049977Y-98197023D02*
X116097596Y-98339880D01*
X116097596Y-98339880D02*
X116192834Y-98435119D01*
X116192834Y-98435119D02*
X116335691Y-98482738D01*
X116335691Y-98482738D02*
X116430929Y-98482738D01*
X115573786Y-98482738D02*
X115573786Y-97482738D01*
X115573786Y-97482738D02*
X115192834Y-97482738D01*
X115192834Y-97482738D02*
X115097596Y-97530357D01*
X115097596Y-97530357D02*
X115049977Y-97577976D01*
X115049977Y-97577976D02*
X115002358Y-97673214D01*
X115002358Y-97673214D02*
X115002358Y-97816071D01*
X115002358Y-97816071D02*
X115049977Y-97911309D01*
X115049977Y-97911309D02*
X115097596Y-97958928D01*
X115097596Y-97958928D02*
X115192834Y-98006547D01*
X115192834Y-98006547D02*
X115573786Y-98006547D01*
X114669024Y-97482738D02*
X114049977Y-97482738D01*
X114049977Y-97482738D02*
X114383310Y-97863690D01*
X114383310Y-97863690D02*
X114240453Y-97863690D01*
X114240453Y-97863690D02*
X114145215Y-97911309D01*
X114145215Y-97911309D02*
X114097596Y-97958928D01*
X114097596Y-97958928D02*
X114049977Y-98054166D01*
X114049977Y-98054166D02*
X114049977Y-98292261D01*
X114049977Y-98292261D02*
X114097596Y-98387499D01*
X114097596Y-98387499D02*
X114145215Y-98435119D01*
X114145215Y-98435119D02*
X114240453Y-98482738D01*
X114240453Y-98482738D02*
X114526167Y-98482738D01*
X114526167Y-98482738D02*
X114621405Y-98435119D01*
X114621405Y-98435119D02*
X114669024Y-98387499D01*
X126817333Y-95974819D02*
X126817333Y-96689104D01*
X126817333Y-96689104D02*
X126864952Y-96831961D01*
X126864952Y-96831961D02*
X126960190Y-96927200D01*
X126960190Y-96927200D02*
X127103047Y-96974819D01*
X127103047Y-96974819D02*
X127198285Y-96974819D01*
X126341142Y-96974819D02*
X126341142Y-95974819D01*
X126341142Y-95974819D02*
X125960190Y-95974819D01*
X125960190Y-95974819D02*
X125864952Y-96022438D01*
X125864952Y-96022438D02*
X125817333Y-96070057D01*
X125817333Y-96070057D02*
X125769714Y-96165295D01*
X125769714Y-96165295D02*
X125769714Y-96308152D01*
X125769714Y-96308152D02*
X125817333Y-96403390D01*
X125817333Y-96403390D02*
X125864952Y-96451009D01*
X125864952Y-96451009D02*
X125960190Y-96498628D01*
X125960190Y-96498628D02*
X126341142Y-96498628D01*
X124817333Y-96974819D02*
X125388761Y-96974819D01*
X125103047Y-96974819D02*
X125103047Y-95974819D01*
X125103047Y-95974819D02*
X125198285Y-96117676D01*
X125198285Y-96117676D02*
X125293523Y-96212914D01*
X125293523Y-96212914D02*
X125388761Y-96260533D01*
X119705333Y-109944819D02*
X119705333Y-110659104D01*
X119705333Y-110659104D02*
X119752952Y-110801961D01*
X119752952Y-110801961D02*
X119848190Y-110897200D01*
X119848190Y-110897200D02*
X119991047Y-110944819D01*
X119991047Y-110944819D02*
X120086285Y-110944819D01*
X119229142Y-110944819D02*
X119229142Y-109944819D01*
X119229142Y-109944819D02*
X118848190Y-109944819D01*
X118848190Y-109944819D02*
X118752952Y-109992438D01*
X118752952Y-109992438D02*
X118705333Y-110040057D01*
X118705333Y-110040057D02*
X118657714Y-110135295D01*
X118657714Y-110135295D02*
X118657714Y-110278152D01*
X118657714Y-110278152D02*
X118705333Y-110373390D01*
X118705333Y-110373390D02*
X118752952Y-110421009D01*
X118752952Y-110421009D02*
X118848190Y-110468628D01*
X118848190Y-110468628D02*
X119229142Y-110468628D01*
X118276761Y-110040057D02*
X118229142Y-109992438D01*
X118229142Y-109992438D02*
X118133904Y-109944819D01*
X118133904Y-109944819D02*
X117895809Y-109944819D01*
X117895809Y-109944819D02*
X117800571Y-109992438D01*
X117800571Y-109992438D02*
X117752952Y-110040057D01*
X117752952Y-110040057D02*
X117705333Y-110135295D01*
X117705333Y-110135295D02*
X117705333Y-110230533D01*
X117705333Y-110230533D02*
X117752952Y-110373390D01*
X117752952Y-110373390D02*
X118324380Y-110944819D01*
X118324380Y-110944819D02*
X117705333Y-110944819D01*
X140424819Y-99199887D02*
X140424819Y-99771315D01*
X141424819Y-99485601D02*
X140424819Y-99485601D01*
X141424819Y-100104649D02*
X140424819Y-100104649D01*
X140424819Y-100104649D02*
X140424819Y-100485601D01*
X140424819Y-100485601D02*
X140472438Y-100580839D01*
X140472438Y-100580839D02*
X140520057Y-100628458D01*
X140520057Y-100628458D02*
X140615295Y-100676077D01*
X140615295Y-100676077D02*
X140758152Y-100676077D01*
X140758152Y-100676077D02*
X140853390Y-100628458D01*
X140853390Y-100628458D02*
X140901009Y-100580839D01*
X140901009Y-100580839D02*
X140948628Y-100485601D01*
X140948628Y-100485601D02*
X140948628Y-100104649D01*
X141424819Y-101628458D02*
X141424819Y-101057030D01*
X141424819Y-101342744D02*
X140424819Y-101342744D01*
X140424819Y-101342744D02*
X140567676Y-101247506D01*
X140567676Y-101247506D02*
X140662914Y-101152268D01*
X140662914Y-101152268D02*
X140710533Y-101057030D01*
X141424819Y-102580839D02*
X141424819Y-102009411D01*
X141424819Y-102295125D02*
X140424819Y-102295125D01*
X140424819Y-102295125D02*
X140567676Y-102199887D01*
X140567676Y-102199887D02*
X140662914Y-102104649D01*
X140662914Y-102104649D02*
X140710533Y-102009411D01*
D13*
%TO.C,REF\u002A\u002A*%
G36*
X127087763Y-120086414D02*
G01*
X123592201Y-120086414D01*
X123592201Y-119235218D01*
X127087763Y-119235218D01*
X127087763Y-120086414D01*
G37*
G36*
X124623725Y-117504495D02*
G01*
X124629685Y-117504949D01*
X124635559Y-117505695D01*
X124641339Y-117506727D01*
X124647017Y-117508038D01*
X124652587Y-117509620D01*
X124658040Y-117511465D01*
X124663370Y-117513567D01*
X124668570Y-117515917D01*
X124673630Y-117518510D01*
X124678546Y-117521336D01*
X124683308Y-117524389D01*
X124687910Y-117527661D01*
X124692344Y-117531146D01*
X124696603Y-117534835D01*
X124700679Y-117538722D01*
X124704565Y-117542798D01*
X124708255Y-117547057D01*
X124711739Y-117551491D01*
X124715012Y-117556093D01*
X124718065Y-117560855D01*
X124720891Y-117565770D01*
X124723483Y-117570831D01*
X124725834Y-117576030D01*
X124727935Y-117581360D01*
X124729781Y-117586814D01*
X124731362Y-117592383D01*
X124732673Y-117598062D01*
X124733705Y-117603841D01*
X124734452Y-117609715D01*
X124734905Y-117615676D01*
X124735058Y-117621715D01*
X124734905Y-117627755D01*
X124734452Y-117633715D01*
X124733705Y-117639589D01*
X124732673Y-117645368D01*
X124731362Y-117651046D01*
X124729781Y-117656616D01*
X124727935Y-117662069D01*
X124725834Y-117667399D01*
X124723483Y-117672597D01*
X124720891Y-117677658D01*
X124718065Y-117682572D01*
X124715012Y-117687334D01*
X124711739Y-117691936D01*
X124708255Y-117696369D01*
X124704565Y-117700628D01*
X124700679Y-117704703D01*
X124696603Y-117708589D01*
X124692344Y-117712278D01*
X124687910Y-117715762D01*
X124683308Y-117719034D01*
X124678546Y-117722087D01*
X124673630Y-117724913D01*
X124668570Y-117727504D01*
X124663370Y-117729855D01*
X124658040Y-117731956D01*
X124652587Y-117733801D01*
X124647017Y-117735383D01*
X124641339Y-117736693D01*
X124635559Y-117737725D01*
X124629685Y-117738471D01*
X124623725Y-117738925D01*
X124617685Y-117739077D01*
X124611646Y-117738925D01*
X124605685Y-117738471D01*
X124599811Y-117737725D01*
X124594032Y-117736693D01*
X124588353Y-117735383D01*
X124582784Y-117733801D01*
X124577330Y-117731956D01*
X124572000Y-117729855D01*
X124566801Y-117727504D01*
X124561740Y-117724913D01*
X124556825Y-117722087D01*
X124552063Y-117719034D01*
X124547461Y-117715762D01*
X124543027Y-117712278D01*
X124538768Y-117708589D01*
X124534692Y-117704703D01*
X124530805Y-117700628D01*
X124527116Y-117696369D01*
X124523632Y-117691936D01*
X124520359Y-117687334D01*
X124517306Y-117682573D01*
X124514480Y-117677658D01*
X124511888Y-117672597D01*
X124509537Y-117667399D01*
X124507435Y-117662069D01*
X124505590Y-117656616D01*
X124504008Y-117651046D01*
X124502698Y-117645368D01*
X124501665Y-117639589D01*
X124500919Y-117633715D01*
X124500466Y-117627755D01*
X124500313Y-117621715D01*
X124500466Y-117615675D01*
X124500919Y-117609715D01*
X124501665Y-117603841D01*
X124502698Y-117598061D01*
X124504008Y-117592383D01*
X124505590Y-117586813D01*
X124507435Y-117581360D01*
X124509537Y-117576030D01*
X124511888Y-117570831D01*
X124514480Y-117565770D01*
X124517306Y-117560855D01*
X124520359Y-117556093D01*
X124523632Y-117551491D01*
X124527116Y-117547057D01*
X124530805Y-117542798D01*
X124534692Y-117538721D01*
X124538768Y-117534835D01*
X124543027Y-117531146D01*
X124547461Y-117527661D01*
X124552063Y-117524389D01*
X124556825Y-117521336D01*
X124561740Y-117518509D01*
X124566801Y-117515917D01*
X124572000Y-117513567D01*
X124577330Y-117511465D01*
X124582784Y-117509620D01*
X124588353Y-117508038D01*
X124594032Y-117506727D01*
X124599811Y-117505695D01*
X124605685Y-117504949D01*
X124611646Y-117504495D01*
X124617685Y-117504343D01*
X124623725Y-117504495D01*
G37*
G36*
X126170266Y-114676436D02*
G01*
X126186785Y-114689137D01*
X126202549Y-114702392D01*
X126217524Y-114716214D01*
X126231676Y-114730612D01*
X126244971Y-114745599D01*
X126257375Y-114761187D01*
X126268853Y-114777386D01*
X126279372Y-114794207D01*
X126288897Y-114811663D01*
X126297395Y-114829763D01*
X126298789Y-114833038D01*
X126300099Y-114836222D01*
X126301329Y-114839315D01*
X126302480Y-114842314D01*
X126303554Y-114845215D01*
X126304555Y-114848017D01*
X126305484Y-114850716D01*
X126306340Y-114853300D01*
X126306343Y-114853310D01*
X126434222Y-114853310D01*
X126434222Y-114973960D01*
X126288879Y-114973960D01*
X126288449Y-114978957D01*
X126258043Y-115332432D01*
X127428378Y-114099871D01*
X127428378Y-114237362D01*
X126244842Y-115485838D01*
X126232757Y-115626325D01*
X126110729Y-117044928D01*
X126126192Y-117060662D01*
X127354812Y-118310928D01*
X127284010Y-118380503D01*
X126099619Y-117174073D01*
X126051882Y-117728933D01*
X126051606Y-117731377D01*
X126051199Y-117733809D01*
X126050666Y-117736228D01*
X126050012Y-117738628D01*
X126049239Y-117741007D01*
X126048352Y-117743360D01*
X126047356Y-117745684D01*
X126046253Y-117747975D01*
X126045048Y-117750230D01*
X126043745Y-117752445D01*
X126040860Y-117756739D01*
X126037631Y-117760830D01*
X126034090Y-117764687D01*
X126030268Y-117768280D01*
X126026198Y-117771582D01*
X126021911Y-117774563D01*
X126017439Y-117777192D01*
X126015144Y-117778366D01*
X126012814Y-117779442D01*
X126010455Y-117780415D01*
X126008069Y-117781282D01*
X126005661Y-117782039D01*
X126003235Y-117782684D01*
X126000794Y-117783211D01*
X125998344Y-117783617D01*
X125998344Y-117965608D01*
X125774769Y-117965608D01*
X125774769Y-117784080D01*
X124924991Y-117784080D01*
X124913397Y-117804305D01*
X124900516Y-117823649D01*
X124886404Y-117842054D01*
X124871121Y-117859460D01*
X124854726Y-117875810D01*
X124837276Y-117891045D01*
X124818831Y-117905106D01*
X124799449Y-117917936D01*
X124779188Y-117929475D01*
X124758107Y-117939666D01*
X124736264Y-117948449D01*
X124713719Y-117955766D01*
X124690528Y-117961559D01*
X124666752Y-117965769D01*
X124642448Y-117968338D01*
X124617676Y-117969207D01*
X124599794Y-117968755D01*
X124582147Y-117967413D01*
X124564756Y-117965204D01*
X124547644Y-117962148D01*
X124530832Y-117958268D01*
X124514342Y-117953586D01*
X124498196Y-117948123D01*
X124482416Y-117941901D01*
X124467024Y-117934942D01*
X124452040Y-117927269D01*
X124437488Y-117918902D01*
X124423390Y-117909864D01*
X124409766Y-117900176D01*
X124396638Y-117889860D01*
X124384030Y-117878938D01*
X124371962Y-117867433D01*
X124360456Y-117855365D01*
X124349534Y-117842756D01*
X124339218Y-117829629D01*
X124329530Y-117816005D01*
X124320491Y-117801907D01*
X124312124Y-117787355D01*
X124304450Y-117772371D01*
X124297491Y-117756979D01*
X124291269Y-117741198D01*
X124285806Y-117725052D01*
X124281123Y-117708562D01*
X124277243Y-117691750D01*
X124274187Y-117674637D01*
X124271977Y-117657246D01*
X124270635Y-117639598D01*
X124270183Y-117621715D01*
X124436962Y-117621715D01*
X124437197Y-117631015D01*
X124437895Y-117640193D01*
X124439044Y-117649237D01*
X124440634Y-117658136D01*
X124442652Y-117666880D01*
X124445087Y-117675456D01*
X124447929Y-117683853D01*
X124451165Y-117692060D01*
X124454784Y-117700065D01*
X124458775Y-117707857D01*
X124463127Y-117715425D01*
X124467828Y-117722758D01*
X124472866Y-117729844D01*
X124478231Y-117736671D01*
X124483912Y-117743228D01*
X124489896Y-117749505D01*
X124496172Y-117755489D01*
X124502730Y-117761169D01*
X124509557Y-117766534D01*
X124516643Y-117771573D01*
X124523975Y-117776274D01*
X124531543Y-117780626D01*
X124539336Y-117784617D01*
X124547341Y-117788236D01*
X124555548Y-117791472D01*
X124563945Y-117794313D01*
X124572521Y-117796749D01*
X124581264Y-117798767D01*
X124590164Y-117800356D01*
X124599208Y-117801506D01*
X124608386Y-117802204D01*
X124617686Y-117802439D01*
X124626986Y-117802204D01*
X124636165Y-117801506D01*
X124645210Y-117800356D01*
X124654110Y-117798767D01*
X124662854Y-117796749D01*
X124671430Y-117794313D01*
X124679827Y-117791472D01*
X124688034Y-117788236D01*
X124696040Y-117784617D01*
X124703832Y-117780626D01*
X124711400Y-117776274D01*
X124718733Y-117771573D01*
X124725818Y-117766534D01*
X124732645Y-117761169D01*
X124739203Y-117755489D01*
X124745479Y-117749505D01*
X124751463Y-117743228D01*
X124757143Y-117736671D01*
X124762508Y-117729844D01*
X124767546Y-117722758D01*
X124772247Y-117715425D01*
X124776598Y-117707857D01*
X124780589Y-117700065D01*
X124784208Y-117692060D01*
X124787444Y-117683853D01*
X124790285Y-117675456D01*
X124792720Y-117666880D01*
X124794738Y-117658136D01*
X124796327Y-117649237D01*
X124797476Y-117640193D01*
X124798174Y-117631015D01*
X124798409Y-117621715D01*
X124798174Y-117612415D01*
X124797476Y-117603236D01*
X124796327Y-117594191D01*
X124794738Y-117585291D01*
X124792720Y-117576547D01*
X124790285Y-117567971D01*
X124787444Y-117559574D01*
X124784208Y-117551366D01*
X124780589Y-117543361D01*
X124776598Y-117535568D01*
X124772247Y-117528000D01*
X124767546Y-117520668D01*
X124762508Y-117513582D01*
X124757143Y-117506755D01*
X124751463Y-117500198D01*
X124745479Y-117493922D01*
X124739203Y-117487938D01*
X124732645Y-117482258D01*
X124725818Y-117476893D01*
X124718733Y-117471854D01*
X124711400Y-117467154D01*
X124703832Y-117462802D01*
X124696040Y-117458812D01*
X124688034Y-117455193D01*
X124679827Y-117451957D01*
X124671430Y-117449116D01*
X124662853Y-117446681D01*
X124654110Y-117444663D01*
X124645209Y-117443074D01*
X124636165Y-117441924D01*
X124626986Y-117441226D01*
X124617686Y-117440991D01*
X124608386Y-117441226D01*
X124599208Y-117441924D01*
X124590164Y-117443074D01*
X124581264Y-117444663D01*
X124572521Y-117446681D01*
X124563945Y-117449116D01*
X124555548Y-117451957D01*
X124547341Y-117455193D01*
X124539336Y-117458812D01*
X124531543Y-117462802D01*
X124523975Y-117467154D01*
X124516643Y-117471854D01*
X124509557Y-117476893D01*
X124502730Y-117482258D01*
X124496172Y-117487938D01*
X124489896Y-117493922D01*
X124483912Y-117500198D01*
X124478231Y-117506755D01*
X124472866Y-117513582D01*
X124467828Y-117520668D01*
X124463127Y-117528000D01*
X124458775Y-117535568D01*
X124454784Y-117543361D01*
X124451165Y-117551366D01*
X124447929Y-117559574D01*
X124445087Y-117567971D01*
X124442652Y-117576547D01*
X124440634Y-117585291D01*
X124439044Y-117594191D01*
X124437895Y-117603236D01*
X124437197Y-117612415D01*
X124436962Y-117621715D01*
X124270183Y-117621715D01*
X124270260Y-117614329D01*
X124270490Y-117606981D01*
X124270871Y-117599672D01*
X124271402Y-117592405D01*
X124272081Y-117585180D01*
X124272906Y-117577998D01*
X124273876Y-117570862D01*
X124274989Y-117563773D01*
X123512672Y-118367925D01*
X123440665Y-118299587D01*
X124513422Y-117169790D01*
X124648481Y-117169790D01*
X124658435Y-117276576D01*
X124674511Y-117278835D01*
X124690344Y-117281818D01*
X124705914Y-117285509D01*
X124721206Y-117289890D01*
X124736201Y-117294943D01*
X124750882Y-117300651D01*
X124765231Y-117306996D01*
X124779232Y-117313961D01*
X124792866Y-117321529D01*
X124806116Y-117329682D01*
X124818966Y-117338402D01*
X124831396Y-117347673D01*
X124843390Y-117357476D01*
X124854931Y-117367794D01*
X124866001Y-117378610D01*
X124876582Y-117389906D01*
X124886657Y-117401665D01*
X124896208Y-117413870D01*
X124905219Y-117426502D01*
X124913671Y-117439545D01*
X124921547Y-117452980D01*
X124928830Y-117466792D01*
X124935502Y-117480961D01*
X124941546Y-117495471D01*
X124946945Y-117510304D01*
X124951680Y-117525442D01*
X124955734Y-117540869D01*
X124959091Y-117556567D01*
X124961732Y-117572517D01*
X124963640Y-117588704D01*
X124964798Y-117605109D01*
X124965188Y-117621715D01*
X124965148Y-117627000D01*
X124965030Y-117632265D01*
X124964834Y-117637512D01*
X124964562Y-117642740D01*
X124964213Y-117647946D01*
X124963788Y-117653133D01*
X124963288Y-117658297D01*
X124962714Y-117663440D01*
X125936440Y-117663440D01*
X125988290Y-117060662D01*
X125359301Y-116419971D01*
X124648481Y-117169790D01*
X124513422Y-117169790D01*
X124526062Y-117156478D01*
X124379331Y-115582117D01*
X124500524Y-115582117D01*
X124636416Y-117040273D01*
X125291234Y-116350637D01*
X125289487Y-116348857D01*
X125426714Y-116348857D01*
X125428463Y-116350637D01*
X125999379Y-116931617D01*
X126111664Y-115626325D01*
X125426714Y-116348857D01*
X125289487Y-116348857D01*
X124513927Y-115558852D01*
X124513927Y-115582117D01*
X124500524Y-115582117D01*
X124379331Y-115582117D01*
X124104541Y-115582117D01*
X124104541Y-115269935D01*
X124210129Y-115269935D01*
X124210129Y-115473632D01*
X124369237Y-115473632D01*
X124362833Y-115404962D01*
X124230268Y-115269935D01*
X124210129Y-115269935D01*
X124104541Y-115269935D01*
X124104541Y-115161430D01*
X124123755Y-115161430D01*
X123200732Y-114221235D01*
X123200732Y-114083674D01*
X124259838Y-115161440D01*
X124340130Y-115161440D01*
X124323115Y-114978957D01*
X124444322Y-114978957D01*
X124461323Y-115161451D01*
X124513927Y-115161451D01*
X124513927Y-115419993D01*
X124566638Y-115473632D01*
X124805437Y-115716632D01*
X124805437Y-115577130D01*
X125544428Y-115577130D01*
X125544428Y-115818430D01*
X124905466Y-115818430D01*
X125358678Y-116279615D01*
X126124886Y-115472667D01*
X126167354Y-114978957D01*
X124444322Y-114978957D01*
X124323115Y-114978957D01*
X124322787Y-114975438D01*
X124319168Y-114976911D01*
X124315506Y-114978298D01*
X124311801Y-114979598D01*
X124308056Y-114980809D01*
X124304272Y-114981930D01*
X124300449Y-114982961D01*
X124296590Y-114983899D01*
X124292695Y-114984743D01*
X124288765Y-114985493D01*
X124284802Y-114986147D01*
X124280808Y-114986704D01*
X124276782Y-114987162D01*
X124272728Y-114987521D01*
X124268645Y-114987778D01*
X124264536Y-114987934D01*
X124260401Y-114987986D01*
X124252122Y-114987777D01*
X124243952Y-114987155D01*
X124235901Y-114986132D01*
X124227979Y-114984717D01*
X124220196Y-114982921D01*
X124212562Y-114980753D01*
X124205088Y-114978224D01*
X124197782Y-114975343D01*
X124190656Y-114972122D01*
X124183720Y-114968569D01*
X124176983Y-114964695D01*
X124170457Y-114960511D01*
X124164150Y-114956026D01*
X124158073Y-114951250D01*
X124152236Y-114946194D01*
X124146649Y-114940867D01*
X124141323Y-114935280D01*
X124136267Y-114929443D01*
X124131491Y-114923366D01*
X124127006Y-114917059D01*
X124122822Y-114910532D01*
X124118949Y-114903795D01*
X124115396Y-114896859D01*
X124112175Y-114889733D01*
X124109295Y-114882428D01*
X124106766Y-114874954D01*
X124104598Y-114867320D01*
X124102802Y-114859538D01*
X124101690Y-114853310D01*
X124449057Y-114853310D01*
X125851050Y-114853310D01*
X125851050Y-114743519D01*
X126057221Y-114743519D01*
X126057221Y-114853300D01*
X126177348Y-114853300D01*
X126172747Y-114845129D01*
X126167711Y-114837141D01*
X126162251Y-114829336D01*
X126156377Y-114821711D01*
X126150099Y-114814265D01*
X126143426Y-114806994D01*
X126136369Y-114799897D01*
X126128939Y-114792973D01*
X126121144Y-114786218D01*
X126112994Y-114779631D01*
X126104501Y-114773210D01*
X126095673Y-114766953D01*
X126086521Y-114760857D01*
X126077055Y-114754921D01*
X126067285Y-114749142D01*
X126057221Y-114743519D01*
X125851050Y-114743519D01*
X125851050Y-114669802D01*
X125810976Y-114660870D01*
X125770184Y-114652900D01*
X125728925Y-114645842D01*
X125687445Y-114639644D01*
X125645995Y-114634258D01*
X125604821Y-114629631D01*
X125564173Y-114625714D01*
X125524300Y-114622457D01*
X125524300Y-114627102D01*
X125524300Y-114747752D01*
X124931114Y-114747752D01*
X124931114Y-114635146D01*
X124891192Y-114640710D01*
X124851476Y-114647107D01*
X124812208Y-114654387D01*
X124773624Y-114662604D01*
X124735957Y-114671809D01*
X124699442Y-114682055D01*
X124664311Y-114693394D01*
X124630799Y-114705880D01*
X124599140Y-114719564D01*
X124569567Y-114734498D01*
X124555637Y-114742451D01*
X124542316Y-114750736D01*
X124529634Y-114759360D01*
X124517619Y-114768330D01*
X124506302Y-114777652D01*
X124495711Y-114787332D01*
X124485875Y-114797377D01*
X124476825Y-114807794D01*
X124468589Y-114818589D01*
X124461196Y-114829769D01*
X124454676Y-114841341D01*
X124449057Y-114853310D01*
X124101690Y-114853310D01*
X124101387Y-114851616D01*
X124100364Y-114843566D01*
X124099743Y-114835397D01*
X124099534Y-114827119D01*
X124099743Y-114818841D01*
X124100364Y-114810671D01*
X124101387Y-114802620D01*
X124102802Y-114794698D01*
X124104598Y-114786915D01*
X124106766Y-114779281D01*
X124109295Y-114771806D01*
X124112175Y-114764501D01*
X124115396Y-114757375D01*
X124118949Y-114750439D01*
X124122822Y-114743702D01*
X124127006Y-114737175D01*
X124131491Y-114730868D01*
X124136267Y-114724791D01*
X124141323Y-114718954D01*
X124146649Y-114713368D01*
X124152236Y-114708041D01*
X124158073Y-114702985D01*
X124164150Y-114698210D01*
X124170457Y-114693725D01*
X124176983Y-114689541D01*
X124183720Y-114685667D01*
X124190656Y-114682115D01*
X124197782Y-114678894D01*
X124205088Y-114676013D01*
X124212562Y-114673484D01*
X124220196Y-114671317D01*
X124227979Y-114669521D01*
X124235901Y-114668106D01*
X124243952Y-114667083D01*
X124252122Y-114666462D01*
X124260401Y-114666253D01*
X124269965Y-114666532D01*
X124279383Y-114667361D01*
X124288637Y-114668723D01*
X124297712Y-114670602D01*
X124306594Y-114672984D01*
X124315265Y-114675852D01*
X124323710Y-114679190D01*
X124331915Y-114682984D01*
X124339862Y-114687217D01*
X124347537Y-114691874D01*
X124354923Y-114696938D01*
X124362005Y-114702395D01*
X124368768Y-114708229D01*
X124375196Y-114714424D01*
X124381273Y-114720964D01*
X124386983Y-114727834D01*
X124408933Y-114704411D01*
X124433280Y-114682561D01*
X124459855Y-114662232D01*
X124488489Y-114643371D01*
X124519013Y-114625926D01*
X124551257Y-114609842D01*
X124585052Y-114595068D01*
X124620230Y-114581550D01*
X124649092Y-114571784D01*
X125051784Y-114571784D01*
X125051784Y-114627102D01*
X125403670Y-114627102D01*
X125403670Y-114571784D01*
X125051784Y-114571784D01*
X124649092Y-114571784D01*
X124656622Y-114569236D01*
X124694057Y-114558072D01*
X124732367Y-114548006D01*
X124771383Y-114538986D01*
X124810936Y-114530957D01*
X124850857Y-114523867D01*
X124931114Y-114512295D01*
X124931114Y-114451144D01*
X125524300Y-114451144D01*
X125524300Y-114498921D01*
X125564305Y-114501796D01*
X125604876Y-114505345D01*
X125645850Y-114509622D01*
X125687064Y-114514682D01*
X125728355Y-114520580D01*
X125769558Y-114527370D01*
X125810511Y-114535106D01*
X125851050Y-114543843D01*
X125851050Y-114531507D01*
X126057211Y-114531507D01*
X126057211Y-114611246D01*
X126077543Y-114620857D01*
X126097324Y-114630954D01*
X126116521Y-114641549D01*
X126135100Y-114652654D01*
X126153026Y-114664279D01*
X126160857Y-114669802D01*
X126170266Y-114676436D01*
G37*
D14*
%TO.C,TP9*%
X145734000Y-103886000D02*
G75*
G02*
X144334000Y-103886000I-700000J0D01*
G01*
X144334000Y-103886000D02*
G75*
G02*
X145734000Y-103886000I700000J0D01*
G01*
%TO.C,TP10*%
X143702000Y-103886000D02*
G75*
G02*
X142302000Y-103886000I-700000J0D01*
G01*
X142302000Y-103886000D02*
G75*
G02*
X143702000Y-103886000I700000J0D01*
G01*
%TO.C,TP12*%
X142940000Y-94996000D02*
G75*
G02*
X141540000Y-94996000I-700000J0D01*
G01*
X141540000Y-94996000D02*
G75*
G02*
X142940000Y-94996000I700000J0D01*
G01*
%TO.C,R19*%
X119787641Y-106046000D02*
X119480359Y-106046000D01*
X119787641Y-106806000D02*
X119480359Y-106806000D01*
%TO.C,R1*%
X111126000Y-107796359D02*
X111126000Y-108103641D01*
X111886000Y-107796359D02*
X111886000Y-108103641D01*
%TO.C,R18*%
X119480359Y-107062000D02*
X119787641Y-107062000D01*
X119480359Y-107822000D02*
X119787641Y-107822000D01*
D15*
%TO.C,REF\u002A\u002A*%
X115184583Y-119381295D02*
X115244507Y-119403553D01*
X115269427Y-119420278D01*
X115294664Y-119444241D01*
X115312666Y-119474724D01*
X115324612Y-119516221D01*
X115331684Y-119573230D01*
X115335062Y-119650245D01*
X115335925Y-119751763D01*
X115335756Y-119804225D01*
X115334907Y-119875913D01*
X115333465Y-119933123D01*
X115331568Y-119971007D01*
X115329351Y-119984712D01*
X115314926Y-119980179D01*
X115285808Y-119967868D01*
X115284935Y-119967470D01*
X115269814Y-119959554D01*
X115259645Y-119948693D01*
X115253445Y-119929669D01*
X115250232Y-119897267D01*
X115249024Y-119846269D01*
X115248840Y-119771459D01*
X115248468Y-119724002D01*
X115244504Y-119634813D01*
X115235427Y-119569485D01*
X115220278Y-119524591D01*
X115198099Y-119496705D01*
X115167929Y-119482401D01*
X115163744Y-119481404D01*
X115107234Y-119480625D01*
X115063164Y-119505942D01*
X115032726Y-119556700D01*
X115027298Y-119571373D01*
X115014925Y-119603847D01*
X115008659Y-119618770D01*
X114995790Y-119616714D01*
X114967687Y-119605555D01*
X114941475Y-119587125D01*
X114929525Y-119552296D01*
X114933090Y-119527349D01*
X114954989Y-119476745D01*
X114990398Y-119429326D01*
X115031806Y-119396532D01*
X115049154Y-119388950D01*
X115114843Y-119376274D01*
X115184583Y-119381295D01*
G36*
X115184583Y-119381295D02*
G01*
X115244507Y-119403553D01*
X115269427Y-119420278D01*
X115294664Y-119444241D01*
X115312666Y-119474724D01*
X115324612Y-119516221D01*
X115331684Y-119573230D01*
X115335062Y-119650245D01*
X115335925Y-119751763D01*
X115335756Y-119804225D01*
X115334907Y-119875913D01*
X115333465Y-119933123D01*
X115331568Y-119971007D01*
X115329351Y-119984712D01*
X115314926Y-119980179D01*
X115285808Y-119967868D01*
X115284935Y-119967470D01*
X115269814Y-119959554D01*
X115259645Y-119948693D01*
X115253445Y-119929669D01*
X115250232Y-119897267D01*
X115249024Y-119846269D01*
X115248840Y-119771459D01*
X115248468Y-119724002D01*
X115244504Y-119634813D01*
X115235427Y-119569485D01*
X115220278Y-119524591D01*
X115198099Y-119496705D01*
X115167929Y-119482401D01*
X115163744Y-119481404D01*
X115107234Y-119480625D01*
X115063164Y-119505942D01*
X115032726Y-119556700D01*
X115027298Y-119571373D01*
X115014925Y-119603847D01*
X115008659Y-119618770D01*
X114995790Y-119616714D01*
X114967687Y-119605555D01*
X114941475Y-119587125D01*
X114929525Y-119552296D01*
X114933090Y-119527349D01*
X114954989Y-119476745D01*
X114990398Y-119429326D01*
X115031806Y-119396532D01*
X115049154Y-119388950D01*
X115114843Y-119376274D01*
X115184583Y-119381295D01*
G37*
X119132774Y-119348020D02*
X119200564Y-119379878D01*
X119256120Y-119434968D01*
X119267635Y-119452214D01*
X119277186Y-119471760D01*
X119283960Y-119496396D01*
X119288573Y-119530909D01*
X119291642Y-119580087D01*
X119293783Y-119648717D01*
X119295613Y-119741587D01*
X119300158Y-119999205D01*
X119261979Y-119984689D01*
X119227022Y-119971354D01*
X119200851Y-119958521D01*
X119183767Y-119941978D01*
X119173840Y-119916663D01*
X119169140Y-119877514D01*
X119167736Y-119819466D01*
X119167697Y-119737459D01*
X119167498Y-119672093D01*
X119166313Y-119609371D01*
X119163483Y-119566532D01*
X119158363Y-119538418D01*
X119150307Y-119519873D01*
X119138668Y-119505741D01*
X119110057Y-119485798D01*
X119061993Y-119478281D01*
X119014442Y-119497277D01*
X119011304Y-119499709D01*
X119001523Y-119510946D01*
X118994307Y-119528968D01*
X118989053Y-119558224D01*
X118985156Y-119603160D01*
X118982010Y-119668226D01*
X118979011Y-119757868D01*
X118971754Y-119997895D01*
X118910068Y-119970242D01*
X118848383Y-119942589D01*
X118848383Y-119723444D01*
X118848638Y-119663909D01*
X118850840Y-119581090D01*
X118856415Y-119519425D01*
X118866695Y-119473946D01*
X118883012Y-119439682D01*
X118906697Y-119411664D01*
X118939082Y-119384921D01*
X118985661Y-119357978D01*
X119059041Y-119340389D01*
X119132774Y-119348020D01*
G36*
X119132774Y-119348020D02*
G01*
X119200564Y-119379878D01*
X119256120Y-119434968D01*
X119267635Y-119452214D01*
X119277186Y-119471760D01*
X119283960Y-119496396D01*
X119288573Y-119530909D01*
X119291642Y-119580087D01*
X119293783Y-119648717D01*
X119295613Y-119741587D01*
X119300158Y-119999205D01*
X119261979Y-119984689D01*
X119227022Y-119971354D01*
X119200851Y-119958521D01*
X119183767Y-119941978D01*
X119173840Y-119916663D01*
X119169140Y-119877514D01*
X119167736Y-119819466D01*
X119167697Y-119737459D01*
X119167498Y-119672093D01*
X119166313Y-119609371D01*
X119163483Y-119566532D01*
X119158363Y-119538418D01*
X119150307Y-119519873D01*
X119138668Y-119505741D01*
X119110057Y-119485798D01*
X119061993Y-119478281D01*
X119014442Y-119497277D01*
X119011304Y-119499709D01*
X119001523Y-119510946D01*
X118994307Y-119528968D01*
X118989053Y-119558224D01*
X118985156Y-119603160D01*
X118982010Y-119668226D01*
X118979011Y-119757868D01*
X118971754Y-119997895D01*
X118910068Y-119970242D01*
X118848383Y-119942589D01*
X118848383Y-119723444D01*
X118848638Y-119663909D01*
X118850840Y-119581090D01*
X118856415Y-119519425D01*
X118866695Y-119473946D01*
X118883012Y-119439682D01*
X118906697Y-119411664D01*
X118939082Y-119384921D01*
X118985661Y-119357978D01*
X119059041Y-119340389D01*
X119132774Y-119348020D01*
G37*
X117309445Y-119396665D02*
X117314027Y-119399201D01*
X117351458Y-119428255D01*
X117384924Y-119465608D01*
X117390761Y-119474050D01*
X117401919Y-119493751D01*
X117409890Y-119517133D01*
X117415372Y-119549265D01*
X117419061Y-119595217D01*
X117421653Y-119660057D01*
X117423846Y-119748855D01*
X117424156Y-119763867D01*
X117425154Y-119861197D01*
X117423748Y-119930132D01*
X117419918Y-119971146D01*
X117413643Y-119984712D01*
X117394652Y-119980650D01*
X117362392Y-119968342D01*
X117354795Y-119964743D01*
X117342930Y-119956596D01*
X117334748Y-119943202D01*
X117329397Y-119919806D01*
X117326023Y-119881653D01*
X117323773Y-119823988D01*
X117321794Y-119742055D01*
X117321252Y-119718105D01*
X117319157Y-119642464D01*
X117316437Y-119589526D01*
X117312269Y-119554273D01*
X117305833Y-119531685D01*
X117296304Y-119516742D01*
X117282860Y-119504425D01*
X117243059Y-119482832D01*
X117194095Y-119478674D01*
X117150283Y-119495197D01*
X117118762Y-119529408D01*
X117106668Y-119578312D01*
X117106332Y-119591605D01*
X117099726Y-119615670D01*
X117080224Y-119619342D01*
X117042037Y-119605011D01*
X117033192Y-119600415D01*
X117009288Y-119573384D01*
X117008815Y-119533192D01*
X117031590Y-119477607D01*
X117052481Y-119447315D01*
X117105896Y-119404282D01*
X117171828Y-119379953D01*
X117242328Y-119376641D01*
X117309445Y-119396665D01*
G36*
X117309445Y-119396665D02*
G01*
X117314027Y-119399201D01*
X117351458Y-119428255D01*
X117384924Y-119465608D01*
X117390761Y-119474050D01*
X117401919Y-119493751D01*
X117409890Y-119517133D01*
X117415372Y-119549265D01*
X117419061Y-119595217D01*
X117421653Y-119660057D01*
X117423846Y-119748855D01*
X117424156Y-119763867D01*
X117425154Y-119861197D01*
X117423748Y-119930132D01*
X117419918Y-119971146D01*
X117413643Y-119984712D01*
X117394652Y-119980650D01*
X117362392Y-119968342D01*
X117354795Y-119964743D01*
X117342930Y-119956596D01*
X117334748Y-119943202D01*
X117329397Y-119919806D01*
X117326023Y-119881653D01*
X117323773Y-119823988D01*
X117321794Y-119742055D01*
X117321252Y-119718105D01*
X117319157Y-119642464D01*
X117316437Y-119589526D01*
X117312269Y-119554273D01*
X117305833Y-119531685D01*
X117296304Y-119516742D01*
X117282860Y-119504425D01*
X117243059Y-119482832D01*
X117194095Y-119478674D01*
X117150283Y-119495197D01*
X117118762Y-119529408D01*
X117106668Y-119578312D01*
X117106332Y-119591605D01*
X117099726Y-119615670D01*
X117080224Y-119619342D01*
X117042037Y-119605011D01*
X117033192Y-119600415D01*
X117009288Y-119573384D01*
X117008815Y-119533192D01*
X117031590Y-119477607D01*
X117052481Y-119447315D01*
X117105896Y-119404282D01*
X117171828Y-119379953D01*
X117242328Y-119376641D01*
X117309445Y-119396665D01*
G37*
X116355695Y-119379480D02*
X116387528Y-119391956D01*
X116424497Y-119408800D01*
X116424497Y-119895394D01*
X116378566Y-119941325D01*
X116368074Y-119951625D01*
X116339009Y-119974518D01*
X116309697Y-119981933D01*
X116266080Y-119978519D01*
X116248322Y-119976312D01*
X116202521Y-119971643D01*
X116170497Y-119969783D01*
X116160998Y-119970067D01*
X116122028Y-119973146D01*
X116074914Y-119978519D01*
X116059839Y-119980366D01*
X116021864Y-119981091D01*
X115994079Y-119969627D01*
X115962428Y-119941325D01*
X115916497Y-119895394D01*
X115916497Y-119635253D01*
X115916855Y-119558378D01*
X115917970Y-119485084D01*
X115919706Y-119427048D01*
X115921921Y-119388861D01*
X115924475Y-119375112D01*
X115925010Y-119375149D01*
X115943562Y-119381991D01*
X115974907Y-119397066D01*
X116017362Y-119419020D01*
X116021358Y-119647438D01*
X116025354Y-119875855D01*
X116112440Y-119875855D01*
X116116411Y-119625484D01*
X116117670Y-119557425D01*
X116119472Y-119484680D01*
X116121425Y-119426928D01*
X116123366Y-119388846D01*
X116125131Y-119375112D01*
X116125639Y-119375160D01*
X116143236Y-119380213D01*
X116175588Y-119391047D01*
X116221297Y-119406981D01*
X116221519Y-119626904D01*
X116221742Y-119665107D01*
X116223285Y-119739344D01*
X116226046Y-119801343D01*
X116229731Y-119845506D01*
X116234046Y-119866239D01*
X116249486Y-119877329D01*
X116280995Y-119880754D01*
X116315640Y-119875855D01*
X116319611Y-119625484D01*
X116321032Y-119561861D01*
X116323979Y-119486554D01*
X116327833Y-119427484D01*
X116332296Y-119388916D01*
X116337071Y-119375112D01*
X116355695Y-119379480D01*
G36*
X116355695Y-119379480D02*
G01*
X116387528Y-119391956D01*
X116424497Y-119408800D01*
X116424497Y-119895394D01*
X116378566Y-119941325D01*
X116368074Y-119951625D01*
X116339009Y-119974518D01*
X116309697Y-119981933D01*
X116266080Y-119978519D01*
X116248322Y-119976312D01*
X116202521Y-119971643D01*
X116170497Y-119969783D01*
X116160998Y-119970067D01*
X116122028Y-119973146D01*
X116074914Y-119978519D01*
X116059839Y-119980366D01*
X116021864Y-119981091D01*
X115994079Y-119969627D01*
X115962428Y-119941325D01*
X115916497Y-119895394D01*
X115916497Y-119635253D01*
X115916855Y-119558378D01*
X115917970Y-119485084D01*
X115919706Y-119427048D01*
X115921921Y-119388861D01*
X115924475Y-119375112D01*
X115925010Y-119375149D01*
X115943562Y-119381991D01*
X115974907Y-119397066D01*
X116017362Y-119419020D01*
X116021358Y-119647438D01*
X116025354Y-119875855D01*
X116112440Y-119875855D01*
X116116411Y-119625484D01*
X116117670Y-119557425D01*
X116119472Y-119484680D01*
X116121425Y-119426928D01*
X116123366Y-119388846D01*
X116125131Y-119375112D01*
X116125639Y-119375160D01*
X116143236Y-119380213D01*
X116175588Y-119391047D01*
X116221297Y-119406981D01*
X116221519Y-119626904D01*
X116221742Y-119665107D01*
X116223285Y-119739344D01*
X116226046Y-119801343D01*
X116229731Y-119845506D01*
X116234046Y-119866239D01*
X116249486Y-119877329D01*
X116280995Y-119880754D01*
X116315640Y-119875855D01*
X116319611Y-119625484D01*
X116321032Y-119561861D01*
X116323979Y-119486554D01*
X116327833Y-119427484D01*
X116332296Y-119388916D01*
X116337071Y-119375112D01*
X116355695Y-119379480D01*
G37*
X118380297Y-119179642D02*
X118427468Y-119199540D01*
X118427468Y-119596707D01*
X118427273Y-119699696D01*
X118426752Y-119792339D01*
X118425953Y-119870898D01*
X118424926Y-119931637D01*
X118423717Y-119970821D01*
X118422377Y-119984712D01*
X118421853Y-119984666D01*
X118404041Y-119979618D01*
X118371577Y-119968778D01*
X118325868Y-119952844D01*
X118325868Y-119748371D01*
X118325578Y-119668030D01*
X118324228Y-119609760D01*
X118321123Y-119570107D01*
X118315566Y-119543816D01*
X118306861Y-119525634D01*
X118294310Y-119510305D01*
X118285753Y-119502153D01*
X118239482Y-119479573D01*
X118188482Y-119481573D01*
X118141747Y-119508271D01*
X118134943Y-119514896D01*
X118124047Y-119528654D01*
X118116590Y-119546840D01*
X118111923Y-119574375D01*
X118109396Y-119616179D01*
X118108356Y-119677171D01*
X118108154Y-119762271D01*
X118108057Y-119805432D01*
X118107428Y-119876422D01*
X118106310Y-119933274D01*
X118104817Y-119971026D01*
X118103063Y-119984712D01*
X118102539Y-119984666D01*
X118084727Y-119979618D01*
X118052263Y-119968778D01*
X118006554Y-119952844D01*
X118006577Y-119747435D01*
X118006611Y-119729149D01*
X118008532Y-119633824D01*
X118014432Y-119561741D01*
X118025755Y-119508011D01*
X118043941Y-119467747D01*
X118070433Y-119436059D01*
X118106672Y-119408059D01*
X118142017Y-119390531D01*
X118198527Y-119376983D01*
X118254110Y-119376213D01*
X118296840Y-119389393D01*
X118300052Y-119391213D01*
X118309959Y-119391018D01*
X118316729Y-119375770D01*
X118321615Y-119340811D01*
X118325868Y-119281487D01*
X118333125Y-119159745D01*
X118380297Y-119179642D01*
G36*
X118380297Y-119179642D02*
G01*
X118427468Y-119199540D01*
X118427468Y-119596707D01*
X118427273Y-119699696D01*
X118426752Y-119792339D01*
X118425953Y-119870898D01*
X118424926Y-119931637D01*
X118423717Y-119970821D01*
X118422377Y-119984712D01*
X118421853Y-119984666D01*
X118404041Y-119979618D01*
X118371577Y-119968778D01*
X118325868Y-119952844D01*
X118325868Y-119748371D01*
X118325578Y-119668030D01*
X118324228Y-119609760D01*
X118321123Y-119570107D01*
X118315566Y-119543816D01*
X118306861Y-119525634D01*
X118294310Y-119510305D01*
X118285753Y-119502153D01*
X118239482Y-119479573D01*
X118188482Y-119481573D01*
X118141747Y-119508271D01*
X118134943Y-119514896D01*
X118124047Y-119528654D01*
X118116590Y-119546840D01*
X118111923Y-119574375D01*
X118109396Y-119616179D01*
X118108356Y-119677171D01*
X118108154Y-119762271D01*
X118108057Y-119805432D01*
X118107428Y-119876422D01*
X118106310Y-119933274D01*
X118104817Y-119971026D01*
X118103063Y-119984712D01*
X118102539Y-119984666D01*
X118084727Y-119979618D01*
X118052263Y-119968778D01*
X118006554Y-119952844D01*
X118006577Y-119747435D01*
X118006611Y-119729149D01*
X118008532Y-119633824D01*
X118014432Y-119561741D01*
X118025755Y-119508011D01*
X118043941Y-119467747D01*
X118070433Y-119436059D01*
X118106672Y-119408059D01*
X118142017Y-119390531D01*
X118198527Y-119376983D01*
X118254110Y-119376213D01*
X118296840Y-119389393D01*
X118300052Y-119391213D01*
X118309959Y-119391018D01*
X118316729Y-119375770D01*
X118321615Y-119340811D01*
X118325868Y-119281487D01*
X118333125Y-119159745D01*
X118380297Y-119179642D01*
G37*
X120967468Y-119665398D02*
X120967455Y-119681133D01*
X120966668Y-119751317D01*
X120963964Y-119800220D01*
X120958360Y-119834376D01*
X120948873Y-119860322D01*
X120934522Y-119884595D01*
X120930991Y-119889631D01*
X120893632Y-119929341D01*
X120851065Y-119959290D01*
X120829206Y-119969008D01*
X120750662Y-119985218D01*
X120672985Y-119974733D01*
X120601399Y-119938905D01*
X120541128Y-119879085D01*
X120536040Y-119871071D01*
X120519484Y-119824540D01*
X120508327Y-119759750D01*
X120502914Y-119684925D01*
X120503522Y-119615711D01*
X120650002Y-119615711D01*
X120651156Y-119711597D01*
X120651620Y-119717767D01*
X120658383Y-119770676D01*
X120670425Y-119804227D01*
X120690759Y-119827214D01*
X120724851Y-119848746D01*
X120758568Y-119849878D01*
X120793297Y-119825055D01*
X120799338Y-119818523D01*
X120811171Y-119798977D01*
X120818158Y-119770584D01*
X120821481Y-119726628D01*
X120822325Y-119660390D01*
X120820879Y-119598348D01*
X120813661Y-119539240D01*
X120798760Y-119501884D01*
X120774390Y-119482350D01*
X120738762Y-119476712D01*
X120725194Y-119477833D01*
X120687184Y-119498392D01*
X120662066Y-119544497D01*
X120650002Y-119615711D01*
X120503522Y-119615711D01*
X120503587Y-119608294D01*
X120510691Y-119538080D01*
X120524569Y-119482510D01*
X120542403Y-119445499D01*
X120592609Y-119387931D01*
X120660639Y-119352160D01*
X120743912Y-119339863D01*
X120766152Y-119340529D01*
X120831645Y-119354145D01*
X120885441Y-119388447D01*
X120934811Y-119447536D01*
X120937749Y-119451920D01*
X120951041Y-119475497D01*
X120959686Y-119502147D01*
X120964658Y-119538357D01*
X120966928Y-119590611D01*
X120967432Y-119660390D01*
X120967468Y-119665398D01*
G36*
X120967468Y-119665398D02*
G01*
X120967455Y-119681133D01*
X120966668Y-119751317D01*
X120963964Y-119800220D01*
X120958360Y-119834376D01*
X120948873Y-119860322D01*
X120934522Y-119884595D01*
X120930991Y-119889631D01*
X120893632Y-119929341D01*
X120851065Y-119959290D01*
X120829206Y-119969008D01*
X120750662Y-119985218D01*
X120672985Y-119974733D01*
X120601399Y-119938905D01*
X120541128Y-119879085D01*
X120536040Y-119871071D01*
X120519484Y-119824540D01*
X120508327Y-119759750D01*
X120502914Y-119684925D01*
X120503522Y-119615711D01*
X120650002Y-119615711D01*
X120651156Y-119711597D01*
X120651620Y-119717767D01*
X120658383Y-119770676D01*
X120670425Y-119804227D01*
X120690759Y-119827214D01*
X120724851Y-119848746D01*
X120758568Y-119849878D01*
X120793297Y-119825055D01*
X120799338Y-119818523D01*
X120811171Y-119798977D01*
X120818158Y-119770584D01*
X120821481Y-119726628D01*
X120822325Y-119660390D01*
X120820879Y-119598348D01*
X120813661Y-119539240D01*
X120798760Y-119501884D01*
X120774390Y-119482350D01*
X120738762Y-119476712D01*
X120725194Y-119477833D01*
X120687184Y-119498392D01*
X120662066Y-119544497D01*
X120650002Y-119615711D01*
X120503522Y-119615711D01*
X120503587Y-119608294D01*
X120510691Y-119538080D01*
X120524569Y-119482510D01*
X120542403Y-119445499D01*
X120592609Y-119387931D01*
X120660639Y-119352160D01*
X120743912Y-119339863D01*
X120766152Y-119340529D01*
X120831645Y-119354145D01*
X120885441Y-119388447D01*
X120934811Y-119447536D01*
X120937749Y-119451920D01*
X120951041Y-119475497D01*
X120959686Y-119502147D01*
X120964658Y-119538357D01*
X120966928Y-119590611D01*
X120967432Y-119660390D01*
X120967468Y-119665398D01*
G37*
X114842344Y-119682820D02*
X114842061Y-119721503D01*
X114838516Y-119797719D01*
X114829237Y-119853492D01*
X114812129Y-119894811D01*
X114785098Y-119927665D01*
X114746046Y-119958044D01*
X114721199Y-119971858D01*
X114681369Y-119981163D01*
X114625419Y-119980428D01*
X114594139Y-119977481D01*
X114556407Y-119968481D01*
X114526248Y-119948918D01*
X114491162Y-119912465D01*
X114486474Y-119907141D01*
X114454931Y-119866167D01*
X114439882Y-119830481D01*
X114436040Y-119788164D01*
X114436040Y-119725977D01*
X114479496Y-119742380D01*
X114511178Y-119761554D01*
X114538716Y-119806545D01*
X114544465Y-119820950D01*
X114576609Y-119861744D01*
X114620365Y-119882279D01*
X114668008Y-119880433D01*
X114711811Y-119854084D01*
X114726865Y-119837653D01*
X114740517Y-119812865D01*
X114736247Y-119790342D01*
X114711670Y-119767162D01*
X114664405Y-119740400D01*
X114592068Y-119707132D01*
X114443297Y-119642014D01*
X114439349Y-119577506D01*
X114440833Y-119536418D01*
X114537764Y-119536418D01*
X114545122Y-119561855D01*
X114578602Y-119589012D01*
X114639368Y-119619912D01*
X114649423Y-119624388D01*
X114697505Y-119645215D01*
X114733480Y-119659863D01*
X114750198Y-119665398D01*
X114752731Y-119661324D01*
X114753747Y-119636445D01*
X114750123Y-119596455D01*
X114740996Y-119557350D01*
X114712527Y-119508082D01*
X114671432Y-119480320D01*
X114622344Y-119476562D01*
X114569898Y-119499307D01*
X114555363Y-119510679D01*
X114537764Y-119536418D01*
X114440833Y-119536418D01*
X114441092Y-119529262D01*
X114463035Y-119468294D01*
X114490733Y-119434695D01*
X114548159Y-119397164D01*
X114616281Y-119378204D01*
X114686701Y-119379705D01*
X114751021Y-119403553D01*
X114765180Y-119412711D01*
X114797658Y-119441047D01*
X114819870Y-119476893D01*
X114833558Y-119525582D01*
X114840469Y-119592447D01*
X114841382Y-119636445D01*
X114842344Y-119682820D01*
G36*
X114842344Y-119682820D02*
G01*
X114842061Y-119721503D01*
X114838516Y-119797719D01*
X114829237Y-119853492D01*
X114812129Y-119894811D01*
X114785098Y-119927665D01*
X114746046Y-119958044D01*
X114721199Y-119971858D01*
X114681369Y-119981163D01*
X114625419Y-119980428D01*
X114594139Y-119977481D01*
X114556407Y-119968481D01*
X114526248Y-119948918D01*
X114491162Y-119912465D01*
X114486474Y-119907141D01*
X114454931Y-119866167D01*
X114439882Y-119830481D01*
X114436040Y-119788164D01*
X114436040Y-119725977D01*
X114479496Y-119742380D01*
X114511178Y-119761554D01*
X114538716Y-119806545D01*
X114544465Y-119820950D01*
X114576609Y-119861744D01*
X114620365Y-119882279D01*
X114668008Y-119880433D01*
X114711811Y-119854084D01*
X114726865Y-119837653D01*
X114740517Y-119812865D01*
X114736247Y-119790342D01*
X114711670Y-119767162D01*
X114664405Y-119740400D01*
X114592068Y-119707132D01*
X114443297Y-119642014D01*
X114439349Y-119577506D01*
X114440833Y-119536418D01*
X114537764Y-119536418D01*
X114545122Y-119561855D01*
X114578602Y-119589012D01*
X114639368Y-119619912D01*
X114649423Y-119624388D01*
X114697505Y-119645215D01*
X114733480Y-119659863D01*
X114750198Y-119665398D01*
X114752731Y-119661324D01*
X114753747Y-119636445D01*
X114750123Y-119596455D01*
X114740996Y-119557350D01*
X114712527Y-119508082D01*
X114671432Y-119480320D01*
X114622344Y-119476562D01*
X114569898Y-119499307D01*
X114555363Y-119510679D01*
X114537764Y-119536418D01*
X114440833Y-119536418D01*
X114441092Y-119529262D01*
X114463035Y-119468294D01*
X114490733Y-119434695D01*
X114548159Y-119397164D01*
X114616281Y-119378204D01*
X114686701Y-119379705D01*
X114751021Y-119403553D01*
X114765180Y-119412711D01*
X114797658Y-119441047D01*
X114819870Y-119476893D01*
X114833558Y-119525582D01*
X114840469Y-119592447D01*
X114841382Y-119636445D01*
X114842344Y-119682820D01*
G37*
X116932452Y-119679912D02*
X116931291Y-119736511D01*
X116923099Y-119813660D01*
X116905273Y-119871474D01*
X116875729Y-119915620D01*
X116832379Y-119951766D01*
X116791086Y-119972661D01*
X116721741Y-119984288D01*
X116652490Y-119971575D01*
X116589899Y-119936143D01*
X116540533Y-119879616D01*
X116534572Y-119869193D01*
X116526699Y-119850931D01*
X116520860Y-119827627D01*
X116516753Y-119795283D01*
X116514079Y-119749902D01*
X116512535Y-119687485D01*
X116512488Y-119681946D01*
X116613183Y-119681946D01*
X116613526Y-119734775D01*
X116615696Y-119782560D01*
X116621061Y-119813407D01*
X116630971Y-119834133D01*
X116646775Y-119851554D01*
X116650478Y-119854903D01*
X116698053Y-119879617D01*
X116748389Y-119877088D01*
X116795271Y-119847486D01*
X116809231Y-119832151D01*
X116820914Y-119811820D01*
X116827440Y-119783712D01*
X116830278Y-119740748D01*
X116830897Y-119675845D01*
X116830591Y-119626320D01*
X116828476Y-119577980D01*
X116823144Y-119546785D01*
X116813214Y-119525845D01*
X116797304Y-119508271D01*
X116787958Y-119500357D01*
X116739530Y-119479041D01*
X116688794Y-119482396D01*
X116644741Y-119510305D01*
X116635258Y-119521371D01*
X116623693Y-119542207D01*
X116617006Y-119571304D01*
X116613927Y-119615579D01*
X116613183Y-119681946D01*
X116512488Y-119681946D01*
X116511821Y-119604035D01*
X116511637Y-119495556D01*
X116511583Y-119158799D01*
X116558754Y-119178560D01*
X116571226Y-119183968D01*
X116591078Y-119196183D01*
X116602441Y-119214680D01*
X116608687Y-119247027D01*
X116613183Y-119300791D01*
X116617289Y-119349064D01*
X116622717Y-119380755D01*
X116630493Y-119392581D01*
X116642211Y-119389410D01*
X116672072Y-119378265D01*
X116725438Y-119375502D01*
X116782847Y-119385823D01*
X116832379Y-119408059D01*
X116859630Y-119428641D01*
X116894619Y-119468798D01*
X116917028Y-119520284D01*
X116928944Y-119588766D01*
X116932296Y-119675845D01*
X116932452Y-119679912D01*
G36*
X116932452Y-119679912D02*
G01*
X116931291Y-119736511D01*
X116923099Y-119813660D01*
X116905273Y-119871474D01*
X116875729Y-119915620D01*
X116832379Y-119951766D01*
X116791086Y-119972661D01*
X116721741Y-119984288D01*
X116652490Y-119971575D01*
X116589899Y-119936143D01*
X116540533Y-119879616D01*
X116534572Y-119869193D01*
X116526699Y-119850931D01*
X116520860Y-119827627D01*
X116516753Y-119795283D01*
X116514079Y-119749902D01*
X116512535Y-119687485D01*
X116512488Y-119681946D01*
X116613183Y-119681946D01*
X116613526Y-119734775D01*
X116615696Y-119782560D01*
X116621061Y-119813407D01*
X116630971Y-119834133D01*
X116646775Y-119851554D01*
X116650478Y-119854903D01*
X116698053Y-119879617D01*
X116748389Y-119877088D01*
X116795271Y-119847486D01*
X116809231Y-119832151D01*
X116820914Y-119811820D01*
X116827440Y-119783712D01*
X116830278Y-119740748D01*
X116830897Y-119675845D01*
X116830591Y-119626320D01*
X116828476Y-119577980D01*
X116823144Y-119546785D01*
X116813214Y-119525845D01*
X116797304Y-119508271D01*
X116787958Y-119500357D01*
X116739530Y-119479041D01*
X116688794Y-119482396D01*
X116644741Y-119510305D01*
X116635258Y-119521371D01*
X116623693Y-119542207D01*
X116617006Y-119571304D01*
X116613927Y-119615579D01*
X116613183Y-119681946D01*
X116512488Y-119681946D01*
X116511821Y-119604035D01*
X116511637Y-119495556D01*
X116511583Y-119158799D01*
X116558754Y-119178560D01*
X116571226Y-119183968D01*
X116591078Y-119196183D01*
X116602441Y-119214680D01*
X116608687Y-119247027D01*
X116613183Y-119300791D01*
X116617289Y-119349064D01*
X116622717Y-119380755D01*
X116630493Y-119392581D01*
X116642211Y-119389410D01*
X116672072Y-119378265D01*
X116725438Y-119375502D01*
X116782847Y-119385823D01*
X116832379Y-119408059D01*
X116859630Y-119428641D01*
X116894619Y-119468798D01*
X116917028Y-119520284D01*
X116928944Y-119588766D01*
X116932296Y-119675845D01*
X116932452Y-119679912D01*
G37*
X119864053Y-119624253D02*
X119859438Y-119734276D01*
X119856832Y-119757585D01*
X119837414Y-119840550D01*
X119802327Y-119903646D01*
X119748966Y-119952006D01*
X119745950Y-119954002D01*
X119678116Y-119982383D01*
X119607289Y-119984909D01*
X119539043Y-119963295D01*
X119478950Y-119919260D01*
X119432583Y-119854520D01*
X119431804Y-119852959D01*
X119416397Y-119812756D01*
X119405111Y-119767064D01*
X119399124Y-119724170D01*
X119399615Y-119692358D01*
X119407761Y-119679912D01*
X119414998Y-119680669D01*
X119449605Y-119694433D01*
X119488832Y-119719744D01*
X119522202Y-119749043D01*
X119539237Y-119774770D01*
X119556946Y-119809669D01*
X119593239Y-119841410D01*
X119635384Y-119854084D01*
X119650831Y-119850419D01*
X119681323Y-119831972D01*
X119707882Y-119806364D01*
X119719240Y-119783132D01*
X119719236Y-119783046D01*
X119706350Y-119772377D01*
X119671995Y-119753131D01*
X119621347Y-119728011D01*
X119559583Y-119699722D01*
X119559243Y-119699572D01*
X119492142Y-119669696D01*
X119447165Y-119648171D01*
X119419899Y-119631635D01*
X119405932Y-119616729D01*
X119400851Y-119600091D01*
X119400244Y-119578360D01*
X119404466Y-119537211D01*
X119547754Y-119537211D01*
X119562545Y-119550147D01*
X119599398Y-119569531D01*
X119600479Y-119570079D01*
X119643959Y-119590785D01*
X119682856Y-119607303D01*
X119707532Y-119614291D01*
X119717430Y-119604951D01*
X119719240Y-119572946D01*
X119711720Y-119533113D01*
X119685651Y-119496915D01*
X119647908Y-119478148D01*
X119605831Y-119480043D01*
X119566759Y-119505830D01*
X119551401Y-119523649D01*
X119547754Y-119537211D01*
X119404466Y-119537211D01*
X119405587Y-119526284D01*
X119432005Y-119455533D01*
X119476227Y-119399933D01*
X119533451Y-119361437D01*
X119598874Y-119341995D01*
X119667691Y-119343557D01*
X119735101Y-119368076D01*
X119796298Y-119417500D01*
X119830204Y-119466410D01*
X119854560Y-119536225D01*
X119858521Y-119572946D01*
X119864053Y-119624253D01*
G36*
X119864053Y-119624253D02*
G01*
X119859438Y-119734276D01*
X119856832Y-119757585D01*
X119837414Y-119840550D01*
X119802327Y-119903646D01*
X119748966Y-119952006D01*
X119745950Y-119954002D01*
X119678116Y-119982383D01*
X119607289Y-119984909D01*
X119539043Y-119963295D01*
X119478950Y-119919260D01*
X119432583Y-119854520D01*
X119431804Y-119852959D01*
X119416397Y-119812756D01*
X119405111Y-119767064D01*
X119399124Y-119724170D01*
X119399615Y-119692358D01*
X119407761Y-119679912D01*
X119414998Y-119680669D01*
X119449605Y-119694433D01*
X119488832Y-119719744D01*
X119522202Y-119749043D01*
X119539237Y-119774770D01*
X119556946Y-119809669D01*
X119593239Y-119841410D01*
X119635384Y-119854084D01*
X119650831Y-119850419D01*
X119681323Y-119831972D01*
X119707882Y-119806364D01*
X119719240Y-119783132D01*
X119719236Y-119783046D01*
X119706350Y-119772377D01*
X119671995Y-119753131D01*
X119621347Y-119728011D01*
X119559583Y-119699722D01*
X119559243Y-119699572D01*
X119492142Y-119669696D01*
X119447165Y-119648171D01*
X119419899Y-119631635D01*
X119405932Y-119616729D01*
X119400851Y-119600091D01*
X119400244Y-119578360D01*
X119404466Y-119537211D01*
X119547754Y-119537211D01*
X119562545Y-119550147D01*
X119599398Y-119569531D01*
X119600479Y-119570079D01*
X119643959Y-119590785D01*
X119682856Y-119607303D01*
X119707532Y-119614291D01*
X119717430Y-119604951D01*
X119719240Y-119572946D01*
X119711720Y-119533113D01*
X119685651Y-119496915D01*
X119647908Y-119478148D01*
X119605831Y-119480043D01*
X119566759Y-119505830D01*
X119551401Y-119523649D01*
X119547754Y-119537211D01*
X119404466Y-119537211D01*
X119405587Y-119526284D01*
X119432005Y-119455533D01*
X119476227Y-119399933D01*
X119533451Y-119361437D01*
X119598874Y-119341995D01*
X119667691Y-119343557D01*
X119735101Y-119368076D01*
X119796298Y-119417500D01*
X119830204Y-119466410D01*
X119854560Y-119536225D01*
X119858521Y-119572946D01*
X119864053Y-119624253D01*
G37*
X117791237Y-119390767D02*
X117841130Y-119419859D01*
X117863079Y-119442525D01*
X117905258Y-119510280D01*
X117919468Y-119584148D01*
X117919468Y-119634968D01*
X117872753Y-119615326D01*
X117840446Y-119595506D01*
X117814985Y-119554358D01*
X117812370Y-119545873D01*
X117784232Y-119502649D01*
X117741821Y-119479301D01*
X117693124Y-119478298D01*
X117646127Y-119502112D01*
X117639111Y-119508254D01*
X117615647Y-119534943D01*
X117611773Y-119558212D01*
X117629522Y-119581060D01*
X117670933Y-119606485D01*
X117738040Y-119637486D01*
X117742578Y-119639450D01*
X117817076Y-119674188D01*
X117867957Y-119704961D01*
X117899279Y-119735686D01*
X117915097Y-119770280D01*
X117919468Y-119812660D01*
X117913740Y-119859644D01*
X117884816Y-119919783D01*
X117833932Y-119962986D01*
X117797128Y-119975957D01*
X117745188Y-119983054D01*
X117694753Y-119981538D01*
X117658737Y-119970830D01*
X117654912Y-119968164D01*
X117644752Y-119949535D01*
X117651802Y-119916703D01*
X117664051Y-119890933D01*
X117683693Y-119880204D01*
X117720945Y-119880737D01*
X117772662Y-119877660D01*
X117806455Y-119856410D01*
X117817868Y-119817075D01*
X117817858Y-119815945D01*
X117810941Y-119793111D01*
X117787413Y-119772161D01*
X117741668Y-119748013D01*
X117679458Y-119718939D01*
X117638253Y-119703123D01*
X117614466Y-119704142D01*
X117603351Y-119725035D01*
X117600162Y-119768839D01*
X117600154Y-119838591D01*
X117599798Y-119881650D01*
X117598167Y-119934824D01*
X117595515Y-119971220D01*
X117592176Y-119984712D01*
X117591284Y-119984621D01*
X117571991Y-119977308D01*
X117540038Y-119961876D01*
X117495878Y-119939040D01*
X117501125Y-119733276D01*
X117501490Y-119719630D01*
X117505658Y-119623849D01*
X117513022Y-119551660D01*
X117525084Y-119498256D01*
X117543347Y-119458831D01*
X117569314Y-119428578D01*
X117604487Y-119402691D01*
X117605138Y-119402285D01*
X117662010Y-119381166D01*
X117727787Y-119377598D01*
X117791237Y-119390767D01*
G36*
X117791237Y-119390767D02*
G01*
X117841130Y-119419859D01*
X117863079Y-119442525D01*
X117905258Y-119510280D01*
X117919468Y-119584148D01*
X117919468Y-119634968D01*
X117872753Y-119615326D01*
X117840446Y-119595506D01*
X117814985Y-119554358D01*
X117812370Y-119545873D01*
X117784232Y-119502649D01*
X117741821Y-119479301D01*
X117693124Y-119478298D01*
X117646127Y-119502112D01*
X117639111Y-119508254D01*
X117615647Y-119534943D01*
X117611773Y-119558212D01*
X117629522Y-119581060D01*
X117670933Y-119606485D01*
X117738040Y-119637486D01*
X117742578Y-119639450D01*
X117817076Y-119674188D01*
X117867957Y-119704961D01*
X117899279Y-119735686D01*
X117915097Y-119770280D01*
X117919468Y-119812660D01*
X117913740Y-119859644D01*
X117884816Y-119919783D01*
X117833932Y-119962986D01*
X117797128Y-119975957D01*
X117745188Y-119983054D01*
X117694753Y-119981538D01*
X117658737Y-119970830D01*
X117654912Y-119968164D01*
X117644752Y-119949535D01*
X117651802Y-119916703D01*
X117664051Y-119890933D01*
X117683693Y-119880204D01*
X117720945Y-119880737D01*
X117772662Y-119877660D01*
X117806455Y-119856410D01*
X117817868Y-119817075D01*
X117817858Y-119815945D01*
X117810941Y-119793111D01*
X117787413Y-119772161D01*
X117741668Y-119748013D01*
X117679458Y-119718939D01*
X117638253Y-119703123D01*
X117614466Y-119704142D01*
X117603351Y-119725035D01*
X117600162Y-119768839D01*
X117600154Y-119838591D01*
X117599798Y-119881650D01*
X117598167Y-119934824D01*
X117595515Y-119971220D01*
X117592176Y-119984712D01*
X117591284Y-119984621D01*
X117571991Y-119977308D01*
X117540038Y-119961876D01*
X117495878Y-119939040D01*
X117501125Y-119733276D01*
X117501490Y-119719630D01*
X117505658Y-119623849D01*
X117513022Y-119551660D01*
X117525084Y-119498256D01*
X117543347Y-119458831D01*
X117569314Y-119428578D01*
X117604487Y-119402691D01*
X117605138Y-119402285D01*
X117662010Y-119381166D01*
X117727787Y-119377598D01*
X117791237Y-119390767D01*
G37*
X115669249Y-119376418D02*
X115700353Y-119384319D01*
X115729313Y-119404015D01*
X115766585Y-119440682D01*
X115790555Y-119466576D01*
X115815524Y-119500195D01*
X115826785Y-119531704D01*
X115829411Y-119571683D01*
X115829411Y-119637115D01*
X115784789Y-119614040D01*
X115749427Y-119585922D01*
X115725205Y-119548046D01*
X115721045Y-119537749D01*
X115689348Y-119497835D01*
X115645308Y-119477822D01*
X115597285Y-119479770D01*
X115553640Y-119505741D01*
X115535174Y-119526833D01*
X115524417Y-119553817D01*
X115535932Y-119577832D01*
X115571735Y-119601989D01*
X115633844Y-119629397D01*
X115643269Y-119633183D01*
X115699812Y-119657957D01*
X115748334Y-119682387D01*
X115779205Y-119701684D01*
X115810125Y-119736151D01*
X115830681Y-119791155D01*
X115828498Y-119850181D01*
X115804178Y-119906043D01*
X115758322Y-119951553D01*
X115721192Y-119970925D01*
X115649465Y-119984490D01*
X115609606Y-119982660D01*
X115572707Y-119972766D01*
X115558551Y-119952004D01*
X115563845Y-119917811D01*
X115565385Y-119913290D01*
X115577596Y-119889314D01*
X115597928Y-119880240D01*
X115636662Y-119880847D01*
X115664011Y-119881672D01*
X115696011Y-119874590D01*
X115717936Y-119853417D01*
X115730424Y-119827350D01*
X115731816Y-119800043D01*
X115731752Y-119799883D01*
X115715561Y-119785128D01*
X115680909Y-119763655D01*
X115636075Y-119739656D01*
X115589336Y-119717323D01*
X115548971Y-119700850D01*
X115523258Y-119694427D01*
X115519433Y-119700716D01*
X115514618Y-119730313D01*
X115511320Y-119778645D01*
X115510097Y-119839570D01*
X115509812Y-119881740D01*
X115508472Y-119934851D01*
X115506282Y-119971223D01*
X115503523Y-119984712D01*
X115489098Y-119980179D01*
X115459980Y-119967868D01*
X115423011Y-119951024D01*
X115423011Y-119734919D01*
X115423247Y-119679525D01*
X115425483Y-119595405D01*
X115431177Y-119532998D01*
X115441657Y-119487556D01*
X115458251Y-119454331D01*
X115482285Y-119428576D01*
X115515087Y-119405542D01*
X115556878Y-119386533D01*
X115634041Y-119375112D01*
X115669249Y-119376418D01*
G36*
X115669249Y-119376418D02*
G01*
X115700353Y-119384319D01*
X115729313Y-119404015D01*
X115766585Y-119440682D01*
X115790555Y-119466576D01*
X115815524Y-119500195D01*
X115826785Y-119531704D01*
X115829411Y-119571683D01*
X115829411Y-119637115D01*
X115784789Y-119614040D01*
X115749427Y-119585922D01*
X115725205Y-119548046D01*
X115721045Y-119537749D01*
X115689348Y-119497835D01*
X115645308Y-119477822D01*
X115597285Y-119479770D01*
X115553640Y-119505741D01*
X115535174Y-119526833D01*
X115524417Y-119553817D01*
X115535932Y-119577832D01*
X115571735Y-119601989D01*
X115633844Y-119629397D01*
X115643269Y-119633183D01*
X115699812Y-119657957D01*
X115748334Y-119682387D01*
X115779205Y-119701684D01*
X115810125Y-119736151D01*
X115830681Y-119791155D01*
X115828498Y-119850181D01*
X115804178Y-119906043D01*
X115758322Y-119951553D01*
X115721192Y-119970925D01*
X115649465Y-119984490D01*
X115609606Y-119982660D01*
X115572707Y-119972766D01*
X115558551Y-119952004D01*
X115563845Y-119917811D01*
X115565385Y-119913290D01*
X115577596Y-119889314D01*
X115597928Y-119880240D01*
X115636662Y-119880847D01*
X115664011Y-119881672D01*
X115696011Y-119874590D01*
X115717936Y-119853417D01*
X115730424Y-119827350D01*
X115731816Y-119800043D01*
X115731752Y-119799883D01*
X115715561Y-119785128D01*
X115680909Y-119763655D01*
X115636075Y-119739656D01*
X115589336Y-119717323D01*
X115548971Y-119700850D01*
X115523258Y-119694427D01*
X115519433Y-119700716D01*
X115514618Y-119730313D01*
X115511320Y-119778645D01*
X115510097Y-119839570D01*
X115509812Y-119881740D01*
X115508472Y-119934851D01*
X115506282Y-119971223D01*
X115503523Y-119984712D01*
X115489098Y-119980179D01*
X115459980Y-119967868D01*
X115423011Y-119951024D01*
X115423011Y-119734919D01*
X115423247Y-119679525D01*
X115425483Y-119595405D01*
X115431177Y-119532998D01*
X115441657Y-119487556D01*
X115458251Y-119454331D01*
X115482285Y-119428576D01*
X115515087Y-119405542D01*
X115556878Y-119386533D01*
X115634041Y-119375112D01*
X115669249Y-119376418D01*
G37*
X120411569Y-119731722D02*
X120413006Y-119843198D01*
X120413405Y-119875537D01*
X120414683Y-119983653D01*
X120414939Y-120066384D01*
X120413388Y-120126624D01*
X120409244Y-120167271D01*
X120401718Y-120191221D01*
X120390025Y-120201369D01*
X120373378Y-120200612D01*
X120350990Y-120191846D01*
X120322075Y-120177967D01*
X120315896Y-120175006D01*
X120290167Y-120160509D01*
X120276730Y-120143263D01*
X120271588Y-120114506D01*
X120270744Y-120065481D01*
X120270706Y-119977455D01*
X120180030Y-119977455D01*
X120124252Y-119975013D01*
X120080394Y-119965106D01*
X120043972Y-119945084D01*
X120041257Y-119943127D01*
X120004300Y-119910067D01*
X119978580Y-119870129D01*
X119962360Y-119817855D01*
X119953902Y-119747786D01*
X119951837Y-119668628D01*
X120096611Y-119668628D01*
X120096636Y-119681895D01*
X120098015Y-119741782D01*
X120102441Y-119780930D01*
X120111215Y-119806351D01*
X120125640Y-119825055D01*
X120126538Y-119825948D01*
X120161991Y-119850150D01*
X120196350Y-119847765D01*
X120235157Y-119818458D01*
X120244649Y-119808442D01*
X120258630Y-119787906D01*
X120266514Y-119761195D01*
X120269999Y-119720697D01*
X120270783Y-119658801D01*
X120270104Y-119621328D01*
X120262737Y-119553178D01*
X120245922Y-119508528D01*
X120217988Y-119484124D01*
X120177263Y-119476712D01*
X120160104Y-119478292D01*
X120130414Y-119493964D01*
X120110785Y-119528889D01*
X120099942Y-119586099D01*
X120096611Y-119668628D01*
X119951837Y-119668628D01*
X119951468Y-119654465D01*
X119952007Y-119586367D01*
X119954461Y-119534785D01*
X119959912Y-119499014D01*
X119969440Y-119472213D01*
X119984125Y-119447536D01*
X119997606Y-119428678D01*
X120046553Y-119377766D01*
X120102010Y-119350116D01*
X120171682Y-119341363D01*
X120251418Y-119350088D01*
X120320349Y-119381383D01*
X120374867Y-119436579D01*
X120378977Y-119442422D01*
X120388562Y-119457951D01*
X120395905Y-119475696D01*
X120401366Y-119499488D01*
X120405304Y-119533156D01*
X120408077Y-119580531D01*
X120410046Y-119645443D01*
X120410282Y-119658801D01*
X120411569Y-119731722D01*
G36*
X120411569Y-119731722D02*
G01*
X120413006Y-119843198D01*
X120413405Y-119875537D01*
X120414683Y-119983653D01*
X120414939Y-120066384D01*
X120413388Y-120126624D01*
X120409244Y-120167271D01*
X120401718Y-120191221D01*
X120390025Y-120201369D01*
X120373378Y-120200612D01*
X120350990Y-120191846D01*
X120322075Y-120177967D01*
X120315896Y-120175006D01*
X120290167Y-120160509D01*
X120276730Y-120143263D01*
X120271588Y-120114506D01*
X120270744Y-120065481D01*
X120270706Y-119977455D01*
X120180030Y-119977455D01*
X120124252Y-119975013D01*
X120080394Y-119965106D01*
X120043972Y-119945084D01*
X120041257Y-119943127D01*
X120004300Y-119910067D01*
X119978580Y-119870129D01*
X119962360Y-119817855D01*
X119953902Y-119747786D01*
X119951837Y-119668628D01*
X120096611Y-119668628D01*
X120096636Y-119681895D01*
X120098015Y-119741782D01*
X120102441Y-119780930D01*
X120111215Y-119806351D01*
X120125640Y-119825055D01*
X120126538Y-119825948D01*
X120161991Y-119850150D01*
X120196350Y-119847765D01*
X120235157Y-119818458D01*
X120244649Y-119808442D01*
X120258630Y-119787906D01*
X120266514Y-119761195D01*
X120269999Y-119720697D01*
X120270783Y-119658801D01*
X120270104Y-119621328D01*
X120262737Y-119553178D01*
X120245922Y-119508528D01*
X120217988Y-119484124D01*
X120177263Y-119476712D01*
X120160104Y-119478292D01*
X120130414Y-119493964D01*
X120110785Y-119528889D01*
X120099942Y-119586099D01*
X120096611Y-119668628D01*
X119951837Y-119668628D01*
X119951468Y-119654465D01*
X119952007Y-119586367D01*
X119954461Y-119534785D01*
X119959912Y-119499014D01*
X119969440Y-119472213D01*
X119984125Y-119447536D01*
X119997606Y-119428678D01*
X120046553Y-119377766D01*
X120102010Y-119350116D01*
X120171682Y-119341363D01*
X120251418Y-119350088D01*
X120320349Y-119381383D01*
X120374867Y-119436579D01*
X120378977Y-119442422D01*
X120388562Y-119457951D01*
X120395905Y-119475696D01*
X120401366Y-119499488D01*
X120405304Y-119533156D01*
X120408077Y-119580531D01*
X120410046Y-119645443D01*
X120410282Y-119658801D01*
X120411569Y-119731722D01*
G37*
X117815687Y-114672569D02*
X117891610Y-114673063D01*
X117946245Y-114674333D01*
X117983254Y-114676745D01*
X118006301Y-114680665D01*
X118019050Y-114686460D01*
X118025165Y-114694497D01*
X118028310Y-114705141D01*
X118028400Y-114705523D01*
X118033568Y-114730545D01*
X118042963Y-114778879D01*
X118055621Y-114845458D01*
X118070579Y-114925212D01*
X118086873Y-115013073D01*
X118088202Y-115020262D01*
X118104445Y-115105538D01*
X118119559Y-115180440D01*
X118132562Y-115240417D01*
X118142469Y-115280915D01*
X118148298Y-115297382D01*
X118148329Y-115297408D01*
X118166697Y-115306518D01*
X118204394Y-115321655D01*
X118253297Y-115339556D01*
X118256051Y-115340528D01*
X118318571Y-115364157D01*
X118391297Y-115393793D01*
X118459048Y-115423260D01*
X118570457Y-115473824D01*
X118817153Y-115305358D01*
X118834529Y-115293509D01*
X118908956Y-115243145D01*
X118975368Y-115198810D01*
X119029793Y-115163114D01*
X119068260Y-115138669D01*
X119086796Y-115128087D01*
X119099497Y-115130513D01*
X119128333Y-115149308D01*
X119172897Y-115186528D01*
X119234424Y-115243218D01*
X119314152Y-115320425D01*
X119321286Y-115327453D01*
X119384550Y-115390420D01*
X119440744Y-115447466D01*
X119486431Y-115495015D01*
X119518168Y-115529495D01*
X119532518Y-115547329D01*
X119532564Y-115547415D01*
X119534387Y-115560993D01*
X119527664Y-115583018D01*
X119510700Y-115616502D01*
X119481798Y-115664459D01*
X119439262Y-115729902D01*
X119381398Y-115815843D01*
X119371537Y-115830349D01*
X119321667Y-115903833D01*
X119277659Y-115968885D01*
X119242134Y-116021615D01*
X119217713Y-116058134D01*
X119207018Y-116074554D01*
X119206212Y-116078032D01*
X119211272Y-116103983D01*
X119226431Y-116146357D01*
X119249217Y-116197926D01*
X119280183Y-116265368D01*
X119314758Y-116345393D01*
X119344120Y-116417827D01*
X119351399Y-116436575D01*
X119370464Y-116484444D01*
X119384469Y-116517794D01*
X119390795Y-116530312D01*
X119397779Y-116531248D01*
X119429167Y-116536659D01*
X119480541Y-116546004D01*
X119546556Y-116558267D01*
X119621867Y-116572430D01*
X119701129Y-116587478D01*
X119778997Y-116602393D01*
X119850124Y-116616159D01*
X119909166Y-116627760D01*
X119950776Y-116636178D01*
X119969611Y-116640397D01*
X119972734Y-116641587D01*
X119980345Y-116648003D01*
X119986008Y-116661663D01*
X119990005Y-116686197D01*
X119992620Y-116725236D01*
X119994138Y-116782411D01*
X119994840Y-116861352D01*
X119995011Y-116965690D01*
X119995011Y-117282997D01*
X119918811Y-117298037D01*
X119909594Y-117299840D01*
X119860645Y-117309178D01*
X119792959Y-117321867D01*
X119714232Y-117336471D01*
X119632154Y-117351553D01*
X119599832Y-117357620D01*
X119527609Y-117372379D01*
X119467420Y-117386335D01*
X119424794Y-117398150D01*
X119405264Y-117406485D01*
X119396414Y-117420103D01*
X119380302Y-117456136D01*
X119363819Y-117502770D01*
X119358017Y-117520232D01*
X119336660Y-117577556D01*
X119309113Y-117645399D01*
X119279861Y-117712553D01*
X119264217Y-117747628D01*
X119241928Y-117800020D01*
X119226611Y-117839256D01*
X119220916Y-117858761D01*
X119221232Y-117860234D01*
X119232035Y-117880927D01*
X119256392Y-117920863D01*
X119291835Y-117976170D01*
X119335890Y-118042979D01*
X119386086Y-118117418D01*
X119551255Y-118359821D01*
X119334257Y-118577181D01*
X119313270Y-118598097D01*
X119249096Y-118660703D01*
X119191744Y-118714693D01*
X119144574Y-118757024D01*
X119110946Y-118784655D01*
X119094221Y-118794541D01*
X119076057Y-118787019D01*
X119038019Y-118765425D01*
X118984480Y-118732349D01*
X118919638Y-118690389D01*
X118847694Y-118642141D01*
X118777029Y-118594489D01*
X118713280Y-118552526D01*
X118661267Y-118519363D01*
X118625033Y-118497576D01*
X118608621Y-118489741D01*
X118607659Y-118489812D01*
X118585857Y-118497536D01*
X118547194Y-118515521D01*
X118499366Y-118540211D01*
X118498864Y-118540482D01*
X118435341Y-118572297D01*
X118391814Y-118587840D01*
X118364806Y-118587883D01*
X118350844Y-118573198D01*
X118344934Y-118558742D01*
X118328983Y-118520029D01*
X118304414Y-118460514D01*
X118272533Y-118383363D01*
X118234647Y-118291739D01*
X118192064Y-118188805D01*
X118146091Y-118077724D01*
X118104421Y-117976670D01*
X118062022Y-117872978D01*
X118024510Y-117780317D01*
X117993142Y-117701840D01*
X117969179Y-117640698D01*
X117953877Y-117600041D01*
X117948497Y-117583023D01*
X117958772Y-117567417D01*
X117987317Y-117541360D01*
X118027725Y-117511085D01*
X118124733Y-117431882D01*
X118211547Y-117330673D01*
X118275076Y-117219314D01*
X118314931Y-117101091D01*
X118330719Y-116979293D01*
X118322050Y-116857208D01*
X118288532Y-116738123D01*
X118229775Y-116625327D01*
X118145386Y-116522109D01*
X118101385Y-116481911D01*
X117995965Y-116410836D01*
X117883164Y-116364499D01*
X117766279Y-116341797D01*
X117648607Y-116341626D01*
X117533444Y-116362885D01*
X117424089Y-116404468D01*
X117323837Y-116465274D01*
X117235987Y-116544199D01*
X117163834Y-116640139D01*
X117110676Y-116751993D01*
X117079811Y-116878655D01*
X117074146Y-116939705D01*
X117081939Y-117071974D01*
X117117038Y-117197464D01*
X117178403Y-117313957D01*
X117264997Y-117419237D01*
X117375783Y-117511085D01*
X117414685Y-117540128D01*
X117443858Y-117566470D01*
X117455011Y-117582998D01*
X117450564Y-117597407D01*
X117436132Y-117636013D01*
X117412927Y-117695399D01*
X117382206Y-117772413D01*
X117345228Y-117863901D01*
X117303250Y-117966714D01*
X117257532Y-118077700D01*
X117215932Y-118178270D01*
X117172976Y-118282145D01*
X117134583Y-118375017D01*
X117102059Y-118453723D01*
X117076712Y-118515097D01*
X117059849Y-118555977D01*
X117052779Y-118573198D01*
X117052697Y-118573402D01*
X117038552Y-118587943D01*
X117011413Y-118587777D01*
X116967777Y-118572125D01*
X116904142Y-118540211D01*
X116899133Y-118537524D01*
X116851879Y-118513348D01*
X116814565Y-118496235D01*
X116794887Y-118489741D01*
X116778759Y-118497416D01*
X116742713Y-118519069D01*
X116690846Y-118552126D01*
X116627199Y-118594008D01*
X116555814Y-118642141D01*
X116485478Y-118689329D01*
X116420424Y-118731465D01*
X116366574Y-118764776D01*
X116328128Y-118786667D01*
X116309288Y-118794541D01*
X116306079Y-118793541D01*
X116283708Y-118777782D01*
X116245487Y-118745231D01*
X116194775Y-118698931D01*
X116134935Y-118641924D01*
X116069325Y-118577256D01*
X115852402Y-118359970D01*
X116021355Y-118111451D01*
X116190307Y-117862931D01*
X116138937Y-117751793D01*
X116138785Y-117751464D01*
X116107937Y-117680616D01*
X116076415Y-117601721D01*
X116051020Y-117531798D01*
X116047177Y-117520520D01*
X116027801Y-117468165D01*
X116010328Y-117427481D01*
X115998142Y-117406485D01*
X115993180Y-117403520D01*
X115963388Y-117393573D01*
X115912801Y-117380703D01*
X115846948Y-117366251D01*
X115771354Y-117351553D01*
X115748711Y-117347408D01*
X115666792Y-117332314D01*
X115590354Y-117318097D01*
X115527091Y-117306193D01*
X115484697Y-117298037D01*
X115408497Y-117282997D01*
X115408497Y-116965690D01*
X115408514Y-116926674D01*
X115408836Y-116831490D01*
X115409787Y-116760453D01*
X115411650Y-116709932D01*
X115414709Y-116676296D01*
X115419248Y-116655916D01*
X115425549Y-116645160D01*
X115433897Y-116640397D01*
X115441978Y-116638468D01*
X115474926Y-116631643D01*
X115527490Y-116621220D01*
X115594323Y-116608216D01*
X115670082Y-116593647D01*
X115749419Y-116578531D01*
X115826991Y-116563883D01*
X115897452Y-116550721D01*
X115955456Y-116540061D01*
X115995658Y-116532919D01*
X116012713Y-116530312D01*
X116013866Y-116528739D01*
X116023139Y-116508317D01*
X116039186Y-116469243D01*
X116059389Y-116417827D01*
X116087426Y-116348551D01*
X116121940Y-116268488D01*
X116154292Y-116197926D01*
X116161706Y-116182087D01*
X116182509Y-116132491D01*
X116194973Y-116094236D01*
X116196617Y-116074554D01*
X116195769Y-116073160D01*
X116182302Y-116052618D01*
X116155604Y-116012714D01*
X116118293Y-115957338D01*
X116072988Y-115890375D01*
X116022306Y-115815715D01*
X115965199Y-115730890D01*
X115922361Y-115664998D01*
X115893214Y-115616676D01*
X115876071Y-115582931D01*
X115869249Y-115560770D01*
X115871060Y-115547200D01*
X115871669Y-115546182D01*
X115888051Y-115526408D01*
X115921449Y-115490373D01*
X115968425Y-115441649D01*
X116025540Y-115383810D01*
X116089357Y-115320425D01*
X116155556Y-115256103D01*
X116220402Y-115195645D01*
X116268053Y-115154853D01*
X116299744Y-115132682D01*
X116316712Y-115128087D01*
X116318929Y-115129119D01*
X116342278Y-115143035D01*
X116384666Y-115170228D01*
X116442123Y-115208087D01*
X116510677Y-115254001D01*
X116586355Y-115305358D01*
X116833052Y-115473824D01*
X116944460Y-115423260D01*
X116947697Y-115421795D01*
X117016097Y-115392163D01*
X117088661Y-115362691D01*
X117150211Y-115339556D01*
X117150483Y-115339460D01*
X117199349Y-115321565D01*
X117236966Y-115306451D01*
X117255211Y-115297382D01*
X117255506Y-115297053D01*
X117261700Y-115278480D01*
X117271893Y-115236243D01*
X117285102Y-115174894D01*
X117300344Y-115098987D01*
X117316635Y-115013073D01*
X117317203Y-115009994D01*
X117333467Y-114922326D01*
X117348362Y-114842939D01*
X117360925Y-114776899D01*
X117370192Y-114729277D01*
X117375198Y-114705141D01*
X117375518Y-114703803D01*
X117378814Y-114693471D01*
X117385492Y-114685704D01*
X117399216Y-114680138D01*
X117423649Y-114676405D01*
X117462456Y-114674140D01*
X117519300Y-114672976D01*
X117597844Y-114672546D01*
X117701754Y-114672484D01*
X117714810Y-114672484D01*
X117815687Y-114672569D01*
G36*
X117815687Y-114672569D02*
G01*
X117891610Y-114673063D01*
X117946245Y-114674333D01*
X117983254Y-114676745D01*
X118006301Y-114680665D01*
X118019050Y-114686460D01*
X118025165Y-114694497D01*
X118028310Y-114705141D01*
X118028400Y-114705523D01*
X118033568Y-114730545D01*
X118042963Y-114778879D01*
X118055621Y-114845458D01*
X118070579Y-114925212D01*
X118086873Y-115013073D01*
X118088202Y-115020262D01*
X118104445Y-115105538D01*
X118119559Y-115180440D01*
X118132562Y-115240417D01*
X118142469Y-115280915D01*
X118148298Y-115297382D01*
X118148329Y-115297408D01*
X118166697Y-115306518D01*
X118204394Y-115321655D01*
X118253297Y-115339556D01*
X118256051Y-115340528D01*
X118318571Y-115364157D01*
X118391297Y-115393793D01*
X118459048Y-115423260D01*
X118570457Y-115473824D01*
X118817153Y-115305358D01*
X118834529Y-115293509D01*
X118908956Y-115243145D01*
X118975368Y-115198810D01*
X119029793Y-115163114D01*
X119068260Y-115138669D01*
X119086796Y-115128087D01*
X119099497Y-115130513D01*
X119128333Y-115149308D01*
X119172897Y-115186528D01*
X119234424Y-115243218D01*
X119314152Y-115320425D01*
X119321286Y-115327453D01*
X119384550Y-115390420D01*
X119440744Y-115447466D01*
X119486431Y-115495015D01*
X119518168Y-115529495D01*
X119532518Y-115547329D01*
X119532564Y-115547415D01*
X119534387Y-115560993D01*
X119527664Y-115583018D01*
X119510700Y-115616502D01*
X119481798Y-115664459D01*
X119439262Y-115729902D01*
X119381398Y-115815843D01*
X119371537Y-115830349D01*
X119321667Y-115903833D01*
X119277659Y-115968885D01*
X119242134Y-116021615D01*
X119217713Y-116058134D01*
X119207018Y-116074554D01*
X119206212Y-116078032D01*
X119211272Y-116103983D01*
X119226431Y-116146357D01*
X119249217Y-116197926D01*
X119280183Y-116265368D01*
X119314758Y-116345393D01*
X119344120Y-116417827D01*
X119351399Y-116436575D01*
X119370464Y-116484444D01*
X119384469Y-116517794D01*
X119390795Y-116530312D01*
X119397779Y-116531248D01*
X119429167Y-116536659D01*
X119480541Y-116546004D01*
X119546556Y-116558267D01*
X119621867Y-116572430D01*
X119701129Y-116587478D01*
X119778997Y-116602393D01*
X119850124Y-116616159D01*
X119909166Y-116627760D01*
X119950776Y-116636178D01*
X119969611Y-116640397D01*
X119972734Y-116641587D01*
X119980345Y-116648003D01*
X119986008Y-116661663D01*
X119990005Y-116686197D01*
X119992620Y-116725236D01*
X119994138Y-116782411D01*
X119994840Y-116861352D01*
X119995011Y-116965690D01*
X119995011Y-117282997D01*
X119918811Y-117298037D01*
X119909594Y-117299840D01*
X119860645Y-117309178D01*
X119792959Y-117321867D01*
X119714232Y-117336471D01*
X119632154Y-117351553D01*
X119599832Y-117357620D01*
X119527609Y-117372379D01*
X119467420Y-117386335D01*
X119424794Y-117398150D01*
X119405264Y-117406485D01*
X119396414Y-117420103D01*
X119380302Y-117456136D01*
X119363819Y-117502770D01*
X119358017Y-117520232D01*
X119336660Y-117577556D01*
X119309113Y-117645399D01*
X119279861Y-117712553D01*
X119264217Y-117747628D01*
X119241928Y-117800020D01*
X119226611Y-117839256D01*
X119220916Y-117858761D01*
X119221232Y-117860234D01*
X119232035Y-117880927D01*
X119256392Y-117920863D01*
X119291835Y-117976170D01*
X119335890Y-118042979D01*
X119386086Y-118117418D01*
X119551255Y-118359821D01*
X119334257Y-118577181D01*
X119313270Y-118598097D01*
X119249096Y-118660703D01*
X119191744Y-118714693D01*
X119144574Y-118757024D01*
X119110946Y-118784655D01*
X119094221Y-118794541D01*
X119076057Y-118787019D01*
X119038019Y-118765425D01*
X118984480Y-118732349D01*
X118919638Y-118690389D01*
X118847694Y-118642141D01*
X118777029Y-118594489D01*
X118713280Y-118552526D01*
X118661267Y-118519363D01*
X118625033Y-118497576D01*
X118608621Y-118489741D01*
X118607659Y-118489812D01*
X118585857Y-118497536D01*
X118547194Y-118515521D01*
X118499366Y-118540211D01*
X118498864Y-118540482D01*
X118435341Y-118572297D01*
X118391814Y-118587840D01*
X118364806Y-118587883D01*
X118350844Y-118573198D01*
X118344934Y-118558742D01*
X118328983Y-118520029D01*
X118304414Y-118460514D01*
X118272533Y-118383363D01*
X118234647Y-118291739D01*
X118192064Y-118188805D01*
X118146091Y-118077724D01*
X118104421Y-117976670D01*
X118062022Y-117872978D01*
X118024510Y-117780317D01*
X117993142Y-117701840D01*
X117969179Y-117640698D01*
X117953877Y-117600041D01*
X117948497Y-117583023D01*
X117958772Y-117567417D01*
X117987317Y-117541360D01*
X118027725Y-117511085D01*
X118124733Y-117431882D01*
X118211547Y-117330673D01*
X118275076Y-117219314D01*
X118314931Y-117101091D01*
X118330719Y-116979293D01*
X118322050Y-116857208D01*
X118288532Y-116738123D01*
X118229775Y-116625327D01*
X118145386Y-116522109D01*
X118101385Y-116481911D01*
X117995965Y-116410836D01*
X117883164Y-116364499D01*
X117766279Y-116341797D01*
X117648607Y-116341626D01*
X117533444Y-116362885D01*
X117424089Y-116404468D01*
X117323837Y-116465274D01*
X117235987Y-116544199D01*
X117163834Y-116640139D01*
X117110676Y-116751993D01*
X117079811Y-116878655D01*
X117074146Y-116939705D01*
X117081939Y-117071974D01*
X117117038Y-117197464D01*
X117178403Y-117313957D01*
X117264997Y-117419237D01*
X117375783Y-117511085D01*
X117414685Y-117540128D01*
X117443858Y-117566470D01*
X117455011Y-117582998D01*
X117450564Y-117597407D01*
X117436132Y-117636013D01*
X117412927Y-117695399D01*
X117382206Y-117772413D01*
X117345228Y-117863901D01*
X117303250Y-117966714D01*
X117257532Y-118077700D01*
X117215932Y-118178270D01*
X117172976Y-118282145D01*
X117134583Y-118375017D01*
X117102059Y-118453723D01*
X117076712Y-118515097D01*
X117059849Y-118555977D01*
X117052779Y-118573198D01*
X117052697Y-118573402D01*
X117038552Y-118587943D01*
X117011413Y-118587777D01*
X116967777Y-118572125D01*
X116904142Y-118540211D01*
X116899133Y-118537524D01*
X116851879Y-118513348D01*
X116814565Y-118496235D01*
X116794887Y-118489741D01*
X116778759Y-118497416D01*
X116742713Y-118519069D01*
X116690846Y-118552126D01*
X116627199Y-118594008D01*
X116555814Y-118642141D01*
X116485478Y-118689329D01*
X116420424Y-118731465D01*
X116366574Y-118764776D01*
X116328128Y-118786667D01*
X116309288Y-118794541D01*
X116306079Y-118793541D01*
X116283708Y-118777782D01*
X116245487Y-118745231D01*
X116194775Y-118698931D01*
X116134935Y-118641924D01*
X116069325Y-118577256D01*
X115852402Y-118359970D01*
X116021355Y-118111451D01*
X116190307Y-117862931D01*
X116138937Y-117751793D01*
X116138785Y-117751464D01*
X116107937Y-117680616D01*
X116076415Y-117601721D01*
X116051020Y-117531798D01*
X116047177Y-117520520D01*
X116027801Y-117468165D01*
X116010328Y-117427481D01*
X115998142Y-117406485D01*
X115993180Y-117403520D01*
X115963388Y-117393573D01*
X115912801Y-117380703D01*
X115846948Y-117366251D01*
X115771354Y-117351553D01*
X115748711Y-117347408D01*
X115666792Y-117332314D01*
X115590354Y-117318097D01*
X115527091Y-117306193D01*
X115484697Y-117298037D01*
X115408497Y-117282997D01*
X115408497Y-116965690D01*
X115408514Y-116926674D01*
X115408836Y-116831490D01*
X115409787Y-116760453D01*
X115411650Y-116709932D01*
X115414709Y-116676296D01*
X115419248Y-116655916D01*
X115425549Y-116645160D01*
X115433897Y-116640397D01*
X115441978Y-116638468D01*
X115474926Y-116631643D01*
X115527490Y-116621220D01*
X115594323Y-116608216D01*
X115670082Y-116593647D01*
X115749419Y-116578531D01*
X115826991Y-116563883D01*
X115897452Y-116550721D01*
X115955456Y-116540061D01*
X115995658Y-116532919D01*
X116012713Y-116530312D01*
X116013866Y-116528739D01*
X116023139Y-116508317D01*
X116039186Y-116469243D01*
X116059389Y-116417827D01*
X116087426Y-116348551D01*
X116121940Y-116268488D01*
X116154292Y-116197926D01*
X116161706Y-116182087D01*
X116182509Y-116132491D01*
X116194973Y-116094236D01*
X116196617Y-116074554D01*
X116195769Y-116073160D01*
X116182302Y-116052618D01*
X116155604Y-116012714D01*
X116118293Y-115957338D01*
X116072988Y-115890375D01*
X116022306Y-115815715D01*
X115965199Y-115730890D01*
X115922361Y-115664998D01*
X115893214Y-115616676D01*
X115876071Y-115582931D01*
X115869249Y-115560770D01*
X115871060Y-115547200D01*
X115871669Y-115546182D01*
X115888051Y-115526408D01*
X115921449Y-115490373D01*
X115968425Y-115441649D01*
X116025540Y-115383810D01*
X116089357Y-115320425D01*
X116155556Y-115256103D01*
X116220402Y-115195645D01*
X116268053Y-115154853D01*
X116299744Y-115132682D01*
X116316712Y-115128087D01*
X116318929Y-115129119D01*
X116342278Y-115143035D01*
X116384666Y-115170228D01*
X116442123Y-115208087D01*
X116510677Y-115254001D01*
X116586355Y-115305358D01*
X116833052Y-115473824D01*
X116944460Y-115423260D01*
X116947697Y-115421795D01*
X117016097Y-115392163D01*
X117088661Y-115362691D01*
X117150211Y-115339556D01*
X117150483Y-115339460D01*
X117199349Y-115321565D01*
X117236966Y-115306451D01*
X117255211Y-115297382D01*
X117255506Y-115297053D01*
X117261700Y-115278480D01*
X117271893Y-115236243D01*
X117285102Y-115174894D01*
X117300344Y-115098987D01*
X117316635Y-115013073D01*
X117317203Y-115009994D01*
X117333467Y-114922326D01*
X117348362Y-114842939D01*
X117360925Y-114776899D01*
X117370192Y-114729277D01*
X117375198Y-114705141D01*
X117375518Y-114703803D01*
X117378814Y-114693471D01*
X117385492Y-114685704D01*
X117399216Y-114680138D01*
X117423649Y-114676405D01*
X117462456Y-114674140D01*
X117519300Y-114672976D01*
X117597844Y-114672546D01*
X117701754Y-114672484D01*
X117714810Y-114672484D01*
X117815687Y-114672569D01*
G37*
D14*
%TO.C,R2*%
X110110000Y-107087641D02*
X110110000Y-106780359D01*
X110870000Y-107087641D02*
X110870000Y-106780359D01*
%TO.C,JP3*%
X114877644Y-99705560D02*
X114877644Y-99398278D01*
X115637644Y-99705560D02*
X115637644Y-99398278D01*
%TO.C,JP1*%
X125604000Y-98197641D02*
X125604000Y-97890359D01*
X126364000Y-98197641D02*
X126364000Y-97890359D01*
%TO.C,JP2*%
X118492000Y-112167641D02*
X118492000Y-111860359D01*
X119252000Y-112167641D02*
X119252000Y-111860359D01*
%TO.C,TP11*%
X141670000Y-103886000D02*
G75*
G02*
X140270000Y-103886000I-700000J0D01*
G01*
X140270000Y-103886000D02*
G75*
G02*
X141670000Y-103886000I700000J0D01*
G01*
%TD*%
%LPC*%
D16*
%TO.C,J1*%
X135032000Y-115632000D03*
X140812000Y-115632000D03*
%TD*%
D17*
%TO.C,H4*%
X148063949Y-117583949D03*
%TD*%
%TO.C,H3*%
X105936051Y-117583949D03*
%TD*%
%TO.C,H2*%
X148063948Y-81280000D03*
%TD*%
D18*
%TO.C,TP1*%
X129286000Y-119126000D03*
%TD*%
D17*
%TO.C,H1*%
X105936052Y-81280000D03*
%TD*%
D19*
%TO.C,TP9*%
X145034000Y-103886000D03*
%TD*%
%TO.C,TP10*%
X143002000Y-103886000D03*
%TD*%
%TO.C,TP12*%
X142240000Y-94996000D03*
%TD*%
D20*
%TO.C,R19*%
X120144000Y-106426000D03*
X119124000Y-106426000D03*
%TD*%
D21*
%TO.C,R1*%
X111506000Y-107440000D03*
X111506000Y-108460000D03*
%TD*%
D22*
%TO.C,R18*%
X119124000Y-107442000D03*
X120144000Y-107442000D03*
%TD*%
D23*
%TO.C,R2*%
X110490000Y-107444000D03*
X110490000Y-106424000D03*
%TD*%
%TO.C,JP3*%
X115257644Y-100061919D03*
X115257644Y-99041919D03*
%TD*%
%TO.C,JP1*%
X125984000Y-98554000D03*
X125984000Y-97534000D03*
%TD*%
%TO.C,JP2*%
X118872000Y-112524000D03*
X118872000Y-111504000D03*
%TD*%
D19*
%TO.C,TP11*%
X140970000Y-103886000D03*
%TD*%
%LPD*%
M02*
